<svg width="334" height="82" viewBox="0 0 334 82" fill="none" xmlns="http://www.w3.org/2000/svg">
<path d="M109.993 58.7219C106.015 58.7219 102.534 57.9037 99.55 56.2675C96.5983 54.5992 94.3044 52.2571 92.6681 49.2412C91.0319 46.1933 90.2138 42.6481 90.2138 38.6056C90.2138 34.499 91.0319 30.9377 92.6681 27.9219C94.3044 24.906 96.5983 22.58 99.55 20.9437C102.534 19.2754 106.015 18.4412 109.993 18.4412C113.201 18.4412 116.041 19.0027 118.511 20.1256C121.014 21.2165 123.051 22.7885 124.623 24.8419C126.227 26.8952 127.238 29.3496 127.655 32.205H119.185C118.832 30.1196 117.838 28.5154 116.201 27.3925C114.565 26.2375 112.496 25.66 109.993 25.66C106.4 25.66 103.56 26.799 101.475 29.0769C99.3896 31.3548 98.3469 34.531 98.3469 38.6056C98.3469 42.6481 99.3896 45.8244 101.475 48.1344C103.56 50.4123 106.4 51.5512 109.993 51.5512C112.496 51.5512 114.565 50.9737 116.201 49.8188C117.838 48.6638 118.832 47.0435 119.185 44.9581H127.655C127.238 47.8135 126.227 50.284 124.623 52.3694C123.051 54.4227 121.014 55.9948 118.511 57.0856C116.041 58.1765 113.201 58.7219 109.993 58.7219ZM140.836 58.5294C137.435 58.5294 134.772 57.7112 132.847 56.075C130.922 54.4067 129.96 52.225 129.96 49.53C129.96 46.6746 130.954 44.4769 132.943 42.9369C134.933 41.3969 137.788 40.6269 141.51 40.6269H149.787V39.52C149.787 36.4079 147.926 34.8519 144.205 34.8519C140.964 34.8519 139.007 35.9748 138.333 38.2206H130.393C131.035 35.0444 132.526 32.6381 134.868 31.0019C137.211 29.3656 140.323 28.5475 144.205 28.5475C148.504 28.5475 151.776 29.51 154.022 31.435C156.3 33.36 157.439 36.1673 157.439 39.8569V50.1075H161.193V58H153.108V53.2837H151.087C150.092 54.9521 148.761 56.2515 147.092 57.1819C145.424 58.0802 143.338 58.5294 140.836 58.5294ZM142.039 52.4656C143.547 52.4656 144.878 52.1929 146.033 51.6475C147.188 51.1021 148.103 50.3802 148.777 49.4819C149.45 48.5515 149.787 47.5087 149.787 46.3537V45.9206H141.895C139.007 45.9206 137.563 46.9954 137.563 49.145C137.563 50.2037 137.965 51.0219 138.767 51.5994C139.569 52.1769 140.66 52.4656 142.039 52.4656ZM177.9 58.5775C174.948 58.5775 172.43 57.9519 170.344 56.7006C168.291 55.4494 166.735 53.7008 165.676 51.455C164.617 49.1771 164.088 46.5463 164.088 43.5625C164.088 40.5467 164.601 37.9158 165.628 35.67C166.655 33.3921 168.146 31.6435 170.104 30.4244C172.093 29.1731 174.467 28.5475 177.226 28.5475C179.344 28.5475 181.156 28.9485 182.664 29.7506C184.204 30.5206 185.391 31.6275 186.225 33.0712H186.418V17.575H194.407V50.1075H198.353V58H190.268V53.2837H188.247C187.22 54.9521 185.84 56.2515 184.108 57.1819C182.407 58.1123 180.338 58.5775 177.9 58.5775ZM179.392 51.6475C181.541 51.6475 183.242 51.054 184.493 49.8669C185.776 48.6477 186.418 46.9794 186.418 44.8619V42.2631C186.418 40.1456 185.776 38.4933 184.493 37.3062C183.242 36.0871 181.541 35.4775 179.392 35.4775C176.953 35.4775 175.125 36.1994 173.905 37.6431C172.686 39.0869 172.077 41.06 172.077 43.5625C172.077 46.065 172.686 48.0381 173.905 49.4819C175.125 50.9256 176.953 51.6475 179.392 51.6475ZM216.605 58.5775C213.493 58.5775 210.782 57.9679 208.472 56.7488C206.162 55.4975 204.381 53.749 203.13 51.5031C201.879 49.2252 201.253 46.5463 201.253 43.4663C201.253 40.3862 201.863 37.7394 203.082 35.5256C204.301 33.2798 206.034 31.5633 208.279 30.3762C210.557 29.1571 213.236 28.5475 216.316 28.5475C219.332 28.5475 221.915 29.125 224.064 30.28C226.246 31.435 227.914 33.0873 229.069 35.2369C230.224 37.3865 230.802 39.9531 230.802 42.9369V45.6319H208.905C209.226 47.7815 210.044 49.4177 211.359 50.5406C212.675 51.6635 214.407 52.225 216.557 52.225C218.257 52.225 219.605 51.9362 220.599 51.3587C221.594 50.7812 222.3 49.899 222.717 48.7119H230.706C230.064 51.7919 228.508 54.2142 226.038 55.9787C223.567 57.7112 220.423 58.5775 216.605 58.5775ZM209.098 40.3381H223.15C222.893 38.5094 222.188 37.1458 221.033 36.2475C219.878 35.3171 218.321 34.8519 216.364 34.8519C214.407 34.8519 212.803 35.3171 211.552 36.2475C210.333 37.1779 209.515 38.5415 209.098 40.3381ZM237.621 58V37.0175H233.674V29.125H241.759V33.8412H243.781C244.904 32.1729 246.315 30.8896 248.016 29.9912C249.716 29.0608 251.834 28.5956 254.368 28.5956C258.379 28.5956 261.475 29.7025 263.656 31.9162C265.87 34.0979 266.977 37.0335 266.977 40.7231V58H258.988V42.215C258.988 40.0975 258.411 38.4933 257.256 37.4025C256.133 36.2796 254.48 35.7181 252.299 35.7181C250.117 35.7181 248.449 36.2796 247.294 37.4025C246.171 38.4933 245.609 40.0975 245.609 42.215V58H237.621ZM286.634 58.5775C283.619 58.5775 280.972 57.9679 278.694 56.7488C276.448 55.4975 274.683 53.749 273.4 51.5031C272.149 49.2573 271.523 46.6104 271.523 43.5625C271.523 40.5146 272.149 37.8677 273.4 35.6219C274.651 33.376 276.416 31.6435 278.694 30.4244C280.972 29.1731 283.619 28.5475 286.634 28.5475C290.452 28.5475 293.597 29.51 296.067 31.435C298.537 33.36 300.093 36.0069 300.735 39.3756H292.698C292.281 38.1244 291.559 37.1619 290.533 36.4881C289.506 35.8144 288.207 35.4775 286.634 35.4775C284.485 35.4775 282.752 36.1833 281.437 37.595C280.154 39.0067 279.512 40.9958 279.512 43.5625C279.512 46.1292 280.17 48.1183 281.485 49.53C282.8 50.9417 284.517 51.6475 286.634 51.6475C290.035 51.6475 292.105 50.2037 292.843 47.3162H300.879C300.302 50.8454 298.778 53.6046 296.308 55.5937C293.837 57.5829 290.613 58.5775 286.634 58.5775ZM318.175 58.5775C315.063 58.5775 312.352 57.9679 310.042 56.7488C307.732 55.4975 305.951 53.749 304.7 51.5031C303.449 49.2252 302.823 46.5463 302.823 43.4663C302.823 40.3862 303.433 37.7394 304.652 35.5256C305.871 33.2798 307.604 31.5633 309.849 30.3762C312.127 29.1571 314.806 28.5475 317.886 28.5475C320.902 28.5475 323.485 29.125 325.634 30.28C327.816 31.435 329.484 33.0873 330.639 35.2369C331.794 37.3865 332.372 39.9531 332.372 42.9369V45.6319H310.475C310.796 47.7815 311.614 49.4177 312.929 50.5406C314.245 51.6635 315.977 52.225 318.127 52.225C319.827 52.225 321.175 51.9362 322.169 51.3587C323.164 50.7812 323.87 49.899 324.287 48.7119H332.276C331.634 51.7919 330.078 54.2142 327.608 55.9787C325.137 57.7112 321.993 58.5775 318.175 58.5775ZM310.668 40.3381H324.72C324.463 38.5094 323.758 37.1458 322.603 36.2475C321.448 35.3171 319.892 34.8519 317.934 34.8519C315.977 34.8519 314.373 35.3171 313.122 36.2475C311.903 37.1779 311.085 38.5415 310.668 40.3381Z" fill="#A7C957"/>
<path d="M5.62176 39.4491C8.21466 34.3068 13.814 32.0354 19.0643 32.9121C18.2149 27.7215 20.4824 22.2055 25.6307 19.6338L26.4016 19.2821L26.4602 19.2585L26.4953 19.2459C26.5081 19.2403 26.5257 19.2311 26.5654 19.2132C26.5991 19.1981 26.6571 19.172 26.7173 19.1462C26.7574 19.1292 26.8091 19.1098 26.8651 19.088C32.6383 16.7381 38.6839 19.0364 41.9893 23.5447C45.2415 19.0102 51.2939 16.7041 57.123 19.0813L57.1782 19.1037L57.6866 19.3402C63.3601 21.7917 65.9292 27.6325 65.049 33.0714C70.5149 32.2135 76.361 34.7835 78.8074 40.463L78.8316 40.5214L78.8445 40.5563C78.8501 40.5693 78.8577 40.5885 78.8764 40.6295C78.8919 40.663 78.9186 40.7207 78.945 40.7809C78.9628 40.8215 78.9804 40.8738 79.0028 40.931L79.0073 40.9294C79.0203 40.9603 79.0318 40.992 79.0444 41.0228L79.0399 41.0244C82.4943 49.4728 75.9308 58.4113 66.9868 58.3975L50.7511 58.3498L50.7333 58.3487C47.4664 58.3138 45.2098 55.7702 44.7731 53.0522C43.8344 52.8966 44.7731 53.0522 42.3206 53.1068C38.8871 53.1833 40.3453 53.0257 39.3776 53.1723C38.9456 55.8832 36.7682 58.2943 33.4991 58.2931L17.2635 58.2456L16.7124 58.2428L16.6342 58.2065C7.97801 57.7723 1.67999 48.9696 5.04661 40.693L5.06855 40.638L5.62176 39.4491ZM49.8548 51.6907C49.3439 52.391 49.823 53.3958 50.7334 53.419L67.4885 53.4511C72.885 53.1215 76.4581 47.6469 74.4285 42.7898L74.4094 42.7446L74.4013 42.7226C74.3956 42.7099 74.3866 42.6931 74.3678 42.6528C74.3524 42.6193 74.3272 42.559 74.3007 42.4984C74.2858 42.4643 74.2695 42.423 74.2511 42.3773C72.1357 37.4669 65.4055 36.2164 61.4174 40.1683L49.9736 51.5537L49.8548 51.6907ZM55.2128 23.6189C50.169 21.606 44.518 25.4678 44.5241 31.0934L44.5894 47.2978L44.5918 47.3168C44.5917 47.3412 44.587 47.3665 44.5867 47.3905C44.6993 48.2765 45.7914 48.6893 46.4645 48.0252L57.9142 36.6351L57.9169 36.6293C61.7711 32.8074 60.702 26.3561 56.1391 24.0499L55.2128 23.6189ZM28.314 23.8441C23.4918 25.9046 22.2716 32.4713 26.106 36.4749C26.1342 36.5025 26.1649 36.5276 26.1929 36.5554L37.7569 48.026C38.4391 48.695 39.5285 48.2805 39.6192 47.3811C39.618 47.336 39.6169 47.291 39.6167 47.2456L39.6194 47.2398L39.5477 30.7023L39.5467 30.6258C39.1769 25.2593 33.6447 21.6688 28.7731 23.6517L28.7278 23.6703L28.7058 23.6783C28.6929 23.6838 28.6732 23.6913 28.6327 23.7096C28.599 23.7247 28.5409 23.7508 28.4808 23.7766C28.4359 23.7958 28.3785 23.8192 28.314 23.8441ZM9.82575 42.1919L9.63026 42.612C7.62962 47.6143 11.5531 53.2659 17.2157 53.3007L17.7639 53.3021L17.7969 53.3175L33.4665 53.3627C34.4551 53.3629 34.946 52.2015 34.2379 51.4924L22.7518 40.0905L22.7441 40.0833C22.7146 40.0539 22.6875 40.0223 22.6583 39.9926C18.6575 36.0509 11.9105 37.2687 9.84077 42.1517L9.82575 42.1919Z" fill="#A7C957"/>
</svg>
