<svg xmlns="http://www.w3.org/2000/svg" width="78" height="43" viewBox="0 0 78 43" fill="none"><metadata><rdf:RDF xmlns:rdf="http://www.w3.org/1999/02/22-rdf-syntax-ns#" xmlns:dc="http://purl.org/dc/elements/1.1/"><rdf:Description><dc:creator>RealFaviconGenerator</dc:creator><dc:source>https://realfavicongenerator.net</dc:source></rdf:Description></rdf:RDF></metadata><path d="M2.50201 22.3187C5.09491 17.1764 10.6943 14.9051 15.9445 15.7817C15.0952 10.5911 17.3627 5.07508 22.5109 2.50343L23.2819 2.15172L23.3404 2.1281L23.3755 2.11549C23.3883 2.10993 23.4059 2.10069 23.4456 2.08279C23.4794 2.06768 23.5374 2.0416 23.5976 2.01577C23.6376 1.99878 23.6893 1.97941 23.7454 1.9576C29.5185 -0.392314 35.5642 1.90601 38.8695 6.41428C42.1217 1.87982 48.1741 -0.426255 54.0032 1.95095L54.0584 1.97328L54.5668 2.20985C60.2404 4.6613 62.8095 10.5021 61.9293 15.941C67.3951 15.0832 73.2413 17.6531 75.6877 23.3326L75.7118 23.391L75.7248 23.426C75.7304 23.4389 75.7379 23.4581 75.7567 23.4991C75.7722 23.5326 75.7989 23.5904 75.8252 23.6505C75.843 23.6911 75.8606 23.7434 75.8831 23.8007L75.8876 23.799C75.9006 23.8299 75.912 23.8616 75.9247 23.8924L75.9202 23.894C79.3746 32.3424 72.811 41.2809 63.8671 41.2672L47.6314 41.2194L47.6135 41.2183C44.3466 41.1834 42.0901 38.6398 41.6533 35.9218C40.7146 35.7662 41.6533 35.9218 39.2008 35.9764C35.7674 36.0529 37.2255 35.8954 36.2579 36.042C35.8258 38.7528 33.6484 41.1639 30.3793 41.1628L14.1438 41.1152L13.5926 41.1125L13.5144 41.0761C4.85826 40.6419 -1.43976 31.8392 1.92686 23.5626L1.9488 23.5076L2.50201 22.3187ZM46.7351 34.5603C46.2241 35.2606 46.7032 36.2654 47.6136 36.2886L64.3688 36.3207C69.7653 35.9911 73.3384 30.5165 71.3087 25.6594L71.2897 25.6142L71.2816 25.5922C71.2758 25.5795 71.2668 25.5627 71.2481 25.5224C71.2326 25.4889 71.2075 25.4286 71.181 25.368C71.1661 25.334 71.1498 25.2926 71.1313 25.2469C69.016 20.3365 62.2857 19.086 58.2977 23.0379L46.8539 34.4233L46.7351 34.5603ZM52.093 6.48847C47.0493 4.47559 41.3983 8.3374 41.4044 13.963L41.4696 30.1674L41.472 30.1864C41.4719 30.2108 41.4673 30.2361 41.467 30.2601C41.5795 31.1462 42.6716 31.5589 43.3448 30.8948L54.7945 19.5047L54.7972 19.4989C58.6513 15.677 57.5823 9.22571 53.0193 6.91949L52.093 6.48847ZM25.1942 6.71372C20.3721 8.77418 19.1518 15.3409 22.9863 19.3445C23.0144 19.3721 23.0452 19.3972 23.0732 19.425L34.6372 30.8956C35.3194 31.5646 36.4087 31.1501 36.4994 30.2507C36.4983 30.2057 36.4972 30.1606 36.4969 30.1152L36.4996 30.1094L36.4279 13.5719L36.427 13.4954C36.0571 8.12893 30.525 4.5384 25.6533 6.52126L25.608 6.53991L25.5861 6.54787C25.5732 6.55339 25.5535 6.56092 25.5129 6.57918C25.4793 6.59433 25.4212 6.62037 25.361 6.64621C25.3162 6.66542 25.2588 6.68881 25.1942 6.71372ZM6.706 25.0615L6.51051 25.4816C4.50987 30.4839 8.43339 36.1356 14.096 36.1704L14.6441 36.1717L14.6772 36.1871L30.3468 36.2323C31.3353 36.2325 31.8263 35.0711 31.1182 34.362L19.632 22.9601L19.6244 22.9529C19.5949 22.9235 19.5677 22.8919 19.5385 22.8623C15.5378 18.9205 8.79071 20.1383 6.72102 25.0213L6.706 25.0615Z" fill="#A7C957" stroke="#A7C957" stroke-width="2"></path><style>@media (prefers-color-scheme: light) { :root { filter: none; } }
@media (prefers-color-scheme: dark) { :root { filter: none; } }
</style></svg>