<svg width="1200" height="1200" viewBox="0 0 1200 1200" fill="none" xmlns="http://www.w3.org/2000/svg">
<path d="M218.78 549.99C211.88 550.68 204.58 565.81 201.88 571.79C188.36 601.78 161.43 698.43 160.08 729.99C157.93 780.42 204.77 773.16 240.55 781.19C262.46 786.1 306.57 804.21 327.43 793.56C334.25 790.08 337.15 773.85 339.01 766.25C343.91 746.22 345.64 725.22 350.04 705.06C357.97 668.77 370.08 632.1 372.97 595.13L218.77 549.99H218.78Z" fill="#A7C957"/>
<path d="M119.39 843.95C117.14 851.04 116.78 846.89 111.98 849.51C113.17 848.71 109.86 845.07 119.39 843.95Z" fill="#FEFEFE"/>
<path d="M732.34 353.6C736.82 353.68 741.24 354.74 745.55 355.98C761.27 360.09 774.38 366.82 785.15 378.74C792.59 386.33 808.1 402.32 817.08 411.5C822.59 416.78 816.68 417.1 811.97 418.6C805.33 420.52 799.37 424.02 794.28 417.51C781.74 401.31 760.65 380.91 740.08 379.86C735.59 379.68 730.57 380.5 727.35 383.71C719.38 392.42 724.27 412.14 726.57 422.49C728.89 431.69 733.54 440.4 739 448.01C757.13 469.3 772.68 499.49 789.59 523.89C796.36 532.88 804.59 541.7 811.54 550.87C816.45 556.55 822.08 560.66 826.99 566.53C835.94 576.87 847.77 588.84 861.2 592.44C878.66 596.36 886.82 584.79 883.16 566.83C882.4 562.49 880.43 557.73 880.08 554C879.4 544.18 890.25 547.15 893.71 553.34C906.76 577.54 906.92 610.24 883.56 627.84C879.74 630.91 874.96 635.22 879.47 639.56C880.92 641.14 883.1 642.85 884.84 644.39C906.54 662.53 901.82 687.91 884.03 704.65C862.47 724.59 829.33 740.18 799.66 738.75C778.84 737.31 768.22 715.25 762.98 696.88C760.99 689.25 757.79 686.21 750.06 686.67C725.17 688.76 700.58 677.03 684.31 658.03C673.49 645.77 665.49 631.44 655.26 618.71C634.18 593.63 609.53 570.83 595.28 540.72C591.36 532.1 586.69 521.64 586.04 512.34C585.89 508.53 586.88 505.26 588.72 500.75C592.1 492.48 598.19 480.08 602.61 471.6C611.18 454.87 623.25 441.25 635.17 427.21C641.56 420.23 647.23 412.73 653.59 405.77C657.56 401.48 662.45 396.92 666.75 392.95C684.56 377.6 707.57 354.19 732.13 353.58H732.32L732.34 353.6ZM819.69 691.05C823.36 693.19 826.53 691.91 831.12 690.27C838.94 686.79 851.27 681.5 850.93 672.15C850.77 663.93 844.73 653.91 835.43 655.42C827 656.59 811.81 661.89 809.21 669.69C807.18 675.47 810.82 681.1 814.3 685.51C816.06 687.8 817.74 689.8 819.57 690.97L819.7 691.05H819.69Z" fill="#CED4DA"/>
<path d="M479.56 378.51L579.18 251.7C567.73 235.18 556.49 220.02 548.38 201.41C546.14 196.28 537.28 176.66 539.75 172.94L545.34 172.97L617.39 223.12C624.98 209.27 632.4 194.86 641.1 181.65C644.35 176.72 655.47 158.73 660.19 158.13L687.11 228.53L761.18 202.61C761.7 205.79 760.53 208.01 759.06 210.66C752.52 222.52 707.69 275.55 707.53 281.28L744.51 356.29C740.26 354.89 734.41 354.09 729.69 352.59C705.81 344.98 681.81 335.68 657.44 330.37C655.28 353.63 656.49 377.57 653.73 400.74C653.53 402.4 652.08 409.06 651.49 409.68C650.57 410.63 648.5 409.74 648.17 410C630.71 395.3 619.14 375.57 606.6 356.89C569.32 365.16 531.77 372.27 494.23 379.36C491.23 379.93 488.4 381.96 486.97 382.23C477.29 384.04 479.96 378.86 479.56 378.53V378.51Z" fill="#BC4749"/>
<path d="M606.66 885.83C625.37 873.78 642.88 860.46 656.91 843.24C662.98 835.77 668.43 827.32 674.05 819.37C679.87 811.28 686.64 801.91 697.22 808.23C703 811.27 709.45 817.73 712.55 823.14C716.77 829.76 713.81 836.66 709.7 842.48C697.54 859.8 676.32 884.33 660.79 900.55C654.86 906.65 648.17 912.46 640.96 917.95C603.4 945.84 551.34 968.82 504.68 961.11C492.88 958.92 479.39 955.06 477.06 941.96C475.9 936.33 475.63 929.26 477.01 924.29C479.4 914.28 489.84 915.25 498.09 916.2C535.64 920.14 574.82 906.45 606.48 885.93L606.65 885.82L606.66 885.83Z" fill="#BC4749"/>
<path d="M117.53 786.55C120.13 789.76 130.31 810.79 128.64 812.46C123.21 811.54 118.83 808.19 113.43 806.39C106.9 804.21 94.9 802.8 89.82 800.28C84.98 797.87 72.09 770.99 71.2 765.25C70.51 760.78 82.02 761.97 85.14 762.37C88.75 762.82 88.52 765.45 89.75 766.19C94.55 769.09 114.8 783.16 117.54 786.56L117.53 786.55Z" fill="#6A994E"/>
<path d="M52.69 805.06C53.92 806.28 50.69 838.33 49.1 839.44C45.27 842.1 20.73 837.77 18.39 834.72C15.37 830.77 14.63 813.08 17.93 809.24C20.69 806.03 46.49 805.96 52.69 805.07V805.06Z" fill="#6A994E"/>
<path d="M104.55 823.62C104.75 823.86 105.24 827.51 103.64 827.29C86.5701 825.67 70.6301 832.27 54.5601 836.53L59.3501 804.81C61.4601 803.26 81.9801 804.62 84.7401 805.43C89.1501 806.74 96.8201 817.78 100.12 821.62C101.57 823.3 104.36 823.38 104.55 823.61V823.62Z" fill="#6A994E"/>
<path d="M118.76 843.01C118.76 843.01 118.73 843.03 118.71 843.04C117.96 843.48 117.08 843.62 116.24 843.84C114.08 844.38 112.09 845.42 110.11 846.45C106.07 848.55 102.04 850.65 98 852.75C83.9 860.09 69.34 844.41 54.55 845.8C54.35 844.14 54.27 843.42 55.44 842.08C60.51 836.25 83.96 836.19 91.14 831.3C97.5 831.81 103.91 831.11 110.23 832.24C112.94 832.73 116.04 833.49 118.05 835.52C119.7 837.18 121.36 841.42 118.77 843.01H118.76Z" fill="#6A994E"/>
<path d="M119.39 843.95C122.73 843.56 127.06 842.4 126.86 846.76C126.71 850 121.57 862.17 119.4 863.53C117.97 864.42 99.7699 859.46 99.0099 858.75C95.6799 855.66 100.22 855.61 101.63 854.9C105.26 853.07 108.43 851.44 111.98 849.51C116.78 846.9 117.14 851.05 119.39 843.95Z" fill="#6A994E"/>
<path d="M58.24 764.34L54.33 799.31L17.49 805.05C23.53 786.61 36.21 764.35 58.24 764.33V764.34Z" fill="#6A994E"/>
<path d="M115.68 868.05C102.14 886.84 77.1399 890.94 56.3999 882.82C54.9099 880.94 89.8499 861.27 92.8299 861.03C97.4499 860.65 109.64 868.55 115.68 868.05Z" fill="#6A994E"/>
<path d="M87.88 858.79L50.85 879.14L54.56 849.49L87.88 858.79Z" fill="#6A994E"/>
<path d="M65.48 762.64C66.59 763.53 71.38 780.94 72.72 784.13C73.81 786.73 81.46 798.64 80.47 799.51H58.25C59.89 789.99 60.62 780.12 61.26 770.49C61.4 768.34 59.44 763.12 60.1 762.49C60.29 762.3 64.97 762.24 65.47 762.64H65.48Z" fill="#6A994E"/>
<path d="M48.99 847.66C46.88 855.61 48.59 862.73 47.09 870.78C46.6 873.4 48.82 876.21 44.33 875.46C39.32 874.62 24.41 856.77 26.82 853.3C27.76 851.95 45.42 843.61 48.99 847.67V847.66Z" fill="#6A994E"/>
<path d="M130.5 829.13C114.33 830.82 103.85 818.57 95.3 806.93C106.82 810.51 133.33 813.08 130.5 829.13Z" fill="#6A994E"/>
<path d="M1075.44 471.76L1077.29 475.46C1066.47 474.3 1046.7 474.62 1035.62 475.48C1029.58 475.95 1005.75 482.67 1003.18 479.14C1003.01 471.19 1012.4 473.98 1017.99 473.6C1020.44 473.44 1022.96 473.8 1025.4 473.6C1042.81 472.2 1057.88 469.51 1075.43 471.75L1075.44 471.76Z" fill="#BC4749"/>
<path d="M36 843.97L23.06 851.36L19.34 840.27L36 843.97Z" fill="#6A994E"/>
<path d="M29.73 584.26C30.25 584.12 30.99 582.75 31.87 580.34C33.31 576.37 34.65 571.17 35.86 566.81C39.66 552.77 45.18 539.14 51.58 526.09C54.34 520.3 57.86 513.67 60.07 507.94C61.78 503.32 60.29 504.03 57.68 507.36C44.11 526.45 33.66 549.59 29.64 572.51C29.37 574.99 27.97 583.55 29.7 584.27H29.73V584.26Z" fill="#386641"/>
<path d="M138.59 437.38C138.62 435.87 132.7 438.3 129.63 440.05C116.68 447.29 100.83 457.9 92.2699 470.24C88.3799 477.82 107.83 461.77 109.69 460.78C117.5 454.85 136.32 444 138.59 437.42V437.37V437.38Z" fill="#386641"/>
<path d="M26.44 616.41C25.9 616.85 25.37 618.13 24.9 620.07C23.84 624.62 23.42 630.32 23.28 635.29C23.02 651.32 23.5 667.76 25.2 683.56C26.09 691.47 27.2 699.79 29.99 707.15C34 716.57 29 686.31 29.44 684.71C28.22 676.65 32.65 615.3 26.47 616.37L26.43 616.4L26.44 616.41Z" fill="#386641"/>
<path d="M35.25 738.49C36.23 741.61 42.09 756.87 44.87 756.37C45.6 754.46 44.53 751.87 44.15 749.75C42.77 744.02 39.62 734.86 37.2 730.06C36.62 728.87 33.77 723.31 32.93 726.57C32.6 730.07 33.87 733.99 35.16 738.2L35.25 738.48V738.49Z" fill="#386641"/>
<path d="M523.3 577.31L521.46 576.37L523.3 573.61C523.26 574.49 523.48 575.05 523.3 577.31Z" fill="#386641"/>
<path d="M671.31 645.02C667.61 631.27 658.5 619.46 645.2 613.81C612.5 600.89 571.84 593.16 535.91 585.31C514.55 580.86 530.86 566.26 517.79 556.11C512.44 552.04 505.61 549.76 499.27 547.42C491.07 544.56 482.97 542.87 474.54 541.02C439.03 532.97 403.5 524.84 368.02 516.56C365.39 516.06 362.9 515.79 360.6 516.1C347.84 518.57 348.23 534.65 330.96 529.26C308.28 523.08 286.52 513.2 263.76 506.96C251.06 503.81 239.47 499.67 227 495.61C213.84 491.55 195.84 486.98 183.57 485.99C171.84 484.81 160.95 488.91 152.7 497.25C146.95 503.46 143.6 511.33 140.52 519.09C131.15 543.22 126.59 569.05 119.31 594.09C106.62 642.69 87.03 697.46 85.99 747.08C86.34 763.2 91.74 768.15 104.74 777.07C112.03 782.62 119.39 787.82 128.07 790.86C142.97 796.57 160.76 804.48 177.05 807.61C193.74 810.65 210.83 814.38 227.7 817.31C242.05 820.05 255.48 824.22 269.9 827.68C286.46 831.79 303.32 835.7 319.98 839.7C388.66 855.55 455.19 880.29 524.22 896.5C536.24 899.19 548.08 902.17 560.37 902.99C574.78 903.92 587.83 896.93 599.89 889.92C604.48 887.15 608.84 883.8 612.15 879.56C618.16 871.91 620.14 862.09 622.41 852.88C624.02 845.69 625.75 839.39 627.59 832.64C637.5 796.15 662.38 708.81 672.58 663.12C673.84 656.92 673.25 651.95 671.36 645.23L671.3 645.04L671.31 645.02ZM621.94 838.44C619.54 845.46 616.23 854.42 613.33 861.74C610.26 869.64 606.95 877.58 600.32 882.43C586.3 893.35 570.47 898.2 552.84 894.98C528.4 891.47 500.11 884.97 475.47 878.58C439.87 869.11 405.35 854.83 369.88 844.96C335.33 835.81 301.26 828.8 265.24 820.52C243.54 815.63 225.42 811.64 204.92 806.88C176.22 800.17 140.23 794.78 112.89 778.43C98.53 770.44 87.66 754.3 90.59 737.74C101.26 677.49 133.55 560.6 140.86 530.65C146.79 511.58 158.59 488.71 184.44 491.72C209.12 494.05 232.22 505.3 255.84 512C294.86 523.88 333.8 536.08 371.9 550.09C383.02 554.04 395.23 557.61 406.42 560.25C466.08 574.8 548.08 595.29 608.9 609.17C619.13 611.42 629.17 612.49 639.16 616.68C653.48 622.39 664.56 633.25 667.35 648.14C668.11 651.91 668.32 655.68 667.69 659.28C661.76 694.07 630.24 804.44 621.99 838.31L621.95 838.43L621.94 838.44Z" fill="#386641"/>
<path d="M387.85 660.53C383.2 668.76 382.39 680.64 389.47 687.56C392.55 690.57 398.71 691.73 402.45 689.38C412.69 682.93 419.95 665.42 413.92 654.07C407.71 642.39 396.58 649.56 390.38 656.88C389.45 657.98 388.6 659.21 387.85 660.53Z" fill="#386641"/>
<path d="M369.52 736.55C365.86 743.14 363.61 754.24 367.67 760.62C374.41 771.21 385.26 760.52 390.97 754.65C395.34 750.16 394.57 743.43 393.96 737.42C393.55 733.42 392.34 728.75 388.86 726.29C381.18 720.86 372.86 730.55 369.52 736.54V736.55Z" fill="#386641"/>
<path d="M1169.84 533.89C1162.09 527.85 1149.22 524.2 1140.3 519.88C1154.41 509.87 1147.03 500.18 1135.59 492.2C1119.77 481.15 1094.52 474.2 1075.44 471.76L1077.29 475.46C1089.61 476.78 1115.67 485.69 1126.45 492.07C1132.51 495.66 1143.7 503.33 1141.85 511.22C1139.37 521.77 1113.74 512.97 1105.98 512.53C1096.67 512.01 1075.33 511.02 1067.11 512.51C1054.81 514.75 1068.1 520.8 1074.67 521.6C1107.22 525.57 1139.49 514.7 1167.19 538.38C1175 545.05 1191.31 573.47 1181.58 581.11C1164.23 594.75 1118.95 585.76 1097.68 586.57C1097.29 591.34 1097.36 589.67 1100.46 590.21C1109.69 591.81 1132.9 596.64 1138.57 604.02C1143.99 611.08 1135.22 612.92 1128.8 614.91C1109.01 621.04 1054.16 613.76 1034.16 606.53C1030.92 605.36 1010.59 597.08 1014.3 592.15C1029.34 591.85 1028.9 576.87 1014.19 581.83C1010.38 583.11 1008.26 587.89 1004.56 587.97C999.55 588.08 982.64 585.33 976.79 584.25C966.42 582.33 934.75 576.12 938.23 561.84C939.17 557.96 963.63 557.22 962.41 547.7C936.35 548.48 913.6 555.32 888.31 543.96C890.91 537.51 900.16 533.25 896.65 525.51C891.48 514.11 873.39 519.96 868.84 528.83C867.63 531.19 867.22 533.81 867.54 536.44C867.77 538.28 867.89 539.39 869.32 540.65C870.48 541.68 871.82 542.56 873.29 543.07C874.21 543.39 875.97 543.26 876.49 544.3C876.6 544.52 876.54 544.78 876.46 545.01C875.87 546.87 873.51 547.16 871.88 547.88C869.96 548.73 868.04 549.6 866.12 550.46C862.65 552 859.08 553.75 855.36 554.59C848.51 556.13 841.49 556.74 834.48 556.95C830.89 557.06 827.31 557.06 823.72 557.04C821.01 557.02 817.48 556.4 814.91 557.07C815.17 562.31 826.56 560.84 829.71 560.78C835.13 560.68 840.54 560.34 845.93 559.71C855.91 558.54 866.57 556.6 875.33 551.41C876.64 550.63 877.81 548.77 879.04 547.71C883.2 548.15 886.17 548.76 890.16 549.56C908.86 553.3 926.19 558.49 945.73 553.28C944.99 556.55 939.74 555.46 936.5 557.9C924.74 566.78 938.05 578.06 947.64 581.92C967.21 589.79 986.93 587.85 1005.59 592.11C1006.57 592.33 1013.91 602.8 1019.76 606.14C1041.44 618.52 1109.54 624.98 1133.28 617.54C1140.05 615.42 1147.15 614.35 1145.9 606.12C1144.75 598.56 1132.8 598.01 1129.18 592.15H1161.6C1164.89 592.15 1180.96 587.12 1184.24 585.15C1200.93 575.1 1180.84 542.48 1169.84 533.92V533.89ZM877.68 539.5C876.62 538.89 874.66 538.06 874.06 537.08C873.4 536.01 873.49 533.53 873.61 532.32C873.87 529.76 875.11 527.41 877.1 525.78C880.27 523.18 886.03 522.19 888.87 525.83C890.53 527.95 890.39 530.89 889.76 533.36C889.13 535.84 888.21 539.51 885.6 540.68C883.16 541.77 879.92 540.83 877.81 539.56C877.77 539.54 877.73 539.51 877.69 539.49L877.68 539.5Z" fill="#BC4749"/>
<path d="M962.41 422.7C999.19 434.44 978.7 455.79 952.03 460.45C939.94 462.56 923.08 459.32 913.3 468.05C910.48 474.24 935.37 470.09 938.82 469.46C962.85 465.09 975.72 460.26 1002.32 462.43C1008.26 462.91 1023.63 464.32 1018 473.6C1020.45 473.44 1022.97 473.8 1025.41 473.6C1029.93 464.09 1014.81 458.79 1007.81 458.79H973.53C1004.91 435.39 980.28 422.66 953.94 416.33C912.04 406.27 861.89 409.56 819.74 418.05C814.74 419.06 805.68 422.06 799.36 423.61C787.42 426.54 775.52 429.72 763.87 433.65C758.57 435.44 753.32 437.38 748.16 439.53C745.62 440.59 743.09 441.7 740.59 442.86C739.32 443.45 738.05 444.06 736.79 444.68C736.26 444.94 735.43 445.18 734.99 445.58C734.43 446.09 734.62 446.21 735.14 446.81C735.68 447.43 736.21 448.05 736.75 448.67C737.45 449.47 739.44 447.93 740.26 447.53C741.56 446.89 742.87 446.27 744.19 445.68C746.9 444.45 749.65 443.31 752.42 442.22C757.88 440.08 763.44 438.16 769.04 436.43C769.41 436.32 769.78 436.2 770.15 436.09C826.66 418.93 905.03 404.39 962.39 422.7H962.41Z" fill="#BC4749"/>
<path d="M621.84 437.34C616.65 431.95 606.4 437.71 600.98 440.4C594.46 444.03 588.05 449.79 582.53 454.27C580.79 455.68 578.92 457.09 576.71 457.64C573.46 458.41 568.25 457.46 566.48 454.13C565.4 451.77 567.69 448.5 568.11 445.34C568.92 440.28 566.03 435.92 562.66 432.35C550.29 419.77 535.05 409.95 520.2 401.34C513.5 397.73 506.07 394.91 499.35 391.4C494.54 388.6 489.53 386.13 484.39 383.91C479.9 381.21 476.21 377.58 471.29 375.26C467.01 373.08 462.3 371.93 457.86 370.14C446.91 365.73 435.28 363.14 424.56 358.1C418.33 355.37 411.89 353.64 405.2 352.14C401.09 351.42 397.45 350.8 396.86 346.01C394.74 336.08 385.94 324.76 386.32 316.06C386.42 312.11 388.65 307.66 390.42 303.66C417.22 252.21 360.07 201.22 311.4 194.38C302.11 192.73 291.71 191.7 282.65 189.8C272.09 187.44 258.89 182.2 248.2 182.83C242.95 182.76 239.64 186.56 234.67 187.93C231.68 188.65 228.75 187.16 226.03 186.06C223.69 185.1 221.18 184.68 218.44 184.17C212.11 183.25 205.58 180.65 201.07 186.11C199.39 187.94 196.44 188.77 194.96 190.61C193.65 192.28 194.63 194.84 195.13 197.53C195.2 218.08 209.28 214.9 224.33 214.28C244.25 216.23 264.6 220.66 284.73 225.01C293.67 227.12 302.64 229.21 311.18 232.77C314.53 234.29 318.34 234.94 321.54 236.67C323.32 237.75 324.34 239.47 325.94 241.02C332.71 245.87 334.37 250.73 335.04 258.83C335.37 262.03 336.5 267.3 335.86 269.99C334.76 272.77 328.83 264.53 323.27 267.75C318.61 269.75 310.36 273.26 306.13 275.59C299.56 278.82 308.71 289.75 299.67 286.72C290.37 283.9 281.8 279.59 273.45 274.51C268.3 271.83 262.45 273.81 257.03 273.51C245.63 273.4 225.67 275.17 213.21 276.83C209.94 277.25 206.78 277.82 203.71 279.16C192.13 285.29 184.17 288.89 170.77 284.55C164.49 282.61 157.98 280.68 151.29 280.85C135.26 281.1 116.17 285.09 106.83 298.98C105.44 300.74 104.65 301.41 102.9 301.3C96.48 301.11 73.32 293.1 72.97 305C72.87 309.15 76.1 313.44 73.47 317.19C72.07 318.95 69.28 320.22 68.24 322.56C66.55 325.64 66.48 330.39 69.97 332.09C73.2 333.65 78.64 332.23 82.38 333.62C85.55 334.87 87.95 337.77 91.53 338.19C94.75 338.83 97.83 337.6 100.49 336.03C101.93 335.26 103.74 335 105.35 334.16C107.83 332.83 109.31 331.42 111.72 332.75C127.39 339.78 132.81 324.71 147.73 325.21C171.02 324.94 179.31 336.76 202.81 331.9C216.08 330.03 230.41 326.02 243.61 330.33C250.79 333.23 259.64 341.23 269.73 343.22C275.77 344.49 282.02 343.85 288.05 343.28C292.86 343.06 298.78 341.84 302.93 344.6C304.94 346.1 305.81 348.66 306.61 350.97C308.02 355.32 309.54 359.54 310.2 364.03C310.29 365.86 312.14 371.35 313.58 367.18C314.28 359.6 313.46 348.74 309.53 342.72C307.05 339.4 302.98 337.41 298.96 336.87C288.7 335.93 273.45 341.36 262.69 335.86C256.6 333.16 250.96 328.92 244.96 326.11C237.94 322.68 228.54 322.1 221.03 322.61C207.1 323.68 192.34 328.06 176.42 324.48C167.12 322.81 161.61 319.37 151.49 320.6C147.62 321 143.76 321.54 140.06 322.55C134.13 324.13 124.45 327.64 119.11 328.37C115.78 329.02 114.35 327.64 113.49 324.75C111.57 317.9 109.86 303.27 112.45 298.05C115.55 295.1 122.09 292.57 126.74 290.47C128.6 289.71 130.37 289.18 132.36 288.78C134.97 288.24 138.52 287.66 141.33 287.36C155.04 285.2 164.52 291.46 179.14 291.46C181.66 291.25 183.75 290.62 185.97 290.38C188.79 290 192.88 290.07 195.43 289.25C197.84 288.34 200.79 286.5 203.65 285.4C215.17 281.38 233.86 280.77 250.84 279.66C262.04 279.52 271.87 277.13 281.35 283.38C284.48 285.55 287.46 288.06 291.14 289.27C295.34 290.84 299.77 291 304 292.58C306.48 293.69 310.6 294.59 310.93 290.74C311.37 287.76 308.31 284.23 308.8 281.53C309.15 279.64 311.4 279.09 313.06 278.65C318.65 277.36 324.02 273.05 329.35 273.89C334.47 274.13 335.64 281.18 339.55 280.52C340.33 280.19 340.52 279.36 340.54 278.58C340.44 276.42 339.83 274.02 339.92 271.78C340.08 266.69 339.66 260.68 338.72 255.64C337.37 247.82 334.85 242.64 327.36 237.41C320.31 232.56 311.43 227.9 303.77 224.61C286.96 218.68 267.98 217.3 249.83 214.27C245.11 212.97 232.45 213.6 235.02 206.1C236.49 201.73 237.15 195.97 240.3 192.43C249.21 185.19 265.45 191.8 274.66 193.38C277.95 194.1 281.6 193.49 284.9 194.39C287.89 195.3 290.31 197.81 293.58 198.52C302.32 200.53 312.1 199.89 321.16 202.17C350.81 210.61 392.37 239.53 391.94 269.45C391.49 280.82 389.26 295.98 386.18 306.4C385.22 309.08 384.72 311.91 382.61 313.5C381.81 314.05 380.73 314.34 379.95 314.88C378.24 316.31 381.06 319.68 382.42 322.53C386.24 329.28 392.05 338.87 391.45 345.18C391.25 349.92 389.58 349.77 385.39 350.88C380.13 352.6 375.08 354.93 369.94 356.89C361.79 360.2 354.19 364.01 345.67 366.08C337.38 368.6 329.27 368.25 320.78 369.54C313.93 370.27 313.55 375.17 312.97 381.58C312.62 384.68 312.1 387.75 311.42 390.78C302.41 430.33 270.46 442.66 234.72 425.51C225.11 421.92 212.71 416.63 203.35 415.79C201.57 415.63 199.72 415.87 198.22 416.93C196.19 418.24 194.32 421.19 192.46 421.26C189.46 421.03 187.95 417.34 185.17 416.3C175.8 410.06 153.16 444.86 145.37 454.46C142.56 458.5 139.25 462.65 137.85 467.41C136.4 472.26 139.48 476.5 144.75 474.82C152.35 472.64 158.1 464.54 163.85 459.8C167.35 456.76 171.75 455.52 176.28 454.76C179.2 454.4 182.31 453.31 184.63 455.18C186.78 457.61 186.64 463.14 190.24 465.31C192.97 467.39 196.77 468.61 200.27 469.95C229.34 481.25 262.13 510.42 293.23 506.32C312.36 501.96 326.84 485.24 338.4 470.52C345.19 461.54 351.61 452.74 356.72 442.81C360.75 435.12 363.97 426.75 368.12 419.63C370.15 415.83 375.59 415.64 379.81 415.57C413.36 418.33 477.51 452.58 512.68 468.22C519.11 471.02 525.69 476.4 532.1 478.38C534.67 479.16 537.43 479.23 540.02 478.45C543.37 477.53 546.64 474.95 549.72 475.58C552.39 476.01 554.55 478.74 556.5 480.62C571.97 496.62 595.67 477.77 608.8 462.52C611.09 459.8 613.03 456.95 615.23 454.11C618.67 449.55 625.34 443.33 621.85 437.41L621.75 437.28L621.84 437.34ZM110.28 327.99C109.04 329.65 106.43 329.7 104.61 330.55C100.98 332.34 97.66 333.83 93.74 332.85C91.11 332.03 90.32 328.85 87.65 327.91C83.65 326.28 79.08 327.84 74.96 327.3C72.54 326.93 72.93 324.19 74.38 322.97C75.56 321.92 77.38 321.96 78.81 321.25C79.59 320.86 80.22 320.22 80.6 319.44C81.65 316.94 80.74 313.95 83.68 313.17C84.83 312.68 86.68 312.75 87.32 311.57C88.15 310.03 85.93 306.89 86.49 305.25C86.71 304.97 87.03 304.92 87.42 304.88C90.81 304.69 100.47 306.31 105.68 305.65C106.45 305.6 107.32 305.49 107.81 305.98C108.28 306.52 108.19 307.58 108.2 308.4C108.01 313.83 110.58 321.18 110.73 325.7C110.75 326.47 110.71 327.24 110.35 327.88L110.29 327.99H110.28ZM228.69 209.99C228.06 210.41 227.38 210.45 226.64 210.37C221.63 209.61 206.04 208.1 201.15 207.04C200.09 206.46 202.2 205.46 203.43 205.35C205.43 204.99 210.8 205.75 208.88 202.35C207.56 200.21 204.45 199.57 202.48 198.03C200.32 196.42 202.05 195.3 204.07 195.22C205.38 194.92 207.95 195.69 208.78 194.79C209.18 193.39 207.29 191.25 207.07 189.81C206.78 188.78 207.51 188.44 208.59 188.51C214.79 188.96 221.8 189.13 227.83 189.73C230.59 190.1 234.08 190.69 235.82 193.04C236.56 194.26 235.76 195.89 235.16 197.67C233.85 201.71 232.07 207.43 228.79 209.92L228.69 209.99Z" fill="#386641"/>
<path d="M185.04 256.64C191.01 259.88 198.83 262.63 205.44 264.99C214.26 269.08 221.42 261.63 228.4 257.49C230.88 256.03 232.86 255.21 235.4 255.66C240.99 256.62 246.71 263.79 254.41 265.54C264.16 268.5 267.66 255.33 276.19 260.79C280.76 263.83 284.77 268.15 290.3 269.37C294.27 270.19 298.67 269.67 301.4 273.09C302.06 273.71 302.8 274.68 303.53 274.86C305.04 274.85 303.71 270.51 304.13 269.4C304.37 266.25 311.41 263.7 314.25 264.6C315.56 264.83 319.47 266.86 318.85 265.13C318.13 263.87 316.44 262.93 315.19 261.36C312.05 257.31 310.68 251.94 306.99 248.32C297.76 238.6 281.17 230.58 267.93 228.28C255.1 226.08 245.45 236.23 231.22 234.26C225.12 233.25 215.51 231.64 208.9 230.01C201.27 227.62 192.08 217.46 183.66 212.5C178.27 209.26 173.48 208.78 171.8 215.05C170.63 219.4 167.98 226.23 167.77 231.01C169.69 239.6 178.92 252.07 184.94 256.55L185.05 256.62L185.04 256.64ZM287.48 258.53C293.7 257.12 294.81 253.09 295.54 247.29C296.13 244.62 300.1 245.73 301.63 247.28C302.84 248.55 303.8 250.11 304.8 251.58C306.8 254.55 308.03 256.85 306.63 259.95C305.05 263.13 300.77 263.62 297.76 265.24C292.39 267.68 289 268.29 285.62 262.38C284.35 260.34 284.41 259.01 287.31 258.59L287.5 258.54L287.48 258.53Z" fill="#386641"/>
<path d="M263.26 594.09C257.55 592.59 251.57 592.47 245.24 591.95C239.21 591.66 234.12 591.5 229.36 594.75C220.23 600.81 211.88 649.55 207.81 663.13C204.99 678.82 186.72 715.9 197.28 728.75C198.01 729.52 198.91 730.25 199.83 730.89C206.43 735.21 217.11 740.92 224.61 743.07C229.66 744.23 241.15 739.51 244.68 735.83C250.51 728.31 253.08 716.5 255.85 707.16C264.19 675.26 267.83 642.54 274.09 610.24C274.66 607.25 275.21 604.04 273.65 601.36C271.65 597.99 267.21 595.39 263.43 594.14L263.26 594.09ZM255.61 671.22C252.21 685.65 244.27 717.25 239.53 729.39C239.08 730.48 238.57 731.47 237.8 732.32C229.68 739.58 214.62 733.56 206.97 727.42C205.54 726.23 204.24 724.9 203.18 723.4C199.56 718.78 202.06 711.78 202.64 705.94C204.27 695.76 206.37 684.83 208.43 674.92C213.71 650.91 221.72 627.02 229.61 603.8C234.04 593.66 251.83 601.89 260.72 603.55C261.87 603.82 263.13 604.19 264.1 604.7C266.58 605.9 266.68 608.71 266.39 611.27C263.94 630.99 260.09 651.67 255.66 671.08L255.63 671.23L255.61 671.22Z" fill="#386641"/>
<path d="M339.59 614.15C338.5 612.95 337.05 612.17 335.56 611.47C331.55 609.63 324.37 606.7 319.38 604.77C314.78 602.95 312.04 602.21 308.12 603.4C305.01 604.33 301.15 606.57 300.81 610.06C300.62 612.26 304.19 612.26 306.3 611.99C314.08 611.19 333.08 615.42 331.8 626.64C330.95 633.4 329.29 640.17 327.49 646.8C319.93 676.66 309.92 709.52 303.66 738.85C302.88 743.59 303.38 748.8 305.51 753.11C307.79 755.31 310.26 747.01 310.9 745.16C314.71 732.86 315.82 719.71 319.62 707.39C323.15 695.54 342.17 639.8 342.36 628.3C342.58 623.25 342.46 617.73 339.69 614.27L339.59 614.16V614.15Z" fill="#386641"/>
<path d="M613.61 646.29C609.25 641.68 561.27 630.04 551.58 627.74C530.04 622.64 491.39 613 470.56 612.38C455.91 611.95 454.86 613.61 448.83 626.03C434.2 656.18 405.79 765.34 403.09 798.8C402.63 804.46 401.77 811.4 405.71 816.1C408.4 819.31 437.9 830.37 443.62 831.92C450.68 833.83 458.92 833.7 465.92 835.56C493.39 842.85 526.69 854.52 555.47 852.6C564.74 851.98 572.77 833.41 575.7 825.04C592.29 777.64 599.91 721.7 616.96 673.7C618.7 667.15 618.21 651.16 613.61 646.29Z" fill="#A7C957"/>
<path d="M439.43 789.51C440.94 788.13 442.96 788.92 446.35 789.7C448.94 790.35 452.12 791.2 455.53 791.85C465.05 793.9 473.62 793.64 479.34 784.65C488.24 769.37 488.16 747.32 492.75 730.09C493.96 725.74 493.12 723.08 488.46 722.26C481.7 720.84 476.13 720.69 470.01 718.99C468 718.34 466.59 716.9 466.65 715.48C466.61 712.83 471.24 712.08 473.68 712.33C477.97 712.46 482.23 712.98 486.45 713.73C490.51 714.12 492.68 716.16 494.65 713.16C495.97 710.41 503.25 671.03 501.71 668.09C497.59 661.4 492.07 660.77 484.97 659.23C481.36 658.51 478.65 658.24 476.1 657.45C473.38 656.46 472.54 653.21 474.4 651.69C475.54 650.81 477.79 651.33 480.84 651.83C488.26 653.19 499.83 656.37 505.56 660.2C508.11 661.87 510.05 663.93 510.13 666.69C511.09 680.99 500.54 736.33 496.05 756.68C492.91 769.73 489.92 787.66 481.32 797.82C477.93 801.74 473.45 803.38 468.5 802.53C461.31 801.47 435.92 797.26 439.39 789.57L439.44 789.51H439.43Z" fill="#386641"/>
<path d="M585.89 683.62C583.86 668.37 556.4 662.35 546.49 666.95C535.97 672.53 531.85 698.82 528.93 712.28C527.44 721.62 524.17 731.26 521.61 740.09C517.11 755.6 511.8 774.35 510.25 791.8C509.36 802.1 511.21 805.13 520.91 810.09C525.44 812.51 531.39 815.25 535.53 816.67C537.99 817.52 540.25 817.82 542.93 817.7C546.17 817.57 550.48 817.09 553.21 816.64C555.05 816.36 556.94 815.74 557.61 813.86C561.98 802.69 567.29 773.83 571.29 758.36C575.89 740.44 582.86 718.45 584.58 700.4C585 695.12 586.19 689.16 585.93 683.81L585.91 683.64L585.89 683.62ZM577.68 700.93C573.28 725.45 565.57 749.28 560.74 773.59C558.93 782.96 556.3 796.87 553.75 803.07C551.33 809.1 543.55 806.85 538.79 806.14C534.4 804.97 530.07 804.22 525.87 803.01C513.14 798.22 526.38 749.09 529.7 735.29C535.19 718.47 534.89 687.02 545.84 675.37C551.35 670.53 572.55 675.49 577.07 681.3C580.4 686.3 578.11 694.74 577.71 700.74L577.68 700.92V700.93Z" fill="#386641"/>
</svg>
