<svg width="1200" height="1200" viewBox="0 0 1200 1200" fill="none" xmlns="http://www.w3.org/2000/svg">
<path d="M523.26 740.58C554.79 771.98 625.44 839.77 625.85 840.46C629.51 846.7 629.02 920.57 631.23 944.21L633.67 1099.38L124.33 1096.95C119.82 1054.53 128.5 1012.02 131.58 969.64C133.55 942.56 133.92 916.36 133.81 889.66C133.67 855.33 146.71 863.37 170.92 856.23C176.91 854.46 523.26 740.58 523.26 740.58Z" fill="#A7C957"/>
<path d="M726.88 759.51C736.39 766.85 743.19 778.08 749.11 788.52C761.04 811.13 768.6 836.91 774.78 861.81C775.47 864.53 776.64 868.8 778.21 870.33C782.9 875.47 789.77 854.75 792.6 851.52C806.59 828.42 842.07 821.21 863.78 836.95C888.14 853.98 907.83 903.19 891.01 930.26C880.79 945.54 867.55 942.93 863.02 951.34C860.75 956.22 861.82 962.71 861.38 968.37C861.06 975.42 860.27 982.46 858.19 989.22C854.55 1001.76 845.25 1013.22 832.01 1009.06C827.04 1007.86 821.31 1003.93 816.97 1001.72C811.4 998.81 809.53 1001.38 808.79 1006.9C806.72 1024.8 805.69 1049.32 799.33 1064.44C796.7 1070.48 791.63 1074.31 785.06 1075.61C773.96 1078.04 762.09 1073.27 754.64 1064.73C752.16 1061.99 748.42 1057.79 746.97 1057.94C743.44 1058.4 744.74 1069.85 744.27 1073.18C744.7 1085.92 736.56 1098.79 723.93 1101.78C714.83 1103.63 705.46 1099.05 697.75 1094.16C646.3 1058.87 637.04 990.49 632.02 932.36C630.14 904.64 628.07 876.86 633.44 849.68C641.13 813.25 661.83 767.41 699.45 757.09C708.45 754.42 718.77 753.6 726.72 759.37L726.87 759.48L726.88 759.51Z" fill="#CED4DA"/>
<path d="M973.74 814.36C978.42 814.41 982.1 816.74 984.05 821.22C985.49 824.25 986.25 828.46 986.77 832.09C997.28 901.75 1011.63 978.24 1025.02 1047.36C1025.88 1051.53 1026.45 1053.66 1026.79 1053.03C1029.69 1019.6 1036.26 904.58 1038.71 871.16C1039.05 866.7 1040.81 864.45 1045.76 862.87C1054.6 860.41 1064.55 860.39 1073.62 860.83C1079.27 861.39 1085.88 861.38 1086.13 865.97C1083.69 920.03 1075.42 1072.18 1074.24 1096.36C1074.07 1098.29 1073.98 1099.75 1071.94 1100.38C1070.28 1100.89 1067.18 1100.93 1062.23 1100.93C1050.12 1100.87 1026.38 1100.72 1012.11 1100.63C996.1 1100.94 990.22 1097.97 984.66 1083.91C969.49 1033.45 967.38 977.55 959.5 924.71C955.31 896.24 950.26 865.99 943.86 838.22C942.51 831.69 941.76 827.32 945.69 823.32C949.02 820.02 955.75 817.97 962.81 816.09C966.29 815.17 970.07 814.31 973.58 814.36H973.74Z" fill="#A7C957"/>
<path d="M1017.16 369.21C1006.39 355.57 1002.71 337.05 1006.01 320.17C1009.93 299.18 1027.91 257.05 1044.41 243.96C1051.3 238.55 1058.95 238.59 1061.87 247.1C1067.13 265.01 1061.28 293.29 1058.2 313.11C1056.85 322.4 1054.52 328.28 1056.42 334.69C1059.26 341.37 1073.65 337.12 1082.62 337.13C1104.11 336.03 1135.27 336.65 1151.41 350.81C1167.19 364.52 1157.84 389.99 1143.45 401.01C1124.27 415.95 1084.99 408.12 1063.21 401.14C1045.4 395.19 1029.41 383.51 1017.27 369.37L1017.15 369.22L1017.16 369.21Z" fill="#BC4749"/>
<path d="M1129.35 549.97C1131.1 550.73 1131.29 553.22 1131.3 557.43C1131.3 566.97 1131.3 584.84 1131.3 595.54C1131.3 603.03 1131.5 607.74 1130.2 614.92C1127.07 632.03 1119.37 657.94 1112.19 676.1C1105.27 692.22 1089.71 714.04 1082.84 727.72C1080.65 732.03 1079.7 735.56 1078.96 740.8C1075.05 776.74 1072.64 813.42 1072.18 849.56C1072.28 859.91 1068 862.83 1058.58 857.77C1050.83 853.75 1043.31 849.17 1036.13 844.24C1023.54 835.31 1010.42 825.91 997.92 816.93C994.94 814.73 992.24 812.86 989.38 811.88C983.41 809.83 977.48 811.59 971.09 813.65C966.26 815.22 961.41 816.81 956.51 818.11C950.23 819.96 945.05 819.85 940.44 815.68C938.79 814.27 937.22 812.62 935.76 810.96C930.96 805.1 924.27 799.41 929.42 792.48C954.4 767.11 969.82 735.4 969.45 699.15C969.5 687.23 971.16 680.88 978.6 671.5C983.24 665.28 988.2 659.35 992.25 652.78C997.77 643.86 1002.59 633.85 1007.65 624.85C1009.02 622.39 1014.56 611.72 1017.25 615.18C1018.47 616.49 1018.52 623.6 1018.44 627.73C1018.72 639.42 1017.74 649.54 1019.13 660.01C1021.97 675.08 1032.92 711.87 1041.21 729.25C1043.83 734.24 1048.66 737.82 1049.32 735.08C1049.68 732.56 1048.47 729.94 1047.16 725.84C1042.79 713.16 1035.49 695.81 1030.87 682.61C1020.08 646.1 1019.97 604.61 1036.61 570.05C1042.78 555.42 1069.36 522.19 1082.68 546.24C1091.15 562.09 1078.99 566.72 1070.03 577.71C1049.54 601 1025.37 630.8 1034.13 662.93C1036.24 670.06 1040.21 677.02 1046.32 681.23C1051.65 685.05 1059.17 686.1 1065.68 684.43C1085.52 679.5 1093.13 655.79 1095.9 636.24C1098.93 616.69 1094.16 589.59 1094.52 571.9C1094.27 565.72 1096.4 562.65 1101.15 559.95C1106.38 556.74 1115.51 552.68 1122.15 550.74C1125.45 549.77 1127.9 549.34 1129.3 549.92L1129.38 549.96L1129.35 549.97ZM894.3 764.92C891.67 764.08 888.43 765.77 885.83 767.12C868.31 776.61 850.83 787.4 831.17 791.63C819.85 793.91 805.07 794.88 795.48 787.36C776.83 771.98 790.99 731.75 801.03 707.95C806.9 694.59 819.47 676.05 824.6 664.74C827.57 659.23 825.68 654.18 823.03 648.7C815.93 633.4 802.16 613.14 795.56 597.08C793.74 592.65 793.39 586.47 790.98 582.72C788.23 578.34 783.18 581.69 780.38 584.49C750.95 615.03 717.93 651.14 707.36 693.24C704.13 708.84 713.59 723.09 720.37 736.67C743.62 799.22 821.01 832.91 883.6 812.87C891.87 810.15 899.79 807.07 907.61 802.77C916.21 798.01 916.12 792.78 910.02 784.24C907.06 779.99 903.27 775.57 900.56 771.36C898.93 768.98 897.14 765.88 894.43 764.97L894.31 764.93L894.3 764.92ZM869.75 408.54C863.51 426.69 861.5 456.01 868.31 475.55C870.65 481.55 873.81 489.04 880.58 490.25C884.67 490.87 888.95 488.52 893.2 485.77C897.16 483.21 901.33 480.08 905.53 476.92C913.3 471.1 920.2 465.68 928.87 461.75C953.27 450.09 978.72 455.62 1004.01 453.75C1024.48 452.29 1044.12 444.27 1062.32 435.24C1067.83 432.1 1075.62 430.02 1073.08 423.45C1067.84 412.94 1059.17 405.22 1050.03 397.81C1043.1 392.21 1036.26 386.28 1028.85 381.75C1009.5 370.37 953.83 343.16 930.99 349.6C928.31 350.9 925.94 353.38 923.74 355.68C907.92 372.96 878.06 389.07 869.81 408.39L869.75 408.54ZM665.1 607.22C665.68 609.04 667.43 608.63 669.94 608.13C705.48 596.25 739.83 580.7 772.93 563.16C778.95 559.81 780.39 554.28 778.79 547.91C776.5 537.57 773.76 527.33 771.6 516.9C771.08 514.26 770.44 511.12 769.35 508.82C768.51 507.08 767.5 506.04 765.9 506.08C761.5 506.87 758.17 510.84 754.56 513.58C747.02 519.98 739.49 526.55 732.75 532.98C724.26 541.05 716.36 549.33 707.78 557.14C704.17 560.33 698.15 565.95 694.84 567.4C691.5 568.74 693.18 565.15 694.36 563.77C696.42 561.12 700.22 557.92 702.98 555.13C719.75 538.77 753.71 506.58 764.22 495.86C766.81 492.47 766.64 487.56 766.94 483.24C767.38 472.34 766.29 461.32 767.35 450.32C767.79 445.27 768.73 440.62 770.08 435.77C773.37 424.27 778.99 405.42 784.71 393.42C787.11 389.18 791.06 386.51 792.97 382C794.45 378.68 795.91 374.94 795.39 372C794.61 369.79 791.58 371.73 789.14 372.91C713.7 416.59 658.14 503.5 662.3 592.13C662.67 599.99 664.87 602.42 665.1 607.21V607.22ZM772.79 486.12C774.84 487.82 779.23 484.98 781.49 482.98C801.11 466.55 816.57 444.85 836.84 430.33C839.73 428.21 843.83 423.03 846.33 420.48C852.06 414.47 856.73 409.79 862.6 403.65C866.18 399.85 867.9 395.2 869.4 390.11C872.81 379.43 878.11 362.9 881.33 352.8C882.38 349.5 882.74 347.44 881.64 346.54C879.18 345.03 874.88 346.2 871.82 346.4C860.83 347.69 851.67 349.33 840.37 352.67C828.03 356.63 810.12 361.7 802.96 372.99C800.63 376.49 798.83 381.05 796.61 384.43C792.43 390.66 788.11 395.37 786.14 402.62C777.94 428.13 768.97 453.37 770.38 480.65C770.72 483.21 771.46 485.18 772.68 486.06L772.77 486.12H772.79ZM844.24 427.83C831.35 442.59 786.09 483.74 772.74 497.42C771.47 498.81 771.31 499.64 771.68 501.73C774.7 514.35 780.58 536.44 783.42 547.77C783.7 548.91 783.98 549.92 784.26 550.96C785.17 554.24 785.62 554.88 787.25 554.03C787.5 553.91 787.77 553.75 788.07 553.57C810.04 539.66 855.73 510.89 870.06 501.69C871.68 500.54 872.45 499.45 872.26 497.26C871.91 493.99 869.92 489.27 868.38 485.7C858.7 466.73 858.51 445.87 860.49 425.29C860.63 422.68 861.23 418.22 859.49 416.6C855.22 414.24 846.76 424.24 844.31 427.72L844.24 427.82V427.83ZM913.3 528.85C902.42 525.07 892.81 516.18 880.91 516.34C863.12 516.28 827.23 534.09 812.7 545.68C804.97 551.29 802.61 561.17 799.43 569.78C797.77 574.68 796.51 579.1 797.64 584.04C799.87 594.57 808.63 613.28 818.59 626C825.65 634.72 835.68 644.88 844.48 636.38C853.82 626.63 863.26 613.06 872.06 602.57C891.17 579.82 915.68 562.83 937.78 543.22C946.36 533.76 929.73 532.89 923.74 531.57C920.27 530.9 916.81 530.08 913.48 528.92L913.29 528.85H913.3ZM944.36 461.86C928.15 467.21 907.13 481.64 893.13 491.05C882.89 497.93 882.74 505.71 895.13 510.62C903.11 513.98 912.23 515.41 920.33 518.27C925.42 520.06 930 522.68 934.87 525.18C944.74 530.55 954.61 531.43 964.19 524.61C969.92 520.95 975.99 516.63 981.73 512.82C993.05 505.29 1003.88 499.92 1015.88 494.25C1024.49 490.14 1035.08 487.09 1045 484.33C1051.07 482.61 1058.4 480.59 1064.01 478.8C1068.21 477.43 1070.28 476.43 1071.92 473.32C1075.97 464.45 1079.6 450.86 1081.84 441.16C1082.21 439.38 1082.45 437.29 1081.82 435.91C1080.36 433.57 1076.55 435.47 1074.08 436.32C1053.08 445.07 1032.12 455.57 1009.57 459.03C988.23 462.69 965.67 456.99 944.5 461.84L944.34 461.88L944.36 461.86ZM947.5 544.77C944.53 544.88 941.08 547.3 938.47 549.3C906.02 574.74 872.67 604.15 850.58 639.24C847.99 645.38 854.43 647.49 859.43 648C878.77 650.35 897.43 647.49 915.85 641.28C929.55 636.76 943.11 629.64 955.68 622.75C960.12 620.13 963.43 618.38 965.65 614.16C971.49 602.61 967.16 572.12 957.86 554.49C954.88 549.31 952.58 544.86 947.63 544.77H947.49H947.5ZM797.99 781.99C814.82 796.31 863.94 775.17 884.54 758.67C886.13 757.32 887.09 756.23 887.32 755.15C887.68 753.63 886.55 752.06 884.91 749.34C878.4 738.62 871.29 726.87 863.79 714.5C855.26 700.41 843.23 680.58 836.28 669.13C835.08 667.18 833.97 665.74 831.52 668.07C814.48 686.6 777.64 763.76 797.88 781.91L797.99 782.01V781.99ZM953.92 540.91C955.47 544.13 958.37 547.66 960.86 552.42C963.02 556.42 964.82 560.6 966.29 564.9C969.22 573.48 970.87 582.6 971.55 591.67C972.04 596.17 971.57 603.6 972.95 606.13C974.18 608.28 976.06 607.59 978.58 606.09C1011.53 581.44 1047.09 544.5 1057.74 503.84C1057.39 502.92 1056.27 503.26 1055.4 503.5C1048.34 505.87 1028.45 512.73 1008.06 519.71C996.42 523.7 984.61 527.75 974.91 531.08C966.03 534.15 958.87 536.54 955.34 537.82C953.93 538.33 953.12 539.26 953.87 540.81L953.91 540.9L953.92 540.91ZM1085.28 573.35C1083.25 572.57 1080.6 574.51 1078.98 576.16C1056.18 599.06 1017.73 654.18 1049.62 677.82C1058.28 683.65 1068.2 680.57 1074.93 673.24C1084.43 663.24 1089.27 649.5 1089.87 636.05C1090.82 621 1089.78 602.01 1089.39 586.14C1089.12 581.94 1089.08 575.31 1085.38 573.39L1085.28 573.35ZM1066.56 502.95C1064.42 508.73 1061.47 514.18 1058.69 519.7C1056.71 523.94 1051 533.46 1053.73 536.03C1057.3 538.58 1066.58 533.13 1071.26 533.29C1080.53 532.45 1086.64 541.04 1089.12 549.08C1090.28 552.15 1090.56 556.53 1092.87 558.28C1095.19 559.45 1098.16 557.35 1100.47 556.3C1108.02 552.27 1118.69 548.09 1123.94 544.19C1128.47 541.27 1128.65 537.44 1127.37 532.55C1124.41 519.15 1115.08 488.51 1110.75 478.36C1110.01 476.7 1109.17 475.21 1107.57 474.46C1104.33 473.12 1098.99 474.01 1094.78 474.5C1089.42 475.32 1083.53 476.11 1078.59 477.99C1076.06 478.99 1074.2 480.79 1073.04 483.21C1070.57 488.39 1068.96 496.72 1066.63 502.75L1066.56 502.94V502.95ZM919.05 650.22C901.47 652.98 881.51 663.89 874.34 680.66C871.11 688.22 871.66 697.26 875.62 704.78C890.87 735.85 924.48 702.64 938.31 682.18C940.42 679.19 942.31 676.21 944.2 672.94C946.67 668.37 949.9 663.34 949.27 658.97C947.26 649.87 926.8 648.78 919.25 650.2L919.05 650.23V650.22ZM753.01 580.68C756.53 579.06 760.68 577.03 762.26 575.8C764.98 573.58 759.71 575.08 758.04 575.8C729.66 587.95 701.75 602.13 671.8 609.79C668.34 610.72 664.39 612.22 662.66 615.21C661.02 617.83 661.1 621.69 661.53 624.93C665.31 652.49 674.07 678.9 685.07 704.37C686.36 707.37 688.51 712.22 691.58 712.78C693.38 713.06 694.96 711.19 695.57 708.12C696.36 703.93 695.45 700.04 694.31 695.61C691.81 687.06 689.45 678.31 690.02 669.48C692.19 631.91 721.22 598.55 752.83 580.77L753 580.69L753.01 580.68ZM924.1 789.81C951.18 767.7 964.68 731.1 965.87 696.39C965.81 694.27 965.42 693.28 964.41 693.72C963.1 694.27 960.58 697.25 957.24 700.66C942.58 715.45 928.63 731.66 916.4 742.39C911.35 746.75 904.32 751.61 899.5 756.53C897.08 758.83 899.39 762.29 901.42 765.38C903.56 768.7 905.79 772.15 907.98 775.55C910.55 779.46 913.43 784.21 915.91 787.6C918.41 790.99 920.66 791.92 923.97 789.88L924.1 789.8V789.81ZM1028.08 569.34C1028.21 567.99 1027.25 568.49 1025.19 570.3C1012.27 581.76 989.21 602.13 974.76 615.01C970.31 618.92 969.64 624.82 967.8 630.3C963.73 643.71 958.39 655.21 962.7 668.17C964.06 672.6 967.74 678.34 972.3 673.14C993.81 640.36 1016.05 606.23 1028.07 569.41V569.34H1028.08ZM702.37 687.23C707.65 681.71 711.05 672.49 714.71 665.41C721.2 651.55 727.87 637.38 737.16 625.11C748.08 610.3 762.04 597.83 773.38 583.45C774.83 581.41 775.28 580.02 774.39 579.63C773.7 579.3 772.17 579.59 770.15 580.31C734.03 594.63 701.73 625.12 695.58 664.16C694.59 671.06 693.88 679.66 696.75 686.04C697.99 688.67 700.31 689.16 702.27 687.33L702.38 687.23H702.37ZM962.8 678.45C962.07 673.82 958.13 666.6 953.56 670.38C952.21 671.51 951.13 673.13 950.12 674.63C947.23 679.1 943.88 684.19 940.16 689.29C933.98 697.77 926.86 706.52 918.97 713.23C910.66 720.67 900.52 724.17 889.6 722.34C862.74 718.18 858.93 682.01 877.6 664.4C879.65 662.24 884.54 657.73 883.37 655.85C882.06 653.74 878.49 653.99 875.91 653.83C872.2 653.81 868.42 653.76 864.71 653.31C857.66 652.75 848.31 649.08 842.78 651.58C837.33 654.16 835.52 659.93 838.82 664.34C849.61 680.43 882.64 736.58 894.01 751.29C896.95 752.44 905.69 744.18 909.54 741.18C919.18 733.06 966.02 689.07 962.81 678.61L962.79 678.47L962.8 678.45ZM916.02 801.14C913.27 801.57 910.83 803.38 908.44 804.88C899.63 810.7 890.19 815.05 880.31 818.32C876.76 819.5 873.16 820.55 869.54 821.48C866.04 822.62 859.27 823.08 859.68 826.06C863.73 834.25 919.28 828.35 929.01 826.23C933.82 825.34 937.55 823.38 934.48 817.99C932.57 814.44 928.76 809.76 925.34 806.19C922.8 803.39 919.06 800.52 916.16 801.13L916.01 801.15L916.02 801.14ZM1065.73 486.01C1065.24 477.17 989.55 511.25 980.99 519.39C978.9 520.97 975.75 523.86 980.88 523.25C996.72 520.52 1064.95 503.1 1065.74 486.1V486.01H1065.73ZM887.11 382.17C896.73 374.37 905.9 365.95 915.94 358.67C929.52 349.22 922.38 343.97 909.04 342.86C888.18 341.11 885.55 352.8 879.43 370.22C878.02 374.59 876.63 379.53 875.67 383.78C875.23 386.24 874.63 387.69 875.38 389.04C877.36 390.42 883.28 384.82 886.94 382.3L887.11 382.17ZM1101.13 469.56C1104.37 464.57 1095.14 451.18 1091.59 447.05C1090 445.45 1088.92 443.66 1087.1 443.96C1085.73 444.75 1085.4 446.94 1084.88 448.5C1083.43 454.12 1081.06 463.06 1079.7 468.85C1078.19 474.28 1082.75 473.05 1087 472.73C1091.2 472.04 1098.23 472.33 1101.05 469.65L1101.13 469.55V469.56ZM954.96 649.43C956.51 648.4 957.43 645.98 958.54 642.57C959.37 639.99 960.35 636.86 961.22 634.09C961.67 631.96 964.83 625.11 962.06 625.81C961.14 626.02 960.08 626.54 959.07 627.02C952.22 630.58 939.98 636.01 932.75 640.29C928.83 643.08 937.32 645.79 940.01 647.07C944.32 648.55 951.19 651.44 954.85 649.5L954.96 649.43Z" fill="#6A994E"/>
<path d="M487.41 983.73C492.25 983.83 502.61 988.63 502.7 993.8C502.81 999.82 485.78 1025.05 480.83 1030.25C471.65 1039.92 439.68 1064.44 434.83 1039.93C429.35 1012.28 460.65 983.16 487.41 983.73Z" fill="#386641"/>
<path d="M574.78 901.14C602.91 895.24 602.09 907.69 591.73 927.76C585.89 939.06 553.08 979.08 543.29 958.19C534.32 939.06 555.25 905.24 574.78 901.14Z" fill="#386641"/>
<path d="M591.84 988.47C592.27 988.64 598.11 994.75 598.32 995.17C608.82 1015.78 567.79 1061.58 551.03 1049.82C537.09 1040.05 567.5 978.66 591.84 988.47Z" fill="#386641"/>
<path d="M509.36 908.35C536.54 904.42 518.88 938.12 508.48 948.8C504.03 953.37 487.19 965.72 480.88 962.54C461.8 952.92 492.24 910.83 509.36 908.35Z" fill="#386641"/>
<path d="M516.37 1054.86C492.49 1076.24 482.38 1041.42 505.32 1028.08C527.05 1015.43 530.83 1041.92 516.37 1054.86Z" fill="#386641"/>
<path d="M412.92 1038.77C418.77 1061.28 405.21 1079.94 381.42 1079.98C377.71 1061.39 395.39 1041.96 412.92 1038.77Z" fill="#386641"/>
<path d="M778.83 300.5L778.81 300.3C775.84 244.56 730.38 230.63 686.59 258.95C654.19 280.41 629.15 310.51 620.03 347.82C616.09 362.74 613.14 378.61 616.89 393.97C618.68 402.4 622.25 410.29 625.96 417.99C627.05 420.26 628.18 422.7 627.81 425.19C627.58 426.75 626.79 428.17 626.01 429.54C624.42 432.34 622.82 435.15 621.23 437.95C620.79 438.72 620.29 439.55 619.47 439.87C618.84 440.12 618.14 440.02 617.47 439.92C606.53 438.32 600.4 441.74 589.73 443.77C575.85 446.3 562.39 452.16 550.3 459.58C535.35 468.25 525.36 479.72 512.32 489.51C498.92 498.29 478.84 502.69 463.25 495.94C444.12 487.13 428.31 468.2 421.66 447.83C419.94 440.35 423.12 433.53 424.12 426.25C425.45 416.83 423.29 403.46 421.68 392.83C419.54 378.41 415.06 364.53 411.1 350.26C409.51 342.97 405.62 333.89 407.72 327.05C409.84 322.84 413.99 320.66 418.54 320.13C422.04 319.72 429.48 319.67 432.13 322.06C435.47 325.07 439.38 327.19 443.65 328.45C450.05 330.33 456.45 333.73 463.19 332.71C468.51 331.91 474.75 329.75 478.67 325.91C486.24 319.46 489.65 309.67 493.45 300.7C500.27 285.54 502.13 269.02 506.12 253.1C513.88 227.99 522.87 215.67 491.96 203.06C471.21 196.86 447.45 216.66 435.89 232.56C427.95 242.47 425.88 259.1 413.32 264.87C407.77 267.4 400.6 269.83 395.1 269.64C385.34 269.53 381.65 259.29 376.83 252.4C372.48 245.87 367.45 239.82 361.83 234.62C355.07 228.36 348.02 222.76 340.11 219.44C310.46 209.82 270.74 210.09 240.81 209.85C230.87 209.8 221.41 211.87 211.56 213.64C202.59 215.33 193.12 215.56 184.67 219.08C172.64 223.97 163.01 233.13 150.24 236.53C101.18 246.39 49.8701 256.06 37.4301 312.24C23.7701 360.54 39.0301 404.82 58.3701 448.11C88.5201 520.07 110.74 594.34 128.95 670.23C133.83 692.66 136.02 717.83 145.74 738.94C148.74 745.39 152.53 751.45 157.35 756.69C161.8 761.64 167.79 765.54 171.4 770.06C175.95 775.24 176.53 782.3 176.48 788.97C176.56 803.36 179.13 820.58 182.51 834.88C185.51 849.92 193 851.3 207.6 847.11C214.3 845.61 222.19 843.65 224.9 836.54C227.54 830.8 227.06 823.8 229.86 819.92C231.32 818.11 233.22 818.36 235.74 819.76C244.68 826.04 254.01 831.05 265.91 828.54C301.15 819.83 335.98 808.35 370.64 798.29C389.26 793.12 386.99 776.18 374.29 765.55C369.9 761.84 364.47 759.05 358.69 757.15C347.58 753.43 335.38 753.13 327.6 743.85C322.42 737.45 317.81 729.15 317.29 720.88C317.04 714.33 320.44 709.14 321.48 701.72C322.4 694.38 320.46 685.84 316.36 679.61C300.68 636.11 265.84 575.92 251.13 533.56C238.65 497.7 220.63 448.74 213.09 412.26C212.18 406.52 209.51 395.92 211.99 391.99C216.01 388.05 224.41 389.91 229.99 389.6C252.91 389.7 279.9 385.85 297.39 404.11C310.72 417.31 312.71 439.74 320.39 455.77C323.61 462.47 329.98 465.14 335.54 469.33C348.6 480.13 360.69 532.23 368.68 545.84C368.83 546.1 368.99 546.34 369.15 546.57C370.28 549.46 371.63 552.23 372.87 554.31C405.69 611.78 518.64 623.55 549.31 557.85C553.57 549.58 557.49 541.29 565.29 536.09C568.11 534.32 575.1 529.64 576.77 533.39C577.54 536.87 575.8 542.39 577.64 546.03C580.92 553.35 592.16 551.2 596.71 545.49C607.65 531.76 605.79 525.92 623.34 516C639.88 504.41 647.43 496.69 641.35 476.6C638.27 465.83 637.11 451.39 644.18 441.89C648.27 436.55 655.04 435.41 661.49 435.49C725.99 434.08 782.92 364.12 778.84 300.52L778.83 300.5ZM276.15 711.37C273.74 723.29 260.41 729.62 250 734.15C242.65 737.44 235.76 741.02 229.01 744.1C220.46 747.95 211.8 751.47 203.29 755.46C196.29 758.59 188.78 761.63 181.09 761.49C142.02 761.07 139 681.06 130.71 650.92C119.48 607.47 107.83 563.24 91.9001 521.32C72.0401 470.45 40.8101 406.38 37.2901 359.69C36.3701 346.34 37.8801 332.32 40.5801 319C46.2501 290.05 63.3801 271.27 91.7201 260.17C102.74 255.55 113.79 252.54 126.25 250.02C130.86 249.41 142.7 245.76 145.32 249.91C146.69 252.11 145.92 256.66 145.88 262.19C145.86 267.76 146.54 273.42 148.09 278.77C149.28 282.79 151.01 286.33 152.95 289.58C157.37 296.66 162.19 303.03 164.82 310.88C181.58 353.96 172.54 407.43 186.58 452.35L186.65 452.53C188.69 458.19 190.17 469.14 192.15 474.88C210.41 532.12 233.62 582.58 254.89 638.73C261.78 655.55 270.47 675.4 274.69 692.79C276.34 699.93 277.29 705.94 276.15 711.36V711.37ZM312.92 681.48C313.99 686.24 316.27 692.86 316.34 694.44C317.33 698.94 316.65 703.95 312.37 706.36C306.78 709.63 298.46 710.98 291.47 710.77C285.23 710.43 282.16 705.93 280.68 699.83C256 596.83 190.68 505.05 181.03 398.68C181 392.09 181.07 387.31 184.64 384.59C188.91 381.56 198.6 383.63 202.76 388.6C207.27 393.42 207.41 399.48 208.23 406.5C219.28 499.59 274.8 599.99 312.93 681.47L312.92 681.48ZM392.89 282.76C395.86 274.44 415.17 276.16 422.56 267.95C430.27 261.09 431.88 247.76 438.75 241.39C443.32 239.1 447.35 246.84 450.96 249.11C478.11 272.28 500.1 249.76 497.64 267.69C494.36 282.84 487.24 302.86 480.14 314.58C476.87 321.09 470.3 323.33 463.72 325.04C454.24 327.51 432.31 321.93 431.21 310.5C430.93 307.62 430.66 304.74 430.38 301.86C428.71 301.91 427.39 303.2 426.14 304.3C413.72 315.16 401.67 313.36 396.08 297.77C394.4 293.07 391.73 287.6 392.89 282.75V282.76ZM607.68 519.27C607.8 519.38 608.02 519.62 608.2 519.82C608.04 519.65 607.79 519.38 607.68 519.27ZM628.04 502.92C615.79 513.37 605.55 517.06 589.56 518.07C573.51 519.58 560.34 529.36 552.17 543.09C546.36 551.81 539.7 562.68 533.03 570.7C494.36 611.18 417.03 596.88 382.6 557.05C379.12 552.98 375.97 548.5 373.5 543.85C373.36 543.65 373.14 543.26 372.87 542.77C372.32 538.94 370.99 535.21 369.32 530.48C353.19 488.09 351.09 469.49 385.57 456.08C399.19 451.38 411.24 444.85 420.2 460.95C428.42 473.74 436.39 488.12 449.17 496.96C456.07 501.36 463.93 502.67 471.69 504.46C480.39 506.31 489.56 508.06 498.23 505.17C520.84 497.49 537.56 474.02 559.25 462.98C575.69 454.88 603.74 443.22 621.45 448.97C632.01 453.73 619.88 460.6 620.11 466.42C621.41 469.24 625.79 469.82 627.01 472.67C627.92 475.11 626.04 478.16 626.34 480.73C627.55 485.67 636.06 484.24 638.13 488.15C639.88 493.67 632.09 499.1 628.04 502.91V502.92ZM752.44 347.29C740.12 368.9 722.68 388.15 701.54 401.21L701.37 401.31C687.63 409.05 669.64 416.42 653.56 411.88C645.96 409.54 638.16 405.21 632.89 399C622.54 386.36 622.76 369.55 626.77 354.34C629.15 343.68 632.44 333.3 637.54 323.7C655.62 288.98 695.92 250.02 734.57 252.82C750.56 253.7 760.63 264.15 764.67 279.49C770.53 302.56 763.85 326.92 752.43 347.28L752.44 347.29Z" fill="#386641"/>
<path d="M657.69 316.54C645.69 325.94 640.41 347.59 642.79 363.27C643.31 366.13 644.33 370.54 646.88 371.7L646.95 371.72C650.43 371.9 650.34 362.91 650.45 360.11C650.48 353.02 651.09 345.98 653.91 339.44C656.82 332.04 662.88 325.81 665.99 318.63C668.89 310.75 661.11 313.52 657.69 316.54Z" fill="#386641"/>
<path d="M745.04 298.67L744.94 298.76C740.7 303.19 742.37 313.22 740.76 319.3C740.45 322.65 736.32 333.26 742.03 332.92C753.17 330.11 760.19 309.78 753.76 301.34C751.78 298.41 747.89 296.2 745.05 298.67H745.04Z" fill="#386641"/>
</svg>
