<svg width="1200" height="1200" viewBox="0 0 1200 1200" fill="none" xmlns="http://www.w3.org/2000/svg">
<path d="M387.15 852.05C402.96 851.54 419.08 856.07 431.34 866.25C451.95 882.98 461.9 909.32 481.05 927.78C498.56 945.02 521.19 931.25 541.65 926.96C582.74 916.47 626.38 924.54 664.36 942.24C674.49 946.54 684.53 953.01 694.71 956.69C706.68 961.11 715.04 954.11 722.45 945.35C736.7 928.69 754.26 914.79 772.17 902.17C811.1 875.92 853.79 848.74 902.43 850.53C918.5 851.11 936.55 853.02 948.6 864.62C960.77 876.58 961.52 897.33 953.67 912.51C950.98 917.8 946.92 922.43 942.95 926.74C938.98 931.15 934.51 936.1 934.2 941.88C933.65 947.65 937.11 953.69 939.92 958.99C959.89 991.38 934.33 1038.03 914.67 1072.02C905.83 1086.61 896.58 1099.95 886.44 1113.44C875.41 1127.68 864.37 1142.69 848.95 1151.97C835.39 1160.15 818 1161.69 802.65 1157.63C768.55 1148.62 755.57 1112.48 742.41 1081.39C739.86 1075.93 736.23 1064.2 730.16 1063.99C726.33 1063.56 720.51 1073.03 717.64 1078.22C714.47 1083.75 711.04 1089.54 707.37 1095.14C697.42 1110.18 685.81 1125.12 669.8 1133.47C636.82 1149.66 588.2 1139.43 558.94 1118.68C554.38 1115.29 550.07 1111.18 545.97 1107.17C539.76 1101.09 531.53 1093.52 522.73 1096.49C516.16 1098.43 509.38 1105.32 502.21 1111.69C469.86 1140.77 432.57 1170.3 389.82 1172.55C376.45 1173.26 362.5 1171.03 349.71 1166.35C296.98 1147.94 309.83 1099.4 339.55 1064.3C343.23 1059.59 353.03 1048.35 349.68 1046.06C347.16 1043.35 335.58 1044.3 330.79 1044.32C308.34 1045.22 283.34 1042.76 267.26 1025.69C244.26 998.63 259.67 948.26 276.82 918.41C299.44 881.63 343.63 854.09 386.96 852.03H387.16L387.15 852.05Z" fill="#CED4DA"/>
<path d="M358.18 432.13C364.36 436.17 367.49 444.21 368.85 453.92C373.64 521.31 367.07 596.73 361.28 664.43C356.81 710.72 345.86 761.44 335.7 805.59C327.98 837.21 303.93 902.55 270.5 912.49C261.35 915.25 251.32 913.43 243.08 908.77C231.4 902.66 224.81 891.26 213.37 887.06C202.76 884.47 193.29 896.3 185.53 903.12C163 923.95 132.5 947.03 100.86 941.06C86.7198 938.43 73.0298 931.15 63.7598 920.04C57.0098 911.97 53.0898 902.11 51.3798 891.72C39.9498 745.07 170.44 597.28 263.67 493.88C274.44 482.12 285.6 470.18 297.1 458.77C311.62 444.35 338.24 420.74 358.06 432.05L358.17 432.12L358.18 432.13ZM319.3 483.64C308.48 475.75 269.3 543.79 262.19 553.07C207.22 637.81 113.1 761.67 95.4098 857.32C91.7498 880.65 99.8098 895.52 125.7 888.06C166.02 875.26 189.55 837.26 206.91 800.28C210.91 791.77 214.76 782.25 219.61 774.38C222.07 770.41 224.5 767.47 226.75 766.1C243.35 756.33 235.82 831.41 249.52 846.11C260.48 861.29 279.6 846.63 287.31 833.78C315.07 787.94 322.91 705.03 327.25 643.03C328.22 627.07 328.73 611.84 328.94 595.96C329.46 570.44 328.59 542.87 325.99 517.05C324.78 507.96 325.85 488.87 319.37 483.69L319.3 483.65V483.64Z" fill="#A7C957"/>
<path d="M680.12 38.06C684.78 37.28 690.42 38.23 695.38 38.65C717.02 41.31 739.71 35.49 761.61 35.85C771.74 37.46 768.39 49.21 768.43 56.49C768.21 65.8 768.45 74.81 768.84 84.86C771.91 137.33 779.96 207.82 823.62 242.52C873.11 281.91 936.76 273.81 989.97 240.69C994.98 237.48 998.91 233.65 997.9 227.63C995.96 218.7 990.37 210.86 986.28 201.63C983.04 194.16 977.11 184.47 986.77 182.04C995.3 180.5 1007.35 182.45 1016.56 183.05C1027.94 184.11 1039.37 184.65 1050.77 183.99C1069.95 184.56 1150.67 166.55 1157.54 181.86C1152.78 211.01 1109.26 304.5 1088.16 339.68C1085.97 342.2 1082.88 339.95 1080.93 337.95C1077.82 334.94 1073.35 329.46 1068.33 323.55C1039.33 290.2 1050.1 292.97 1022.01 310.98C973.47 338.99 916.24 348.27 860.8 342.14C770.04 328.32 697.17 246.43 673.88 160.11C671.09 149.63 670.07 142.33 669.34 129.74C668 107.63 667.65 75.93 670.66 55.43C672.2 47.81 672.55 39.49 679.99 38.08L680.11 38.05L680.12 38.06ZM735.09 87.03C730.82 82.62 724.14 81.73 718.23 81.49C709.77 81.34 701.57 82.27 697.15 88.26C693.13 93.73 693.32 101.45 693.73 108.15C695.86 135.02 701.94 161.02 712.63 185.62C726.02 216.41 746.66 243.68 771.93 265.83C842.78 326.49 910.62 339.39 994.35 295.53C1004.01 290.67 1013.48 285.2 1023.16 279.62C1032.31 274.56 1043.58 267.94 1053.85 272.76C1056.85 274.09 1059.84 276.28 1062.75 278.94C1069.86 284.95 1074.84 294.27 1082.06 293.36C1088.78 291.37 1092.32 282.07 1095.65 276.21C1104.53 258.4 1113.6 240.42 1122.2 222.46C1127.62 211.25 1130.27 199.57 1113.45 199.87C1085.21 199.87 1057.65 205.61 1029.78 207.36C1023.7 207.74 1017.32 208.22 1012.21 211.53C1011.86 215.31 1013.6 218.94 1015.39 222.29C1017.5 226.23 1019.76 230.1 1022.14 233.88C1028.65 244.19 1020.15 251.03 1012.29 257.63C910.21 343.3 776.94 291.04 749.52 164.42C745.31 147.44 742.96 130.27 741.61 112.91C740.68 103.77 741.22 93.74 735.23 87.14L735.12 87.02L735.09 87.03Z" fill="#CED4DA"/>
<path d="M1073.16 337.83C1097.63 347.14 1117.35 366.84 1129.15 390.05C1168.59 468.98 1104 575.26 1013.46 565.32C983.88 561.52 956.05 543.69 939.94 518.61C930.12 502.58 927.83 483.51 925.65 464.98C915.94 388.71 997.19 310.33 1072.96 337.76L1073.14 337.83H1073.16ZM1087.59 391.06C1085.88 389.83 1082.41 389.39 1077.94 388.88C1073.83 388.45 1069.17 387.88 1065.43 387.58C1058.85 386.95 1054.51 388.07 1052.13 394.28C1043.94 414.68 1036.39 441.41 1030.95 460.79C1030.21 462.75 1029.54 464.3 1027.61 464.77C1024.38 465.71 1016.15 460.11 1010.89 456.68C1006.6 453.89 1002.33 451.11 998.04 448.32C991.84 444.66 985.7 438.87 979.45 443.37C976.37 446.09 975.11 449.92 973.34 453.79C970.83 460.44 965.7 468.45 968.79 474.81C970.37 477.65 974.33 479.22 979.1 481.7C981.69 483.03 984.22 484.39 986.82 485.8C998.51 491.41 1046.57 522.14 1054.19 514.28C1056.52 511.79 1057.2 508.74 1058.44 504.92C1059.36 501.81 1060.42 498.03 1061.6 493.91C1064.04 485.37 1067.1 474.58 1069.43 466.44C1075.46 445.36 1081.28 424.81 1087.56 402.78C1088.3 399.14 1090.9 393.84 1087.7 391.13L1087.62 391.07L1087.59 391.06Z" fill="#6A994E"/>
<path d="M1024.97 764.69C1031.69 756.68 1031.29 749.77 1027.19 739.88C994.32 662.76 957.82 586.73 933.89 506.13C928.71 487.64 924.76 468.9 919.16 450.57C909.38 417.18 899.99 383.56 889.01 350.55C887.24 345.33 885.64 341.06 884.01 338.97L883.95 338.9C880.34 334.45 876.67 340.92 871.71 346.11C842.16 380.26 799.97 431.04 775.95 460.58C772.5 464.89 772.2 470.52 773.45 476.49C774.49 482.09 777.02 489.71 779.5 496.2C791.01 526.23 807.33 558.03 819.37 587.95C854.41 674 893.8 758.43 928.01 844.84C930.36 850.37 932.32 853.97 934.71 854.32C936.86 854.57 939.46 852.56 941.28 850.72C958.85 834.43 1007.84 786.82 1024.94 764.69H1024.97Z" fill="#A7C957"/>
<path d="M1095.46 856.56C1071.49 819.01 1014.13 798.38 985.67 842.08C974.25 859.61 971.89 918.88 978.57 939.2C981.49 948.09 999.74 971.8 1006.84 977.88C1027.04 995.2 1047.77 991.7 1071.04 983.5C1128.06 963.4 1123.51 900.49 1095.47 856.56H1095.46Z" fill="#A7C957"/>
<path d="M836.74 750.44C833.36 750.54 830.53 750.28 828.93 749.08L828.82 749C826.54 747.38 827.04 743.58 827.52 740.83C834.87 700.45 832.24 658.09 828.59 617.29C827.74 608.31 825.75 600.72 822.07 592.23C808.1 561.46 781.34 531.6 756.13 514.38C733.01 500.24 703.19 495.09 676.01 493.13C671.16 493.05 665.72 493.25 660.79 493.19C656.82 493.25 652.6 492.86 650.94 490.36C648.49 487.01 647.02 480.22 645.54 475.55C644.17 469.87 641.81 464.32 643.75 458.69C645.34 454.26 650.24 449.87 653.61 445.24C658.82 438.42 661.88 420.78 661.9 412.5C662.78 411.03 663.37 409.24 664.05 407.83C667.11 399.65 669.97 390.13 665.9 385.17C664.18 382.85 661.08 381.64 659.2 379.65C657.56 378.03 658.57 375.56 659.59 373.77C666.8 362.69 674.94 344.64 655.13 339.95C633.09 334.59 628.65 350.72 630.29 368.3C630.67 372.64 629.4 375.37 624.73 376.65C619.68 378.37 612.94 378.54 608.99 382.49C600.69 392.9 598.45 413.9 597.74 427.84C597.07 439.56 608.05 449.83 605.65 460.77C603.5 467.5 598.32 474.65 594.77 480.32C591.77 485.14 588.76 487 582.27 487.01C569.78 487.77 553.7 485.27 541.53 488.93C510.77 498.92 456.59 543.81 427.59 577.14C422.84 582.76 419.12 587.43 415.24 594.11C388.43 638.12 388.2 690.9 396.22 740.57C395.23 744.33 389.93 743.57 386.79 743.54C371.83 742.13 362.28 754.07 354.1 764.66C345.91 774.94 338.87 787.06 339.01 800.58C338.29 812.49 343.32 819.85 353.17 826.2C374.18 841.47 398.45 851.04 422.85 859.35C428.41 861.6 432.45 864.19 438.05 865.66C458.23 871.67 486.91 880.13 507.3 886.19C529.45 890.8 500.8 898.68 498.59 918.36C496.95 929.79 511.37 932.67 520.32 932.23C529.62 932.01 536.63 929.3 544.28 926.98C553.27 924.67 562.25 921.64 570.18 916.82C573.88 914.75 577.2 911.76 580.97 909.96C583.3 908.82 586.19 908.68 588.92 909.12C604.72 911.55 623.42 915.33 639.1 919.93C662.13 927.18 689.19 942.76 711.14 936.16C719.1 933.98 726.89 927.71 727.79 918.95C729.47 908.08 718.74 898.55 720.67 893.72C722.14 891.28 727.85 891.04 730.88 890.27C743.86 887.93 756.7 884.49 769.62 881.17C778.26 878.8 787.34 878.08 795.95 875.75C801.11 874.29 806.23 871.94 811.59 870.29C823.31 866.84 835.68 865.18 846.75 859.88C850.34 858.24 853.89 856.48 857.58 855.09C864.45 852.58 872.62 851.56 877.82 845.85C887.43 834.81 887.06 818.48 888.18 804.29C890.27 768.57 873.16 746.95 836.74 750.43V750.44ZM720.74 810.61L720.84 810.54C722.17 809.62 723.78 809.4 725.45 809.33C736.07 809.01 757.05 812.78 772.63 813.24C775.65 813.43 779.81 813.08 781.43 815.84C782.09 817.01 782.18 818.67 781.8 820.61C780.69 826.53 776.59 831.62 772.73 836.12C769.46 840.01 766.79 844.47 764.21 848.95C760.85 854.01 751.78 873.78 744.29 868.95C740.16 864.11 746.96 852.02 748.64 846.64C751.48 839.43 749.14 837.1 743.13 842.62C738.61 846.73 735.01 851.79 729.71 854.66C724.73 857.57 719 856.26 719.83 849.56C720.06 844.91 723.9 840.03 722.82 835.35C720.43 831.25 710.12 845.21 705.61 842.37C703.11 840.12 711.44 830.85 712.45 827.65C714.83 823.04 716.52 817.27 718.23 813.86C718.86 812.61 719.64 811.4 720.74 810.59V810.61ZM708.59 644.82L708.66 644.85C710.83 646.04 710.83 648.14 711.51 651.19C712.16 654.77 712.88 659.79 713.57 665.68C715.48 681.83 717.2 704.24 717.26 721.15C717.13 729.91 717.34 737.96 714.98 744.78C713.5 748.25 711.23 747.66 710.54 744.53C707.19 729.67 704.2 681.33 703.33 661.4C703.38 657.31 703.08 644.21 708.59 644.82ZM606.26 413.75C610.24 408.35 616.64 411.11 623.64 410.96C632.09 411.33 641.66 410.2 649.64 411.31C651.47 411.57 655.28 412.99 656.34 414.58C657.66 416.55 656.37 420.5 656.12 422.63C655.86 424.85 655.64 427.07 655.43 429.29C654.53 443.23 648.36 446.85 637.76 454.5C616.49 468.7 597.65 432.16 606.26 413.75ZM601.15 476.09C604.52 471.37 605.77 464.58 610.58 462.18L610.72 462.13C614.09 460.86 618.99 461.7 623.11 462.16C627.14 462.71 631.29 463.29 635.19 464.2C641.18 465.15 641.41 470.93 643.15 475.63C644 478.32 643.66 481.08 644.57 483.73C645.44 486.63 647.54 490.91 644.57 492.42C643.21 493.06 641.02 493.1 639.29 493.13C631.73 492.82 595.01 495.09 592.71 488.48C592.28 485.31 598.99 480.03 601.16 476.1L601.15 476.09ZM505.14 641.42L505.2 641.24C508.94 630 513.02 632.08 511.64 642.89C510.13 660.66 504.28 684.85 502.16 699.91C499.61 718 502.64 737.41 501.76 755.3C501.51 759.88 501.12 767.89 497.36 770.15C494.98 770.99 494.19 766.5 494.03 764.38C490.98 728.09 494.58 675.26 505.14 641.42ZM439.11 786.27L439.18 786.15C443.72 778.91 470.77 781.95 481.63 781.38C485.89 781.31 490.15 781.09 492.21 785.65C495 791.26 497.01 797.85 499.95 803.45C503.64 811.17 510.82 820.4 507.43 829.2C504.74 832.84 500.28 827.63 496.7 827.69C493.01 827.38 491.6 831.57 489.31 833.58C486.04 836.1 482.24 832.5 479.95 830.12C476.52 826.68 474.64 822.22 471.42 818.68C470.12 817.37 468.44 815.94 466.58 816.51C463.43 817.89 463.49 823.29 460.31 824.5C448.55 827.15 433.23 798.02 439.12 786.26L439.11 786.27ZM881.62 813.41L881.59 813.61C879.86 823.24 878.83 836.76 870.83 842.34C860.8 849.72 848.76 855.15 836.57 858.03C823.22 862.38 809.54 865.42 795.76 868.52C784.59 871.12 773.74 873.64 762.74 876.89C749.25 880.66 733.29 885.95 719.39 888.48C697.23 891.71 679.96 866.36 651.2 867.45C644.42 867.63 636.89 868.2 631.34 872.4C627.84 875.2 626.85 879.29 624.45 884.46C620.74 893.26 612.56 903.02 603.69 905.06C592.43 908.11 579.38 903.71 568.05 901.12C549 896.52 530.74 890.2 512.21 884.48C488.9 877.18 461.68 868.86 437.49 860.5C412.88 850.63 386.58 835.33 362.27 825.79C355.49 823.28 349.14 819.02 346.6 811.91C338.65 790.48 355.82 770.25 370.6 756.35C375.01 752.11 378.86 748.46 385.52 748.35C390.97 748.23 397.73 749.26 400.98 754.03C403.39 757.43 404.32 762.63 406.4 767.03C408.75 772.56 413.35 777.38 418.89 780.06C423.02 782.46 428.28 783.05 431.01 786.87C434.72 795.42 432.84 806.57 439.37 817.56C441.97 822.04 445.81 825.92 450.69 827.76C457.99 830.65 466.65 828.36 473.63 832.39C477.65 834.48 480.81 839.18 485.29 840.15C490.01 841.01 492.44 835.09 496.88 834.88C500.29 834.8 504.3 838.13 507.87 837.58C516.55 835.52 513.8 823.61 511.43 817.46C508.58 809.93 503.61 803.66 500.63 796.3C499.18 792.8 497.95 789.09 496.99 785.45C495.16 778.65 497.76 776.77 503.69 778.24C535.02 785.82 574.73 802.64 599.82 823.16C604.46 826.93 608.82 831.18 612.49 836C617.44 842.41 621.03 849.55 625.59 855.89C628.62 860.3 632.14 862.32 630.48 855.09C629.32 850.39 627.07 845.97 624.58 841.84C621.03 835.85 615.56 830.41 622.63 825.29C646.01 806.66 674.2 795.5 702.21 785.83C710.69 782.79 713.2 785.43 713.14 794.14C713.86 807.04 713.95 818.12 706.24 828.92C703.15 834.25 697.06 841.39 700.72 847.6C702.65 850.41 707.18 850.96 710.32 853.17C714.96 856.21 717.05 863.84 723.7 862.71C726.16 862.49 728.78 861.53 731.23 861.91C732.35 862.09 733.31 862.64 734.01 863.52C735.86 865.75 736.05 870.69 738.13 873.23C740.67 876.55 745.56 876.14 749.4 874.36C756.1 871.29 760.9 865.17 764.57 858.9C768.2 852.68 770.82 845.91 774.5 839.72C778.39 832.92 783.8 827.14 787.39 820.44C790.64 813.43 796.45 808.26 802.43 803.45C814.77 792.98 815.82 776.88 819.16 766.43C821.51 757.84 827.45 754.37 836.83 754.24C848.57 754.26 861.53 758.09 871.11 765.13C877.57 770.06 881.89 778.47 883.37 786.14C885.04 795.3 882.99 804.3 881.64 813.45L881.62 813.41Z" fill="#386641"/>
<path d="M645.63 260.65C675.5 228.93 707.72 250.65 695.36 290.19C682.03 332.86 619.51 288.39 645.63 260.65Z" fill="#BC4749"/>
<path d="M739.99 355.04C716.53 378.49 688.92 359.54 706.16 325.89C726.46 286.29 769.93 325.11 739.99 355.04Z" fill="#BC4749"/>
<path d="M699.66 393.88C721.56 387.81 725.31 415.78 709.99 429.34C686.09 450.49 679.87 399.36 699.66 393.88Z" fill="#BC4749"/>
<path d="M662.87 100.66C643.9 60.5399 595.87 45.5699 554.36 41.8699C434.88 36.5199 323.3 81.7599 226.63 150.55C175.03 186.35 128.53 234.15 111.16 295.94C103.8 320.99 99.8698 348.84 109.39 373.79C117.67 395.35 135.89 411.74 155.49 423.67C213.82 457.81 287.77 442.72 350.53 429.01C462.43 398.44 612.91 300.69 657.49 191.98C662.94 177.81 667.79 161.76 668.76 146.17C669.41 130.97 668.67 115 662.93 100.84L662.85 100.66H662.87ZM304.83 329.45C205.35 241.26 346.23 74.86 458.69 136.57C503.07 160.31 519.44 210.16 504.93 257.07C481.61 336.56 372.61 391.32 305 329.59L304.84 329.45H304.83ZM315.81 172.64C207.54 279.88 359.82 417.22 465.84 308.53C510.48 263.22 518.95 195.4 468.06 153.04C422.56 115.53 357.32 127.69 315.99 172.46L315.81 172.65V172.64ZM402.85 188.64C407.05 188.57 413.25 194.86 417.5 197.61C431.3 207.98 439.19 201.21 442.64 186.2C445.13 177.91 446.04 158.51 450.74 154.66C454.53 153.54 454.81 164.96 454.71 168.29C454.5 175.26 453.07 182.61 451.15 189.39C446.08 208.55 436.78 220.28 418.79 210.73C412.47 207.45 405.76 200.56 402.85 194.76C401.1 191.28 401.15 188.93 402.79 188.65H402.86L402.85 188.64ZM312.26 232.82C313.82 229.18 321.05 236.86 324 238.6C333.72 246.12 346.35 246.27 353.84 235.69C358.95 228.71 360.08 219.78 361.93 211.37C362.43 209.47 364.79 197.15 367.28 199.69C368 200.65 368.45 203.39 368.5 207.28C368.04 222.11 366.54 245.63 352.21 253.98C340.87 260.32 325.52 255.66 317.25 245.34C314.59 242.36 311.28 235.38 312.24 232.89L312.26 232.82ZM442.56 288.75C422.21 316 379.57 327.75 351.75 306.11C343.74 297.85 362.49 302.79 366.54 303.98C409.16 317.51 430.62 295.43 448.48 260.51C450.61 256.62 452.82 252.92 454.96 249.98C458.85 244.38 463.54 241.12 462.32 248.64C459.78 260.3 450.71 277.9 442.69 288.58L442.56 288.75Z" fill="#BC4749"/>
<path d="M460.74 243.99C464.34 248.02 446.08 282.62 441.53 288.59C418.54 318.72 377.98 325.91 348.68 301.54C347.66 295.02 350.18 296.3 355.1 298.24C394.16 313.61 416.2 312.8 440.08 274.68C441.75 272.01 454.8 237.34 460.74 243.99Z" fill="#FEFEFE"/>
<path d="M401.61 184.82C414.8 185.63 421.63 210.81 435.92 202.04C444.07 197.04 444.19 163.55 448.34 153.67C462.64 159.03 447.44 206.52 438.94 211.24C420.63 221.4 397.07 189.97 401.6 184.82H401.61Z" fill="#FEFEFE"/>
<path d="M357.25 249.44C343.05 262.65 310.01 250.16 311.29 228.42C316.93 222.08 325.95 252.64 344.64 244.79C367.5 235.18 354.29 210.38 367.3 197.26C368.32 210.94 367.86 239.56 357.25 249.43V249.44Z" fill="#FEFEFE"/>
</svg>
