<svg width="1200" height="1200" viewBox="0 0 1200 1200" fill="none" xmlns="http://www.w3.org/2000/svg">
<path d="M812.06 529.01C820.84 530.15 828.84 531.26 835.69 532.24C849.21 534.18 867.43 536.27 878.8 543.79C890.86 551.76 900.21 566.59 908.81 577.93C918.44 590.63 918.94 612.58 919.92 628.13C921.01 645.49 920.18 663.02 917.12 680.15C911.17 713.42 896.36 746.25 869.53 767.78C847.16 785.72 820.79 800.02 795.47 813.25C774.6 824.16 751.94 837.13 728.1 838.01C718.53 838.36 708.95 838.05 699.41 837.32C695.25 837 690.65 837 686.89 835.55C683.82 834.37 682.13 833.17 678.51 833.17C673.49 833.17 668.47 833.17 663.45 833.17C662.05 833.17 660.61 833.16 659.33 832.59C655.96 831.09 655.16 826.5 652.14 824.39C650.03 822.91 647.24 822.93 644.67 823.19C642.09 823.46 639.51 823.92 637.14 824.98C634.91 825.98 632.84 827.51 630.41 827.75C626.95 828.1 624.67 823.6 621.98 821.87C618.36 819.55 614.82 817.32 611.55 814.5C604.6 808.49 598.97 801.1 594.09 793.36C581.37 773.17 567.53 750.63 561.42 727.39C554.3 700.29 551.2 625.18 561.31 600.25C567.65 584.62 578.29 571.05 589.35 558.5C600.41 545.95 609.96 534.19 625.66 527.99C652.95 517.23 686.67 518.73 715.63 519.97C747.88 521.35 780.05 524.83 812.05 528.99L812.06 529.01Z" fill="#6A994E"/>
<path d="M777.62 201.22C779.16 203.11 780.3 206.69 781.24 208.73C782.72 211.92 783.92 215.24 784.98 218.59C787.13 225.33 788.67 232.24 790.4 239.09C805.75 299.85 814.57 356.96 832.9 418.09C835.2 425.77 836.5 433.58 838.76 441.18L656.95 516.24C642.87 519.44 627.06 528.39 612.96 533.56C559.15 553.66 505.78 575.46 452.5 596.56C451.89 596.8 451.12 597.02 450.64 596.56C450.37 596.31 450.3 595.92 450.23 595.56C443.9 560.43 436.76 525.35 430.09 490.22C424.73 462.03 419.38 433.85 414.02 405.66C415.32 400.19 433.43 387.99 439.02 383.97C466.16 364.43 502.38 340.55 530.85 322.81C543.97 314.64 559.31 304.25 571.9 296.83C594.46 283.53 617.4 270.88 640.66 258.87C665.33 246.13 690.39 234.1 715.96 223.24C726.19 218.9 736.5 214.75 746.91 210.89C756.5 207.33 766.47 204.47 775.78 200.44C775.99 200.35 776.21 200.26 776.43 200.29C776.68 200.32 776.89 200.47 777.07 200.64C777.25 200.8 777.43 200.99 777.6 201.2L777.62 201.22Z" fill="#CED4DA"/>
<path d="M776.68 200.27C770.74 200.26 764.8 199.52 758.96 198.39C749.38 196.5 739.7 194.11 731.18 189.2C722.75 184.46 715.57 177.59 709.92 169.78C705.45 163.62 700.15 157.16 691.9 158.74C687.48 159.41 682.84 161.6 678.59 163.4C648.84 176.34 621.76 170.31 595.45 151.61C585.47 144.4 575.81 135.57 569.06 125.36C558.27 108.85 558.63 92.51 560.58 71.51C561.31 63.98 562.88 56.0099 567.85 50.2099C573.85 43.1399 582.51 40.6599 591.38 36.0699C596.16 33.6899 600.88 31.1799 605.68 28.86C635.91 13.24 631.05 32.9899 638.47 54.6599C647.8 83.2799 672.69 95.17 700.8 83.68C707.44 81.06 713.92 76.61 719.91 73.26C737.33 63.03 739.61 86.1099 747.29 96.1499C750.75 101.11 755.16 105.16 760.45 108.08C776.88 116.93 798.6 116.55 815.57 108.53C823.58 105.39 832.88 98.1899 841.46 100.17C844.69 101.08 847.17 103.74 849.25 107.59C850.82 110.43 852.25 114.12 853.69 117.34C862.03 135.86 877.8 151.25 896.22 158.68C905.79 162.53 916.71 164.6 926.71 167.27C934.24 169.36 941.95 171.76 943.7 179.47C946.45 201.1 932.65 233.8 919.18 250.61C911.7 259.94 899.72 262.91 888.15 262.24C868.26 261.42 848.99 253.26 836.37 238.55C830.52 231.67 826.46 223.28 825.15 214.32C823.66 206.12 825.91 198.98 823.28 192.91C820.18 187.82 809.35 193.87 804.59 195.09C795.67 198.18 786.22 200.38 776.86 200.28H776.67L776.68 200.27Z" fill="#A7C957"/>
<path d="M690.88 836.11C687.75 822.82 670.8 834.1 663.05 830.11C660.31 828.22 660.05 824.39 658.49 821.67C655.17 815.9 648.32 818.07 643.37 820.26C637.37 822.91 631.96 827.38 625.28 823.35C623.47 822.26 622.03 820.66 620.62 819.08C609.2 806.31 597.11 794.29 586.44 780.86C574.88 766.31 564.45 750.9 554.15 735.44C546.67 723.25 536.4 713.32 527.78 701.78C521.19 693.23 516.78 683.7 518.74 672.91C519.85 662.99 520.31 652.42 512.83 645.32C497.19 629.92 471.85 607.02 450.03 596.18C439.11 590.26 428.74 581.15 415.5 581.23C391.74 581.68 389.7 589.07 366.22 574.99C363.86 573.61 361.56 571.46 362.18 568.53C363.94 559.33 375.67 531.21 362.6 518.47C359.02 514.55 354.42 511.62 354.42 506.01C354.08 501.4 355.04 496.3 352.86 494.25C342.87 488.24 316.94 511.2 309.66 518.16C300.32 526.16 288.54 550.09 295.39 561.73C297.39 564.69 301.98 565.88 302.43 569.78C302.74 572.15 300.99 576.99 300.3 580.78C298.63 589.16 298.08 599.05 299.86 606.99C301.56 617.37 310.55 625.02 321.06 620.24C333.81 614.76 331.71 595.92 346.8 606.09C349.35 607.62 352.73 608.86 353.63 611.85C354.16 616.1 350.24 620.04 348.38 624.86C346.06 630.25 345.19 636.22 345.87 642.03C348.97 672.36 386.97 695.14 383 722.71C380.33 734.4 367.96 748.57 360.29 759.71C356.8 765.13 354.99 771.44 351.13 776.59C332.88 798.64 310.59 819.31 292.76 842.78C283.04 852.91 273.61 862.7 264.79 873.48C231.16 914.37 215.47 966.64 205.13 1017.71C202.84 1030.17 201.2 1042.78 200.48 1055.42C200.02 1068.6 199.09 1083.23 204.44 1095.58C208.33 1105.45 219.29 1105.13 218.33 1110.69C217.34 1114.84 214.31 1118.62 212.57 1123.24C209.99 1128.91 208.69 1135.25 205.44 1139.82C193.75 1150.74 158.02 1127.74 150.13 1154.24C148.79 1159.2 146.81 1168.33 154.17 1168.34C177.51 1164.64 260.87 1184.23 268.46 1169.87C270.99 1159.77 268.39 1137.17 269.28 1122.7C269.81 1115.61 277.33 1113.61 281.08 1108.6C290.93 1094.43 292.15 1078.86 294.86 1060.82C298.76 1033.07 297.55 1003.83 306.9 977.41C314.65 957.84 327.1 940.3 340.15 924.03C345.6 917.34 351 910.51 357.47 904.77C367.03 896.29 378.6 890.54 388.88 882.93C394.67 878.77 400.3 874.29 405.8 869.8C411.63 864.75 414.27 866.67 415.21 873.4C417.32 886.25 419.04 900.06 423.35 912.25C440.73 957.34 495.26 1068.12 528.35 1103.83C548.44 1126.85 549.99 1103.89 562.71 1126.57C564.47 1129.46 566.64 1132.31 567.56 1135.53C570.28 1146.16 535.62 1149.83 537.69 1178.01C538.75 1192.82 552.9 1190.45 563.18 1186.33C579.48 1180.03 608.59 1165.09 622.69 1156.27C671.85 1121.94 608.19 1104.93 605.34 1078.46C607.97 1057.33 605.6 1059.59 593.81 1042.93C586.69 1032.05 579.4 1021.08 570.79 1011.78C567.04 1007.62 563.76 1003.16 561.21 998.2C534.64 944.41 489.65 856.43 508.64 796.14C510.3 791.53 511.99 786.96 512.85 782.05C514.27 777.2 512.33 764.74 518.55 770.59C532.53 783.28 560.01 813.35 575.81 830.72C586.11 842.23 599.38 850.41 613.93 855.55C630.97 860.42 660.15 866.79 676.14 858.31C684.2 854.12 692.12 845.86 690.89 836.3L690.86 836.13L690.88 836.11ZM308.84 611.36C303.78 608 304.04 583.99 305.62 579.67C306.8 575.91 311.38 575.4 315.44 574.86C319.53 574.41 324.5 574.09 328.49 573.56C333.15 572.86 335.93 573.95 336.26 577.85C338.61 587.32 323.29 617.86 308.94 611.43L308.84 611.37V611.36ZM342.67 599.37C337.8 593.66 341.99 587.65 346.91 583.51C349.94 580.95 352.94 577.31 356.77 576.38C357.74 576.23 358.67 576.38 359.62 576.72C363.44 578.07 369.5 582.58 375.06 585.06C377.81 586.3 382.02 587.75 379.65 591.44C372.28 601.58 363.8 610.59 351.67 605.1C348.47 603.75 345.11 602.1 342.8 599.52L342.67 599.37ZM511.33 900.93C523.33 937.15 548.78 998.05 572.56 1026.15C576.46 1031.58 580.85 1037.99 584.66 1043.74C589.77 1052.13 596.9 1060.1 598.56 1069.57C599.81 1076.21 595.3 1081.49 589.95 1084.8C586.23 1087.33 585.04 1087.72 581.4 1090.36C574.56 1094.85 548.87 1112.44 541.96 1105.26C534.47 1095.68 526.81 1087.99 519.36 1078.04C512.24 1067.65 504.98 1060.23 499.21 1049.24C469.16 990.53 427.81 934.59 420.5 867.29C418.8 844.41 403.58 862.55 395.19 870.2C382.63 881.6 366.53 889.93 354.32 901.88C350.37 905.69 346.51 909.95 342.89 913.99C321.48 937.72 304.25 965.74 298.26 997.54C293.66 1021.97 292.24 1046.85 287.4 1071.23C286.02 1078.39 284.24 1085.61 281.14 1092.29C278.77 1097.49 276.18 1100.93 273.79 1104.48C272.89 1105.78 271.91 1107.07 270.67 1108.01C267.78 1110.35 263.51 1109.81 259.95 1109.19C246.79 1106.91 232.33 1109.11 219.96 1103.02C210.42 1098.55 211.07 1085.47 210.14 1074.95C206.86 1030.3 223.35 961.8 247.12 915.72C253.99 903.64 263.27 882.53 273.22 870.32C282.18 859.55 308.86 833.14 312.2 829.2C325.26 813.96 341.98 794.51 356.96 781.05C359.56 778.76 362.35 777.38 365.78 778.58C370.42 780.4 369.44 784.65 374.22 786.39C379.13 788.39 381.21 788.31 386.97 788.31C394.73 788.3 402.96 788.31 410.69 788.31C416.36 788.37 420.56 788.09 425.48 788.59C443.73 792.13 466.81 810.24 490.08 809.91C494.23 810.35 495.28 813.59 495.31 817.33C495.18 845.31 503.25 873.89 511.28 900.78L511.33 900.94V900.93ZM598.52 840.73C592.4 836.85 584.78 830.48 579.99 826.42C577 823.86 574.21 821.75 571.5 818.79C568.85 815.95 566.48 812.61 564.14 809.48C559.69 803.51 554.65 798.05 549.45 792.7C533.11 775.87 514.53 761.01 500.93 741.73C497.05 736.44 492.94 730.8 488.99 725.65C487.84 724.11 486.56 721.96 486.9 720.39C487.22 718.52 488.83 716.97 490.22 715.6C495.2 710.92 501.94 703.21 506.5 698.19C512.02 691.37 514.42 692.87 519.89 698.5C535.03 716.07 546.59 736.53 560.2 755.26C568.13 765.94 575.93 776.9 584.73 786.84C593.21 795.85 603.28 803.46 610.94 813.29C616.51 820.03 625.74 833.77 635.27 832.63C639.61 831.37 641.72 827.14 646.38 825.64C648.24 824.98 650.65 824.22 652.35 825.3C655.01 827.44 651.38 832.39 652.35 834.64C653.26 837 656.49 836.8 658.69 837.08C666.27 837.65 673.1 837.74 680.42 835.97C682.42 835.66 685.42 834.72 686.49 836.78C681.47 868.76 620.3 854.66 598.7 840.82L598.54 840.72L598.52 840.73Z" fill="#386641"/>
<path d="M978.6 554.15C973.69 544.77 970.14 534.08 967.01 523.86C962.87 510.01 959.08 496.33 957.82 481.91C956.23 466.02 958.7 450.33 960.07 434.65C963.91 407.24 980.84 366.46 978.46 347.72C977.94 344.13 975.84 343.64 972.98 343.82C946.02 345.52 887.42 349.36 869.94 350.49C865.15 350.58 862.34 351.77 859.78 356.37C851.13 370.3 845.73 408.02 841.06 431.68C839.92 437.45 838.71 441.78 838.79 446.51C839 455.06 841.97 463.43 843.9 471.74C846.29 480.91 848.42 490.17 852.5 498.99C862.43 520.03 877.92 537.72 891.98 556.02C908.31 578.43 916.94 584.37 940.88 597.88C962.75 610.68 985.57 623.93 1011.33 626.2C1016.85 626.57 1026.16 627.18 1024.14 620.02C1019.14 603.36 989.95 573.6 978.69 554.29L978.61 554.14L978.6 554.15ZM977.53 563.87C982.29 571.98 992.33 581.26 996.98 589.19C1001.7 597.74 994.75 596.51 989.1 592.63C976.58 584.37 966.71 573.48 955.52 563.53C948.73 557.36 941.45 550.78 936.61 543.08C931.23 534.43 941.32 532.06 948.8 530.09C952.51 529.1 956.72 528.08 960.31 529.86C965.3 532.14 967.54 540.29 969.5 545.54C971.86 551.84 974.32 558.67 977.45 563.74L977.53 563.88V563.87ZM953.34 513.92C950.84 519.52 939.95 520.03 934.34 520.35C924.05 520.64 921.14 514.48 917.79 505.31C915.01 498.06 912.38 490.39 911.04 482.79C908.89 470.81 911.74 467.22 923.92 464.93C926.76 464.36 929.76 463.91 932.66 463.53C939.31 463.1 949.09 459.69 949.21 467.99C949.21 473 948.42 478.42 948.8 483.49C949.12 489.89 950.37 494.68 952.42 502.02C953.43 505.7 954.86 510.21 953.39 513.79L953.33 513.92H953.34ZM953.88 438.42C953.25 441.85 952.86 445.25 950.71 447.42C949.53 448.58 947.87 449.17 946.17 449.53C943.25 450.15 938.13 450.42 933.94 450.85C929.16 451.28 924.12 451.74 920.18 452.09C916.53 452.24 914.04 453.12 911.53 451.81C910.22 450.67 910.39 448.69 910.28 447.01C910.23 440.38 910.26 427.49 910.26 419.46C910.33 411.59 911.61 400.33 921.26 398.26C930.85 396.38 947.09 394.13 957.44 396.14C961.1 397.6 959.78 401.22 959.44 404.7C957.82 414.65 955.43 429.19 953.91 438.28L953.89 438.42H953.88ZM915.91 377.84C914.76 371.74 917.02 361.76 920.87 356.66C923.74 353.09 927.21 353.47 934.1 353.43C943.65 353.43 954.47 353.43 963.82 353.43C970.03 353.39 971.15 353.75 970.08 359.88C969.52 363.23 968.63 367.85 967.97 371.44C967.27 374.53 967.02 377.92 964.56 379.94C962.49 381.47 958.97 380.59 954.72 380.21C949.76 379.72 944.77 380.19 939.85 380.83C935.79 381.36 931.79 381.95 927.72 382.29C923.14 382.67 917.4 382.89 915.95 377.96L915.91 377.83V377.84ZM906.36 359.51C910.65 362.03 909.37 367.81 908.87 372.25C908.47 375.16 907.95 378.07 907.29 380.45C906.21 385 903.63 388.15 898.85 389.28C890.9 391.52 877.15 392.95 867.15 394.89C862.39 395.86 858.2 395.75 858.74 390.13C861.82 369.88 870.37 356.6 893.98 357.55C897.94 357.61 902.97 357.65 906.23 359.44L906.36 359.51ZM853.07 415.4C854.6 412.08 860.05 410.76 864.03 409.63C869.36 408.07 874.8 406.49 880.73 404.75C885.41 403.38 889.99 402.04 893.78 400.94C896.8 400.06 899.28 399.31 901.01 398.89C902.35 398.57 903.28 398.46 903.87 398.7C904.98 399.27 904.82 400.68 904.85 402.02C904.24 413.54 902.41 439.88 901.59 452.4C901.37 458.91 897.99 461.39 892.36 463.55C884.39 466.81 876 469.35 868.23 473.02C863.86 474.9 858.47 478.95 855.46 479.04C850.01 479.25 850.73 468.29 850.09 464.45C849.24 453.7 849.03 442.91 849.93 432.16C850.66 426.1 850.65 420.6 853.01 415.51L853.07 415.4ZM885.28 536.07C884.48 535.93 883.71 535.63 882.97 535.11C880.69 533.51 879.49 531.01 878.11 528.66C873.52 520.84 867.49 510.57 862.82 502.62C860.38 498.47 857.27 493.56 859.4 488.53C860.41 486.15 862.71 484.61 864.98 483.38C870.25 480.53 875.96 478.62 881.64 476.73C885.51 475.44 889.39 474.15 893.26 472.86C894.64 472.4 896.08 471.93 897.53 472.09C902.78 472.67 902.67 479.55 903.23 483.37C903.84 488.11 904.8 492.79 905.99 497.41C907.58 503.56 909.61 509.6 911.84 515.55C914.67 522.6 913.87 522.67 907.54 526.78C903.05 529.81 897.14 532.73 892.21 534.7C890.04 535.57 887.57 536.48 885.27 536.08L885.28 536.07ZM956.01 599.7C940.47 591.23 924.7 581.49 912.15 568.91C908.61 565.24 903.27 559.8 901.83 555.81C900 549.98 909 547.94 913.07 545.79C921.62 541.98 926.97 538.77 933.49 547.33C944.45 562.21 957.67 575.14 972.39 586.5C985.43 596 998.46 605.57 1011.42 615.56C1020.15 622.09 1010.37 620.36 1005.73 619.75C988.38 617.04 971.42 608 956.16 599.79L955.99 599.7H956.01Z" fill="#386641"/>
<path d="M576.26 241.44C574.67 233.92 572.03 226.61 568.5 219.76C568.39 218.85 568.26 217.93 568.1 217.02C566.41 207.49 562.18 198.52 557.24 190.27C552.43 182.24 546.89 174.57 540.99 167.3C529.56 153.23 515.7 140.56 498.89 133.31C480.45 125.35 460.21 123.8 440.37 123.02C430.24 122.62 419.58 121.79 409.8 125.05C401.52 127.81 394.51 133.36 388.96 140C383.37 146.68 378.77 154.33 375.49 162.4C372.31 170.22 370.43 179.05 372.24 187.44C372.84 190.22 373.93 192.85 375.41 195.26C368.68 199.89 362.34 205.09 356.53 210.83C343.8 223.4 333.63 238.47 326.84 255.02C323.47 263.24 320.99 271.83 319.55 280.6C317.99 290.08 317.48 299.76 318.99 309.28C320.45 318.44 324.16 326.94 330.04 334.11C335.34 340.57 342.18 345.67 349.36 349.85C356.77 354.16 364.69 357.56 372.65 360.71C382.21 364.49 392.56 367.93 402.92 365.67C411.08 363.88 417.93 358.68 423.9 352.98C425.85 353.5 427.8 353.98 429.76 354.42C438.81 356.43 448.1 357.66 457.36 358.01C462.63 358.21 467.99 358.01 473.12 356.68C477.33 355.59 481.37 353.74 485.01 351.37C498.89 342.34 508.15 326.74 512.09 310.8C516.8 311.01 521.5 311.14 526.2 311.24C535.76 311.44 545.73 312.16 554.33 307.23C561.82 302.93 567.37 295.68 571.16 288.04C578.31 273.62 579.56 257.06 576.26 241.43V241.44ZM544.87 266.7C536.11 276.07 525.67 283.77 514.28 289.62C513.85 278.69 510.99 267.89 505.33 258.44C502.22 253.26 498.24 248.63 493.66 244.7C491.31 242.69 488.8 240.87 486.16 239.24C484.5 238.22 480.07 236.81 479.58 234.69C478.75 231.09 485.58 232.04 487.62 231.82C491.42 231.41 495.19 230.71 498.86 229.64C505.9 227.59 512.53 224.15 518 219.22C520.4 217.06 516.85 213.54 514.46 215.68C503.41 225.63 488.22 227.92 473.82 227.12C473.26 225.48 472.66 223.85 471.97 222.24C468.63 214.44 463.63 207.17 457.12 201.68C450.83 196.37 443.19 192.66 435.12 191.03C427.12 189.42 418.6 189.69 410.91 192.57C404.53 194.96 399.15 198.98 394.68 203.95C393.34 203.3 392 202.63 390.68 201.94C387.81 200.43 384.99 198.69 382.66 196.43C389.97 191.78 397.71 187.78 405.71 184.48C422.03 177.75 439.51 173.63 457.12 172.4C473.99 171.22 491.11 172.66 507.34 177.51C523.03 182.2 538.02 190.23 549.57 201.95C555.21 207.68 559.97 214.26 563.7 221.39C565.55 238.65 556.31 254.44 544.86 266.7H544.87ZM489.74 304.05C496.38 302.4 502.88 300.2 509.18 297.5C508.98 300.23 508.62 302.94 508.11 305.62C501.97 305.29 495.84 304.8 489.74 304.04V304.05ZM506.73 293.17C496.75 297.43 486.16 300.31 475.38 301.72C471.71 300.96 468.05 300.06 464.44 299.01C468.31 291.52 471.56 283.74 473.92 275.69C477.31 264.08 478.53 251.85 476.87 239.98C487.48 244.7 496.51 252.64 502.15 262.95C507.02 271.85 509.31 281.91 509.37 292.01C508.5 292.41 507.62 292.8 506.73 293.18V293.17ZM396.04 210.08C402.97 213.24 410.09 216.03 417.22 218.62C426.99 222.18 436.94 225.23 447.03 227.76C448.49 228.13 450.05 228.38 451.45 228.77C451.21 230.57 448.07 230.53 446.59 230.74C444.01 231.11 441.46 231.67 438.97 232.44C433.98 233.97 429.23 236.32 425.07 239.48C418.19 244.71 412.53 252.46 412.88 261.47C413.24 270.66 419.26 278.55 425.95 284.36C435.1 292.3 445.84 297.97 457.21 301.93C457.07 302.17 456.94 302.42 456.8 302.66C442.85 302.28 428.78 299.41 416.13 293.53C402.25 287.08 389.01 276.52 384.27 261.41C378.91 244.31 385.21 224.86 395.46 210.84C395.65 210.58 395.85 210.32 396.05 210.07L396.04 210.08ZM467.91 278.15C465.7 284.79 462.88 291.24 459.62 297.49C449.29 294 439.47 289.07 430.99 282.11C424.93 277.14 418.47 270.33 417.9 262.07C417.36 254.12 422.59 247.28 428.82 242.91C440.49 234.72 455.62 233.4 469.12 237.19C469.92 237.41 470.71 237.66 471.49 237.92C473.92 251.3 472.24 265.15 467.91 278.15ZM399.4 206.15C403.52 201.87 408.51 198.49 414.26 196.71C421.39 194.5 429.07 194.57 436.27 196.43C443.62 198.33 450.47 202.04 455.92 207.33C461.48 212.72 465.67 219.44 468.4 226.68C460.85 225.86 453.42 224.27 446.08 222.37C436.39 219.86 426.83 216.86 417.44 213.4C411.39 211.17 405.32 208.81 399.4 206.15ZM378.25 183.77C377.93 183.17 377.65 182.48 377.42 181.71C375.53 175.52 378.77 166.99 381.3 161.5C384.68 154.15 389.15 147.03 394.67 141.09C400.35 134.98 407.29 130.43 415.54 128.71C420.26 127.73 425.13 127.62 429.94 127.7C434.76 127.78 439.59 127.99 444.41 128.21C463.11 129.06 482.45 130.86 499.55 139.09C515.25 146.64 528.02 158.93 538.75 172.45C544.24 179.37 549.38 186.67 553.82 194.31C555.95 197.98 557.9 201.78 559.53 205.72C557.72 203.41 555.79 201.18 553.76 199.07C541.68 186.53 525.82 177.91 509.26 172.87C492.28 167.71 474.21 166.15 456.55 167.45C437.96 168.82 419.62 173.21 402.45 180.48C395.94 183.24 382.97 192.71 378.26 183.77H378.25ZM398.87 361.31C389.23 362.22 379.84 358.32 371.09 354.76C363.64 351.73 356.28 348.34 349.44 344.09C342.9 340.02 336.72 335.04 332.16 328.77C326.99 321.66 324.2 313.25 323.38 304.53C321.77 287.45 325.79 269.62 332.66 254.03C339.51 238.49 349.5 224.42 361.79 212.71C366.96 207.78 372.55 203.29 378.44 199.24C381.37 202.37 385.11 204.7 388.9 206.64C389.75 207.07 390.61 207.49 391.46 207.91C391.19 208.27 390.92 208.63 390.66 209C385.17 216.75 381.09 225.8 378.95 235.05C376.79 244.37 376.63 254.32 379.68 263.47C385.04 279.58 398.93 291.12 413.95 298.03C419.48 300.57 425.23 302.59 431.12 304.12C435.48 305.25 441.25 305.12 444.74 308.17C451.38 313.95 444.07 322.29 440.08 327.42C434.63 334.43 428.75 341.16 422.44 347.43C407.66 343.16 393.48 336.4 381.5 326.69C368.71 316.32 358.68 302.72 353.13 287.17C350.45 279.67 348.81 271.78 348.45 263.82C348.09 255.86 351.13 247.69 350.9 240.03C348.37 239.99 346.7 242.15 345.83 244.51C337.43 267.33 347.22 291.48 360.99 309.92C367.96 319.25 376.18 327.46 385.14 334.87C389.84 338.75 394.88 341.72 400.43 344.39C404.64 346.42 413.6 348.88 411.5 355.34C410.09 359.68 402.7 360.96 398.88 361.32L398.87 361.31ZM480 348.57C476.25 350.66 472.18 352.03 467.94 352.65C463.12 353.35 458.17 353.13 453.33 352.81C444.78 352.23 436.3 350.93 427.98 348.89C434.39 342.28 440.38 335.26 445.94 327.91C450.81 321.47 455.44 314.73 459.61 307.72C460.48 307.72 461.35 307.72 462.23 307.71C466.57 307.63 470.9 307.31 475.2 306.77C485.68 308.86 496.33 309.96 507.01 310.57C503.03 325.66 493.91 340.84 480.01 348.58L480 348.57ZM567.31 284.57C563.95 291.67 559.14 298.52 552.3 302.63C544.48 307.32 535.15 306.43 526.4 306.25C521.98 306.16 517.56 306.04 513.14 305.86C513.77 302.33 514.16 298.76 514.29 295.17C527.75 288.65 540.05 279.61 550.02 268.46C556.28 261.45 561.68 253.64 565.21 244.9C566.86 240.82 567.95 236.6 568.49 232.32C569.54 235.28 570.43 238.31 571.13 241.37C574.41 255.67 573.65 271.19 567.31 284.57Z" fill="#BC4749"/>
</svg>
