<svg width="1200" height="1200" viewBox="0 0 1200 1200" fill="none" xmlns="http://www.w3.org/2000/svg">
<path d="M533.65 825.7C529.92 838.82 523.04 851.1 517.63 864.09C508.41 886.66 499.75 910.08 485.68 929.93C469.8 953.53 445.69 970.26 417.67 976.33C366.38 987.71 312.65 983.34 260.97 984.59C239.76 984.68 217.59 984.25 196.85 980.43C108.19 966.64 73.62 865.51 59.88 786.86C56.55 767.64 67.74 758.61 85.81 754.8C109.53 749.83 135.61 752.8 159.31 754C256.98 756.38 350.49 758.3 447.64 754.2C472.72 752.59 498.6 753.07 523.68 757.71C536.24 760.12 540.22 763.83 539.9 775.76C539.33 790.79 537.85 810.22 533.68 825.52L533.63 825.7H533.65ZM465.29 815C462.71 811.04 456.44 808.74 451.28 807.74C446.29 806.7 441.32 805.99 436.48 805.48C361.99 799.9 267.74 804.53 194.86 815.48C185.92 817.1 175.98 819.48 169.69 822.78C158.41 828.15 157.66 838.7 160.36 849.3C162.01 856.34 164.88 864.42 167.96 872.33C178.1 897.38 188.44 924.85 216.46 933.1C229.32 937.26 243.57 938.61 256.97 939.75C313.38 943.61 386.01 947.05 426.25 905.83C430.97 901.03 435.48 895.66 439.68 889.91C451.72 873.44 461.37 853.5 466.12 833.81C467.7 827.78 468.86 819.63 465.39 815.12L465.3 814.99L465.29 815Z" fill="#CED4DA"/>
<path d="M1128.69 861.58C1122.35 834.31 1102.92 773.07 1090.95 751.46C1089.19 748.47 1087.14 746.99 1083.37 746.42C1065.94 745.24 1048.56 746.15 1030.86 746.02C1018.36 746.02 1005.52 745.73 993.16 746.15C969.64 746.93 946.68 748.42 924.06 749.42C898.7 750.45 869.8 750.68 845.56 752.65C824.75 754.59 820.89 773.74 816.17 790.64C811.84 806.34 804.76 821.08 798.18 835.99C795.92 841.03 793.34 846.02 789.49 850.01C770.69 868 739.55 866.26 716.04 874.65C695.77 881.2 700.22 897.41 703.08 914.88C705.37 928.19 708 942.05 710.65 955.26C712.09 962.39 713.41 968.63 714.46 972.89C715.29 976.27 716.31 979.75 719.1 981.99C736.32 994.35 786.4 983.08 810.01 984.16C815.33 984.27 820.35 984.36 825.58 983.55C830.59 982.83 836.3 981.35 842.07 980.38C852.6 978.54 863.61 977.54 874.45 977.64C887.87 977.39 900.84 980.73 914.03 981.82C964.89 983.33 1016.34 980.71 1065.73 968.37C1090.07 962.39 1115.3 954.83 1128.15 931.35C1139.94 910.58 1133.65 885.02 1128.73 861.74L1128.69 861.58ZM963.51 802.3C982.73 799.79 975 851.39 956.92 858.74C951.82 861.32 944.23 862.2 940.08 857.94C934.39 851.11 937.23 840.51 940.11 831.8C944.05 820.98 952.95 805.21 963.37 802.33L963.51 802.3ZM972.55 937.92C968.15 942.18 960.99 943.82 955.99 940.35C949.23 935.81 950.08 926.8 957.83 922.56C971.19 914.88 984.49 925.21 972.72 937.76L972.55 937.92ZM988.52 903.79C969.94 898.7 994.08 852.12 1011.6 854.94C1023.99 857.85 1018.93 876.5 1014.85 885.1C1010.31 895.12 1000.05 906.84 988.68 903.83L988.51 903.78L988.52 903.79ZM1038.32 941.39C1027.11 937.05 1033.22 919.46 1037.28 910.27C1041.21 901.82 1051.75 883.61 1062.23 886.38C1076.85 893.72 1062.56 947.75 1038.47 941.44L1038.31 941.39H1038.32ZM1035.03 849.85C1032.45 847.52 1032.57 843.31 1033.06 839.98C1035.41 824.2 1043.12 808.58 1057.47 804.93C1060.72 804.08 1064.67 804.07 1067.27 806.3C1070.39 808.87 1070.87 813.71 1070.59 817.66C1069.46 834.44 1061.32 847.55 1045.38 851.15C1042.05 851.9 1037.76 852.22 1035.13 849.95L1035.01 849.85H1035.03ZM1091.87 876.45C1079.55 880.39 1076.33 865.28 1082 856.31C1087.84 847.29 1097.5 852.02 1098.29 861.75C1098.99 867.26 1097.38 874.16 1092.05 876.37L1091.87 876.44V876.45Z" fill="#BC4749"/>
<path d="M908.55 981.85C881.6 974.23 848.22 977.05 821.69 984.95C796.7 992.39 764.66 1006.14 740.97 1017.45C688.22 1042.64 632.04 1072.51 584.42 1105.96C587.17 1104.03 560.6 1059.27 557.76 1054.85C547.57 1039.01 535.56 1024.33 521.37 1011.9C493.88 987.82 457.42 959.83 418.98 975.86C402.54 982.72 394.84 1007.86 393.49 1024.57C390.17 1065.56 420.64 1100.47 450.4 1124.54C481.86 1149.97 519.61 1170.39 558.65 1181.3C607.61 1194.99 633.18 1186.53 678.94 1169.47C726.83 1151.62 872.47 1089.15 903.56 1055.97C921.63 1036.68 946.91 992.7 908.54 981.85H908.55Z" fill="#6A994E"/>
<path d="M465.05 814.21C468.53 818.7 467.44 826.85 465.88 832.89C461.24 852.61 451.7 872.6 439.76 889.14C435.59 894.92 431.11 900.31 426.42 905.14C386.45 946.58 313.76 943.54 257.36 939.99C243.96 938.93 229.7 937.65 216.82 933.56C188.76 925.46 178.27 898.05 167.99 873.06C164.87 865.17 161.95 857.1 160.26 850.07C157.51 839.49 158.19 828.93 169.44 823.5C175.71 820.17 185.63 817.73 194.57 816.06C267.36 804.71 361.6 799.57 436.09 804.73C445.24 806.07 458.98 806.32 464.96 814.09L465.05 814.22V814.21ZM328.3 827.53C294.51 829.64 250.56 832.28 218.06 838.04C193.22 842.4 176.98 852.2 192.06 878.96C196.93 887.98 201.96 898.08 207.92 905.94C228.36 932.9 318.05 933.23 351.97 922.21C383.62 911.39 433.4 879.16 432.61 842.7C432.28 837.33 429.99 832.7 426.03 829.92C420.73 826.15 413.61 825.86 407.2 825.56C381.66 824.46 352.08 826.16 328.5 827.51H328.32L328.3 827.53Z" fill="#FEFEFE"/>
<path d="M423.19 119.44C422.93 119.62 423.12 120.45 423.06 120.86C423.09 121.73 422.96 122.61 423.29 122.54C424.87 121.88 425.05 120.34 423.29 119.45H423.19V119.44Z" fill="#386641"/>
<path d="M461.04 655.61C433.74 584.44 393.94 515.2 378.92 439.59C378.48 436.63 376.26 431.23 373.38 432.16C369.67 433.99 370.9 439.14 371.39 442.89C375.37 470.42 437.78 647.13 460.99 655.64L461.04 655.6V655.61Z" fill="#386641"/>
<path d="M175.94 631.19C161.14 645.63 182.3 638.16 189.08 634.11C231.61 609.02 272.6 566.82 284.63 518.5C285.7 513.24 281.87 511 279.47 516.8C278.44 519.4 277.6 522.14 276.19 524.86C267.03 542.91 255.52 563.01 242.04 579.12C224.34 601.06 196.9 612.69 176.1 631.05L175.95 631.19H175.94Z" fill="#386641"/>
<path d="M256.16 411.85C255.86 411.74 255.57 411.83 255.29 412.04C249.02 419.12 251.34 432.42 251.22 441.62C249.08 480.91 233.79 534.85 205.85 563.72C195.14 573.78 179.02 586.23 169.7 595.6C166.73 598.88 162.2 602.46 164.92 606.59C167.42 609.49 171.34 606.18 173.93 604.17C181.65 598.16 195.5 586.14 204.21 578.1C208.66 574 211.8 571.01 215.47 566.16C239.96 532.73 257.68 484.97 257.87 443.71C257.77 434.83 257.13 425.61 257.2 416.84C257.23 415.32 257.07 412.23 256.22 411.87L256.16 411.84V411.85Z" fill="#386641"/>
<path d="M1141.84 225.16C1128 205.28 1109.64 187.97 1088.71 175.66C1070.24 167.06 1049.79 163.24 1029.82 160.27C1020.44 158.38 1005.3 156.87 1000.58 148.71C999.06 145.53 1001.46 141.43 1000 138.65C998.83 136.15 993.88 135.59 993.34 133.03C992.77 129.51 996.53 126.04 998.19 123.02C1005.88 108.95 1004.35 91.3 1010.21 76.18C1017.77 65.04 1036.37 76.63 1047.7 53.62C1056.44 42.98 1064.08 56.07 1076.91 44.61C1088.9 34.95 1092.53 12.82 1075.54 10.76C1063.55 10.62 1054.9 22.6 1043.69 24.43C1023.8 22.3 1010.36 29.24 996.23 42.16C978.29 48.51 966.7 45.94 958.76 66.91C953 81.74 950.72 98.6 952.84 114.5C953.19 119.89 960.94 127.1 956.64 131.83C941.91 136.53 951.27 141.24 950.78 151.13C943.04 157.12 913.04 150.71 901.28 152.44C890.44 151.8 879.7 155.44 869.26 157.04C857.07 138.58 942.78 111.23 909.07 88.26C900.05 77.73 922.43 55.34 904.55 40.61C884.87 29.62 845.81 25.19 821.82 25.72C812.01 25.58 809.77 34.78 808.25 43.22C807.21 49.82 803.98 53.7 797.4 53.98C728.76 58.18 656.29 114.18 648.72 183.79C648.57 191.22 643.31 190.53 638.07 187.85C614.74 177.04 593.65 196.01 589.96 220.53C589.36 223.24 588.82 227.57 585.82 227.87C579.08 227.12 572.7 221.14 565.32 222.45C555.45 223.35 548.33 229.86 542.16 219.2C534.55 209.7 525.98 195.81 517.92 186.99C508.51 177.93 497.27 169.88 486.02 163.41C467.45 157.93 479.47 142.8 460.81 136.94C430.5 131.07 382.14 93.81 363.39 135.48C357.31 158.14 345.38 136.3 347.02 124.74C348.19 117.57 356.24 114.4 360.18 108.77C369.71 94.34 377.17 75.37 377.49 58.17C374.46 21.56 340.91 31.19 324.06 52.27C317.91 62.08 314.98 78.59 317.49 90.27C323.69 105.39 318.92 116.94 309.65 129.18C295.99 136.52 276.11 126.55 261.97 134.31C241.53 143.62 217.24 158.5 199.28 172.21C165.41 201.6 145.54 280.44 154.46 324.36C160.52 352.53 187.25 376.41 215.3 379.58C222.66 379.54 223.23 385.89 223.27 391.97C230.5 462.68 218.69 527.77 144.81 553.8C127.42 561.05 118.5 574.58 126.79 593.59C127.91 597.78 131.47 601.93 130.04 606.14C117.22 617.22 93.79 623.7 88.28 640.13C82.35 666.58 99.36 706.52 109.93 729.56C120.1 745.67 133.74 728.13 134.13 715.49C134.3 701.84 132.81 687.13 143.35 676.16C153.57 662.21 162.3 671.69 175.36 671.15C203.55 663.98 229.42 643.8 251.47 625.32C280.57 598.1 300.79 561.67 312.35 524.48C304.38 498.04 290.08 463.32 280.43 435.59C277.68 429.27 273.05 412.99 272.87 417.09C274.37 438.56 280.9 459.55 288.41 479.72C293.14 495.49 303.12 509.89 304.17 526.24C286.07 584.8 229.61 645.46 169.86 661.09C161.77 661.2 160.93 658.17 158.69 650.74C155.06 640.65 146.78 623.51 142.31 613.86C137.22 599.51 119.27 576.05 140.34 566.75C231.5 524.76 235.34 471.25 230.01 380.45C224.83 375.16 294.17 358.84 294.62 357.26C299.68 355.29 303.89 358.64 308.71 360.54C323.99 367.08 342.19 366.28 357.08 370.53C385.41 379.11 419.97 496.24 437 531.4C454.4 572.08 465.29 614.72 481.23 655.84C485.8 669.81 469.09 674.13 458.28 679.61C455.21 680.81 451.32 684.3 448.56 682.27C432.18 663.75 388.17 557.57 373.45 517.05C361.32 484.69 358.37 445.41 342.2 416.11C338.99 415.02 339.41 419.42 339.85 422.56C362.04 512.37 395.2 599.43 438.12 681.11C440.37 684.92 441.92 691 437.26 693.26C429.13 696.11 423.27 676.16 418.74 671.19C376.14 589.1 348.17 496.16 306.89 415.28C333.89 508.5 379.73 601.67 421.96 690.65C426.08 698.33 418.91 700.98 412.46 700.23C397.76 700.56 390.38 688.24 384.64 676.1C366.06 642.43 331.64 553.9 314.25 527.34C311.85 522.72 305.58 527.75 308.58 531.44C322.95 553.9 378.99 690.64 399.1 705.07C407.31 709.8 416.18 707.95 425.57 707.2C441.33 705.31 442.35 738.91 462.88 749.43C477.57 757.98 494.82 754.16 505.32 741.1C519.97 724.56 552.3 706.36 554.3 684.78C552.13 664.15 517.28 666.74 505.56 677.8C501.35 681.03 497.67 685.12 492.41 686.43C485.3 688.81 475.4 684.48 482.39 676.65C501 656.85 474.88 624.15 469.22 603.45C444.98 535.17 404.44 442.03 378.77 379.96C378.84 377.52 382.62 378.49 386.7 377.51C395.52 376.37 403.94 373.68 409.18 367.62C436.37 319.99 390.53 261.26 418.09 214.64C424.67 193.41 476.02 220.17 474.58 194.69C475.93 188.26 469.12 165.99 480.01 169.72C503.42 180.44 540.68 218.3 544.4 235.05C535.74 247 529.19 261.38 530.5 276.9C532.61 288.17 536.28 302.67 542.45 312.37C550.57 318.81 561.9 307.95 564.2 299.91C569.69 283.28 560.4 260.61 556.6 242.57C556.04 239.79 556.06 236.57 558.18 234.7C564.56 230.39 574.57 231.21 580.86 235.13C586.82 238.7 588.11 246.34 591.91 251.51C596.67 257.04 597.19 248.78 596.35 245.32C592.4 222.04 604.45 191.14 631.52 194.61C637.67 194.72 643.8 202.45 649.69 199.15C662.84 128.13 723.54 66.02 798.41 63.87C802.62 64.67 803.09 68.98 803.23 72.67C803.42 87.37 806.52 104.3 805.76 115.37C798.79 127.77 778.47 133.55 769.44 145.6C725.24 200.42 718.02 304.45 812.04 303.86C822.54 301.01 835.59 299.4 844.94 293.65C854.85 288.69 870.92 272.81 882.2 272.35C887.01 296.69 869.39 327.98 884.22 351.59C889.85 358.37 898.17 364.69 895.15 374.64C874.93 454.96 866.35 545.16 862.06 628.13C859.99 665.2 885.9 662.12 881.3 677.5C876.51 689.38 876.76 707.64 865.17 715.03C856.64 719.63 838.82 720.66 834.95 732.38C830.77 763.57 882.32 749.52 900.56 750.93C913.36 748.9 930.62 755.33 939.57 743.47C947.66 732.65 947.82 713.72 945.84 698.15C945.48 693.22 943.08 687.29 945.26 683.81C947.58 681.07 951.79 680.89 954.49 678.54C959.24 675.17 958.61 665.73 963.27 663.69C968.51 665.11 973.31 674.94 979.57 677.38C993.38 681.65 990.87 693.47 984.91 703.38C976.68 715.28 958.92 723.43 961.13 740.25C962.18 748.57 971.94 747.23 978.13 746.96C986.7 746.65 995.12 746.71 1003.61 746.6C1015.78 745.22 1031.51 750.2 1042.56 743.43C1054.34 729.79 1053.7 708.99 1048.87 691.7C1042.83 674.99 1065.71 684.03 1062.45 654.1C1052.73 588.5 1056.21 520.58 1067.41 455.47C1072.75 446.42 1085.45 455.52 1093.81 452.84C1103.52 449.04 1105.94 444.53 1118.46 444.14C1132.98 437.58 1118.84 420.82 1111.96 413.13C1107.64 406.66 1121.72 408.65 1124.68 401.83C1155.1 342.45 1187.69 285.11 1141.97 225.32L1141.85 225.13L1141.84 225.16ZM347.8 74.77C353.91 73.46 357.93 68.91 362.32 65.05C364.69 62.9 372.22 57.88 372.27 63.04C371.53 71.36 360.24 95.94 353.57 105.33C351.55 108.37 348.57 110.45 344.78 110.82C331.27 111.81 321.24 94.72 322.36 82.49C323.43 66.99 336.26 77.82 347.57 74.81L347.79 74.76L347.8 74.77ZM325.95 116.53C329.29 115.39 334.24 116.95 337.63 118.15C341.14 119.46 342.06 121.89 342.49 126.11C342.89 129.45 343.25 133.07 343.81 136.35C344.58 140.57 343.47 141.5 339.35 140.91C335.09 140.13 312.92 137.94 316.57 132.68C318.66 129.38 321.47 125.31 322.8 121.57C323.84 119.08 324.44 117.31 325.84 116.59L325.96 116.53H325.95ZM219.87 370.23C205.27 372.77 188.61 363.43 181.07 357.92C177.68 355.81 175.01 352.74 172.68 349.37C147.33 310.86 159.97 257.57 176.43 218.32C196.33 176.52 240.97 147.43 285.68 139.55C294.87 138.62 304.5 140.78 313.67 142.25C326.86 144.55 340.5 146.37 352.91 151.37C356.63 152.99 357.35 157.02 356.68 160.7C355.96 165.84 355.57 171.13 355.71 176.3C355.82 181.23 356.28 184.82 357.88 190.31C358.75 193.29 359.77 196.43 360.97 199.28C361.98 201.87 364.08 204.59 363.91 206.96C361.55 214.8 350.56 216.64 343.78 220.28C334.38 225.83 324.9 231.11 314.66 234.96C302.18 240 288.76 243.6 275.21 243.62C273.32 243.62 270.99 243.62 269.44 244.26C267.34 245.02 266.46 246.95 267.5 248.67C268.94 251.07 272.4 251.43 275.07 251.35C293.96 250.6 312.08 243.93 329.01 235.8C337.44 231.74 346.11 226.8 355 223.87C360.01 222.03 362.38 224.91 364.67 228.93C369.01 236.09 373.78 243.12 378.46 250.03C382.56 256.19 386.63 262.9 387.35 270.41C387.94 276.87 385.84 282.16 381.28 286.91C376.47 292.31 368.76 299.49 362.93 304.59C322.82 338.28 271.56 360.97 220.08 370.21L219.85 370.24L219.87 370.23ZM413.04 310.65C415.42 388.67 382.49 367.43 315.46 354.15C306.24 351.16 311.26 348.84 316.93 345.55C339.27 330.33 385.42 305.9 393.14 280.73C394.04 274.66 393.97 268.04 395.47 260.92C396.24 257.15 397.37 253.99 398.93 252.68C401.12 250.61 403.71 252.42 404.37 255C407.73 267.91 411.9 296 413.03 310.5V310.65H413.04ZM415.56 202.68C414.46 210.2 410.47 217.41 407.68 224C404.37 231.01 397.45 250.85 390.39 252.99C387.58 252.91 386.46 249.23 383.64 245.5C378.89 238.39 372.19 231.42 367.99 224.07C365.7 219.19 368.02 214.21 370.11 208.92C371.71 205.22 373.04 201.44 374.86 197.83C376.51 194.7 379.12 191.11 382.78 190.83C385.61 190.47 387.6 193.73 390.02 192.96C391.71 192.13 392.61 189.79 394.72 188.1C396.58 186.45 399.83 186 401.11 188.56C402.34 190.54 401.96 194.36 405.06 194.29C411.6 193.76 416.49 194.07 415.57 202.48L415.55 202.68H415.56ZM443.24 197.39C436.39 197.27 427.64 199.33 422.37 194.39C419.95 192.01 418.43 188.85 415.99 186.46C411.99 182.49 406.59 180.1 401.07 179.43C398.88 179.16 396.25 179.72 394.29 179.77C388.71 180 390.52 172.31 390.17 168.68C390.12 157.98 391.05 147.26 389.94 136.55C389.7 132.21 388 126.16 391.67 122.98C399.69 118.56 413.95 128 422.22 130.29C425.62 131.44 429.02 132.54 432.42 133.73C443.08 137.97 455.42 139.15 465.81 143.98C467.45 144.92 467.93 146.41 467.94 148.19C468.02 154.34 468.12 169.81 468.23 181.59C468.26 186.86 468.34 191.4 468.31 194.01C468.53 197.46 465.29 197.01 462.77 196.99C456.39 196.84 449.77 197.25 443.45 197.39H443.25H443.24ZM546.36 304.85C544.57 304.27 543.55 301.82 542.95 300.02C538.88 288.11 538.03 275.3 540.5 262.84C541.07 259.18 546.15 238.14 551.74 247.06C556.64 264.97 564.87 289.5 551.36 302.83C550.09 304.08 548.12 305.38 546.49 304.89L546.35 304.85H546.36ZM842.51 104.33C840.12 105.14 837.57 105.25 834.42 104.78C833.01 104.57 831.56 104.33 830.37 103.55C826.42 100.97 830.26 91.92 830.46 88.09C831.18 73.79 830.43 59.41 828.23 45.26C827.82 42.65 827.41 39.79 828.77 37.52C832.26 31.69 839.98 34.92 845.08 35.55C851.03 36.27 856.95 37.21 862.84 38.27C874.51 40.37 886.7 42.52 897.75 46.96C904.27 50.65 905.62 59.37 905.25 66.34C905.02 71.35 904.1 77.68 899.7 79.78C892.91 82.54 885.07 80.41 878.06 80.05C869.4 78.99 863.61 82.56 858.53 89.26C855.54 93.31 852.34 97.41 848.5 100.7C846.44 102.46 844.53 103.65 842.5 104.34L842.51 104.33ZM854.51 123.09C851.81 118.04 855.08 110.8 856.8 105.43C857.88 102.55 859.9 97.64 863.7 99.52C865.06 100.16 866.43 101.39 867.79 102.13C875.62 106.22 880.8 91.88 887.03 91.76C890.47 92.31 889.63 97.22 891.31 99.39C894.43 103.58 912.35 92.58 908.12 102.23C905.67 106.83 900.51 111.42 896.74 115.27C891.13 120.8 885.73 128.43 878.03 130.47C871.7 132.48 858.23 128.81 854.61 123.26L854.52 123.1L854.51 123.09ZM962.68 85.87C965.07 82.78 968.24 83.89 972.8 85.64C977.9 87.7 983.25 90.87 988.65 91.89C991.9 92.48 995.85 92.5 996.87 96.25C999.7 104.51 997.81 112.41 992.67 119.69C988.38 126.99 983.87 131.43 975.19 129.51C971.1 128.65 967.88 125.87 965.42 122.61C957.42 112.22 956.23 97.47 962.58 86L962.68 85.87ZM1051.42 530.77C1049.75 561.54 1050.27 595.98 1051.35 626.96C1051.5 635.82 1054.84 644.94 1055.53 653.73C1056.58 662.15 1050.86 668.76 1043.01 670.64C1034.93 673.21 1022.2 675.74 1013.67 677.22C1006.37 678.76 998.78 677.65 991.78 674.97C976.95 669.39 969.38 661.92 967.16 647.6C963.48 603.06 975.87 558.37 974.09 513.75C973.83 508.53 973.41 505.15 974.01 499.72C975.52 480.7 978.62 442.29 979.59 430.1C980.13 426.78 977.78 425.78 974.9 429.06C972.2 432.15 971.49 436.56 970.92 440.66C965.95 493.25 964.71 546.78 961.26 599.55C960.4 612.14 962.08 625.59 962.08 638.24C962.41 645.99 961.08 650.32 956.27 656.16C953.62 659.75 952.94 664.61 949.79 667.92C944.44 673.41 936.08 671.61 929.23 670.74C905.8 667.19 875.07 665.95 868.85 639.99C873.66 551.13 883.94 461.98 897.81 373.95C898.9 365.61 903.44 361.04 911.85 360.3C939.17 356.65 972.92 356.13 999.62 359.23C1013.23 360.97 1029.64 367.56 1041.31 357.83C1061.25 341.57 1049.54 302.64 1058.87 279.55C1061.48 274.28 1068.22 273.29 1073.53 275.07C1080.93 277.38 1083.11 284.94 1082.61 294.15C1081.04 311.43 1074.9 327.33 1067.79 341.05C1064.95 346.56 1059.83 352.52 1057.33 356.92C1052.32 366.03 1055.36 377.87 1054.39 388.03C1052.25 406.02 1041.87 417.9 1050.26 435.49C1052.74 441.56 1058.26 446.27 1060.2 452.02C1063.59 474.09 1052.42 506.39 1051.42 530.57V530.75V530.77ZM1115.46 434.54C1111.65 437.26 1106.16 433.68 1102.28 433.58C1095.5 433.51 1100.12 443.72 1088.6 445.08C1075.35 446.57 1060.49 438.21 1056.9 425C1054.54 416.49 1055.81 401.57 1060.62 393.88C1062.06 392.05 1063.88 392.16 1067.07 393.01C1069.27 393.57 1072.09 394.41 1075.14 395.37C1081.53 397.39 1092.12 401.04 1096.68 403.15C1101.29 405.02 1100.39 410.81 1102.34 414.62C1103.69 419.43 1119.13 429.08 1115.56 434.45L1115.47 434.54H1115.46Z" fill="#386641"/>
<path d="M328.71 827.69C352.3 826.46 381.89 824.93 407.42 826.17C413.84 826.51 420.96 826.83 426.23 830.64C430.18 833.44 432.43 838.08 432.74 843.45C433.34 879.9 383.36 911.86 351.66 922.51C317.81 933.35 227.95 932.52 207.71 905.45C201.8 897.55 196.82 887.43 192.01 878.38C177.14 851.6 193.24 841.85 218.24 837.61C250.79 832.03 294.72 829.64 328.54 827.71H328.72L328.71 827.69Z" fill="#BC4749"/>
</svg>
