<svg width="1200" height="1200" viewBox="0 0 1200 1200" fill="none" xmlns="http://www.w3.org/2000/svg">
<path d="M879.71 654.51C904.39 623.57 954.65 598.04 992.75 602.88C1009.61 605.26 1023.46 618.18 1029.35 633.99C1034.75 647.74 1031.5 663 1022.82 674.6C1012.33 689 994.49 696.72 977.04 699.37C964.93 701.44 952.33 702.35 940.92 707.17C925.56 713.44 916.56 725.29 905.84 741.03C895.35 756.73 885.3 773.25 877.41 790.22C867.71 811.62 860.92 834.96 855.93 858.12C852.94 872.31 851.39 885.76 865.72 865.57C885.53 836.96 906.33 811.89 939.77 798.55C972.7 785.18 1018.45 779.73 1043.27 810.23C1062.13 833.72 1061.27 873.18 1054.98 901.8C1051.37 917.98 1041.25 930.56 1030.17 942.25C1024.75 947.86 1019.54 953.15 1012.64 955.99C1002.57 960.24 991.04 956.33 984.52 947.3C974.87 934.23 977.66 914.97 974.25 899.7C963.62 850.95 902.93 880.17 878.53 909.16C862.65 928.4 876.19 925.49 893.61 922.84C905.51 921.25 920.13 922.6 928.87 930.81C942.93 943.63 933.24 964.17 916.99 969.32C908.64 972.16 900.08 971.42 891.06 969.92C876.53 967.26 862.96 964.29 848.45 964.16C810.67 963.98 763.06 967.36 725.55 972.82C714.87 974.71 704.06 978.47 693.09 977.94C681.99 977.71 671.78 971.04 667.44 960.92C663.73 952.3 665.71 942.11 671.99 935.43C687.46 917.99 731.38 925.05 752.52 929.38C764.26 932.05 777.67 933.56 782.15 920.67C789.11 897.73 779.52 869.63 764.12 852.27C753.06 840.14 736.33 831.71 719.71 831.88C695.24 832.32 682.13 854.89 667.58 871.99C659.95 881.2 650.91 890.39 640.78 896.24C620.65 908.26 602.91 902.29 595.82 879.71C580.42 827.91 619.14 739.06 669.07 718.7C694 707.4 723.54 705.47 748.98 716.64C759.08 720.78 768.73 726.39 777.69 732.66C786.29 738.65 793.02 744.66 799 753.77C802.83 759.52 806.09 765.57 809.43 771.72C812.94 778.11 816.31 784.82 820.14 790.89C825.64 799.59 828.92 799.54 831.27 790.67C835.06 775.29 836.25 757.93 839.45 742.2C845.38 710.32 860.49 680.57 879.59 654.68L879.7 654.53L879.71 654.51Z" fill="#6A994E"/>
<path d="M880.59 584.36C854.32 563.41 827.86 542.3 802.4 520.39C796.03 514.91 782.05 497.22 776.81 494.81C764.64 489.23 742.68 498.69 731.37 504.7C735.44 522.58 746.1 561.55 739.24 576.6C737.22 581.02 721.94 597.22 737.84 597.94C752.82 598.62 780.97 589.15 774.13 616.56C772.36 623.64 717.71 631.45 707.82 629.23C687.1 624.59 696.64 604.99 691.96 594.14C688.85 586.92 676.72 580.94 671.18 569.2C665.73 557.65 661.35 537.82 657.47 524.6H651.78C661.18 568.54 660.76 578.17 651.78 621.31C653.28 630.83 655.21 642.15 654.62 644.07C654.09 645.82 654.33 647.56 653.15 649.71C652.2 651.45 650.11 651.69 648.93 652.6C643.03 657.16 591.8 666.74 586.79 663.6C581.17 660.08 587.15 643.15 590.73 638.44C599.12 627.4 614.54 632.65 617.68 618.51C589.67 615.85 586.68 565.11 580.72 541.68L529.55 553.06C529.04 579.87 503.76 604.19 481.23 615.64C491.53 623.54 483.34 674.52 478.35 678.21C471.61 683.2 465.55 664.98 464.17 661.15C459.45 648.04 462.34 635.7 441.84 634.26C430.18 633.44 384.17 651.85 377.72 661.4C373.4 667.78 358.71 725.97 342.07 712.23C336.16 707.35 341.88 680.32 341.94 672.53C341.96 670.46 340.57 668.3 339.1 666.84C333.06 684.37 303.8 710.71 308.06 674.22C309.4 662.73 325 644.76 310.64 639.82L316.35 635.58C309.47 631.01 292.99 646.45 290.8 644.07C282.61 635.18 311.65 629.24 305 624.19L287.94 621.33C288.52 626.11 210.12 648.02 201.1 652.48C195.32 655.34 189.68 658.61 188.31 665.43L189.73 669.88L245.3 706.64C229.16 711.58 207.82 716.36 193.09 724.11C188.03 726.77 180.63 728.74 182.95 736.28C184.25 740.53 247.02 773.78 256.37 779.52C273.04 789.76 307.03 819.42 324.18 822.72C336.89 825.17 365.51 815.01 379.5 811.08C473.81 784.6 564.32 744.67 660.33 723.74C674.93 715.51 697.57 709.19 714.34 709.52L876.36 661.17C877.53 659.57 878.02 656.98 879.2 655.48L833.69 608.57C833.66 605.91 878.8 599.74 881.75 595.47C883.28 593.25 882.19 587.04 880.6 584.37L880.59 584.36ZM864.95 658.25C686.4 706.02 510.58 762.32 334.13 817.07C323.41 818.08 278.35 786.53 265.85 778.69C246.48 766.55 226.34 750.65 205.7 739.18C201.24 736.7 196.47 735.04 191.31 735.06C206.48 721 232.19 716.25 251.77 710.03L327.97 753.58L334.1 754.56C494.18 702.87 658.56 666.23 818.11 612.9C828.37 615.42 870.66 650 864.96 658.24L864.95 658.25Z" fill="#A7C957"/>
<path d="M911.01 975.46C927.99 988.72 922.53 1026.77 920.65 1046.37C915.76 1081.32 901.81 1147.9 871.39 1165.44C863.19 1170.13 853.63 1171.66 844.29 1172.63C810.82 1175.38 770.84 1177.41 737.16 1167.71C702.6 1157.06 689.45 1136.87 688.5 1101.53C687.6 1078.08 688.27 1054.87 688.4 1031.47C688.89 1016.67 686.64 997.91 695.11 985.25C703.94 972.94 720.64 971.48 734.63 969.34C763.16 966 803.15 962.69 835.5 962.14C850.72 961.74 864.72 962.53 879.51 965.7C890.02 968.05 902.08 968.99 910.89 975.38L911.02 975.48L911.01 975.46Z" fill="#BC4749"/>
<path d="M530.03 552.63C530.24 544.52 527.67 536.61 524.75 529.89C523.23 525.19 520.27 519.48 514.78 519.32C511.58 519.49 508.76 521.4 505.97 522.88C504.19 523.54 499.54 527.99 498.57 525.42C497.61 521.9 496.98 516.66 496.38 513.27C496.33 512.55 496.22 511.83 496.4 511.21C496.68 510.01 497.8 509.48 499.46 508.8C501.92 507.78 504.87 506.61 507.51 505.44C509.12 504.65 510.92 503.73 511.54 501.97C512.33 499.64 510.93 497.36 509.81 495.08C508.59 492.68 507.37 490.43 506.21 488.13C500.77 478.04 491.1 451.24 478.56 457.61C469.62 463.5 472.58 483 478.03 492.27C480.7 498.1 486.28 499.76 488.15 505.56C490.65 511.41 492.14 518.36 494.2 524.25C496.65 530.47 495.51 536.53 496.2 542.95C497.34 557.16 491.04 570.43 479 578.26C472.75 582.5 465.87 579.4 459.85 576.52C436.68 566.55 411.22 576.04 389.72 585.99C385.48 587.76 381.35 587.36 380.04 582.45C376.89 573.76 372.44 564.71 363.03 562.62C352.69 560.06 353.91 570.52 347.88 575.06C344.45 577.52 339.49 577.8 335.17 578.67C328.38 579.46 321.36 581.5 314.67 579.76C310.24 578.54 304.94 575.58 301.2 576.35C297.5 576.79 294.3 584.39 299.63 585.14C312.84 588.19 337.87 591.31 348.67 586.49C351.96 585.09 353.61 582.1 355.23 578.96C358.81 571.47 361.79 566.82 368.15 575.66C371.54 580.95 375.9 587.4 375.95 594.01C375.93 598.93 371.81 599.68 367.77 600.1C363.76 600.62 359.61 601.12 358.73 604.5C357.91 608.53 359.82 612.99 362.96 615.49C369.03 620.24 383.05 622.01 388.19 618.68C389.63 617.77 390.75 615.61 389.32 614.24C387.55 612.6 382.38 612.89 381.64 609.45C380.53 606.03 384.82 605 386.05 602.53C386.86 600.25 384.79 597.01 387.22 595.19C389.05 593.57 391.75 592.68 394.13 592C411.7 588.21 430.96 574.31 448.48 581.04C454.06 583.1 460.51 584.62 465.66 587.12C468.31 588.89 469.11 592.29 470.38 595.04C472.67 600.19 474.76 606.29 477.11 611.67C483.27 627.09 480.63 643.52 476.97 659.3C476.51 661.65 474.75 664.51 472.08 663.77C470.31 663.26 470.3 660.99 470.1 659.38C469.81 656.91 468.85 654.61 467.75 651.15C465.62 644.73 462.72 636.2 460.53 631.4C459.29 628.62 458.36 627.17 455.65 626.53C438.48 622.76 383.64 638.49 373.41 651.75C368.06 661.57 365.86 676.44 361.01 685.45C357.78 691.67 350.61 704 346.91 703.94C341.81 702.99 346.84 679.63 347.03 675.32C348.21 667.92 348.51 660.33 350.62 653.09C351.8 649.11 352.62 647.46 355.78 643.99C358.93 640.29 364.04 634.31 367.13 630.69C368.44 629.14 369.47 628.05 369.17 627.82C356.43 631.25 349.72 637.12 335.83 632.02C332.38 630.82 328.73 629.34 326.2 626.65C324.74 625.13 324.13 623.6 323.01 622.63C321.75 621.43 319.56 621.44 317.97 620.86C315.44 619.56 325.52 617.28 325.09 616.05C325.83 614.35 323.43 612.51 322.09 611.66C315.86 608.02 307.14 614.37 300.85 607.35C297.49 603.33 296.43 597.18 296.14 591.99C296.14 590.41 294.96 586.51 293.43 589.57C291.37 597.36 295.19 605.42 295.66 613.18C295.4 616.4 291.84 615.45 289.04 615.68C286.48 615.65 284.22 616.46 286.19 619.34C288.15 622.27 291.23 621.77 294.83 622.59C296.6 622.89 298.47 623.2 300.01 623.46C302.21 623.96 306.05 624.02 304.73 626.86C302.83 631.13 284.56 636.62 290.76 643.68C291.96 644.38 293.58 643.47 295.84 642.27C300.68 639.83 309.24 633.54 314.24 635.61C314.56 636.01 314.12 636.7 313.45 637.42C311.49 639.36 311.61 640.47 313.88 642.32C320.91 649.16 309.12 663.87 307.78 674.33C303.79 705.55 326.82 691.15 337.87 669.71C340.92 666.18 341.97 674.24 341.42 676.35C340.86 686.6 336.16 705.42 341.99 712.25C347.97 717.19 353.66 712.64 358.59 705.13C366.92 692.83 371.38 674.33 377.89 661.3C385.39 652.16 433.43 629.5 449.28 635.71C459.98 638.88 460.49 647.15 463.03 656.49C464.34 661.23 465.95 665.8 468.31 670.57C470.75 675.72 475.88 682.21 479.84 676.61C484.38 668.06 490.05 630.17 483.56 618.38C482.23 616.39 482.79 615.03 484.92 613.87C506.73 601.55 529.51 578.7 530.02 552.84V552.63H530.03ZM339.39 663.69C338.12 664.53 336.21 664.79 334.26 665.75C331.96 666.81 330.25 668.74 328.79 670.75C325.99 674.5 323.55 678.59 319.62 681.3C317.66 682.6 313.15 685.07 312.93 682.78C313.06 676.35 321.85 648.55 324.55 642.64C325.22 640.83 327.78 640.93 329.63 640.86C334.43 640.74 339.39 640.87 344.2 641.04C345.3 641.11 347.05 641.01 347.19 642.41C347.23 642.97 347.03 643.64 346.84 644.23C345.76 647.18 345.14 650.65 344.38 653.91C343.54 657.37 342.33 661.56 339.53 663.6L339.4 663.69H339.39ZM523.35 541.63C524.25 541.98 523.89 543.06 523.69 545.09C523.36 548.06 523.05 550.8 522.68 554.11C522.22 558.14 521.8 562.07 521.35 565.93C521.27 566.44 521.2 566.96 520.69 567.07C519.86 567.22 517.56 565.77 515.66 564.61C512.28 562.28 508.63 560.39 504.81 558.96C502.96 557.72 503.47 555.86 502.86 553.39C502.64 552.07 502.4 550.61 502.16 549.19C501.86 547.4 501.56 545.61 501.29 543.97C501.19 543.15 500.94 542.13 501.82 541.79C503.71 541.45 507.91 541.86 510.36 541.62C514.18 541.56 519.85 540.96 523.25 541.6L523.34 541.64L523.35 541.63ZM478.97 467.52C489.74 464.44 496.15 476.45 497.97 486.84C498.15 487.9 498.25 489.13 497.55 489.92C496.78 490.87 495.05 490.73 493.62 491.14C490.67 492.23 488.41 494.79 485.28 492.21C480.51 488.17 478.8 479.77 477.99 474C477.93 472.05 477 468.48 478.84 467.58L478.96 467.52H478.97ZM484.2 584.78C484.31 584.09 484.79 583.56 485.33 583.1C487.93 581.12 491.97 576.85 495.38 574.46C496.43 573.75 497.53 573.05 498.75 573.1C501.84 573.72 509.61 576.32 509.92 580.78C509.93 582.96 507.72 584.65 506.11 585.98C496.79 593.63 494.49 603.32 488.92 595.22C487.21 592.7 485.72 589.65 484.6 586.99C484.29 586.21 484.11 585.5 484.17 584.9L484.19 584.77L484.2 584.78Z" fill="#386641"/>
<path d="M683.07 1105.27C678.12 1099.14 672.54 1093.9 666.63 1089.3C660.83 1085.04 654.7 1081.24 648.74 1076.95C644.7 1074.07 641.26 1070.4 637.68 1067.03C633.29 1063.08 629.33 1061.04 624 1057.49C603.54 1044.57 572.75 1025.45 556.48 1020.07C554.05 1019.41 552.1 1018.62 550.17 1016.9C548.32 1015.34 546.23 1013.05 543.18 1011.4C539.28 1009.38 534.65 1008.77 530.39 1007.82C516.03 1004.07 509.94 1006.3 499.87 1017C492.94 1024.14 489.47 1033.88 486.57 1043.62C484.37 1051.2 481.96 1059.34 480.25 1066.89C478.06 1076.2 478.32 1084.99 481.81 1094.1C485.54 1104.26 492.77 1117.92 503.14 1121.82C509.73 1124.56 517.91 1125.67 525.08 1127.67C540.57 1131.9 556.18 1135.31 571.56 1139.86C588.28 1144.19 605.6 1145.23 622.04 1150.39C635.89 1153.71 657.75 1162.81 671.18 1157.74C676.6 1155.74 678.62 1149.81 682.96 1146.43C685.49 1144.25 688.55 1142.73 690.24 1139.25C691.88 1135.83 692.36 1131.79 692.44 1128.06C692.77 1119.22 688.37 1112.13 683.2 1105.44L683.07 1105.28V1105.27ZM649.43 1089.82C654.23 1086.14 659.38 1091.47 663.47 1094.02C669.18 1097.94 674.96 1101.44 678.72 1107.43C681.41 1111.16 688.15 1125.31 677.87 1121.63C676.16 1120.96 674.32 1119.86 672.53 1118.76C665.97 1114.64 658.88 1111.39 651.81 1108.24C648.04 1106.32 643.24 1105.52 642.69 1101.64C642.63 1099.76 643.68 1098.05 644.58 1096.38C645.85 1094.18 647.44 1091.45 649.3 1089.92L649.42 1089.82H649.43ZM642.37 1077.53C643.82 1081.96 640.08 1086.67 637.54 1090.17C627.8 1102.28 616.64 1090.62 601.01 1083.34C598.97 1082.37 596.64 1081.35 594.87 1080.21C590.78 1077.7 590.63 1074.48 592.25 1069.76C593.44 1066.14 595.34 1061.99 597.15 1058.49C598.75 1055.64 600.38 1051.9 603.95 1051.63C606.73 1051.5 610.23 1054.38 613.71 1056.95C616 1058.67 618.27 1060.41 620.57 1062.13C624.47 1065.06 628.44 1067.92 632.62 1070.43C636.52 1072.92 640.65 1074.16 642.31 1077.39L642.37 1077.52V1077.53ZM554.09 1025.87C561.46 1024.24 579.12 1037.04 585.99 1041.12C587.82 1042.33 590.03 1043.59 591.33 1045.22C593.82 1048.9 590.93 1052.45 589.13 1057.17C587.87 1060.02 586.24 1063.76 585.13 1066.2C583.28 1070.45 582.33 1070.97 579.06 1069.33C572.39 1066.18 554.65 1057.72 546.88 1054.01C544.21 1052.78 541.39 1051.46 542.34 1047.96C543.3 1043.23 546.67 1036.46 548.94 1031.81C550.46 1028.74 551.97 1026.57 553.95 1025.9L554.08 1025.86L554.09 1025.87ZM504.44 1022.31C508.87 1007.89 518.17 1011.8 530.38 1013.25C536.41 1014.28 546.09 1016.37 545.83 1024C545.65 1027.24 543.33 1030.88 541.55 1034.65C537 1043.14 536.98 1050.97 525.46 1044.48C515.03 1039.28 500.12 1036.84 504.39 1022.53L504.45 1022.32L504.44 1022.31ZM515.97 1118.78C514.26 1120.47 511.08 1119.14 509 1118.29C495.56 1112.46 486.1 1095.73 486.54 1080.28C486.91 1075.01 492.1 1077.31 495.37 1078.61C502.59 1081.47 512.08 1084.44 516.72 1087.59C518.73 1088.93 520.03 1090.8 520.15 1093.28C520.29 1098.87 517.86 1104.96 517.56 1110.68C517.3 1114.35 517.26 1117.4 516.05 1118.7L515.97 1118.78ZM489.43 1069.67C488.74 1068.84 490.47 1064.45 491.34 1061.68C492.98 1056.72 495.27 1049.83 496.9 1044.91C498.12 1041.94 498.35 1037.56 502.16 1038.83C507.49 1040.59 516.5 1045.21 522.57 1048.45C525.26 1049.92 528.17 1051.73 528.49 1055C529.05 1060.62 526.37 1066.9 524.81 1073.06C522.91 1080.93 522.75 1081.16 514.72 1078.48C509.54 1076.85 502.62 1074.68 497.47 1073.06C495.09 1072.22 489.82 1071.02 489.46 1069.75L489.43 1069.69V1069.67ZM559.7 1132.75C557.14 1133.07 554.44 1131.73 551.9 1130.79C547.96 1129.25 543.87 1128.01 539.72 1127.19C534.69 1126.1 529.7 1126.48 527.07 1122.88C523.53 1117.09 525.2 1106.85 527.7 1100.95C529.99 1095.83 533.39 1094.3 538.12 1096.24C545.35 1098.84 556.02 1103.15 563.33 1106.48C568.45 1108.54 568.51 1111.13 567.83 1115.66C566.87 1120.63 565.47 1131.54 559.83 1132.75L559.69 1132.77L559.7 1132.75ZM534.51 1088.85C529.14 1081.33 534.21 1071.38 536.14 1062.64C537.72 1056.65 538.71 1056 544.49 1059.68C553.65 1065.2 570.33 1071.15 577.25 1074.16C580.54 1075.39 581.41 1077.2 580.45 1080.81C579.97 1082.96 579.05 1085.94 577.96 1089.06C576.37 1093.24 574.28 1099.8 571.22 1102.02C569.29 1103.23 566.98 1102.37 564.93 1101.78C559.71 1100.1 551.17 1096.89 544.66 1094.31C539.87 1092.37 536.58 1091.19 534.6 1088.97L534.5 1088.86L534.51 1088.85ZM614.18 1144.06C611.03 1145.6 607.27 1143.66 603.83 1142.79C596.85 1140.72 589.69 1138.86 582.47 1137.83C574.84 1137.15 574.7 1134.61 575.29 1128.23C575.67 1124.6 576.13 1119.82 576.57 1116.31C576.95 1113.56 577.52 1111.8 578.66 1111.06C580.41 1109.98 582.82 1110.67 584.79 1110.96C591.93 1111.88 598.2 1114.37 604.97 1117.48C609.34 1119.48 613.9 1121.22 617.64 1124.21C620.33 1126.47 620.66 1128.9 619.68 1133.04C618.65 1136.72 617.62 1141.83 614.32 1143.99L614.19 1144.06H614.18ZM616.03 1115.55C613.61 1115.23 611.19 1114.59 608.53 1113.54C602.76 1111.25 597.09 1108.67 591.14 1106.87C579.39 1103.32 582.17 1096.71 584.11 1086.63C585.05 1082.19 586.96 1081.64 590.58 1083.3C596.8 1086.14 603.02 1088.95 609.15 1091.96C615.79 1095.22 620.64 1098.46 626.22 1103.32C626.6 1103.65 626.98 1103.98 627.28 1104.39C627.85 1105.17 628.05 1106.15 628.13 1107.1C628.38 1110.1 627.48 1113.18 625.66 1115.57C622.09 1115.88 619.04 1115.95 616.02 1115.55H616.03ZM626.63 1146.24C623.89 1143.27 624.36 1136.04 625.72 1132.91C627.3 1129.61 631.58 1130.48 634.63 1130.98C646.69 1133.13 658.07 1139.47 669.63 1142.69C671.9 1143.46 676.71 1144.26 675.66 1147.35C672.56 1152.54 662.88 1153.63 656.78 1152.7C650.78 1152.02 644.33 1150.24 638.16 1149.1C634.51 1148.24 628.84 1148.35 626.73 1146.35L626.63 1146.25V1146.24ZM681.05 1133.7C678.58 1142.13 662.24 1134.21 655.75 1131.89C650.09 1129.62 644.43 1127.25 639.88 1126.02C637.75 1125.42 635.34 1124.85 634.12 1122.89C632.35 1119.94 633.12 1115.21 634.29 1112.33C636.95 1106.89 644.6 1110.69 648.98 1112.25C655.85 1115.14 663.88 1118.87 670.77 1122.16C675.33 1124.3 681.9 1127.7 681.07 1133.56L681.04 1133.69L681.05 1133.7Z" fill="#6A994E"/>
<path d="M480.07 952.97C476.14 952.1 469.03 952.55 465.27 952.19C463.23 952.02 462.15 951.42 461.57 949.6C458.87 942.18 454.91 921.69 450.61 911.43C362.44 719.61 59.8101 870.67 139.49 1074C188.19 1187.75 348.84 1190.24 421.29 1096.74C429.99 1086.54 438.18 1069.66 444.69 1059.36C446.68 1056.16 447.35 1054.8 450.59 1054.36C456.04 1053.66 463.79 1055.47 469.94 1056.6C472.63 1057.09 475.55 1057.7 478.03 1056.28C483.31 1052.8 485.52 1044.41 487.31 1038.73C492.88 1017.25 506.29 958.9 480.23 953.01L480.05 952.97H480.07ZM394.29 1004.66C393.16 1005.97 392.39 1008.01 391.61 1010.7C390.14 1015.8 388.95 1022.67 387.33 1027.75C374.59 1061.79 343.22 1091.75 306.66 1096.98C303.8 1097.47 302.87 1097.6 302.57 1099.52C301.94 1104.59 303.17 1122.04 297.19 1130.29C293.68 1135.2 287.48 1136.41 281.84 1135.8C268.8 1134.09 275.91 1113.63 273.52 1103.7C272.63 1099.86 270.44 1098.8 266.2 1097.54C258.12 1095.31 249.58 1094.29 242.34 1090.09C219.69 1078.15 205.26 1057.41 196.01 1033.91C194.23 1028.73 193.12 1022.13 191.72 1017.24C190.8 1014.19 190.24 1012.38 188.19 1010.98C183.95 1008.25 173.57 1009.85 167.38 1005.42C166.68 1004.92 166.03 1004.34 165.47 1003.68C161.88 999.56 161.57 991.35 163.58 986.48C166.54 979.94 180.04 982.24 186.09 980.77C190.79 980.38 190.99 976.81 192.4 972.65C194.4 966.17 197.11 956.36 199.42 949.47C209.01 922.65 230.93 903.44 255.97 891.12C262.96 887.29 271.54 886 279.16 883.86C281.36 883.21 283 882.6 284.08 881.57C285.11 880.61 285.69 879.25 286.12 877.43C288.06 869.26 285.89 854.42 295.43 853.45C298.95 853.07 303.32 854.53 305.59 857.39C310.18 863.05 307.61 873.43 308.37 878.84C308.54 880.01 308.71 880.88 309.4 881.68C310.26 882.67 313.39 883.78 315.78 884.54C321.82 886.58 330.96 889.36 337.4 891.64C360.11 899.71 376.53 920.99 386.46 942.05C390.24 949.69 392.33 961.24 394.74 968.59C395.6 971.35 396.41 972.25 398.96 972.53C406.42 973.36 422.09 970.51 426.24 976.71C429.32 981.94 426.68 990.62 422.97 995.12C414.89 1004.19 399.96 998.84 394.36 1004.56L394.28 1004.66H394.29ZM333.68 957.61C325.12 965.72 307.44 975.53 301.03 981.43C300.23 982.55 300.12 983.54 299.81 985.14C299.12 989.2 298.34 995.42 297.93 999.57C295.32 1014.04 310.09 1023.95 305.08 1039.74C299.32 1057.31 290.86 1028.17 288.76 1022.56C287.21 1017.89 286 1013.86 282.94 1010.12C277.16 1002.51 268.82 997.81 269.81 986.83C270.1 982.62 271.8 977.84 275.51 975.82C280.53 972.74 287.09 971.35 292.3 968.49C300.73 963.86 306.34 954.38 315.07 948.7C330.59 937.72 358.32 931.81 333.81 957.49L333.69 957.61H333.68Z" fill="#CED4DA"/>
<path d="M738.39 597.35C729.87 595.55 732.98 587.75 736.18 582.5C739.7 576.97 741.88 571.18 741.84 564.6C742.22 543.85 734.9 518.33 730.21 497.45C712.52 422.61 685.51 347.37 663.71 273.36C662.7 270.04 662.16 266.53 663.21 263.18C664.27 259.36 667.06 255.84 667.69 251.62C668.64 245.13 666.56 238.36 665.11 232.17C641.08 139.05 583.73 62.35 487.43 42.84C471.85 39.07 455.55 35.92 440.02 33C409.24 27.27 377.19 22.82 345.49 28.69C339.47 30.1 333.88 32.41 329.79 37.01C327.51 39.62 325.62 42.33 323.14 43.72C317.8 46.48 311.1 44.89 305.14 46.84C293.92 50.01 275.39 54.54 274.1 67.3C273.75 72.48 277.35 78.75 281.59 82.92C289.18 90.57 300.06 88.84 310.93 86.24C319.92 83.66 326.06 85.41 334.41 88.21C337.85 89.13 340.72 89.48 344.04 89.58C367.12 90.26 417.02 86.16 440.98 83.76C450.81 83.6 461.4 88.8 470.77 91.8C475.57 93.57 478.52 95.02 481.95 97.49C483.44 98.53 485.25 99.98 486.19 101.46C486.51 101.96 486.67 102.69 486.09 103.03C484.23 103.7 481.42 103.25 477.82 102.35C471.79 100.86 464.78 98.31 459.25 96.71C452.25 94.59 446.57 97.49 439.28 98.04C432.27 98.61 426.27 100.03 418.74 100.92C407.53 102.59 393.08 101.2 392.78 111.93C392.48 127.25 395.56 134.96 412.2 131.03C417.29 129.98 421.43 127.28 425.83 128.9C428 129.74 429.58 131.33 431.27 132.95C433.79 135.49 436.67 137.46 440.05 138.98C450.86 143.41 464.55 145.35 474.5 140.62C480.87 136.17 485.42 132.11 493.93 132.4C498.91 132.67 503.34 133.32 503.57 137.16C503.53 140.15 499.31 143.47 496.42 145.09C476.15 156.25 448.51 147.77 428.83 159.62C424.9 162.01 421.44 165.18 418.47 168.68C387.4 206.69 401.19 269.24 425.41 309.65C434.78 328.16 443.28 345.5 458.97 358.68C467.12 365.65 479.29 374.4 488.22 364.94C491.83 361 494.93 354.65 501.31 354.8C507.49 354.78 513.69 356.77 519.81 357.6C526.76 358.79 535.27 358.23 539.4 364.62C541.49 367.73 542.36 371.5 543.27 375.14C544.97 382.41 546.7 389.69 548.35 396.96C559.79 450.45 571.69 503.68 583.99 557.12C587.61 574.45 590.57 595.68 602.36 609.82C603.55 611.16 604.82 612.37 606.22 613.47C608.85 615.59 612.35 616.84 614.02 618.8C619.31 626.55 602.53 630.38 597.67 633.71C592.78 636.48 589.3 641.1 587.43 646.39C585.57 652.14 582.78 662.58 590.28 664.02C604.99 664.27 633.23 659.29 647.9 653.21C650.69 651.66 652.84 649.07 654.05 646.15C655.32 642.99 654.79 640 654.24 635.56C653.55 630.71 652.72 626.1 653.01 620.87C653.54 611.49 656.63 599.96 657.56 591.42C663.9 551.55 645.62 505.29 636.54 464.94C635.88 461.31 634.66 457.44 634.21 453.86C633.56 445.34 639.12 454 639.98 457.17C647.48 477.76 650.9 499.82 656.73 520.85C660.28 533.28 663.47 546.52 667.51 558.7C670.23 567.74 675.43 576.3 682.35 582.88C685.25 585.85 688.72 589.03 690.7 592.37C696.44 601.46 691.2 615.05 698.9 623.35C703.36 628.21 710.23 629.96 716.63 629.56C730.18 629.14 755.68 625.33 767.52 620.93C770.88 619.66 773 618.63 774.16 616.02C775.67 612.49 775.4 608.03 774.01 604.35C769.42 593.04 750.11 599.22 738.57 597.38L738.4 597.34L738.39 597.35ZM321.79 73.99C317.63 78.93 305.57 78.85 299.18 79.17C294.35 79.04 288.84 79.58 285.04 76.79C282.61 74.87 279.44 71.27 280.1 68.08C281.23 66.41 283.94 66.94 285.85 66.85C294.08 67.22 295.34 66.61 296.12 58.96C296.48 56.78 297.31 55.36 299.72 54.83C304.79 53.93 312.11 53.54 317.58 52.91C324.11 52.25 326.36 52.01 325.23 60.14C324.66 64.72 324.89 70.04 321.92 73.84L321.8 73.98L321.79 73.99ZM475.06 131.16C471.66 135.58 448.54 137.51 444 133.12C441.83 131.03 442.75 127.7 443.46 125.1C444.13 122.75 444.64 120.27 445.05 117.78C445.76 114.33 445.79 110.51 446.72 107.08C448.22 101.94 454.27 103.98 458.56 104.52C463.65 105.4 468.9 106.51 473.87 107.83C478.76 108.92 480.19 110.71 479.94 114.81C479.58 120.09 478.56 127.08 475.17 131.05L475.06 131.16ZM503.26 122.27C501.83 123.95 496.9 123.75 494.15 123.87C491.26 123.89 488.34 124.24 485.54 123.74C483.71 123.33 483.33 122.03 483.17 119.44C483.04 116.6 482.69 112.66 485.26 110.86C487.38 109.59 490.15 110.19 492.53 110.36C496.33 110.75 499.76 112.16 501.83 115.07C503.09 116.99 504.81 120.07 503.34 122.16L503.26 122.26V122.27ZM554.68 343.91C551.11 346.42 546.43 344.44 542.46 344.51C539.97 344.67 537.92 346.19 535.45 346.71C532.67 347.61 528.5 345.3 527.17 348.92C526.67 350.05 526.38 351.6 525.86 352.53C525.05 354.17 523.1 353.65 521.63 353.23C517.58 351.91 510.31 349.68 504.7 348.65C496.17 347.12 499.05 342.69 501.24 336.38C502.49 333.04 503.7 328.84 505.32 326.28C507.09 323.26 510.2 322.69 513.44 322.43C525.14 321.54 543.46 315.97 551.41 316.46C553.52 316.93 554.09 319.22 554.76 321.32C555.85 326.18 559.99 340.13 554.83 343.81L554.7 343.91H554.68ZM477.81 274.92C474.36 265.44 472.71 255.75 471.61 245.18C470.63 234.2 470.73 225.67 476.49 216.24C479.71 210.77 486.72 200.25 492.78 204.18C505.5 217.79 514.96 276.19 520.27 296.28C520.79 298.42 521.5 300.79 522.4 302.94C523.38 305.49 525.32 308.79 525.53 311.04C525.73 312.54 525.15 313.97 523.66 314.59C520.71 315.66 516.23 315.33 513.38 313.68C511.21 312.37 510.34 309.94 508.54 307.29C507.18 305.24 505.53 303.37 503.68 301.73C492.31 292.66 484.05 291.19 477.9 275.12L477.82 274.92H477.81ZM643.03 619.12C644.51 620.11 644.96 622.16 645.66 625.26C646.39 628.61 647.28 632.89 648.06 636.34C652.03 652.62 634.79 649.23 624.8 650.13C619.5 650.58 615.01 652.07 609.59 653.28C604.17 654.28 596.62 656.56 592.6 653.16C589.79 649.25 595.91 645.19 599.56 643.16C605.94 639.16 614.66 637.92 618.98 631.33C620.68 628.75 621.8 625.14 622.62 622.63C623 621.53 623.44 620.38 624.27 619.59C626.82 617.52 630.47 618.09 633.8 617.9C636.78 617.97 640.7 617.74 642.92 619.05L643.02 619.12H643.03ZM636.38 257.84C624.33 261.74 615.26 271.78 605.71 279.22C592.78 288.17 572.99 296.9 560.23 303.27C553.85 306.37 546.93 308.7 539.71 308.81C533.44 308.62 529 307.87 526.89 302.98C521.59 279.55 510.27 211.27 495.64 197.39C490.95 193.34 484.67 195.81 479.87 200.2C474.92 205.06 472.02 212.53 470.17 219.52C465.94 235.51 464.95 253.06 468.22 269.32C471.74 286.85 480.47 295.36 493.62 306.28C497.51 309.52 504.39 311.91 503.37 316.72C500.82 326.74 491.19 348.51 486.4 358.18C484.21 362.76 480.07 364.35 475.45 361.81C472 360 469.59 356.93 466.57 354.3C464.07 352.03 461.3 349.93 458.68 347.79C448.88 339.98 443.69 331.69 437.23 321.62C433.9 316.5 431.1 310.79 428.82 305.32C425.74 298.47 422.07 291.85 420.39 284.48C412.89 254.49 396.7 220.17 413.42 190.09C428.22 163.93 438.96 162.7 468.07 161.31C488.15 160.19 512.31 153.62 510.35 128.95C508.77 111.62 494.19 94.79 478.87 87.03C468.39 82.15 455.53 79.27 444.43 77.93C439.5 77.25 434.53 76.23 429.55 76.65C423.7 77.17 416.88 79.83 410.57 80.01C402.56 80.38 394.62 78.81 386.63 78.91C373.62 78.92 362.31 80.81 348.18 80.68C333.95 81.12 329.62 79.54 329.29 63.88C328.76 53.14 331.08 42.85 342.95 38.57C388.57 23.61 492.26 48.23 536.05 67.2C595.22 95.75 644.73 168.38 658.62 227.28C659.99 234.23 661.77 242.23 659.57 249.12C657.7 254.18 652.7 254.28 645.36 255.63C642.43 256.16 639.45 256.85 636.61 257.78L636.39 257.85L636.38 257.84ZM701.79 618.31C698.03 613.83 699.87 603.43 699.74 597.47C699.77 591.91 701.35 590.03 706.94 589.94C711.44 589.8 717.12 589.43 720.68 589.71C728.9 589.83 724.86 602.83 732.31 604.19C738.21 605.79 766.94 601.05 768 608.71C766.89 615.42 710.91 626.06 701.88 618.39L701.79 618.3V618.31Z" fill="#386641"/>
<path d="M509.48 503.13C509.04 504.77 509.61 506.28 510.5 508.58C512.23 512.37 513.49 516.94 515.86 520.01C517.2 521.8 520.42 523.02 520.66 520.66C520.83 518.36 519.57 516.06 518.75 513.97C516.97 510.44 515.29 505.07 512.45 502.66C511.53 501.96 509.99 501.68 509.52 503.01L509.47 503.14L509.48 503.13Z" fill="#386641"/>
</svg>
