<svg width="1200" height="1200" viewBox="0 0 1200 1200" fill="none" xmlns="http://www.w3.org/2000/svg">
<path d="M880.87 173.99C887.23 174.2 890.37 180.46 891.87 186.26C915.32 266.56 938.72 346.66 962.16 426.92C963.78 432.49 965.43 438.09 967.03 443.61C967.99 447.01 968.75 450.07 968.57 453.45C968.32 458.91 965.67 463.52 963.51 468.71C961.93 472.52 961.14 476.65 962.01 480.59C963.12 485.98 966.51 490.6 967.68 495.98C968.84 500.73 968.83 506.52 970.32 512.27C971.41 516.61 973.41 520.81 976.19 524.29C979.55 528.43 983.69 532 984.93 537.33C985.7 540.15 985.91 543.33 983.61 545.1C980.95 546.61 977.63 545.52 974.71 544.94C965.77 542.66 954.75 540.14 946.61 537.77C929.67 529.91 869.94 497.5 850.37 487.69C842.74 483.75 835.04 492.75 827.22 492.75C819.84 492.61 813.63 486.66 806.44 485.22C800.7 483.79 797.56 487.1 793.65 487.58C790.77 488.06 788.23 486.15 786.97 483.63C784.01 477.78 786.51 470.64 786.52 463.93C786.83 455.49 784.35 447.41 779.75 440.05C766.53 419.2 741.4 406.55 716.88 410.74C675.63 415.77 651.14 448.8 650.43 489.04C649.91 504.78 653.79 523.01 663.41 535.34C681.26 559.14 714.28 563.67 739.88 550.48C748.67 546.01 756.78 539.46 763.46 530.86C766.83 526.72 770.3 520.64 776.38 521.51C780.27 521.9 784.83 524.7 789.68 526.6C794.03 528.44 798.78 529.61 803.1 531.35C809.65 533.89 812.02 538.85 817.76 543.19C852.6 564.38 896.18 574.18 926.72 602.41C932.35 607.7 935.86 616.31 938.73 622.78C939.18 623.81 939.51 624.75 939.8 625.75C940.21 627.28 939.68 627.37 938.82 627.56C882.41 642.06 481.54 744.19 464.94 748.47C451.04 702.58 400.44 494.45 392.91 468.14C392.36 466.09 393.68 465.55 396.46 463.95C398.9 462.73 401.73 461.46 404.37 460.32C414.33 455.92 424.77 451.88 433.89 445.53C439.33 441.7 443.2 436.88 448.57 433.51C452.35 431.1 456.72 429.57 461.06 428.4C467.65 427.07 478.16 422.34 480.74 430.08C481.45 432.23 481.36 434.83 481.27 437.16C480.9 446.28 478.93 455.43 478.14 464.49C477.84 472.31 483.47 467.17 488.06 462.93C490.25 460.88 492.64 458.51 495.06 456.08C500.22 451.03 505.14 445.55 511.06 441.51C516.26 437.74 523.03 438.82 529.4 439.79C538.62 441.21 548.28 443.16 557.46 444.9C561.78 445.73 565.83 446.48 569.23 447.06C574.07 447.68 580.39 449.6 578.44 444.4C571.59 430.37 555.67 418.44 550.32 404.86C548.34 396.81 555.67 389.44 560.43 382.79C563.32 379.12 566.36 375.43 568.9 372.12C571.85 368.26 574.18 364.93 574.27 362.71C574.16 357.2 563.22 359.44 557.46 360.04C550.91 360.98 543.73 361.98 537.82 358.39C528.56 353.09 523.17 338.11 515.05 329.21C509.25 322.78 505.08 325.95 501.96 333.77C498.65 341.64 494.82 349.42 490.79 357.03C488.44 361.39 486.07 366.3 483.67 368.56C480.92 371.42 477.85 369.95 474.55 370.1C471.65 370.23 469.56 371.31 467.17 373.08C462.32 376.65 458.77 381.81 453.39 384.71C448.27 387.46 442.24 387.69 436.46 388.28C419.57 389.98 403.05 395.22 388.27 403.56C385.87 404.91 383.33 406.4 380.58 406.26C374.69 405.96 373.16 389.59 371.86 384.54C369.29 374.56 366.75 364.57 364.21 354.58C359.09 334.42 354.02 314.25 348.82 294.11C348.5 292.65 348.44 291.14 349.69 290.14C351.13 288.81 357.4 287.4 361.24 286.62C528.08 250.15 694.57 213.75 861.34 177.29C867.64 176.11 874.54 173.89 880.73 173.99H880.9H880.87ZM820.36 243.79C786.14 246.91 754.26 262.22 720.11 265.1C703.22 267.59 694.38 273.92 699.37 291.92C703.12 306.54 709.36 324.57 714.63 339.61C722.05 361.69 725.76 366.74 749.86 364.28C771.06 361.68 793.08 353.13 814.77 349.81C825.82 348.23 839.01 347.36 850.06 344.66C857.94 342.76 863.11 340.01 865.2 332.22C867.67 322.71 865.83 312.1 864.77 302.41C863.51 293.09 863.82 283.69 863.75 274.08C863.33 266.36 864.22 253.07 858.34 247.85C850.73 242.02 830.52 243.19 820.53 243.76L820.35 243.78L820.36 243.79ZM614.13 595.03C607.29 588.25 600.22 579.82 593.64 572.13C584.9 562.22 577.88 552.87 567.79 545.43C561.56 541.1 547.13 534.02 541.67 540.6C528.38 563.02 512.2 652.59 513.19 685.17C513.5 691.49 521.02 691.38 526.34 691.01C561.6 687.29 595.46 670.03 629.52 661.99C635.42 660.5 640.71 659.86 646.82 659.53C651.53 659.23 656.85 658.91 661.36 657.63C669.89 655.24 671.9 650.09 666.77 643.86C655.9 629.86 629.49 609.67 614.24 595.14L614.12 595.02L614.13 595.03Z" fill="#A7C957"/>
<path d="M905.55 786.28C904.81 788.31 904.03 790.29 903.21 792.2C885.79 832.99 853.62 869.69 822.73 901.05C790.47 933.8 753.8 962.34 713.33 984.25C667.7 1008.96 570.8 1046.02 526.94 1004.17C516.08 993.81 512.8 976.61 506.67 969.9C498.93 961.43 486.05 956.61 475.77 952.17C469.56 949.49 463.26 946.99 456.9 944.68C452.33 943.02 443.91 942.11 441.05 938.45C440.35 937.55 439.62 936.56 439.61 935.42C439.6 934.02 440.71 932.82 442.01 932.29C456 926.53 470.42 920.89 484.19 914.18C497.29 907.8 512.2 900.7 521.97 889.52C536.65 872.73 553.06 832.44 568.68 810.39C627.61 727.17 735.34 658.73 840.38 665.18C868.71 666.92 897.37 678.08 908.45 706.19C917.73 729.74 914.37 762.09 905.54 786.29L905.55 786.28ZM796.04 763.84C790.37 757.84 774.14 757.42 768.2 763.18C767.24 764.11 760.35 780.48 760.06 782.35C757.84 796.57 782.39 801.81 791.65 794.01C798.35 788.37 802.51 770.68 796.04 763.83V763.84ZM703.66 843.16C704.58 851.16 708.07 858.07 715.6 862.22C722.16 865.83 732.07 867.54 737.17 860.61C744.38 850.82 731.56 823.96 718.41 825.86C716.14 826.19 714.07 827.3 712.09 828.46C707.85 830.94 703.31 834.55 703.41 839.46C703.44 840.72 703.52 841.95 703.66 843.17V843.16ZM665.89 887.23C644.22 890.32 633.05 915.72 657.02 921.16C693.91 929.52 682.92 884.81 665.89 887.23Z" fill="#BC4749"/>
<path d="M440.04 933.34C439.72 937.69 440.34 943.69 437.79 944.81C352.07 977.61 89.0401 1078.33 66.6501 1086.88C66.2101 1087.04 65.8501 1087.17 65.5601 1087.21C64.8201 1087.44 64.2901 1086.32 64.0601 1085.45C55.2801 1052.38 41.9301 1000.23 31.8601 961.73C30.5401 956.45 29.5501 953.87 31.8801 951.29C33.4401 949.56 36.6701 947.74 41.4201 945.77C50.6801 941.98 63.9901 938.68 74.0801 935.12C90.8101 928.81 106.83 924.65 123.74 919.52C145.92 912.89 168.54 904.58 191.05 898.48C213.58 892.38 241.92 885.97 265.55 877.84C277 874.27 286.26 868.88 297.18 865.31C327.85 858.3 357.6 846.99 387.82 838.02C397.19 835.35 406.78 833.22 416.28 831.08C420.28 830.14 425.51 829.37 427.57 831.08C429.05 832.06 429.92 833.8 430.41 836.21C432.87 868.38 441.32 901.3 440.04 933.17V933.33V933.34ZM368.91 897.57C366.5 895.46 363.37 904.28 362.43 906.3C356.86 920.41 347.35 942.98 333.74 943.94C327.97 944.4 322.55 940.83 320.06 935.56C316.37 928.36 318.83 918.49 317.25 911.04C316.69 907.74 314.47 904.05 312.14 906.43C308.94 909.63 308.51 918.32 307.98 923.37C307.46 929.67 306.56 935.84 304.23 941.77C299.83 952.43 290.1 968.73 280.34 968.69C276.14 968.27 273.89 963.59 271.53 960.68C267.3 954.31 263.76 962.3 261.02 966.07C241.79 999.92 217.37 995.41 216.39 949.14C215.98 944.73 215.76 935.73 212.63 934.18C208.42 934.53 207.27 947.08 205.99 951.34C204.8 956.43 202.89 961.16 200.34 965.72C191.29 981.54 175.49 1001.96 159.46 1002.25C152.11 1002.36 148 997.19 148.11 989.3C148.01 981.43 150.06 970.51 149.94 962.56C149.91 955.49 148.2 949.43 142.36 953.47C137.08 957.94 134.83 965.85 134.63 972.7C134.69 982.68 136.29 993.35 132.09 1003.08C119.97 1032.07 89.7301 1046.53 80.3401 1004.53C79.1001 1000.22 78.5301 994.37 76.0801 991.03C73.7701 989.49 73.9501 997.99 73.9701 999.2C74.6601 1009.65 77.6501 1022.86 84.4201 1029.86C92.9001 1038.7 107.48 1038.64 117.55 1032.4C122.17 1029.55 125.83 1025.34 129.05 1020.96C132.5 1016.41 135.9 1010.61 141.21 1008.48C145.4 1006.81 150.35 1007.75 154.95 1008.14C160.5 1008.74 166.25 1008.48 171.48 1006.33C183.41 1001.45 192.78 990.72 199.69 979.27C201.81 976.37 204.81 968.6 208.3 968.69C209.02 968.81 209.62 969.35 210.15 969.94C212.68 972.79 215.75 981.02 221.15 986.96C227.32 994.42 238.35 997.46 246.81 992.23C252.65 989.06 256.23 983.17 259.97 978.07C267.85 967.54 279.03 982.53 292.58 971.43C296.1 968.78 299.21 965.42 301.83 961.78C305.72 956.99 307.77 948.96 313.59 947.34C317.9 946.55 322.31 949.34 326.57 950.54C338.91 955.2 349.84 943.16 357.45 932.28C359.88 929.25 362.91 924.64 366.78 927.25C369.69 929.08 373.54 934.46 378.27 936.78C389.6 942.3 399.47 930.63 407.1 922.4C409.5 919.42 415.84 911.8 414.48 908.93C411.2 908.35 403.37 917.85 399.01 921.74C387.19 934.11 376.1 935.63 372.32 916.33C371.29 911.04 371.22 901.16 368.98 897.59L368.94 897.54L368.91 897.57Z" fill="#CED4DA"/>
<path d="M887.42 172.48C885.89 172.16 884.49 171.68 883.28 171.01C865.7 161.25 863.38 140.41 868.91 122.85C884.81 72.31 952.25 111.02 925.08 156.74C920.72 164.07 915.11 169.97 906.49 171.63C901.2 172.65 893.38 173.74 887.42 172.48Z" fill="#BC4749"/>
<path d="M135.94 918.22C124.58 921.63 116.43 925.2 103.78 928.11L114.96 908.32C122.59 911.09 126.33 919.5 135.94 918.22Z" fill="#FEFEFE"/>
<path d="M484.13 373.09C466.78 360.91 460.48 382.94 445.65 385.64C442.52 386.11 439.29 385.88 436.12 386.05C429.88 386.4 424.33 387.78 418.23 388.76C409.82 390.67 402.51 395.6 394.39 398.57C374.59 407.72 354.87 417.38 334.63 425.57C326.91 428.16 319.35 429.61 312.02 432.99C308.3 434.85 285.05 442.84 286.03 434.11C301.23 411.86 304.73 401.09 304.53 373.21C304.19 361.93 307.54 336.42 291.55 336.52C284.64 336.45 279.16 341.36 272.8 343.21C261.63 345.28 253.05 344.07 248.93 357.22C245.48 367.22 253.25 373.89 256.06 382.52C257.77 389.92 259.27 406.34 256.17 413.25C252.61 419.49 246.18 425.81 240.98 430.7C239.63 431.87 238 433.17 236.53 433.83C224.84 438.43 209.96 416.57 189.99 437.2C174.97 450.77 164.2 469.33 150.25 483.98C126.29 511.64 61.07 561.11 57.22 595.68C56.66 601.29 58.11 607.34 55.25 612.16C54.15 614.08 52.31 615.68 50.46 617.03C40.91 623.89 29.32 631.6 23.01 641.22C13.55 657.56 23.7 655.13 23.05 663.95C22.75 667.84 20.08 673.37 21.43 677.63C23.16 681.39 29.12 682.19 32.6 684.78C38.05 688.75 44.97 688.11 50.27 684.13C58.59 678.27 64.58 670.48 71.13 661.95C75.35 656.99 78.84 649.49 85.71 648.68C91.78 648.17 99.12 645.34 103.84 640.78C126.28 621.19 145.47 589.11 166.89 566.58C169.2 564.09 173.23 560.68 173.18 566.16C172.57 576.12 169.16 586.03 168.03 596.3C162.99 640.61 127.14 693.82 108.85 740.64C97.02 771.78 84.64 803.91 78.46 836.68C76.81 845.53 72.82 853.47 71.25 862.77C70.26 870.09 68.64 877.65 72.37 883.9C74.37 886.79 77.35 888.27 78.32 890.64C79.28 893.19 78.54 895.22 77.78 898.23C76.55 902.53 75.2 907.36 74.04 911.77C72.31 919.48 69.85 923.96 73.37 928.96C79.68 936.59 96.17 932.82 103.04 926.95C107.64 922.99 109.35 914.04 115.08 911.47C117.61 910.71 119.95 912.69 122.22 913.95C131.68 921.07 142.47 916.87 152.58 913.25C157.2 911.68 161.82 910.07 166.44 908.5C170.94 906.98 175.99 905.62 178.94 901.65C186.67 890.48 173.84 879.46 163.32 877.72C153 876.14 135.64 878.59 146.07 862.65C161.32 837.37 172.3 809.53 186.89 783.62C206.22 749.69 229.56 715.67 261.58 693.58C297.06 670.41 292.01 739.09 289.68 757.86C288.54 766.11 286.15 774.08 283.4 781.95C281.41 788.96 272.86 809.13 280.15 813.35C285.39 815.94 292.28 813.75 290.41 821.56C289.27 827.57 288.07 835.89 287.52 842.28C286.85 849.74 285.92 859.09 293.91 862.63C307.45 868.5 339.97 853.26 355.27 849.08C364.1 846.05 372.95 843.01 381.76 840.14C385.4 838.91 389.33 837.17 390.89 833.48C392.72 828.68 391.76 822.26 389.28 817.77C382.4 806.19 358.74 819.53 349.29 807.29C342.94 798.93 358.61 798.61 362.44 792.1C372.59 778.95 381.59 756.67 387.96 739.78C399.54 707.72 410.42 671.86 400.07 638.2C395.08 623.59 383.62 617.02 369.03 610.81C364.52 608.82 359.6 606.8 355.3 604.32C349.98 601.28 345.14 597.5 339.34 595.39C331.96 592.67 323.9 591.6 316.28 589.58C309.48 587.75 301.32 585.73 305.78 578.09C314.05 561.77 317.84 539.58 326.36 523.47C341 496.1 368.64 477.66 396.05 464.37C409.39 457.93 423.44 453.5 435.84 445.19C442.48 440.8 446.29 433.91 453.81 430.92C465.33 426.35 477.78 424.8 489.92 421.83C493.71 420.91 497.79 419.99 500.88 417.58C505.03 414.48 505.53 408.88 508 404.65C510.2 400.84 514.32 398.34 516.17 394.27C521.48 377.14 494.6 378.78 484.25 373.14L484.11 373.07L484.13 373.09ZM45.51 681.01C39.51 683.53 28.28 678.06 27.46 671.72C27.26 666.5 31.81 662.61 33.84 658.13C35.58 654.71 36.94 650.01 33.45 647.47C31.82 646.07 29.26 645.47 30.04 643.4C30.95 641 33 638.53 34.56 636.37C37.78 632.2 42.48 629.31 47.35 626.19C50.56 624.26 53.8 622.09 57.17 620.54C63.49 617.39 66.16 624.79 68.99 628.98C71.49 633.14 76.69 637.95 78.66 641.51C79.94 643.79 78.41 645.91 76.76 647.62C70.34 654.59 59.49 669.99 51.62 677.19C49.86 678.79 47.87 680.18 45.67 680.96L45.5 681.02L45.51 681.01ZM299.3 376.98C299.27 389.17 299.38 404.75 291.37 414.7C286.3 420.9 276.88 420.39 270.5 416.43C262.23 411.48 261.04 400.65 262.06 391.36C262.99 385.81 268.16 386.05 273.2 386.26C282.48 386.95 286.97 381.51 292.98 375.47C295.97 372.56 299.07 370.06 299.3 376.8V376.98ZM262.33 417.14C263.56 416.47 265.27 417.29 267.75 419.12C270.13 420.89 273.19 423.2 275.67 425.07C277.5 426.59 279.88 428.08 279.83 430.59C279.37 433.56 275.21 436.06 271.85 437.53C264.74 440.23 255.41 439.8 247.22 438.94C241.5 437.64 250.14 431.88 251.88 429.82C253.97 427.83 255.97 425.81 257.65 423.5C259.59 420.9 260.75 418.03 262.23 417.2L262.33 417.14ZM376.83 620.44C383.97 624.64 390.49 630.56 393.06 638.44C393.72 640.11 394.34 642.19 394.17 643.89C393.34 648.01 387.76 646.25 384.64 646.12C380.89 645.73 377.27 645.69 374.13 646.28C366.39 647.14 360.88 655.7 363.59 662.96C365.66 668.08 372.14 667.05 376.3 665.45C381.69 663.2 389.08 664.85 393.22 659.84C393.99 658.97 394.59 658.03 395.15 657.07C396.15 655.28 396.52 654.55 396.87 655.6C401.63 697.41 380.66 743.1 362.25 780.42C355.78 791.08 352.43 790.89 340.76 793.58C329.41 796.25 311.83 800.39 299.06 803.4C293.18 804.76 288.28 805.99 285.55 806.54C283.65 806.9 282.77 806.39 283.52 803.81C294.82 772.84 301.31 736.11 293.16 703.82C290.8 694.74 285.78 682.14 275.2 681.28C253.82 680.3 226.25 715.23 211.45 734.21C204.75 742.59 193.26 765.73 182.6 764.21C177.55 763.65 170.47 760 164.34 761.12C157.48 761.85 151.94 767.23 149.53 773.99C147.55 779.21 145.93 789.48 151.79 788.64C153.8 788.39 155.45 788.93 157.19 789.82C160.82 791.98 165.82 792.43 169.78 789.95C170.96 789.34 172.48 788.14 173.64 788.13C177.98 789.61 172.13 799.33 170.98 802.38C165.83 813.83 158.81 829.18 152.37 841.46C148.59 848.59 145.03 855.4 139.35 861.18C131.64 869.78 122.52 872.59 111.48 874.56C104.64 876 97.8 877.53 90.97 879.01C86.66 879.9 81.91 881.29 79.31 879.97C74.15 877.59 77.62 865.18 78.25 860.46C79.53 855.05 81.05 850.18 85.86 848.33C88.21 847.41 90.83 847.18 93.1 846.09C96.07 844.79 98.48 842.78 101.24 841.15C103.76 839.59 107.17 838.26 110.3 835.66C119.97 828.1 120.23 818.76 107.49 815.47C103.59 814.29 97.21 815.85 94.77 815.08C92.34 814.11 92.93 811.56 93.39 809.13C99.98 784.58 108.01 760.25 117.97 736.85C122.66 726.77 126.89 732.91 134.89 729.06C138.51 727.16 141.72 724.07 144.66 721.33C146.26 719.99 147.62 718.25 149.36 718.9C150.25 719.4 150.68 720.59 151.45 721.25C153.44 722.82 155.77 718.9 158.2 718.22C159.7 717.69 161.08 718.41 162.5 718.84C167.01 720.37 170.49 715.09 172.57 710.47C174.05 706.42 176.73 700.54 173.02 697.07C170.44 694.98 164.76 695.66 160.14 695.5C157.74 695.45 155.4 695.17 153.04 694.79C148.29 693.97 142.62 693.32 140.76 691.81C139.3 690.55 140.16 688.67 140.75 687.01C147.97 669.43 166.67 622.6 173.47 610.04C174.9 607.36 176.2 606.08 180.28 605.88C189.33 605.72 198.68 608.64 207.61 608.46C235.12 608.01 262.89 603.36 288.89 594.96C291.65 594.11 294.11 593.53 296.59 593.48C318.94 594.87 353.65 608.02 376.66 620.34L376.82 620.44H376.83ZM498.14 410.71C500.71 417.35 461.27 421.2 456.5 423.37C452.8 424.43 449.61 424.48 449.44 419.67C449.22 414.28 450.24 408.62 449.98 403.19C449.25 395.66 452.52 392.19 457.29 386.94C459.28 384.75 461.7 381.67 463.67 380.06C464.23 379.65 464.74 379.36 465.36 379.53C467.31 380.48 467.51 384.49 469.55 387.22C471.43 390.25 474.54 389.99 477.51 388.06C485.23 382.67 488.67 381.81 497.95 384.24C502.68 385.51 510.82 388.52 508.52 392.61C505.58 396.27 499.38 398.42 497.22 402.77C495.66 405.76 497.32 408.14 498.11 410.61L498.14 410.71Z" fill="#386641"/>
<path d="M319.42 719.35C322.29 725.42 334.47 718.74 337.99 713.74C338.82 712.68 339.64 711.36 340.31 710.32C341.14 709.16 341.98 707.37 342.97 709.14C344 710.87 345.7 717.42 348.5 714.18C350.09 712.68 352.31 705.14 355.13 706.23C357.03 707.55 357.5 712.11 360.65 710.7C365.14 708.21 366.72 699.19 366.75 694.88C367.04 689.64 361.07 690.21 357.35 690.23C351.41 690.32 345.5 690.64 339.36 691.6C334.84 692.43 329.57 693.09 325.82 695.64C323.88 697.1 322.99 699.48 322.3 701.79C321.36 705.08 320.35 709.62 319.67 713.08C319.33 715.09 318.87 717.3 319.4 719.24L319.44 719.36L319.42 719.35Z" fill="#386641"/>
<path d="M316.03 654.37C319.88 656.85 319.65 660.37 325.12 656.53C327.2 654.98 330.07 655.25 332.03 653.64C335.64 649.69 334.16 640.28 330.54 636.4C326.65 632.3 320.92 635.27 315.88 634.91C311.26 634.76 306.3 632.93 301.79 634.83C294.4 637.66 292.18 647.89 295.29 654.08C298.12 660.41 304.75 660.55 310.33 656.79C312.18 655.76 313.95 653.83 315.94 654.34L316.04 654.38L316.03 654.37Z" fill="#386641"/>
<path d="M184.08 636.91C181.48 636.05 180.46 633.78 178.08 633.65C172.04 634.23 168.16 642.66 165.98 647.79C164.66 651.71 158.69 666.06 161.32 668.91C164.38 671.37 168.38 665.47 170.92 664.13C172.68 663.1 175.57 663.58 177.99 662.77C180.38 662.2 182.4 660.01 184.76 659.67C184.98 659.67 185.19 659.69 185.4 659.74C187.52 660.6 189.36 660.76 191.61 658.46C195.71 654.75 200.64 643.28 196.84 639.01C193.4 636.38 188 638.44 184.23 636.95L184.08 636.9V636.91Z" fill="#386641"/>
<path d="M331.89 744.96C325.99 742.69 323.88 738.05 316.54 741.27C307.33 744.92 299.86 751.93 299.15 762.09C298.79 767.27 299.43 771.37 305.65 769.44C310.72 768.11 319.1 765.71 323.87 764.51C325.46 764.17 327.15 763.95 328.47 764.86C329.34 765.43 329.94 766.47 330.77 766.98C333.52 768.33 336.54 762.3 338.32 758.8C339.86 755.21 343.07 748.24 338.71 745.72C336.63 744.81 334.22 745.59 332.05 745.01L331.89 744.97V744.96Z" fill="#386641"/>
<path d="M234.64 645.56C220.47 647.55 207.34 657.29 206.74 672.43C206.6 674.82 206.89 678.43 208.94 679.69C209.89 680.3 211.27 679.88 212.19 679.04C214.5 677.33 215.11 673.32 217.92 672.29C218.82 672.1 219.58 672.33 220.48 672.54C224.07 673.97 226.11 669.94 229.1 668.82C231.12 667.88 233.17 667.91 235.21 666.56C236.84 665.46 238.53 663.43 240.35 661.92C242.78 659.83 245.53 658.16 246.95 655.58C248.27 653.32 248.76 649.97 247.75 647.99C245.5 643.96 239.55 645.19 234.85 645.53L234.64 645.56Z" fill="#386641"/>
<path d="M774.27 504.6C775.83 503.93 777.6 504.01 779.29 503.99C779.85 503.99 780.52 503.91 780.79 503.41C780.94 503.14 780.92 502.8 780.87 502.49C780.34 499.01 775.56 493.27 780.41 490.64C781.94 489.87 783.96 490.49 785.54 491.14C790.46 493.16 795.73 497.06 801.25 495.25C802.22 494.95 803.12 494.44 803.98 493.86C807.7 491.38 805.28 472.21 804.73 468.26C803.5 459.4 800.66 450.71 795.97 443.06C786.25 427.2 768.42 418.05 750.18 415.98C732.85 414.01 714.96 419.06 700.76 429.18C686.56 439.3 676.06 454.3 670.66 470.89C663.58 492.62 665.61 517.84 678.79 536.51C693.04 556.7 714.8 561.36 738.01 561.51C760.72 561.66 781.48 542 792.54 523.59C782.4 518.79 763.95 508.99 774.27 504.59V504.6Z" fill="#6A994E"/>
<path d="M1165.07 955.16L1165.12 955.02C1186.23 930.38 1128.63 814.22 1121.55 777.11C1118.02 763.22 1116.65 744.85 1113.52 731.46C1112.92 728.74 1112.27 725.72 1113.34 723.2C1114.6 720.16 1117.4 718.21 1119.97 716.22C1140.8 700.48 1163.7 680.03 1175.5 656.4C1185.33 637.47 1185.52 615.48 1173.17 597.54C1149.86 565.49 1108.42 544.72 1069.4 542C1054.27 540.75 1027.58 549.55 1015.39 539.92C1010.89 535.03 1008.89 527.45 1008.38 520.85C1008.15 516.44 1009.06 512.86 1009.94 509C1011.21 504.92 1010.69 499.14 1014.58 498.96C1017.4 499.79 1019.82 502.17 1022.77 502.97C1033.89 506.42 1039.69 498.21 1037.9 487.8C1037.78 478.77 1035.92 469.66 1029.09 463.11C1024.93 458.63 1018.89 456.33 1015.68 451.24C1014.3 447.81 1016.2 444.11 1014.88 440.57C1011.06 431.63 998.51 425.58 988.52 422.41C977.53 418.49 978.7 431.6 980.3 439.23C980.89 442.37 983.72 445.45 983.61 448.55C982.31 452.15 975.61 452.18 972.6 454.33C967.3 457.1 963.49 464.21 961.16 470.24C958.62 476.68 960.82 483.08 964.32 488.54C968.36 495.61 966.9 502.69 968.84 511.25C970.08 517.3 973.48 522.93 978.02 526.95C982.79 530.75 986.67 538.54 983.71 544.36C982.31 546.22 979.68 545.45 977.63 545.09C970.55 543.39 950.88 534.21 944.26 532.57C923.09 525.4 878.42 501 847.23 486.01C835.81 483.49 829.91 498.98 816.99 489.4C791.96 474.87 801.88 492.75 782.88 485.72C773.54 483.36 772.05 491.32 767.85 497.53C761.71 504.13 765.44 512.34 771.88 517.14C781.39 524.48 794.33 527.65 805.38 531.77C810 534.61 812.16 540.92 817.68 543.36C853.86 564.69 900.44 574.26 929.63 606.06C935.11 614.8 939.13 625.54 944.05 635.71C950.87 650.88 956.29 666.03 964.57 680.49C966.65 684.24 969.16 688.31 968.92 692.71C968.76 696.71 966.16 700.43 963.91 703.74C955.14 716.51 946.35 729.28 937.51 742.17C924.21 761.62 911.01 781.16 898.9 801.32C886.66 820.07 886.15 843.2 885.97 864.89C885.4 898.44 885.07 932.22 888.11 965.7C889.2 971.53 889.35 979.1 894.05 983.43C896.93 985.74 901.47 985.27 904.24 987.51C907.52 990.31 905.87 995.76 903.67 998.89C900.22 1003.81 893.77 1002.96 888.56 1004.62C878.05 1008.18 866.01 1013.33 858.05 1020.99C854.43 1025.29 851.31 1032.48 854.05 1037.65C857.41 1041.44 863.84 1040.2 868.67 1041.26C882.46 1043.08 900.95 1044.65 914.78 1045.07C948.58 1048.69 938.81 1011.4 935.25 993.14C933.96 988.76 937.35 987.41 940.96 985.67C952.46 980.44 958.8 969.43 960.83 957.38C963.07 949.32 965 941.54 966.61 933.25C971.22 913.21 977.14 893.53 980.98 873.27C985.46 853.31 996.96 790.65 1023.79 796.43C1032.36 808.34 1039.75 838.16 1047.92 858.49C1060.41 890.46 1090.06 956.29 1116.38 974.61C1119.97 976.23 1123.94 976.04 1126.65 977.52C1130.3 979.49 1132.18 985.1 1131.01 989.14C1127.51 995.51 1116.49 998.12 1111.12 1003.2C1106.12 1007.26 1102.31 1013.64 1099.87 1019.51C1098.7 1022.33 1097.09 1026.12 1098.41 1029.07C1101.3 1035.54 1109.24 1035.54 1115.12 1033.98C1120.9 1032.44 1126.32 1029.52 1131.65 1026.77C1137.8 1023.6 1143.85 1020.24 1149.83 1016.74C1155.38 1013.49 1160.63 1009.66 1166.21 1006.51C1173.82 1002.21 1177.85 994.46 1175.54 985.52C1173.32 975.52 1162.21 965.85 1165.06 955.13L1165.07 955.16ZM912.65 982.66C912.59 982.87 912.51 983.22 912.53 983.46C912.53 983.58 912.54 983.73 912.56 983.86C912.54 983.72 912.52 983.57 912.53 983.46C912.51 983.22 912.6 982.87 912.65 982.66ZM935.49 1021.32C935.51 1026.76 935.06 1031.11 932.53 1033.59L932.43 1033.69C926.5 1038.5 916.01 1036.19 908.76 1035.58C902.87 1034.79 897.56 1034.34 891.64 1034.53C881.62 1034.51 871.32 1036.07 861.72 1033.99C857.21 1032.91 854.81 1030.04 859.25 1026.76C867.9 1020.61 879.23 1014.63 888.95 1012.04C893.06 1011.02 897.57 1011.86 901.69 1011.45C905 1011.17 907.05 1008.55 908.47 1005.79C910.29 1002.38 912.31 997.59 913.66 993.92C915.32 988.55 917.86 987.26 923.44 987.28C926.73 987.41 931.64 986.72 932.96 990.21C933.33 991.38 933.37 992.77 933.41 994.11C933.54 1001.77 935.36 1012.74 935.47 1021.34L935.49 1021.32ZM1009.02 540.95C1010.35 543.45 1011.39 545.38 1011.1 546.37L1011.07 546.45C1010.76 547.38 1009.15 547.57 1006.49 547.6C1004.63 547.61 1002.33 547.6 1000.08 547.6C996.5 547.31 991.93 548.53 989.42 545.87C988.33 544.34 988.36 542.11 988.36 540.21C988.22 533 991.65 526.25 999.02 527.94C1004.21 529.72 1006.23 536.5 1009.02 540.94V540.95ZM971.06 505.08C970.42 501.03 970.07 497 972.73 494.44L972.85 494.34C974.92 492.53 978.63 492.49 982.4 491.84C989.8 490.35 1002.09 488.08 1003.37 498.47C1003.88 506.39 999.95 519.08 991.69 521.97C981.23 525.64 972.75 514.45 971.06 505.07V505.08ZM815.96 520.24C814.14 523.87 813.11 527.7 810.54 529.46L810.43 529.53C807.01 531.29 802.22 527.52 798.02 526.14C794.82 524.67 761.31 510.38 774.34 504.83C775.88 504.17 777.62 504.24 779.29 504.23C779.84 504.23 780.5 504.15 780.76 503.66C780.91 503.39 780.89 503.06 780.84 502.76C780.32 499.33 775.61 493.67 780.39 491.09C781.9 490.33 783.88 490.94 785.44 491.58C790.29 493.57 795.48 497.41 800.92 495.63C804.77 494.43 807.39 490.05 811.74 490.59C814.54 490.93 817.74 492.9 820.43 494.23C822.61 495.44 825.12 496.63 825.89 499.1C826.76 503.41 821.59 508.75 819.58 513.12C818.29 515.45 817.09 517.83 815.96 520.25V520.24ZM1078.29 730.34L1078.27 730.54C1077.09 743.15 1067.21 753.19 1054.5 754.41C1049.24 755.27 1042.54 754.84 1043.7 748.71C1043.99 746.44 1045.97 743.44 1046.43 741.52C1046.62 740.75 1038.12 740.14 1039.1 735.18C1039.99 730.66 1046.31 727.01 1048.88 723.4C1046.63 723.56 1044.34 723.09 1042.33 722.06C1042.1 721.94 1041.86 721.8 1041.75 721.57C1041.64 721.34 1041.68 721.07 1041.75 720.83C1042.27 718.71 1044.12 717.22 1045.86 715.9C1047.64 714.55 1049.42 713.19 1051.19 711.84C1053.72 709.91 1055.64 708.24 1057.81 705.91C1062.81 700.53 1071.18 704.11 1074.4 709.73C1078.29 715.85 1079.01 723.35 1078.27 730.35L1078.29 730.34ZM1105.55 721.11L1105.41 721.21C1102.42 723.38 1098.71 725.29 1095.44 726.77C1088.41 730.24 1084.49 726.21 1082.31 718.92C1080.72 714.13 1079.31 709.21 1076.55 704.95C1073.62 700.13 1068.13 697.25 1064.97 692.56C1061.26 687.68 1062.87 681.76 1065.99 677.16C1077.36 659.61 1089.07 640.52 1094.27 620.06C1094.54 618.36 1094.66 617.21 1093.67 617.42C1092.56 617.75 1090.16 621.1 1088.18 624.51C1085.12 629.78 1082.66 635.25 1080.04 641.19C1074.89 651.88 1069.73 669.15 1058.23 673.66C1047.61 677.8 1035.74 675.3 1024.85 677.97C1014.54 679.36 973.45 690.14 966.97 678.02C955.79 654.32 952.46 616.67 932.45 599.1C923.07 591.35 909.66 583.03 898.85 576.66C883.14 567.95 860.05 558.78 838.55 548.03C833.09 545.32 828.33 542.8 824.88 540.68C820.94 538.2 818.67 536.76 818.55 532.44C818.57 528.42 819.87 524.7 821.52 520.9C825.29 512.67 830.95 503.35 837.31 497.61C842.1 493.1 848.03 492.42 853.69 495.83C880.97 511.42 910.18 522.84 938.98 535.14C943.79 537.21 948.66 539.45 953.35 541.76C959.13 544.57 961.75 545.99 967.6 547.05C972.93 548 979.06 548.58 984.53 548.9C994.49 549.1 1003.93 551.73 1014.35 551.07C1067.25 544.02 1141.52 555.9 1169.01 606.53C1173.65 614.84 1177.68 626.11 1177.11 635.4C1176.81 649.39 1166.4 663.16 1156.57 674.59C1143.35 689.94 1123.87 703.01 1111.16 716.07C1109.37 717.89 1107.59 719.61 1105.53 721.09L1105.55 721.11ZM1126.99 971.17C1126.9 971.35 1126.94 971.62 1126.96 971.7C1126.94 971.61 1126.9 971.35 1126.99 971.17C1127 971.01 1127.43 970.69 1127.39 970.71C1127.42 970.69 1127 971.01 1126.99 971.17ZM1159.43 1001.9C1149.33 1008.22 1139.19 1014.81 1128.56 1019.87C1124.52 1021.79 1120.69 1023.96 1116.88 1026.28C1114.49 1027.73 1109.79 1030.18 1107.02 1028.55C1105.44 1027.62 1105.38 1025.85 1105.76 1024.23C1106.59 1020.59 1109.19 1016.82 1111.77 1014.17C1116.25 1009.57 1121.91 1006.19 1127.68 1003.45C1133.98 1000.46 1138.3 998.62 1138 992.48C1138.59 986.23 1132.14 977.48 1136.45 972.12C1139.28 969.56 1143.52 968.92 1146.84 967.07C1155.29 962.15 1159.89 960.38 1163.79 971.17C1169.39 982.83 1174.68 994.12 1159.44 1001.9H1159.43Z" fill="#386641"/>
</svg>
