<svg width="1200" height="1200" viewBox="0 0 1200 1200" fill="none" xmlns="http://www.w3.org/2000/svg">
<path d="M730.2 837.05C764.72 833.18 789.87 839.46 816.64 862.15C823.79 868.04 829.29 866.33 837.39 861.69C861.35 848.16 886.11 847.7 904.34 870.69C918.76 887.3 928.52 908.72 928.44 930.65C928.61 941.17 927.86 951.58 923.73 961.12C917.38 974.62 908.12 992.21 897.31 1000.72C892.16 1004.73 885.57 1005.58 879.23 1004.67C870.36 1003.56 861.29 1001.71 854.58 995.42C849.7 991.46 846.39 986.71 842.32 989.77C840.62 991.22 839.21 994.32 837.55 997.7C823.13 1028.46 792.59 1053.93 758.01 1047.81C730.48 1042.45 704.29 1011.05 687.01 990.34C683.44 986 680.14 981.37 677.56 979.77C676.91 979.37 676.21 979.06 675.48 979.08C672.78 978.75 670.24 985.4 669.01 988.61C666.6 994.77 663.68 1001.9 660.46 1008.97C654.88 1020.6 649.6 1032.73 640.65 1041.54C618.88 1059.46 584.08 1033.7 567 1016.03C564.29 1013.56 560.73 1008.26 557.32 1010.04C556.73 1010.42 556.19 1011.09 555.81 1011.76C553.36 1016.07 551.75 1026.38 548.38 1032.16C541.93 1044.44 528.59 1043.09 518.78 1034.95C508.19 1026.8 493.71 1013.42 484.11 1003.91C474.66 994.58 466.43 984.32 458.03 973.76C450.19 963.48 440.62 952.28 437.91 939.95C430.77 908.34 437.89 856.24 475.24 847.3C491.08 843.45 508.41 848.36 521.16 857.98C525.99 861.56 530.16 865.77 534.44 869.99C537.44 872.82 541.41 877.01 545.35 875.87C549.14 874.56 550.82 868.89 552.43 865.2C568.69 822.69 596.82 799.22 634.14 831.13C647.05 841.86 654.88 856.82 661.36 872.02C671.1 888.58 674.84 842.34 729.98 837.04L730.18 837.02L730.2 837.05Z" fill="#6A994E"/>
<path d="M858.13 103.56C860.16 102.64 862.99 99.77 865.03 97.84C885.11 77.35 897.7 60.29 927.85 62.34C948.92 62.97 968.3 75.93 975.93 95.32C981.19 108.5 982.15 124.58 975.11 137.3C967.82 149.47 957.19 160.5 945.75 168.91C939.08 173.67 930.51 178.25 923.79 182.46C920.99 184.25 918.82 186 917.92 187.91C914.03 196.78 934.33 207.54 939.94 213.62C961.5 233.41 959.54 268.57 929.44 270.74C910.19 271.99 891.94 263.31 879.68 248.96C871.43 239.53 865.51 238.62 856.6 247.14C838.68 263.14 822.12 280.3 799.94 289.18C758.36 306 757.74 262.1 783.21 231.54C785.04 229.39 787.36 226.86 788.74 224.72C794.07 216.68 783.4 214.74 776.75 211.47C761.05 204.84 744.12 198.16 730.25 188.1C723.55 183.18 717.59 177.41 713.77 170.04C705.51 153.17 707.48 126.17 715.93 109.07C731.72 79.66 754.7 77.67 783.01 90.31C792.12 94.15 801.25 98.8 810.43 102.72C816.81 105.14 829.14 111.8 828.32 101.7C824.43 84.56 814.55 69.04 810.23 51.9C809.33 48.66 808.58 44.57 809.1 41.48C809.94 37.55 812.2 40.08 813.58 42.67C814.7 44.7 815.7 47.46 816.43 49.87C822.58 70.43 829.03 91.65 840.03 109.63C841.48 111.73 843.48 115.72 845.47 115.9C846.75 115.64 846.99 113.06 847.31 111.6C850.78 93.29 856.59 44 861.25 26.21C864.06 23.9 867.52 28.87 868.07 31.77C868.67 34.16 868.17 36.89 867.44 40.7C866.21 47.33 864.42 56.99 862.6 66.81C860.98 75.58 859.33 84.46 858.04 91.43C857.32 96.6 854.62 104.93 858.04 103.59L858.11 103.56H858.13Z" fill="#BC4749"/>
<path d="M504.22 848.2C506.36 848.5 507.86 847.89 508.93 846.22C522.53 825.65 599.79 722.99 611.88 701.14C611.33 695.84 609.58 691.58 603.07 695.64C594.69 699.27 589.67 700.85 578.81 705.56C542.55 721.28 483.07 747.12 450.47 761.25C441.09 768.07 452.46 679.37 453.48 672.2C456.71 654.54 447.79 656.8 435.45 665C426.15 670.61 413.06 679.88 404.85 684.97C394.44 691.51 386.08 699.44 378.93 685.33C369.48 673.01 303.01 532.99 301.06 559.27C301.47 609.38 302.66 737.81 302.76 755.72C302.64 757.74 301.98 757.92 299.54 758.82C277.66 765.44 252.15 771.46 230.47 778.93C197.29 792.67 94.5002 797.47 194.38 819.34C225.4 827.79 259.76 830.14 287.48 846.8C291.41 850.18 294.74 855.49 293 859.87C287.99 883.07 227.14 1050.99 227.35 1072.62C229.88 1072.2 231.43 1070.58 233.75 1068.18C257.99 1036.86 288.35 1009.86 314.72 980.23C317.81 976.93 322.15 972.04 326.88 973.69C329.52 974.51 332.1 977.25 334.61 980.49C343.16 991.44 351.1 1002.97 359.2 1014.26C387.77 1056.9 429.11 1088.93 460.17 1129.71C467.95 1138.93 487.84 1176.97 500 1169.39C500.12 1163.08 498.34 1155.58 497.1 1142.91C490.43 1097.4 486.46 1037.02 478.26 997.49C468.16 985.08 453.37 968.13 445.31 955.68C442.62 951.98 441.14 947.5 436.47 947.71C417.04 947.03 319.3 943.44 280.27 942.04C269.41 944.05 285.05 909.65 286.66 902.25C291.83 884 303.54 861.83 297.79 844.27C275.33 823.89 201.23 822.1 169.95 804.15C166.25 801.82 187.97 798.48 190.15 797.17C223.93 788.15 271.99 775.33 303.97 766.76C309.8 765.39 308.66 757.57 309.45 752.12C316.12 695.49 307.83 632.57 310.57 577.11C312.56 576.4 314.65 579.85 315.75 581.78C331.39 611.86 359.74 670.45 378.14 697.52C386.4 712 399.59 698.8 409.1 692.53C414.63 689.98 442.87 663.6 444.46 676.09C442.99 705.23 439.07 737.38 441.59 766.58C442.29 771.35 441.8 774.47 445.33 773.43C467.9 763.47 589.04 709.23 600.9 704.02C597.24 713.44 511.24 826.24 499.7 843.62C497.67 846.24 501.03 847.62 504.13 848.18H504.21L504.22 848.2Z" fill="#BC4749"/>
<path d="M926.58 954.34C939.14 933.81 951.88 912.53 965.49 893.03C966.82 891.12 968.53 889.18 970.64 888.41C993.39 886.6 1030.4 926.24 1051.6 936.43C1056.68 939.06 1057.72 942.74 1055.05 947.76C1046.89 964.82 1031.33 978.02 1020.02 994.17C1011.11 1007.39 1002.71 1022.32 996.23 1037.21C994.63 1041.06 993.45 1044.54 992.93 1047.3C991.94 1051.29 993.31 1053.83 996.49 1056.09C1003.24 1061.56 1022.92 1074.79 1012.54 1085.17C1008.77 1087.75 1005.35 1088.15 999.38 1090.18C984.44 1094.64 966.15 1099.13 951.66 1103.49C938.28 1107.92 924.46 1113.49 911.59 1119.22C903.92 1122.68 896.91 1128.96 888.62 1131.14C884.3 1131.94 881.68 1131.9 880.17 1128.67C873.47 1112.95 856.21 1033.11 852.15 1010.62C851.76 1008.35 851.11 1005.67 851.7 1003.28C853.46 997.41 863.21 1000.75 867.76 1001.36C872.84 1002.41 878.19 1003.86 883.26 1004.27C904.38 1006 916.48 970.05 926.5 954.48L926.59 954.33L926.58 954.34Z" fill="#CED4DA"/>
<path d="M218.99 777.03C194.99 771.69 178.62 748 171.22 725.15C166.5 710.57 164.78 695.1 165.62 679.82C165.84 675.79 174.38 633.77 175.58 634.5C158.79 624.38 130.9 601.75 138.94 579.48C147.6 555.47 181.27 554.1 191.46 577.14C193.68 582.16 194.83 598.32 197.09 599.7C199.63 601.26 207.6 599.38 212.3 600.75C226 604.73 231.31 611.15 236.69 623.86C249.02 652.94 256.92 721.58 252.78 752.6C251.22 764.29 246.45 776.78 233.72 777.94C228.53 778.41 223.62 778.06 218.99 777.04V777.03Z" fill="#CED4DA"/>
<path d="M915.65 369.92C914.02 368.94 913.26 366.79 912.78 364.89C911.44 359.61 909.81 354.39 908.12 349.21C904.78 338.97 900.94 328.88 896.6 319.03C894.45 314.15 892.17 309.33 889.72 304.59C888.55 302.32 887.34 300.07 886.08 297.84C885.24 296.36 883.97 292.44 881.67 294.03C879.77 295.34 882.89 300.69 883.56 302.5C884.71 305.6 885.85 308.71 887 311.81C889.47 318.49 891.94 325.17 894.41 331.85C898.91 344.02 903.45 356.18 907.89 368.38C908.31 369.62 907.13 370.24 906.22 370.8C900.66 374.05 892.88 377.46 887.23 381.32C883.94 383.59 880.71 386.04 877.75 388.69C871.23 394.13 868.29 403.36 869.88 411.57C871.45 418.24 876.34 424.54 882.33 427.96C889.95 431.48 899.88 430.22 906.5 425.05C915.32 417.77 914.69 405.05 914.35 394.55C914.21 389.55 909.65 388.44 908.64 393.78C908.15 401.27 906.74 409.13 901.91 415.35C890.1 431.16 869.38 415.46 878.53 401.46C886.64 390.12 901.78 380.1 915.89 380.18C919.41 380.22 922.92 380.71 926.41 381.16C956.97 383.71 983.88 412.57 973.69 443.87C972.57 447.97 971.45 451.71 971.69 455.76C971.87 458.94 973.54 462.55 974.76 462.96C976.24 463.28 976.48 460.72 977.15 458.7C978.42 453.96 980.35 446.75 981.59 442.09C982.64 438.29 983.03 436.15 982.75 433.1C979.27 400.59 956.08 370.7 922.39 371.01C920.21 371.03 917.38 371.04 915.75 370L915.62 369.92H915.65Z" fill="#386641"/>
<path d="M895.63 576.04C891.28 574.92 886.73 574.12 882.51 574.41C881.11 574.51 879.31 574.49 878.78 573.19C884.25 570.5 889.71 567.82 895.18 565.13C896.79 564.34 898.49 563.46 899.37 561.9C900.17 560.48 899.89 557.81 898.07 557.26C896.76 556.86 894.16 558.46 892.92 558.93C888.83 560.49 884.73 562 880.64 563.57C873.88 566.16 866.46 568.52 860.36 572.51C858.97 573.44 858.08 574.87 858.44 576.57C860.43 582.98 870.76 580.89 875.6 580.49C884.11 579.79 893.09 579.53 901.04 583.22C910.25 587.5 913.8 594.35 918.46 602.6C922.42 609.62 923.99 617.55 923.04 625.56C921.08 641.98 909.56 656.5 894.95 663.76C871.78 674.88 832.7 675.61 808.53 670.46C801.41 668.92 793.25 663.17 787.11 660.76C784.72 659.83 783.24 660.32 782.87 661.87C781.09 671.96 816.9 683.58 825.6 683.76C859.7 686.13 912.51 679.92 926.04 643.6C930.62 632.82 931.24 621.44 927.82 610.1C925.57 602.54 921.18 594.02 916.06 587.41C912.26 582.61 907.49 579.64 901.68 577.82C899.75 577.22 897.71 576.6 895.63 576.06V576.04Z" fill="#386641"/>
<path d="M920.42 540.87C924.92 543.57 933.86 531.6 936.13 527.78C938.18 524.59 940.68 518.69 935.14 518.95C928.39 519.54 917.3 535.67 920.35 540.8L920.42 540.87Z" fill="#386641"/>
<path d="M958.22 482.09C957.49 485.65 951.08 495.81 953.84 498.55C955.05 499.07 956.61 497.84 957.63 497.06C962.65 492.94 965.21 487.42 965.4 480.67C965.44 478.95 965.23 476.89 964.07 475.62C962.98 474.35 961.04 474.23 959.98 475.51C958.8 476.87 958.99 479.44 958.27 481.89L958.22 482.09Z" fill="#386641"/>
<path d="M710.87 797.94C713.6 794.81 718.97 792.97 721.95 789.61C728.95 781.78 723.48 770.73 721.55 762.02C713.39 687.61 670.22 638.52 635.79 578.06C626.68 562.53 618.78 544.49 613.02 527.42C611.5 522.68 610.45 519 610.61 515.83C611.87 505.01 627.35 491.46 634.28 482.49C642.26 473.8 646.4 463.4 652.21 453.24C656.56 445.35 669.22 425.13 677.03 439.27C682.8 450.81 694.56 481.07 701.51 496.23C704.5 502.53 714.55 522.65 722.74 516.87C724.5 515.17 724.15 510.32 723.23 506.92C721.92 501.57 719.91 496.42 717.68 491.34C711.16 478.4 712.73 476.43 726.75 477.94C775.7 481.97 770.55 443.99 749.8 414.24C739.88 400.33 730.03 388.7 717.99 375.93C709.71 367.83 699.25 360.67 690.96 352.95C684.29 347.67 681.51 338.23 690.64 334.29C694.34 332.77 699.26 332.65 703.15 330.69C710.91 327.12 713.27 318.23 717.13 311.26C747.2 275.76 677.74 243.09 669.8 276.53C667.38 287.72 677.4 298.91 672.76 309.91C670.07 316.47 660.78 323.92 654.69 325.75C649.47 326.18 649.14 317.19 645.2 314.5C638.71 309.89 636.8 313.62 634.12 304.13C630.2 292.17 623.48 281.5 618.02 269.8C610.26 253.03 602.7 240.12 600.56 224.27C599.75 206.8 600.82 188.92 596.54 171.65C594.78 164.52 590.9 158.5 588.08 152.17C579.35 127.41 562.59 92.76 540.17 71.86C530.3 63.42 519.52 55.79 508.27 62.7C500.6 68.43 494.03 77.62 485.79 83C456.94 103.74 405.02 133.76 372.21 141.73C361.81 144.02 350.76 144.87 339.98 146.37C292.29 151.57 289.58 168.24 252.19 183.83C217.69 194.64 182.02 188.7 149.64 212.93C138.38 220.67 125.58 238.21 130.31 252.14C145.74 276.82 198.09 251.1 224.12 252.65C242.42 252.84 260.06 262.15 277.06 268.2C320.27 283.84 366.33 262.2 410.03 258.95C433.26 257.32 456.96 260.72 480.4 257.29C511.52 254.18 533.34 246.26 564.24 233.79C571.06 230.84 583.03 228.15 588.12 234.27C593.72 249.27 608.4 280.67 615.52 299.38C616.4 301.84 617.36 305.09 616.74 307.39C614.64 314.12 598.38 308.06 592.14 310.16C556.31 316.37 487.07 363.98 498.04 406.89C507.3 437.29 533.8 427.33 509.7 464.47C495.88 490.16 496.33 520.56 481.15 546.9C477.17 553.44 466.7 573.54 460.2 574.74C443.01 570.98 415.25 520.23 395.06 512.8C388.63 511.21 382.99 510.22 380.86 503.56C377.31 494.07 371.67 483.73 363.53 478.47C338.52 462.65 320.69 495.74 305.59 510.63C301.15 514.99 295.89 518.81 292.25 523.84C286.45 531.5 286.38 545.11 293.66 551.39C307.12 562.29 319.73 545.26 331.16 538.13C334.45 536.28 339.77 532.27 343.32 534.84C345.71 538.32 343.35 543.2 343.44 548.09C343.28 556.81 348.77 565.36 353.45 572.08C369.62 591.76 430.96 657.65 452.21 659.16C474.34 663.58 491.57 645.73 504.73 630.21C512.26 622.88 521.33 616.39 529.67 609.8C537.8 603.53 544.68 596.5 551.84 607.14C572.04 635.35 602 659.62 609.89 693.9C619.95 722.08 635.22 758.78 647.53 784.12C650.04 788.74 652.25 793.56 656.37 796.55C661.71 800.61 669.68 803.21 670.34 810.92C670.85 831.57 675.94 846.73 700.37 843.86C709.19 842.77 717.93 840.79 726.81 839.94C733.46 839.14 738.17 838.34 743.38 837.76C749.21 836.93 756.42 836.81 761.73 834.21C769.16 830.68 769.76 820.7 765.53 814.21C757.28 797.68 710.11 807.41 710.79 798.02L710.84 797.95L710.87 797.94ZM718.4 786.57C718.05 787 716.85 787.57 716.18 787.79C716.57 787.7 718.18 786.93 718.4 786.57ZM266.54 184.5C270.13 182.43 275.17 180.39 279.07 182.74C283.42 185.43 283.55 192.9 278.37 194.55C272.61 197.47 257.02 191.14 266.37 184.61L266.55 184.5H266.54ZM288.12 200.38C290.6 202.65 292.46 207.3 290.58 210.45C289.27 212.46 285.82 213.18 282.88 213.64C279.98 214.14 276.81 214.09 275.64 211.63C272.84 205.97 275.26 199.92 282.08 199.26C284.41 198.93 286.49 199.12 287.99 200.27L288.13 200.38H288.12ZM520.41 246.35C499.41 251.11 477.84 254.62 456.12 253.9C443.01 252.9 430.49 250.26 417.38 251.7C373.14 254.93 325.88 276.58 281.68 261.25C271.26 257.86 261.26 253.65 250.64 250.37C242.28 247.76 233.04 245.71 223.98 245.17C200.43 243.37 150.81 267.03 138.73 248.9C136.11 243.26 138.17 235.88 141.16 230.64C143.68 226.2 149.4 222.93 154.25 219.81C164.65 213.48 176.08 207.12 187.07 202.3C203.98 195.86 223.04 198.43 240.9 193.88C244.43 193.06 248.57 191.95 251.95 193.17C255.82 194.58 258.49 199.43 255.53 202.42C253.36 204.53 248.26 205.17 242.76 206.72C238.5 207.88 234.04 209.27 230.2 211.37C226.51 213.38 224.52 215.42 225.29 216.19C226.24 217.02 229.09 216.38 230.77 216.05C240.75 213.82 259.6 208.62 264.82 211.52C266.55 212.39 266.78 214.26 265.75 215.92C262.06 221.53 252.89 222.4 247.42 225.41C240.85 229.09 246.8 230.01 250.49 229.13C256 228.2 262.34 225.29 266.66 224.72C273.18 223.72 275.91 230.82 279.11 235.31C280.33 237.17 281.64 238.94 282.94 240.25C286.16 243.69 289.65 243.74 289.37 238.41C289.28 233.35 284.53 225.64 284.24 221.52C283.77 217.97 287.39 216.25 290.47 217.08C294.22 217.82 295.99 221.42 298.7 224.27C299.72 225.39 301.74 227.01 302.88 226.51C304.18 226.06 304.35 223.7 304.31 222.23C303.4 212.44 303.32 210.36 312.83 205.56C324.77 199.3 308.95 203.65 304.3 204.08C301.11 204.62 297.54 203.58 296.36 200.34C293.74 193.39 300.43 191.53 306.15 190.06C309.61 188.98 313.56 188.24 316.64 186.58C318.99 184.67 310.14 185.25 306.01 185.62C300.2 186.18 295.08 186.88 291.36 183.61C288.38 181.16 286.74 176.78 288.63 173.18C290.18 170.09 293.44 168.22 296.54 166.78C326.44 152.75 358.93 155.29 388.55 145.71C393.9 143.95 399.22 141.59 403.94 138.4C409.25 134.85 413.74 130.4 419.1 127.13C442.05 114.07 468.15 104.47 488.12 87C494.11 82.32 496.4 88.04 497.97 93.42C510.15 136.41 525.73 173.32 552.94 208.95C555.36 212.06 557.96 215.01 560.75 217.7C563.14 220.08 567.82 223.89 566.72 227.01C566.24 228.21 565.04 229.36 563.8 230.16C553.05 236.75 533.77 242.79 520.56 246.32L520.4 246.36L520.41 246.35ZM577.25 213.1C554.63 210.71 542.66 184.03 532.3 166.47C522.77 148.27 515.45 121.46 510.02 103.25C508.34 97.25 507.65 90.68 510.35 84.79C512.65 79.72 518.46 76.83 523.38 78.59C541.89 86.61 619.37 211.6 577.43 213.1H577.25ZM592.99 226.21C593.24 225.69 593.89 224.06 594.1 223.4C594.05 223.62 593.13 225.96 592.99 226.21ZM376.38 510.48C374.77 513.53 371.04 516.25 368.06 518.62C364.84 521.07 361.56 523.68 357.84 524.89C351.12 526.62 344.16 524.29 337.03 526.15C332.27 527.12 327.51 529.18 323.55 531.89C316.51 536.53 310.69 544.27 302.36 546.27C296.72 547.53 295.14 543.1 296.51 538.25C302.1 519.92 319.32 503.99 333.99 492.11C339.96 487.9 347.7 480.66 354.68 481.07C363.27 481.62 380.6 500.24 376.47 510.35L376.4 510.49L376.38 510.48ZM681.28 299.06C682.71 297.51 686.88 297.89 690 298.28C693.07 298.6 696.33 298.82 699.07 299.09C725.43 300.19 697.34 336.44 684.11 320.28C680.78 316.11 677.55 303.39 681.18 299.15L681.28 299.06ZM677.22 318.51C680.71 319.44 683.02 323.85 684.07 327.15C684.95 330.47 683.6 333.55 682.25 337.34C681.22 339.77 680.55 343.35 677.91 344.31C675.15 344.92 672.26 342.69 669.77 341.51C665.77 339.17 661.47 338.1 662.65 333.85C663.7 331.11 666.07 328.89 667.97 326.59C670.4 324.1 673.95 318.39 677.09 318.5H677.22V318.51ZM648.73 345.78C647.51 339.31 649.87 330.7 657.33 336.39C677.55 352.09 698.21 367.26 716.49 385.14C722.94 391.33 727.16 399.23 732.83 406.07C738.5 412.85 744.97 418.63 750.16 425.89C755.55 433.35 759.9 442.56 758.58 451.89C755.17 472.93 734.9 475.76 717.01 469.2C712.08 467.41 707.05 466.2 702.98 463.55C697.56 459.57 695.91 451.95 692.94 445.77C691.51 442.33 690.08 438.82 688.72 435.37C686.41 429.39 684.68 425.3 685.22 421.26C685.73 416.99 688.59 412.95 689.76 408.93C691.65 401.97 684.45 405.57 681.84 408.1C676.86 412.32 674 416.59 667.85 417.7C663.77 418.34 657.86 418.48 654.76 415.68C650.89 411.21 659.96 400.11 655.2 395.92C652.6 393.79 645.61 397.08 645.04 392.68C645.8 386.22 654.74 382.75 658.18 377.63C662.42 372.12 660.18 364.14 656.22 358.52C653.6 354.48 649.71 350.77 648.75 345.96L648.72 345.79L648.73 345.78ZM622.2 324.71C624.31 324.74 626.45 324.98 628.6 325.13C632.82 325.48 636.83 325.4 638.74 328.61C642.34 336.42 637.36 345.08 632.7 351.45C630.16 354.83 627.64 358.65 623.68 360.45C617.57 363.15 607.71 358.93 604.08 353.16C601.85 349.56 603.08 344.75 604.92 340.95C608.28 333.89 613.02 324.19 622 324.71H622.19H622.2ZM505.06 386.88C513.86 361.74 577.13 312.93 603.08 319.03C610.73 322.28 603.29 328.14 599.41 333.15C597.03 336.01 595.07 339.32 593.04 342.38C589.54 348.52 583.22 347.93 576.51 350.07C572.84 351.29 569.51 353.35 566.39 355.64C562.75 358.37 553.77 364.93 556.19 368.61C560.08 371.2 571.04 362.53 577.15 359.97C581.59 357.51 585.75 358.43 589.59 361.53C594.18 364.9 600.71 370.44 604.67 374.21C607.75 376.9 609.74 380.46 608.19 384.53C606.94 388.77 603.81 395.3 601.29 399.83C598.81 404.52 595.57 408.06 591.46 411.52C587.26 415.19 581.02 420.48 576.19 424.46C570.39 429.6 564.61 432.91 556.88 433.68C528.03 437.88 494.47 417.31 505.03 387.05L505.09 386.88H505.06ZM605.06 507.85C602.13 508.07 599.12 504.78 596.69 502.91C582.27 490.98 563.85 486.3 549.2 476.56C543.54 472.83 539.21 467.15 533.83 463.06C529.82 460.04 525.09 459.45 523.03 456.12C520.32 450.64 525.92 442.52 531.55 440.9C541.15 438.11 551.98 440.7 561.53 437.75C568.55 435.88 574.16 431.1 580.03 427.07C588.43 421.5 597.36 416.18 603.38 407.89C611.61 397.68 612.11 383.3 620.58 373.23C623.89 369.31 628.07 366.54 632.33 363.61C635.86 361.75 643.99 353 646.57 358.34C648.62 363.1 648.81 369.46 647.19 374.49C645.62 379.42 641.81 384 639.54 389.09C637.03 394.14 637.59 399.92 642.26 403.41C644.52 405.34 647.09 407.02 648.52 409.69C650.08 412.44 650.76 416.41 652.72 419.53C657.55 426.62 661.4 428.12 655.91 436.93C649.37 447.8 643.02 458.6 635.22 468.58C630.03 475.3 624.32 481.53 619.11 488.26C616.87 491.16 614.75 494.12 612.85 497.21C611.17 499.86 609.8 502.91 608.45 505.01C607.42 506.6 606.38 507.6 605.17 507.81L605.06 507.83V507.85ZM759.05 824.8C756.71 827.4 752.94 828.7 749.38 829.74C744.61 831.11 740.13 832.1 735.3 832.95C728.9 834.06 720.66 835.54 713.88 836.56C707.23 837.62 700.46 837.99 693.79 836.72C682.13 834.59 675.53 827.68 673.85 815.63C673.26 811.55 674.04 807.27 677.36 804.85C679.03 803.55 681.1 802.78 683.11 802.11C688.66 800.05 695.34 797.41 700.57 801.54C704.37 804.41 707 809.04 711.92 810.11C724.32 812.38 743.41 810.13 754.83 812.29C761.33 813.05 763.74 819.38 759.18 824.67L759.06 824.81L759.05 824.8Z" fill="#386641"/>
<path d="M551.23 374.6C550.94 374.78 551.11 375.55 551.07 375.96C551.08 376.58 551.03 377.23 551.16 377.45C551.28 377.69 551.59 377.53 551.91 377.23C553.06 376.33 552.35 375.08 551.34 374.6H551.24H551.23Z" fill="#386641"/>
<path d="M502.77 161.03C500.77 160.05 498.9 163.2 497.82 164.76C493.69 171.4 493.16 179.4 487.53 181.82C484.01 183.32 477.3 183.44 476.37 178.75C476.09 173.16 480.73 167.26 481.86 161.66C482.97 157.36 480.73 155.6 477.01 159.95C472.36 164.78 471.3 174.37 464.71 177.11C460.96 178.5 454.66 177.33 450.08 176.27C445.35 175.29 444.36 172.75 446.08 168.29C447.09 164.55 451.49 158.28 449.47 154.75C447.75 153.25 445.39 154.94 443.55 157.07C440.4 161.14 439.89 167.66 434.93 170.31C430.73 172.76 424.3 171.71 418.56 170.61C416.74 170.24 414.65 169.85 413.09 169.04C410.45 167.55 411.01 165.52 412.19 162.38C413.38 159.43 415.58 155.2 416.14 152.12C416.62 149.7 416.2 148.27 415.04 148.29C408.39 150.4 405.65 160.84 398.86 163.38C394.68 165.14 388.84 162.54 385.09 163.61C382.51 164.23 380.55 167.64 382.7 169.76C385.13 172.41 391.32 171.8 394.46 172.43C399.61 173.53 396.35 177.47 394.53 181.18C392.45 184.89 390.04 189.2 387.84 192.81C385.78 196.26 383.37 199.33 379.68 200.99C376.36 202.76 370.84 203.44 369.87 205.75C369.62 206.74 370.28 207.55 370.79 208.41C372.01 210.17 372.62 212.29 372.04 214.64C371.46 217.35 369.26 220.85 368.55 223.25C367.65 225.94 368.66 227.09 371.82 224.43C376.34 220.98 379.39 214.04 384.85 211.92C387.78 210.86 391.11 211.4 394.19 211.92C398.74 212.78 404.48 214.02 408.57 215.19C412.34 216.18 416.52 218.16 416.16 222.71C415.8 229.98 410.6 238.03 408.29 244.82C405.12 254.66 412.19 248.4 415.02 243.05C416.98 239.78 418.69 235.97 420.12 232.62C421.8 228.96 422.58 225.88 424.88 223.38C431.22 217.88 457.8 230.13 470.66 230.46C478.4 231.43 483.35 226.9 486.39 219.84C489 214.21 490.88 206.83 492.42 201.05C493.27 197.79 494.4 193.33 495.87 192.32C497.46 190.66 503.21 192.2 506.51 192.34C509.45 192.51 512.97 192.45 515.59 191.33C516.2 191.04 516.53 190.71 516.54 190.39C516.51 190.08 516.3 189.84 515.99 189.65C515.27 189.17 513.84 188.76 512.15 188.38C509.53 187.81 506.66 187.27 504.36 185.94C498.7 183.22 501.93 175.7 503.36 167.87C503.75 165.71 504.13 162.47 502.85 161.12L502.78 161.07L502.77 161.03ZM422.15 209.98C420.59 211.07 416.63 209.91 413.55 208.89C409.18 207.46 403.66 205.41 399.12 204.25C394.58 202.97 390.49 202.69 393.48 197.12C395.41 193.16 399.19 187.19 402.07 183.03C403.4 181.15 404.82 179.19 406.61 177.88C412.07 174.26 419.96 177.75 427.07 178.21C429.25 178.57 431.97 178.44 433.58 179.83C435.64 182.09 431.25 190.74 430.26 194.07C428.99 197.34 427.77 200.36 426.47 203.32C424.95 206.74 423.82 209.06 422.26 209.94L422.16 209.99L422.15 209.98ZM428.39 213.6C427.4 212.42 428.7 209.38 429.44 207.57C432.41 200.55 435.24 191.22 437.69 185.22C439.04 181.44 442.01 181.28 445.74 181.95C449.42 182.56 454.56 183.54 458.28 184.1C463.29 184.9 464.49 186.09 463.06 190.78C461.14 197.01 459.37 204.21 457.75 210.63C455.91 219.56 452.8 218.27 445.79 217.55C442.08 217.01 437.6 216.2 434 215.64C431.19 215.17 429.22 214.7 428.46 213.7L428.4 213.62L428.39 213.6ZM476.48 221.12C474.21 223.27 470.37 223.76 467.1 223.41C463.88 222.97 458.76 222.38 458.58 218.35C458.58 215.59 461.4 210.23 462.47 206.48C465.5 197.59 468.4 188.13 474.87 187.09C482.52 186.06 485.02 192.37 483.76 199.4C483.32 203.09 482.38 207.25 481.36 210.86C480.07 215.33 478.9 218.84 476.59 221.01L476.47 221.12H476.48Z" fill="#386641"/>
</svg>
