<svg width="1200" height="1200" viewBox="0 0 1200 1200" fill="none" xmlns="http://www.w3.org/2000/svg">
<path d="M1034.19 906.04C1054.36 901.17 1062.34 924.95 1065.99 942.14C1068.94 954.34 1070.38 966.67 1070.3 979.09C1069.94 1019.52 1061.1 1094.94 1051.9 1136.38C1050.38 1142.64 1048.58 1148.81 1046.07 1154.16C1043.23 1160.23 1039.39 1165.09 1033.72 1167.97C1020.57 1174.11 1002.9 1171.41 987.86 1169.65C972.36 1167.38 952.54 1162.46 942.83 1152.36C940.05 1149.66 937.48 1146.05 934.79 1143.54C930.91 1139.93 927.36 1139.62 922.67 1141.94C918.41 1144.02 914.1 1147.16 909.47 1149.43C891.27 1158.18 866.69 1155.99 847.42 1152.26C827.96 1148.68 826.37 1131.15 813.37 1139.32C804.39 1145.39 792.51 1158.67 781.76 1165.01C767.75 1174.66 745.4 1176.18 733.48 1163.94C723.76 1153.96 725.17 1138.39 727.66 1125.64C734.05 1091.21 770.04 1024.11 806.61 1020.84C841.48 1019.05 844.08 1047.82 855.19 1045.64C860.58 1043.88 864.46 1036.35 867.62 1031.34C876.61 1016.11 883.51 999.49 893.45 985.94C902.52 972.99 920.51 963.36 934.81 973.94C947.77 982.94 946.96 1013.34 952.86 1013.99C955.73 1013.19 957.79 1006.09 959.39 1002.54C961.84 996.26 964.43 989.78 967.23 983.59C976.04 963.74 987.72 941.49 1003.15 926.89C1012.42 917.78 1021.83 909.11 1034.18 906.03L1034.19 906.04Z" fill="#CED4DA"/>
<path d="M479.02 1062.92C484.14 1064.5 482.2 1071.43 482.58 1075.49C482.5 1103.36 481.6 1131.15 479.61 1158.97C479.46 1162.69 478.35 1167.36 475.31 1169.54C473.53 1170.83 472.43 1171.05 471.43 1171.13C455.61 1171.01 241.58 1168.35 215.02 1168.07C214.66 1168.07 214.36 1168.06 214.02 1168.06C213.13 1168 212.63 1168.29 212.08 1167.21C210.67 1162.87 212.1 1157.9 213.45 1153.59C219.51 1135.57 228.37 1118.63 235.13 1100.9C236.12 1098.28 237.07 1095.64 237.81 1092.94C238.55 1090.33 238.95 1087.63 239.33 1084.99C239.66 1082.69 240.47 1080.01 242.58 1078.91C244.32 1077.86 247.13 1077.76 249.39 1077.78C282.33 1077.83 315.28 1077.98 348.2 1076.48C358.78 1076.07 369.33 1074.82 379.91 1074.17C391.9 1073.75 404.95 1072.39 416.88 1071.26C432.69 1069.78 448.55 1066.52 464.25 1064.12C469.04 1063.65 474.1 1062.26 478.86 1062.89L479.01 1062.93L479.02 1062.92Z" fill="#CED4DA"/>
<path d="M559.45 987.52C565.24 991.31 565.71 999.25 566.77 1005.6C569.03 1022.31 571.09 1039.42 575.46 1055.43C581.52 1076.56 589.11 1097.63 599 1117.37C602.37 1124.01 606.16 1130.18 610.86 1135.97C616.69 1143.55 625.47 1151.48 628.25 1160.72C629.18 1164.18 628.45 1166.79 626.41 1167.48C620.08 1168.87 612.5 1159.28 608.29 1154.47C594.99 1137.94 579.73 1121.79 562.16 1109.47C542.25 1094.74 519.72 1086.04 495.52 1076.41C491.43 1074.54 487.64 1072.3 484.78 1069.39C478.16 1062.79 477.03 1052.89 475.41 1044.06C471.98 1023.85 466.19 1003.9 456.5 985.82C453.96 980.3 435.41 954.5 451.29 958.19C457.52 960.07 463.71 964.28 469.64 967.16C487.01 975.77 505.94 981.99 525.28 984.34C532.04 985.22 538.89 985.24 545.71 985.03C550.27 984.93 555.65 985.11 559.31 987.43L559.45 987.52Z" fill="#BC4749"/>
<path d="M237.13 983.62C236.67 981.29 236.26 978.92 235.9 976.56C234.86 969.99 234.54 962.5 231.59 961.16C226.98 959.28 217.97 969.9 214.16 973.21C205.96 981.56 197.59 987.93 187.97 994.88C179.65 1001.12 168.45 1008.08 160.09 1012.66C155.01 1015.56 150.3 1018.83 149.09 1025.06C147.52 1032.87 148.86 1043.13 150.61 1051.04C155.81 1071.45 165.89 1108.1 172.76 1123.2C175.88 1128.61 183.59 1123.78 189.04 1121.02C205.41 1111.44 223.85 1096.92 237.61 1084.39L237.73 1084.27C242.49 1079.74 247.11 1074.85 251.6 1069.89C256.58 1064.37 262.82 1057.2 266.6 1051.69C267.55 1050.28 268.43 1048.7 268.87 1047.18C270.55 1041.43 265.12 1037.21 261.68 1033.3C248.21 1019.19 240.78 1002.36 237.13 983.63V983.62Z" fill="#6A994E"/>
<path d="M357.3 884.38C357.65 873.37 346.37 862.94 336.61 861.42C332.62 860.83 329.35 863.25 326.71 866C323.39 869.41 318.75 873.74 313.25 878.47C308.65 882.45 303.51 886.73 298.24 891.05C287.65 899.74 276.73 908.36 266.33 917C264.22 918.76 262.28 920.41 260.29 922.16C255.83 926.11 254.07 927.88 254.16 933.06C254.19 934.49 254.31 935.93 254.52 937.44C256.18 953.57 275.67 1003.36 289.75 1009.59C297.88 1011.99 307.61 992.87 311.99 986.8C316.13 980.22 320.14 973.56 324.08 966.85C333.8 949.61 344.78 932.47 351.37 913.88C354.34 904.51 356.83 894.35 357.31 884.56V884.37L357.3 884.38Z" fill="#6A994E"/>
<path d="M130.93 1048.9C130.71 1046.32 131.65 1041.1 128.54 1041.19C125.96 1041.6 123.65 1043.5 119.98 1046.19C116.7 1048.71 113.07 1051.78 109.78 1054.57C103.21 1060.49 95.94 1065.64 87.45 1067.66L87.26 1067.72C80.13 1069.79 70.27 1071.95 68.51 1080.4C67.43 1086.54 70.72 1092.17 71.41 1097.92C72.09 1106.42 71.57 1112.13 71.72 1123.47C71.72 1135.27 71.72 1147.47 71.72 1159.18C71.87 1164.33 70.88 1170.86 74.45 1172.53C84.22 1177.41 106.85 1170.5 117.22 1167.45C127.92 1164.04 145.24 1157.59 152.48 1150.99C156.1 1147.98 157.53 1143.5 156.76 1138.92C153.84 1117.15 130.58 1076.7 130.93 1048.9Z" fill="#6A994E"/>
<path d="M541.71 501.35C538.63 511.14 533.92 516.85 526.23 523.02C519.17 528.69 514.13 529.01 507.66 532.31C452.56 537.98 462.05 449.45 496.88 442.64C536.26 434.94 552.34 467.58 541.71 501.36V501.35Z" fill="#A7C957"/>
<path d="M562.07 989.9C559.52 984.56 562.33 978.97 564.58 970.68C570.02 952.61 578.83 926.14 585.9 916.56C588.73 912.38 592.68 911.62 597.57 911.87C603.36 912.21 612.52 912.89 618.37 914.49C626.49 916.52 625.89 923.47 624.47 930.58C621.02 948.05 614.08 965.9 609.79 983.52C608.49 989.06 606.63 995.28 601.46 997.66C593.73 1001.54 566.68 999.01 562.15 990.01L562.09 989.89L562.07 989.9Z" fill="#A7C957"/>
<path d="M630.24 425.14C621.37 434.62 597.88 437.28 588.43 428.26C579.12 419.37 581.72 386.53 593.88 377.64C605.38 369.23 622.9 366.22 632.62 379.52C641.63 391.86 640.89 413.77 630.24 425.15V425.14Z" fill="#A7C957"/>
<path d="M678.29 349.27C671.07 356.98 651.97 359.15 644.28 351.8C636.71 344.57 638.82 317.85 648.72 310.62C658.08 303.78 672.33 301.33 680.23 312.15C687.56 322.18 686.95 340.01 678.29 349.26V349.27Z" fill="#A7C957"/>
<path d="M736.6 283C731.18 288.79 716.85 290.41 711.08 284.9C705.4 279.47 706.98 259.42 714.41 253.99C721.43 248.86 732.13 247.02 738.06 255.14C743.56 262.67 743.11 276.05 736.6 282.99V283Z" fill="#A7C957"/>
<path d="M983.38 767.17C997.79 763.28 1012.68 761.87 1027.78 760.07C1031.73 759.62 1036.3 759.13 1039.77 760.75C1044.07 762.92 1044.2 768.42 1043.78 773.13C1038.59 814.98 1031.7 856.42 1032.3 898.7C1031.61 909.45 1023.97 911.01 1014.76 910.86C988.73 910.8 962.81 912.23 936.86 913.62C932.92 913.88 928.31 914.08 925.08 915.74C921.41 917.25 918.95 922.92 917.67 928.16C915.4 936.54 912.18 948.58 909.77 957.55C908.36 962.81 907.1 967.11 905.83 970.03C904.92 972.1 903.96 973.52 902.65 974.49C900.3 976.12 897.43 976.43 894.27 976.72C877 977.22 851.14 978.31 835.06 977.84C832.34 977.32 832.31 975.89 833.11 973.07C833.82 970.71 835.27 967.26 837 962.98C840.05 955.47 843.98 945.82 847.33 937.57C849.62 931.65 851.63 927.77 852.7 923.08C853.87 917.62 850.98 914.16 847.27 914.18C842.32 913.99 839.19 920.88 837.78 925.27C832.9 938.97 827.32 961.35 823.89 971.44C821.52 979.84 817 979.75 808.86 980.55C799.52 981.41 786 982.7 775.82 983.65C772.04 984 768.46 984.34 765.3 984.63C760.9 984.77 754.67 986.48 751.94 982.81C747.15 970.07 772.89 937.87 769.72 923.47C767.3 915.47 761.63 925.58 759.35 931.29C753 946.34 744.95 967.23 738.81 979.51C735.91 985.81 730.67 988.03 723.78 988.89C714.23 990.37 699.35 990.93 688.64 991.46C685.24 991.52 681.46 991.91 678.55 990.63C674.57 988.37 678.45 981.73 679.71 977.92C680.91 975 682.33 971.71 683.85 968.27C685.72 964.03 687.73 959.57 689.63 955.28C693.01 946.43 701.89 932.87 693.2 926.25C688.55 923.35 685.38 928.8 684.25 932.96C680.1 945.79 674.23 970.16 666.38 983.93C663.27 989.29 658.66 992.76 652.62 994.47C645.5 996.62 634.54 997.54 627.56 997.9C621.98 997.92 619.68 998.04 619.92 994.51C629.32 951.67 653.84 844.3 658.71 822.4C659.27 820.44 659.24 818.14 661.28 817.43C719.79 807.93 841.7 787.92 876.74 783.08C880.82 783.17 983.38 767.19 983.38 767.19V767.17Z" fill="#BC4749"/>
<path d="M1170.76 147.2L1170.71 147.05C1169.74 142.71 1162.06 141.36 1163.08 136.54C1164.57 133.01 1169.15 129.86 1167.6 125.63C1165.16 121.99 1159.59 123.81 1156.17 124.78C1148.33 127.09 1157 117.95 1154.25 114.59C1151.48 110.8 1145.45 115.33 1142.33 112.11C1141.03 110.93 1139.91 109.2 1137.86 109.04C1125.08 110.2 1120.64 128.82 1109.82 131.34C1106.24 130.29 1103.15 126.64 1099.07 127.35C1068.6 142.53 1046.3 176.17 1016.43 193.32C1001.99 207.43 866.4 258 873.48 222.16C874.43 209 881.92 197.15 881.81 183.84C880.23 167.05 876.1 160.4 884.97 144.18C886.31 138.91 888.55 133.97 892.99 130.77C905.76 121.4 920.08 102.56 929.88 89.55C948.04 69.24 970.22 10.49 919.67 41.47C894.57 57.88 876.92 90.59 866.91 118.43C865.28 124.67 860.35 128.59 854.27 130.63C823.97 141.71 825.1 175.34 835.89 203.44C842.61 214.45 846.01 218.73 838.77 231.12C833.79 239.01 809.53 232.84 799.66 237.3C762.77 249 724.47 295.93 694.1 329.48C680.01 345.9 668.83 364.99 657.3 383.34C650.42 394.45 641.59 404.7 635.87 416.52C632.55 422.51 632.46 429.74 628.86 435.29C620.76 445.5 611.65 454.04 605.18 464.49C599.76 472.86 596.57 482.99 589.01 488.81C583.08 493.69 583.44 486.81 581.32 482.67C574.56 476.94 566.03 488.49 560.79 492.43C555.74 497.46 553.41 504.46 549.37 510.15C541.29 521.77 528.39 526.89 516.03 532.49C489.86 545.36 455.31 560.31 428.99 540.31C409.59 528.62 403.99 502.29 382.58 493.17C372.19 482.73 392.16 475.09 393.9 464.69C397.83 454.68 395.19 446.64 396.33 437.56C396.64 433.01 399.82 430.25 402.79 427.24C410.11 418.53 395.05 409.97 411.72 407.78C428.41 403.3 433.64 384.67 424.85 374.89C412.94 362.89 388.77 368.95 385.68 386.53C385.03 394.97 378.62 398.2 371.28 396.16C364.93 391.73 372.6 376.57 364.57 367.24C353.79 357.18 333.88 359.48 321.52 365.76C296.34 380.71 308.44 417.58 337.11 418.6C348.64 418.05 330.72 437.92 341.22 467.38C342.12 470.98 344 473.62 346.43 475.69C347.13 477.28 347.96 478.86 348.32 480.55C348.63 482.04 348.56 483.59 348.46 485.11C348.32 487.24 348.13 489.42 347.47 491.45C347.15 492.43 345.67 494.21 344.99 495.52C341.38 495.71 337.76 496.15 334.16 496.95C319.8 500.86 311.02 504.08 296.93 512.9C263.14 534.04 216.37 569.05 186.19 594.09C169.48 608.57 147.29 622.09 139.86 643.99C138.13 650.37 133.88 655.29 128.23 658.56C118.09 667.91 104.08 677.72 100.5 691.5C100.51 695.26 104.28 697.32 106.33 700.05C110.61 708.66 95.4499 711.73 94.7499 719.77C93.5899 729.04 105.81 725.59 109.71 730.83C112.16 736.47 111.84 746.07 121.13 744.07C135.06 742.24 142.05 728.62 152.01 720.32C190.19 703.29 222.85 676.1 254.89 649.62C261.85 655.25 253.19 709.16 246.17 722.14C213.97 780 84.6999 887.6 69.7099 934.62C68.1199 952.25 73.5599 956.69 55.7399 970.22C44.9999 980.82 24.5599 989.17 22.1099 1003.61C20.7299 1023.71 60.6799 1059.27 76.1699 1070.09C89.5699 1074.68 94.7699 1058.29 92.4699 1047.86C89.6699 1034.32 79.7599 1020.56 85.7099 1006.32C88.2199 1000.29 92.5399 996.71 97.3899 992.14C99.5799 990.3 102.22 987.68 105.28 987.93C110.64 990.59 110.19 997.19 118.49 992.75C201.07 947.32 272.32 876.06 340.29 811.15C344.38 806.76 349.74 804.08 355.74 805.2C370.93 808.43 387.06 812.42 402.74 813.77C404.68 814.8 403.24 818.39 402.22 820.34C391.8 840.93 377.89 859.76 366.55 879.8C356.36 900.48 345.79 922.05 341.61 944.88C336.37 971.64 356.84 969.57 358.94 980.83C353.85 998.12 328.19 1017.35 334.95 1037.48C347.24 1060.66 377.71 1063.23 400.29 1070.24C406.03 1071.85 413.19 1074.34 418.61 1071.07C425.1 1066.26 431.4 1052.68 424.93 1046.01C419.65 1041.39 411.37 1041.99 405.11 1039.21C390.9 1034.06 389.54 1018.57 395.61 1006.46C397.48 1002.68 397.85 995.66 402.82 995.81C409.75 997.11 422.24 1004.21 429.58 997.68C452.81 931.99 510.55 850.77 505.85 782.03C500.82 741.89 459.82 716.33 428.84 694.88C423.05 689.33 403.29 682.37 406.34 674.36C419.55 646.43 420.43 649.68 448.84 655.03C469.7 658.52 491.44 652.56 510.89 644.85C527.07 636.93 541.24 619.75 551.93 605.52C563.07 592.36 568.1 574.86 576.91 560.69C588.01 547.12 604.04 538.33 615.52 524.9C625.33 517.42 624.65 499.63 638.53 497.94C642.99 496.83 646.96 494.64 650.11 491.52C661.88 473.43 666.09 485.37 682.38 482.56C686.45 481.56 688.14 479.34 690.92 475.82C703.31 460.94 733.36 422.88 741.79 413.65C746.35 420.17 743.54 431.73 744.23 439.95C755.28 478.31 685.72 601.58 657.11 664.22C645.46 686.89 631.47 698.38 612.01 714.18C607.62 718.16 602.88 723.06 600.77 728.51C592.75 743.31 614.62 764.41 595.73 773.09C563.12 799.99 573.98 811.31 589.81 844.4C597.77 855.95 604.54 876.41 618.96 880.12C649.38 882.29 635.99 853.59 630.8 833.73C631.15 819.15 642.61 809.26 653.86 801.69C660.06 796.28 665.04 789.18 669.73 782.61C709.5 728.24 742.38 657.18 786.17 606.25C839.95 529.5 824.88 571.35 894.64 543.35C895.57 543.11 895.98 543.52 895.78 544.35C893.23 556.04 890.87 571.71 887.73 586.96C878.12 652.06 862.76 679.85 870.41 721.38C872.58 726.12 873.54 731.26 871.64 736.28C867.61 750.5 863.52 772.69 879.34 780.05C898.27 784.53 916.55 778.14 939.14 776.64C953.36 774.24 970.39 774.22 981.66 764.4C984.91 760.04 981.39 754.73 978.31 751.7C972.14 730.06 938.28 738.14 925.35 739.6C919.23 740.88 919.55 733.88 922.3 730.33C925.49 724.84 933.47 724.47 937.37 720.52C945.62 708.83 948.19 693.89 952.43 680.39C965.88 619.65 981.77 558.19 983.12 495.67C985.79 455.58 970.31 431.2 926.02 432.96C922.87 432.1 924.38 429.46 925.58 427.32C942.67 400.23 937.39 361.57 939.39 329.34C938.69 321.49 943.29 317.6 950.5 315.32C1010.83 297.98 1065.4 256.13 1108.14 210.53C1111.73 206.05 1115.27 201.54 1115.67 195.83C1115.92 192.37 1114.13 188.62 1116.52 185.81C1122.64 180.54 1131.63 178.97 1138.5 174.59C1147.43 169.88 1155.22 163.62 1163.43 157.95C1167.08 155.3 1171.97 152.12 1170.75 147.17L1170.76 147.2ZM635.25 432.44C635.16 432.4 635.05 432.39 634.94 432.38C635.1 432.27 635.21 432.26 635.25 432.44ZM344.91 444.25L344.95 444.13C345.24 443.28 345.92 442.88 346.77 442.76C348.8 442.49 352.55 442.68 356.75 442.8C363.94 442.76 373.38 444.34 379.58 441.62C382.13 440.58 384.44 438.45 387.1 437.82C390.28 437.39 391.23 440.32 391.66 443.51C393.26 493.06 342.48 489.92 344.9 444.24L344.91 444.25ZM368.22 486.67C378.12 496.09 363.71 497.01 356.99 495.73C356.44 495.69 355.89 495.66 355.33 495.62C355.39 495.09 355.33 494.53 355.24 494.01C354.4 488.8 353 483.69 351.07 478.78C356.6 481.72 363.25 483.46 368.23 486.67H368.22ZM153.22 710.86C152.43 715.36 125.29 742.09 119.33 737.35C116.76 733.45 120.18 726.09 113.41 725.04C110.39 724.61 106.87 725.68 103.91 725C99.5 724.09 101.4 719.45 103.21 716.93C110.26 706.63 117.16 701.53 123.77 694.17C125.33 692.45 128.06 688.75 123.7 688.65C119.55 688.34 112.36 691.68 109.46 688.75C105.83 682.96 126.29 663.5 131.86 661.3C133.94 660.16 136.82 659.51 137.42 662.6C138.09 667.16 137.64 673.17 139.34 677.79C142.55 688.34 152.62 702.57 153.22 710.75L153.2 710.85L153.22 710.86ZM572.2 558.09V558.2C572.06 559.77 571.17 561.69 569.84 564.49C567.39 569.57 563.55 576.69 560.83 581.55C548.19 603.93 531.59 625.31 509.11 638.29C503.83 641.49 498.26 643.98 492.19 645.2C466.94 651.12 440.17 652.19 415.52 643.23C406.82 640.65 405.72 634.68 409.41 626.47C409.93 624.9 413.53 619.64 411.63 618.77C409.29 618.73 406.27 622.27 404.13 623.74C400.6 626.58 395.61 628.89 391.25 626.6C386.48 624.14 384.23 618.32 379.88 614.91C377.92 613.12 373.84 612.08 373.97 615.83C374.45 620.39 378.2 623.91 381.28 627C387.5 632.84 394.86 637.57 402.03 642.1C404.88 643.9 408.28 645.74 410.06 647.67C413.49 651.56 409.32 657.11 408.12 661.32C406.71 664.6 405.13 669.7 402.97 671.58C402.02 672.29 400.84 672.34 399.66 672.26C395.68 671.93 388.49 670.21 383.29 669.85C374.55 669.22 365.94 671.99 357.26 674.05C351.23 675.58 345.26 677.11 339.23 678.05C317.74 681.17 293.6 677.62 272.87 686.08C265 688.11 263.64 677.1 263.22 671.4C259.88 637.26 263.39 610.34 269.13 576.66C268.94 574.35 267.49 573.39 265.68 573.99C254.79 579.78 259.36 618.54 258.12 632.16C258.14 638.29 256.46 642.89 251.47 645.98C233.27 660.24 196.88 689.14 184.45 699C175.83 706.68 162 711.62 154.72 699.53C147.06 688.29 142.81 674.47 143.36 661.01C144.07 642.19 157.34 628 170.45 613.96C182.28 603.59 200.97 591.05 212.94 581.69C216.47 579.1 217.98 577.83 220.54 575.09C247.84 546.8 287.26 530.5 320.01 508.51C325.59 505.31 331.7 502.77 338.14 502.03C347.97 500.61 357.98 502.88 367.72 501.5C378.85 499.45 384.42 499.51 392.97 507.81C411.65 525.85 420.76 550.63 449.75 554.55C479.25 559.13 513.82 543.54 537.92 528.1C541.57 526.29 544.65 523.18 548.66 522.48C550.38 522.43 551.62 523.77 552.64 525.12C557.09 531.15 564.34 541.82 568.66 549.28C570.1 551.9 572.53 555.9 572.2 558.08V558.09ZM623.59 504.86L623.54 505.04C622.4 508.98 619.42 512.21 616.9 515.39C608.65 525.54 599.52 534.91 589.61 543.46C587.45 545.38 585.29 547.35 583.12 549.22C580.8 551.38 577.63 552.47 575.23 549.92C567.81 541.37 562.03 531.4 557.03 521.22C554.99 517.36 555.17 512.93 557.1 509.07C560.17 502.43 562.44 495.26 568.27 490.93C570.32 489.26 574.52 487.69 574.93 490.72C575.44 493.62 573.07 498.61 571.99 501.68C571.26 503.88 568.95 508.82 572.05 506.82C577.21 503.3 596.69 489.43 603.6 484.59C606.08 482.68 608.36 482.89 607.28 487.29C605.96 492.57 600.71 497.09 599.56 502.55C598.48 509.35 605.95 507.36 609.85 505.13C613.29 503.51 625.34 495.21 623.6 504.85L623.59 504.86ZM650.53 484.76C647.63 488.34 643.71 491.76 640.21 494.45C638.97 495.37 637.49 496.14 636.04 496.08H635.87C633.37 495.97 631.2 494.23 628.86 493.48C623.9 491.34 617.17 497.22 612.55 493.63C610.64 491.32 612.47 487.66 612.75 484.96C613.59 478.91 610.35 478.69 606.06 476.97C599.49 472.56 627.43 451.28 630.04 444.13C632.43 439.66 632.95 440.72 634.39 445.21C636.34 451.34 638.96 457.31 642.67 462.65C649.96 473.28 657.62 475.97 650.54 484.76H650.53ZM839.58 198.2C837.83 193.35 836.32 187.38 835.65 182.72C835.46 181.16 835.69 179.83 836.72 179.06L836.83 178.98C838.14 178.08 840.11 178.03 841.74 177.98C848.75 177.99 853.86 176.87 858.89 172.74C862.46 169.97 869.03 161.43 874.36 163.85C875.52 164.58 876.23 166.29 876.57 168.62C880.9 207.01 852.7 234.8 839.57 198.21L839.58 198.2ZM845.51 287.43C838.29 277.47 848.63 266.56 859.11 266.62C862.56 266.62 865.52 267.83 867.51 270.95L867.62 271.13C877 285.5 855.35 299.99 845.51 287.44V287.43ZM863.91 323.53C864.06 326.04 862.89 328.94 860.92 331.04L860.76 331.21C851.65 340.87 840.19 323.49 850.08 316.12C855.6 311.55 863.66 317 863.91 323.53ZM869.64 234.82L869.56 234.94C866.6 238.59 850.58 237.11 846.17 235.82C843.73 234.21 844.96 231.41 844.99 227.9C845.33 225.26 845.04 221.24 846.4 219.4C847.61 218.03 849.76 218.34 851.47 218.3C854.69 218.37 857.99 218.43 861.21 218.5C862.7 218.57 864.28 218.79 865.52 219.6C868 221.21 868.45 224.63 869.3 227.82C869.71 230.06 870.91 232.73 869.64 234.83V234.82ZM632.72 870.19C627.9 875.44 618.65 874.88 612.92 870.81C607.96 868.09 606.29 862.7 604.7 857.61C601.5 848.46 597.2 839.62 591.74 831.58C585.45 822.13 574.23 810.12 580.24 798.15C582.18 794.8 585.95 793.22 588.93 790.82C592.92 787.63 595.96 783.52 599.34 779.1C602.6 775 603.73 770.65 608.26 772.33C611.03 773.52 613.46 775.87 615.59 778.04C618.14 780.73 620.85 783.54 622.7 786.51C625.48 791.07 626.73 796.46 628.23 801.55C630.78 810.08 628.7 818.44 626.25 826.59L626.19 826.76C623.82 832.1 622.82 835.99 625.82 841.46C629.75 850.47 638.28 862.83 632.73 870.2L632.72 870.19ZM930.72 743.88L930.91 743.86C942.72 742.49 957.72 740.12 967.4 748.53C970.71 752.13 973.91 758.31 971.63 763.06C967.11 769.4 953.44 767.33 946.24 767.5C924.3 768.01 902.69 777.18 880.84 772.1C877.77 771.46 874.55 770.44 873.61 767.11C871.54 756.1 874.91 745.04 877.56 734.35C879.1 727.04 883.49 725.92 890.25 726.19C896.2 726.29 902.3 726.22 908.24 726.95C914.65 727.6 915.38 733.17 914.9 739.1C914.97 741.03 913.84 744.12 916.15 745C920.65 745.57 926.25 744.19 930.72 743.89V743.88ZM943.63 440.25L943.83 440.28C958.66 442.62 967 446.62 971.44 461.21C974.11 467.74 974.47 473.99 975.41 481.17C976.43 487.16 978.3 492.85 978.67 498.36C979.38 506.1 978.13 513.84 977.13 521.51C970.04 570.27 958.68 618.08 947.97 666.15C945.07 677.18 937.96 714.48 929.86 719.28C916.92 723.89 893.84 717.44 878.26 718.62C874.34 718.4 873.52 715.62 873.18 711.38C871.58 689.01 879.9 668.04 882.77 646.21C884.72 631.57 885.07 616.62 888.22 602.18C892.91 579.4 900.53 557.09 903.96 534.31C904.28 532.11 904.28 530.22 903.53 529.33C900.66 526.22 890.12 535.75 887.1 537.58C884.27 539.63 881.28 541.54 878.1 543.02C865.97 548.37 851.83 549.21 838.83 549.03C833.32 548.79 828.1 548.73 822.86 547.31C808.79 543.29 790.27 531.38 779.86 517.57C776.91 513.66 774.63 509.59 773.28 505.51C772.73 503.57 771.37 500.65 769.83 501.29C768.38 501.6 766.74 504.22 766.66 506.75C766.62 513.44 772.02 519.45 776.36 524.27C781.56 529.7 786.04 533.6 791.7 537.7C799.32 543.17 806.73 546.6 814.71 551C816.41 552.01 818.79 553.26 818.95 555.17C819.09 556.81 816.83 558.51 814.73 560.47C802.93 571.42 787.54 589.48 776.65 604.02C771.52 610.63 767.33 617.48 762.83 624.48C754.16 636.05 745.37 648.04 737.44 659.95C706.08 705.66 684.9 759.25 646.38 800.18C643.54 802.77 640.16 804.11 637.22 802.39C634.26 800.75 632.63 796.13 630.99 792.9C629.81 790.46 628.33 788.35 626.5 786.33C622.77 782.32 618.2 777.09 615.74 771.77C610.02 760.42 603.8 748.05 604.94 737.03C605.38 731.88 608.03 726.43 612.17 722.82C615.96 719.37 621.23 717.54 624.86 714.91C657.73 686.1 683.24 626.2 704.58 579.68C722.23 540.65 739.27 501.71 754 461.58C756.22 455.47 758.9 455.44 765.4 455.64C778.59 455.52 797.11 453.98 811.23 452.73C852.7 449.47 902.93 434.84 943.62 440.23L943.63 440.25ZM1159.37 148.87L1159.35 149.02C1154.92 160.25 1125.79 175.91 1114.07 178.47C1110.6 179.24 1109.1 176.21 1108.86 173.28C1108.28 168.78 1108.38 164.68 1108.64 159.67C1109.2 154.04 1108.52 148.06 1110 142.59C1110.73 140.29 1112.15 138.35 1113.76 136.59C1117.61 132.41 1121.41 127.99 1125.08 123.62C1126.27 122.3 1127.88 120.41 1129.66 120.49C1131.11 120.69 1132.21 121.97 1133.6 122.44C1135.6 123.26 1138.81 122.18 1140.37 123.48C1143.41 126.79 1137.88 130.28 1136.83 133.22C1135.65 136.23 1139.41 136.85 1141.54 136.29C1146.65 135.35 1151.27 131.07 1156.61 131.21C1160.88 132.26 1152.05 138.79 1152.36 141.9C1152.03 146.24 1160.11 144.29 1159.37 148.87Z" fill="#386641"/>
</svg>
