<svg width="1200" height="1200" viewBox="0 0 1200 1200" fill="none" xmlns="http://www.w3.org/2000/svg">
<path d="M993.3 661.73C1001.71 663.72 1009.07 661.86 1011.67 668.22C1011.99 680.21 1011.68 709.51 1011.94 752.08C1012.11 889.35 1013.21 1135.18 1012.81 1164.1C1010.22 1166.56 1004.16 1162.49 997.12 1161.65C938.98 1147.69 733 1098.62 693.8 1089.12C689.96 1087.96 689.71 1085.87 689.71 1081.31C691.5 1054.41 671.32 683.53 668.44 648.71C668.04 642.71 669.85 639.47 677.27 638.56C717.25 634.96 761.17 644.84 800.35 647.62C864.15 652.37 931.84 652.07 993.15 661.72L993.32 661.74L993.3 661.73Z" fill="#CED4DA"/>
<path d="M665.23 638.32C671.84 639.61 670.31 644.74 671.11 652.59C671.43 658.55 671.78 664.28 672.11 670.39C674.74 720.29 680.05 805.23 681.24 835.07C681 839.9 683.56 856.91 684.25 874.57C685.36 889.94 689.92 975.96 690.42 1004.01C690.66 1015.85 690.33 1028.71 691.28 1040.53C693.46 1067.53 698.38 1088.65 665.75 1096.68C572.27 1123.68 472.75 1140.24 381.8 1174.05C375.42 1176.17 368.54 1179.32 362.34 1177.72C359.03 1176.77 358.59 1171.43 358.71 1167.14C358.97 1120.63 358.18 1049.75 359.01 1013.67C359.64 1006.69 355.78 934.05 355.49 930.26C354.25 894.44 353.2 858.32 350.27 822.6C348.5 800.27 346.53 777.93 343.42 755.73C342.29 745.98 339.67 736.01 339.3 726.32C339.06 715.93 345.21 710.67 354.88 707.96C404.09 695.7 453.55 684.15 502.94 672.64C540.7 663.78 581 653.48 619.81 645.48C634.08 642.88 651.48 638.22 665.12 638.31H665.22L665.23 638.32Z" fill="#A7C957"/>
<path d="M130.57 617.8C193.41 645.06 253.81 677.99 317.09 704.28C324.85 707.56 332.47 712.19 336.77 719.35C342.03 727.85 343.03 738.75 344.71 748.65C347.44 766.46 349.29 784.47 350.88 802.41C354.62 844.96 356.84 887.86 357.46 930.63C357.37 934.89 361.45 1005.86 360.89 1020.42C360.89 1050.19 360.9 1138.08 360.89 1164.82C360.85 1167.48 360.96 1170.5 359.33 1172.11C357.16 1173.86 354.25 1172.91 349.37 1172.03C346.46 1171.36 343.06 1170.42 339.43 1169.38C326.61 1165.75 314.4 1161.46 302.1 1156.83C244.41 1134.92 185.25 1117.75 128.17 1094.4C121.61 1090.93 113.95 1088.51 114.35 1082.12C114.12 1040.51 111.78 730.14 111.14 614.88C110.77 609.57 126 616.19 130.41 617.73L130.59 617.8H130.57ZM143.34 991.84C137.8 997.69 138.9 1007 138.71 1015.72C138.71 1019.78 138.75 1024.17 138.8 1028.61C139.42 1042.19 137.64 1059.53 142.91 1071.16C146.88 1079.01 155.35 1082.76 163.14 1086.3C171.67 1089.86 182.28 1094.16 190.55 1095.95C200.37 1098.16 205.94 1095.55 208.39 1086.72C209.26 1083.58 209.65 1079.7 209.9 1076.18C210.88 1052.52 214.79 1023.05 207.51 1006.97C202.32 997.87 188.12 995.31 177.88 991.78C167.2 988.69 151.56 984.29 143.44 991.74L143.35 991.83L143.34 991.84Z" fill="#CED4DA"/>
<path d="M1035.24 482.25C1046.93 481.33 1056.25 477.81 1051.89 493.32C1043.61 533.88 1039.77 596.93 1085.5 617.79C1098.26 623.75 1112.34 625.53 1126.23 627.09C1131.31 627.69 1137.34 628.24 1141.92 629.03C1144.88 629.57 1147.11 630.33 1148.45 631.87C1150.3 634.02 1150.34 637.4 1150.4 640.29C1150.41 650.97 1150.42 670.47 1150.4 681.05C1150.33 684.4 1150.31 688.25 1147.47 690.23C1145.13 691.96 1139.74 692.37 1136.01 692.73C1093.52 695.79 1041.25 689.46 1007.86 661.71C997.19 653.16 989.13 641.67 981.65 630.33C971.22 613.97 963.79 597.32 958.19 578.29C954.7 565.74 935.24 505.52 946.55 499.27C948.53 498 950.97 497.22 953.34 496.51C961.91 493.99 976.91 490.57 988.21 488.18C1003.8 484.44 1018.81 483.77 1035.06 482.28L1035.26 482.26L1035.24 482.25Z" fill="#6A994E"/>
<path d="M996.3 481.93C988.24 477.87 981.65 468.84 978.85 459.76C970.99 436.98 984.67 413 1008.65 411.91C1021.31 411.26 1028.45 413.44 1034.26 425.33C1039.75 434.98 1043.67 445.31 1040.49 456.45C1035.77 476.4 1016.64 492.49 996.46 482.01L996.3 481.92V481.93Z" fill="#BC4749"/>
<path d="M947.47 276.95C946.62 271.44 944.45 264.34 940.09 260.91C937.09 259.37 935 262.94 933.28 265.13C928.06 272.72 920.05 284.6 915.23 291.74C910.71 298.31 912.2 298.85 918.02 294.84C921.75 292.33 926.18 287.73 928.82 286.08C933.14 283.23 932.02 288.69 930.8 292.66C902.15 359.67 874.63 454.07 791.21 455.52C787.88 455.41 785.2 454.75 783.74 453.23C781.36 450.77 782.35 446.68 783.07 443.51C786.46 429.96 791.22 411.84 785.54 401.42C780.48 392.07 766.62 390.29 757.54 395.3C741.81 403.9 735.24 431.13 745.47 446.85C749.01 452.28 755.73 455.64 760.08 459.74C765.84 464.8 764.33 470.96 760.33 477.08C752.37 489.5 742.65 503.31 732.3 514.22C715.33 532.14 694.45 546.45 669.3 545.88C661.6 545.5 660.92 540.89 663.58 534.83C672.93 514.18 684.8 478.45 650.64 477.01C638.43 476.96 631.66 489.44 628.44 500.21C625.17 512.3 624.11 524.79 631.77 534.72C634.31 538.14 637.64 541.78 640.33 545.16C641.73 547.12 643.45 548.9 643.56 551.31C643.6 553.59 641.08 555.37 637.6 558.51C624.02 570.55 607.52 585.2 594.24 596.98C591.27 599.67 584.63 605.2 585.36 605.63C585.38 605.74 585.44 605.83 585.56 605.88C586.04 606.14 587.46 605.91 589.49 605.32C593.78 604.02 598.41 602.06 602.52 599.73C617.01 591.46 629.19 579.51 640.99 568.06C648.61 559.92 653.14 554.85 665.27 555C676.13 554.58 686.84 554.54 696.86 551.56C724.96 540.87 748.94 507.81 765.91 482.72C769.28 477.31 770.87 470.51 775.84 466.63C778.62 464.58 782.58 464.18 787.4 464.1C792.33 464.01 798.02 464.28 803.17 464.36C843.22 466.93 876.59 421.66 896.12 387.94C910.44 362.6 916.9 332.22 931.68 307.44C933.12 305.19 934.71 302.14 936.74 301.09C937.54 300.77 938.2 301.34 938.61 302.03C939.84 303.92 941.12 308.2 942.83 308.56C944.89 308.7 945.61 305.93 946.22 304.29C948.11 296.56 948.51 285.62 947.48 277.15L947.45 276.96L947.47 276.95ZM631.58 515.78C630.82 509.9 632.56 503.27 635.77 497.86C640.95 489.58 649.94 482.68 659.84 484.44C669.76 487.19 669.06 497.9 666.96 506.09C665.3 513.63 663.13 521.66 660.81 529.08C658.42 536.41 657.35 540.41 652.17 538.99C643.82 536.14 632.75 524.82 631.61 515.99L631.58 515.78ZM774.16 401.94C779.83 403.93 783.09 408.92 783.03 415.16C783.18 422.5 780.19 431.49 778.02 438.99C775.33 449.78 773.03 455.77 761.57 450.75C737.1 438.89 746.44 392.02 773.98 401.87L774.16 401.94Z" fill="#386641"/>
<path d="M679 843.6C727.62 834.79 773.14 819.34 817.68 798.08C821.07 796.43 829.98 792.32 822.04 799.41C806.64 812.73 785.72 820.82 767.15 827.87C729.97 842.25 691.41 851.23 651.9 857.31C632.98 860.26 657.41 865.41 652.85 873.2C648.32 877.77 638.48 873.85 632.86 871.18C607.58 857.78 619.97 843.38 639.79 832.9C651.09 827.36 648.79 834.63 641.45 839.7C638.65 841.99 634.68 843.74 633.01 846.95C632.08 850.88 641.39 849.96 645.51 849.68C656.75 848.65 667.72 845.71 678.81 843.63L679.01 843.59L679 843.6Z" fill="#386641"/>
<path d="M538.94 945.16C538.14 945.44 537.24 945.65 536.24 945.77C528.48 946.69 522.31 939.85 517.27 935.29C499.08 918.8 445.27 864.62 439.76 843.39C437.18 833.45 436.91 813 449.03 809.34C461.01 805.72 474.75 814.46 484.23 820.77C489.69 824.41 510.58 845.9 517.19 842.67C517.95 842.3 518.54 841.67 519.11 841.05C530.28 828.99 539.33 815.21 549.67 802.32C557.71 792.3 568.68 776.36 581.89 772.82C606.67 766.18 604.52 791.35 600.79 809C600.27 811.47 599.62 813.91 598.91 816.34C590.97 843.75 577.79 869.9 565.68 895.63C559.74 908.26 553.67 920.84 547.83 933.51C545.51 938.53 544.02 943.38 538.93 945.17L538.94 945.16Z" fill="#BC4749"/>
<path d="M358.11 949.08C367.6 943.62 380.19 940.33 389.22 934.66C395.6 930.96 393 924.32 391.67 918.45C390.01 911.46 392.22 905.48 399.87 904.87C412.67 903.96 453.61 907.77 458.04 918.43C458.49 921.54 457.21 923.76 455.89 927.31C454.51 930.71 452.65 934.97 450.6 939.51C446.58 948.41 441.29 959.62 437.01 967.57C433.5 974.58 428.58 974.75 423.98 968.82C421.88 966.17 420.59 962.81 419.41 960.78C418.5 958.99 416.92 957.51 414.79 958.27C412.22 959 408.51 961.4 404.25 964.74C393.71 973.02 379.73 987.2 370.53 996.96C348.52 1019.97 330.91 1045.72 314.6 1073.06C311.5 1078.1 308.56 1078.47 303.35 1074.95C299.42 1072.45 295.23 1070.13 290.59 1067.84C286.9 1065.98 283.31 1064.26 280.57 1062.74C275.78 1060.32 273.14 1057.24 274.44 1052.03C278.04 1035.74 295.91 1011.6 306.58 997.79C320.14 981.19 339.59 961.42 357.95 949.16L358.1 949.08H358.11Z" fill="#386641"/>
<path d="M552.22 1031.29C546.38 1038.49 557.13 1065.51 552.43 1076.97C549.93 1082.44 542.61 1083.25 536.61 1083.61C531.25 1083.82 525.11 1083.49 520.27 1082.12C516.2 1081.08 513.72 1078.14 512.75 1074.2C510.66 1066.78 510.02 1053.13 510.73 1043.72C511.23 1037.58 511.09 1033.97 504.27 1032.98C496.36 1031.68 494.22 1027.88 496.01 1020.36C499.69 1005.41 511.31 983.24 523.46 977.57C533.16 972.72 538.78 981.86 545.46 988.35C550.1 993.22 555 998.46 559.3 1003.22C563.14 1007.52 565.9 1010.41 567.19 1014.02C568.99 1018.74 566.63 1024.21 562.31 1026.68C558.59 1029.03 555.08 1028.93 552.3 1031.22L552.22 1031.29Z" fill="#386641"/>
<path d="M823.56 972.28C816.45 977.73 839.54 993.13 843.81 989.32L843.88 989.25C847.84 981.99 828.45 968.78 823.56 972.29V972.28Z" fill="#386641"/>
<path d="M808.91 956.7C805.86 953.59 800.54 951.85 796.06 951.33C792.97 950.88 787.49 951.44 789.09 955.58C790.89 959.95 803.24 967.54 809.05 966.89C813.72 965.7 811.76 959.37 809.05 956.85L808.91 956.7Z" fill="#386641"/>
<path d="M760.42 943.44C757.06 944.67 755.17 949.29 758.1 951.95C760.75 954.74 774.44 956.71 777.38 954.35L777.48 954.27C779.24 952.9 778.49 950.5 777.31 948.92C773.82 944.39 765.18 941.7 760.41 943.44H760.42Z" fill="#386641"/>
<path d="M702.99 947.45C696.97 949.13 688.23 954.29 685.28 959.62L685.21 959.76C684.03 962.07 685.57 963.62 687.87 963.58C692.05 963.66 698.91 960 702.89 956.8C707.86 953.15 710.8 945.97 702.99 947.44V947.45Z" fill="#386641"/>
<path d="M894.92 1078.45C893.99 1073.36 889.37 1058.28 884.3 1060.38C880.81 1062.91 890.75 1090.55 894.68 1089.89L894.75 1089.87C896.76 1088.46 895.73 1083.08 894.92 1078.45Z" fill="#386641"/>
<path d="M742.21 942.52C739 938.96 722.19 940.38 722.78 946.93C724.04 952.5 746.15 949.76 742.29 942.62L742.21 942.52Z" fill="#386641"/>
<path d="M884.05 1049.43L884.09 1049.38C884.39 1048.99 884.47 1048.08 884.36 1046.85C883.94 1042.65 882.15 1038.09 879.25 1034.89C876.33 1031.53 871.41 1029.01 870.16 1029.6C868.7 1030.7 872.3 1034.83 873.13 1036.24C874.77 1038.04 882.58 1051.06 884.05 1049.43Z" fill="#386641"/>
<path d="M849.62 998.66C848.21 1004.18 853.98 1010.94 857.65 1014.75C859.13 1016.34 862.04 1018.31 863.05 1017.31L863.13 1017.24C864.66 1015.53 863.4 1011.67 862.6 1009.47C859.41 1001.01 851.09 995.56 849.62 998.67V998.66Z" fill="#386641"/>
<path d="M675.84 965.38C669.4 964.17 662.65 973.36 658.96 977.98C656.59 981.11 653.21 986.13 650.84 987.27C649.17 988.29 647.45 987.17 646.03 986.22C642.01 983.04 641.34 987.62 641.16 991.26C641.11 995.8 641.99 1000.42 642.55 1004.94C643.56 1013.47 644.32 1017.89 652.28 1013.3C655.78 1011.09 666.39 1006.5 666.34 1002.43C664.73 999.44 657.26 1002.52 654.49 1002.48C648.66 1002.77 652.73 995.77 656.74 990.87C660.1 986.88 663.81 983.04 667.34 979.16C671.77 974.03 678.52 967.79 675.91 965.42L675.84 965.38Z" fill="#386641"/>
<path d="M519.49 331.74C509.68 284.78 494.58 223.02 476.37 178.64C474.29 173.1 468.59 169.82 463.67 167.17C458 164.12 452.98 160.61 447.07 158.07C445.96 157.59 444.78 157.06 444.11 156.06C443.65 155.37 443.48 154.54 443.4 153.71C443.02 149.75 444.56 146.01 445.81 142.34C446.44 140.5 447.17 138.6 447.43 136.65C447.57 135.62 447.02 133.18 447.37 132.38C447.5 132.09 447.81 131.94 448.1 131.81C452.56 129.82 458.15 127.08 460.74 122.89C463.53 118.37 465.65 113.17 467.27 108.12C473.69 88.09 477.26 58.78 453.81 51.02C448.21 48.78 441.59 47.41 437.2 43.6C429.51 37.18 424.2 21.25 412.17 21.61C401.83 23.91 402.66 39.72 401.17 49.52C400.3 59.58 396.86 69.63 397.94 79.76C400.51 97.4 423.57 92.21 424.12 116.75C424.63 122.85 423.46 129.59 419.67 134.55C416.26 139 412.82 143.83 406.64 144.09C400.99 144.34 395.65 142.15 389.88 142.58C383.83 143.03 377.69 143.81 372.09 146.26C341.99 157.41 311.38 169.25 283.45 184.46C273.28 189.99 262.64 194.61 252.56 200.27C231.26 213.37 209.34 231.18 193.95 251.38C186.13 262.53 182.56 275.06 170.64 282.32C164.01 287.04 155.34 293.65 152.57 300.34C147.43 311.32 157.78 321.42 168.22 323.01C173.39 324.03 178.63 323.22 183.77 322.41C213.58 316.28 268.48 293.86 297.78 282.3C300.82 281.21 305.99 278.4 308.3 280.96C310.32 284.79 307.22 292.48 306.17 297.17C299.51 319.93 293.11 342.63 293.4 366.38C289.75 402.99 247.71 441.45 221.01 464.13C209.38 474.02 194 478.85 181.65 487.63C175.16 492.25 172.71 499.74 170.24 506.69C165.56 519.15 145.83 512.33 134.76 521.01C119.45 531.23 131.37 572.25 129.85 589.7C129.81 598.09 128.26 607.3 131.93 615.05C136.63 624.85 148.5 626.31 151.52 614.9C154.42 605.01 152.46 593.56 154.53 583.65C157.77 564.79 175.65 556 193.48 559.18C230.95 563.43 270.47 555.46 302.18 534.43C318.66 523.22 332.32 503.39 349.91 494.77C357.16 491.84 357.93 501.43 357.99 507.01C358.94 549.54 362.86 594.45 384.13 631.91C392.4 646.08 405.05 643.33 413.57 651.86C417.37 656.44 417.53 664.27 419.14 670.34C424.59 695.9 445.35 692.81 466.17 687.29C480.3 683.28 495.73 680.15 508.35 672.55C521.7 663.05 513.03 651.61 499.29 652.6C486.89 652.47 472.81 659.6 460.85 655.94C452.5 653.53 444.81 643.2 449.72 634.91C452.29 630.22 457.71 626.59 461.34 621.71C468.92 611.47 467.61 596.81 467.68 584.67C465.15 533.78 460.78 481.08 449.85 430.88C447.1 420.32 448.2 393.19 458.08 386.98C464.87 384.15 470.01 391.39 472.36 397.78C476.22 407.48 475.39 423.37 487.44 427C494.5 428.83 504.15 427.72 509.85 424.52C515.13 421.64 516.03 415.56 514.99 409.93C510.82 391.8 507.87 387.29 517.93 370.12L518.01 369.96C524.02 358 521.41 344.3 519.47 331.73L519.49 331.74ZM425.31 91.23L425.36 91.1C427.64 86.11 432.9 85.2 439.08 83.26C442.84 82.18 446.52 80.76 450 78.85C460.44 72.97 468.48 65.54 467.95 82.76C467.68 90.28 467.62 98.17 465.2 105.38C461.67 115.25 454.68 126.75 443.98 128.23C437.95 128.94 432.07 125.52 429.57 119.93C427.57 115.73 426.81 110.54 425.84 105.45C424.91 99.86 423.84 95.33 425.31 91.24V91.23ZM191.33 310.39L191.26 310.54C188.27 316.58 174.77 319.98 168.82 317C166.09 315.55 165.52 311.82 164.48 308.99C163.73 306.46 162.08 304.39 159.86 303.06C156.54 300.76 160.8 297.48 163.27 295.04C170.05 289.07 181.89 281.04 187.88 292.24C190.85 297.75 193.47 304.83 191.34 310.4L191.33 310.39ZM512.18 407.05L512.23 407.26C513 410.56 513.59 414.16 512.2 417.25C510.59 420.57 506.32 421.36 503.1 419.97C499 418.24 494.21 412.89 490.85 412.41C487.82 411.82 485.8 415.6 483.3 416.32C479.05 417 475.44 398.69 475.7 395.04C475.7 391.49 476.85 388.15 479.77 386.11C483.94 383.17 491.59 381.82 496.95 383.25C505.43 385.6 509.78 399.41 512.17 407.06L512.18 407.05ZM488.89 379.6L488.68 379.64C479.44 381.22 468.77 381.19 462.77 375.28C455.41 367.71 458.62 353.95 458.77 343.79C458.94 340.12 459.05 336.28 459.14 332.69C459.56 312.79 460.53 292.64 461.21 272.39C461.32 260.75 463.17 247.45 460.83 236.81C460.01 232.93 458.93 228.87 457.79 225.07C457.12 222.73 455.99 219.12 454.86 217.89C453.25 217.43 454.23 228.62 454.21 231.19C454.74 243.54 455.69 255.88 456.19 268.23C457.04 282.04 455.83 295.58 454.26 309.24C451.7 331.51 451.88 357.29 449.52 380.1C448.41 388.77 446.13 401.53 435.17 400.4C432.15 400.19 428.48 399.09 425.3 398.13C413.79 394.59 401.7 391.73 390.01 388.93C377.36 385.93 364.48 384.07 352.09 379.36C345.53 376.9 339.25 373.79 332.96 370.72C329.68 369.12 326.4 367.51 323.09 365.98C314.93 361.66 303.14 359.55 301.98 349.9C301.54 346.04 302.66 340.83 303.97 334.64C307.48 319.03 312.66 300.67 316.95 285.22C319.04 277.73 322.54 271.72 329.35 267.9C342.16 260.91 358.13 255.79 369.23 247.14C372.39 244.74 375.42 241.92 377.59 238.73C381.69 232.56 377.7 232.36 372.82 234.83C365.21 238.74 357.76 243.75 350.16 247.49C306.58 269.46 257.64 294.33 210.55 305.51C194.02 308.86 188.07 291.64 189.34 277.87C190.73 262.48 198.59 252.3 210.46 242.15C226.69 227.92 247.76 211.11 264.89 199.24C294.47 178.89 334.05 173.08 365.35 155.39C371.65 151.78 377.6 147.86 385.12 147.39C390.98 147 397 148.07 402.92 149.67C402.12 154.42 402.21 159.66 402.62 164.5C403.1 170.22 404.93 176.15 409.26 179.91C415.44 185.27 425.45 184.54 431.9 179.51C436.38 176.03 439.28 170.94 440.79 165.43C445.39 167.6 450.03 169.66 454.77 171.4C470.72 177.22 477.44 192.11 482.03 207.33C493.28 243.56 505.2 289.98 512.08 327.56C516.33 352.79 519.84 374.27 488.92 379.58L488.89 379.6Z" fill="#386641"/>
<path d="M402.22 813.05C399.56 810.45 397.86 807.15 395.07 804.62C393.8 803.47 391.86 802.46 390.48 803.47C389.71 804.04 389.42 805.09 389.52 806.05C389.62 807 390.05 807.89 390.48 808.75C390.91 809.63 391.35 810.52 391.78 811.4C392.09 812.03 392.4 812.75 392.16 813.4C391.6 814.92 389.39 815.19 386.68 814.88C381.97 814.35 375.75 812.07 374.11 811.53C368.72 809.78 363.45 807.6 358.02 805.97C356.09 812.95 364.93 814.11 369.56 815.88C376.16 818.4 382.29 820.89 389.57 820.35C390.38 824.72 384.59 823.45 382.34 826.03C375.18 834.23 408.06 831.54 409.67 824.59C408.44 820.22 405.43 816.19 402.22 813.05Z" fill="#386641"/>
<path d="M344.95 796.67C344.1 796.67 343.28 797.03 342.58 797.51C338.87 800.08 339.13 807.25 344.35 807.47C350.64 807.74 350.65 796.61 344.95 796.67Z" fill="#386641"/>
<path d="M295.15 755.2C294.3 755.2 293.48 755.56 292.78 756.04C289.07 758.61 289.33 765.78 294.55 766C300.84 766.27 300.85 755.14 295.15 755.2Z" fill="#386641"/>
<path d="M321.77 785.27C316.41 782.37 311.67 778.31 307.98 773.46C307.22 772.47 306.46 771.4 305.35 770.84C304.23 770.28 302.64 770.44 302.03 771.53C301.49 772.51 301.94 773.72 302.45 774.71C306.57 782.67 314.14 788.18 321.43 793.39C322.94 794.47 327.76 798.04 329.86 796.5C331.91 794.99 329.67 790.82 328.44 789.54C326.61 787.62 324.1 786.53 321.76 785.27H321.77Z" fill="#386641"/>
<path d="M282.15 731.57C278.82 726.46 276.59 720.64 275.66 714.62C275.47 713.39 275.31 712.09 274.6 711.06C273.89 710.03 272.41 709.41 271.35 710.08C270.41 710.68 270.23 711.96 270.21 713.08C270.04 722.05 274.06 730.49 277.99 738.55C278.81 740.22 281.34 745.66 283.91 745.3C286.43 744.95 286.45 740.21 285.98 738.5C285.28 735.94 283.6 733.78 282.15 731.56V731.57Z" fill="#386641"/>
</svg>
