<svg width="1200" height="1200" viewBox="0 0 1200 1200" fill="none" xmlns="http://www.w3.org/2000/svg">
<path d="M678.28 925.89C647.88 922.21 616.87 920.57 586.66 915.84C583.76 915.48 580.4 914.38 578.29 912.9C575.47 911.1 574.21 908.44 575.37 905.74C576.43 903.27 579.37 896.48 583.75 886.35C615.14 813.76 730.35 547.13 739.34 526.44C746.16 514.95 762.34 505.22 773.98 499.94C785.01 494.71 790.52 500.99 795.08 510.67C799.51 518.81 801.28 530.62 811.72 526.77C820.77 523.72 830.98 513.84 839.44 513.7C852.66 514.42 851.57 531.82 851.66 541.52C851.2 557.22 848.01 572.84 845.93 588.36C832.74 680.2 822.28 772.3 807.63 864C803.66 883.2 796.57 914.83 793.37 929.82C792.53 934.28 789.94 937.12 785 937.39C764.53 938.01 743.88 934.68 723.47 932.44C708.91 930.84 692.86 927.92 678.44 925.92L678.28 925.9V925.89Z" fill="#CED4DA"/>
<path d="M625.91 232.2C667.32 266.16 707.41 301.64 747.57 337.09C750.71 339.93 754.22 343.31 755.32 347.31C756.81 352.28 752.72 356.38 748.21 358.12C743.77 360.17 736.28 360.4 737.16 366.93C738.86 382.19 742.01 390.14 722.48 392.19C717.93 393.05 711.92 393.29 710.04 397.55C707.59 405.89 711.19 417.71 711.95 428.3C712.08 431.41 713.39 437.4 709.59 437.85C708.05 437.96 705.71 437.1 702.77 435.79C695.33 432.48 685.48 427.38 677.94 423.59C593.62 385.57 501.18 359.87 417.75 319.84C412.28 317.21 406.37 314.12 400.87 310.52C392.46 305.07 386.02 299.07 379.59 294.09C377.96 292.85 376.2 291.77 374.36 290.92C370.89 289.29 367.89 288.72 366.51 288.07C365.83 287.76 365.34 287.26 365.49 286.41C369 266.16 445.89 152.71 465.7 104.79C467.58 98.82 473.55 103.26 477.5 105.89C528.68 145.74 576.25 190.25 625.76 232.07L625.91 232.2Z" fill="#CED4DA"/>
<path d="M633.53 233.16C629.81 220.31 626.32 207.04 622.03 194.4C609.74 155.66 586.19 107.23 582.45 68.97C582.47 57.26 590.55 58.64 599.84 57.14C610.83 55.66 621.39 54.76 631.73 51.23C644.75 47.94 680.49 27.26 690.41 33.94C692.59 35.62 693.48 39.13 693.91 42.03C698.97 75.89 698.71 111.15 710 143.57C711.59 147.2 712.46 153.59 717.07 152.56C720.38 151.97 726.53 150.81 734.29 149.37C756.14 145.32 782.65 140.4 805.03 136.25C810.4 135.25 815.22 134.36 820.35 133.41C823.63 132.81 823.4 132.86 824.12 136.32C824.3 137.36 824.55 138.36 824.75 139.49C831.65 173.85 840.39 217.7 846.94 250.62C847.21 252.32 846.55 251.77 843.42 251.45C841.72 251.25 840.1 251.19 838.31 251.1C769.05 249.34 711.13 258.29 646.72 246.06C639.86 244.67 635.35 240.12 633.56 233.35L633.5 233.16H633.53Z" fill="#6A994E"/>
<path d="M702.53 930.72C715.63 935.8 727.4 943.9 738.59 952.29C757.84 966.88 775.92 984.29 787.9 1005.56C804.97 1034.8 819.1 1071 820.32 1104.57C821.71 1143.55 800.58 1164.08 762.82 1162.92C719.8 1161.18 677.07 1109.3 653.62 1070.66C632.53 1034.36 618.24 977.64 647.86 943.16C662.31 926.66 682.12 922.58 702.34 930.66L702.52 930.73L702.53 930.72ZM719.34 972.81C716.39 970.85 713.6 972.07 711.49 975.85C708.08 981.84 707.5 992.28 708.11 999.64C708.57 1004.52 709.34 1009.58 712.28 1012.9C716.04 1016.88 720.49 1012.6 722.45 1008.79C727.88 998.38 729.02 980.81 719.46 972.88L719.34 972.8V972.81ZM680.24 1014.05C663.48 1001.62 662.5 1040.62 672.62 1047.93C680.61 1054.65 687.43 1047.15 688.08 1038.3C689.18 1030.3 686.45 1019.31 680.38 1014.18L680.23 1014.05H680.24ZM760.26 1013.64C744.55 1006.03 737.98 1047.58 753.5 1052.63C762.2 1055.17 765.43 1044.89 765.67 1037.38C765.96 1029.89 765.92 1018.09 760.37 1013.72L760.26 1013.64ZM719.37 1070.54C712.23 1075.45 713.2 1095.72 716.37 1103.42C718.19 1108.88 723.79 1115.15 728.39 1108.85C730.92 1105.54 732.35 1099.08 732.54 1093.28C732.77 1086.71 731.49 1079.55 727.67 1074.18C725.63 1071.36 722.66 1068.87 719.5 1070.48L719.38 1070.54H719.37ZM783.37 1135.63C789.82 1139.47 796.4 1123.74 796.23 1116.81C796.3 1113.89 795.72 1110.6 794.03 1108.31C791.2 1104.25 786.28 1105.92 784.02 1109.93C780.26 1115.97 778.31 1130.33 783.27 1135.56L783.37 1135.64V1135.63Z" fill="#A7C957"/>
<path d="M551.16 863.08C557.47 869.43 562.79 888.57 564.74 893.01C573.9 913.82 583.58 934.4 593.55 954.84C612.4 993.48 632.28 1031.6 651.72 1069.93C661.44 1089.09 671.05 1108.31 680.37 1127.67C685.03 1137.34 689.61 1147.05 694.09 1156.8C695.4 1159.64 703.33 1176.41 698.61 1176.52C689.95 1176.71 648.65 1169.37 636.92 1164.87C591.48 1147.46 539.53 1089.95 526.54 1043.12C517.44 1010.29 515.64 976.31 521.24 942.71C523.95 926.46 528.16 910.5 533.06 894.79C535.65 886.51 538.41 878.27 541.33 870.1C542.24 867.55 543 862.22 546.02 861.2C547.77 860.61 549.49 861.4 551.15 863.07L551.16 863.08Z" fill="#CED4DA"/>
<path d="M799.91 916.06C804.77 907.64 811.57 900.47 818.99 894.12C835.17 880.44 881.71 845.8 887.81 882.71C889.66 901.79 880.25 922.47 872.93 939.87C870.08 946.19 866.48 954.85 866.96 958.68C867.6 966.36 877.3 964.82 883.89 964.77C891.86 964.3 900.67 963.93 908.62 965.73C934.07 970.64 952.91 995.14 952.85 1020.79C953.3 1038.29 944.3 1054.59 927.11 1059.63C892.94 1069.58 823.86 1055.06 801.12 1026.2C779.61 997.51 783.15 946.54 799.81 916.22L799.9 916.06H799.91Z" fill="#BC4749"/>
<path d="M891.81 711.87C948.99 701.48 948.12 780.06 904.49 798.83C841.65 825.88 833.67 722.44 891.81 711.87Z" fill="#386641"/>
<path d="M437.24 381.93C478.67 372.53 500.33 402.4 486.44 440.07C477.39 464.64 452.33 465.62 428.39 460.85C392.29 453.66 411.3 387.81 437.24 381.93Z" fill="#386641"/>
<path d="M766.16 389.6C759.9 381.38 769.39 364.13 772.78 355.5C778.11 344.43 780.26 332.21 783.91 320.54C787.82 307.73 795.59 308.41 807.22 313.27C814.99 316.59 823.69 322.13 829.87 327.86C838.35 335.7 841.19 342.3 833.58 351.56C823.27 364.54 804.61 382.84 790.13 392.48C783.07 396.83 771.47 395.83 766.25 389.72L766.15 389.6H766.16Z" fill="#BC4749"/>
<path d="M889.41 343.58C891.42 345.39 892.82 349.9 894.65 355.61C896.94 362.82 899.88 371.45 901.93 378.95C903.34 384.75 905.23 390.54 904.34 396.37C903.59 399.88 900.81 401.55 895.57 403.39C881.71 407.99 866.22 412.03 852.1 415.27C844.75 416.61 838.15 419.53 833.89 413.08C831.42 409.27 829.75 402.94 830.96 398.1C833.3 390.15 841.5 386.05 846.48 379.72C851.6 374.64 882.78 336.41 889.33 343.51L889.41 343.58Z" fill="#BC4749"/>
<path d="M909.85 506.54C906.53 507.5 903.68 505.79 900.64 504.08C896.7 501.68 891.78 498.33 886.84 496.13C877.76 491.87 864.97 486.2 856.56 482.17C853.27 480.44 848.55 478.61 847.8 474.77C847.58 471.66 849.08 469.44 850.3 466.36C851.31 464.06 852.46 461.37 853.45 458.63C854.83 454.88 855.76 450.79 857.3 447.71C859.99 441.93 864.58 441.49 869.95 443.97C878.25 447.97 885.93 453.69 894.73 456.85C901.08 459.46 908.76 462.34 914.2 465.08C918.8 467.25 922.76 470.88 922.51 476.37C922.48 483.34 916.79 504.34 909.96 506.51L909.84 506.55L909.85 506.54Z" fill="#BC4749"/>
<path d="M714.3 517.43C706.5 503.69 692.27 483.4 682.7 470.56C678.48 463.74 666.76 453.15 660.12 462.44C656.08 470.01 660.19 483.71 662.05 492.77C665.01 504.65 669.65 516.48 657.45 523.25C647.62 529.45 645.31 508.38 629.51 514.02C611.91 522.21 570.06 552.27 546.65 569.29C535.04 578.74 500.03 611.09 488.29 621.73C452.5 655.68 472.78 636.19 441.73 620.29C439.21 618.66 438.29 617.21 437.5 613.94C435.59 606.3 434.31 591.67 431.46 582.77C424.57 565.47 402.75 533.77 390.22 521.02C384.39 514.03 372.79 517.84 369.88 511.39C363.96 499.39 358.87 471.53 345.14 467.02C334.73 463.89 321.58 472.56 317.7 485.04C316.96 487.1 316.51 490.25 314.52 491.26C313.5 491.76 312.52 491.59 311.36 491.29C307.26 489.87 301.75 487.27 297.29 489.35C290.9 492.27 293.39 504.57 292.78 509.38C292.25 512.48 289.62 511.92 286.39 512.08C256.69 508.43 241.24 533.66 217.57 544.45C213.12 544.64 212.84 538.46 210.83 534.81C209.57 531.83 208.14 528.71 206.85 526.09C200.62 509.74 184.49 521.66 173.21 504.94C170.48 501.21 163.49 500.73 160.36 499.48C158.72 498.49 158.73 497.09 158.52 494.57C160.5 472.73 133.81 459.13 115.32 468.26C110.23 471.42 108.23 471.13 107.44 464.12C101.07 427.33 49.5898 442.84 39.5098 470.86C29.9298 490.53 34.8398 522.58 59.6898 526.6C76.5198 529.37 84.9498 519.73 94.4198 507.86C97.9198 503.97 99.3698 506.34 100.75 509.74C104.52 518.98 113.4 525 123.36 525.92C126.83 526.6 130.64 525.94 133.56 527.98C135.41 529.43 136.82 533.76 138.74 536.59C141.21 540.38 145.07 543.32 146.44 547.76C147.98 552.31 147.49 557.33 148.48 562C151.86 575.88 163.39 586.52 170.68 598.2C171.85 600.55 171.85 602.62 170.84 604.71C143.01 648.03 147.56 734.61 177.36 774.29C196.64 799.47 237.57 813.19 265.66 794.57C279.84 788.04 287.61 750.34 295.21 772.21C301.21 786.75 311.62 802.45 326.92 805.56C329.62 806.2 332.45 807.1 333.6 809.74C337.11 832.79 339.68 856.35 343.35 879.49C350.23 927.54 345.87 978.36 348.7 1026.33C350.39 1042.54 347.84 1065.35 363.96 1074.63C367.81 1076.7 373.55 1075.94 373.85 1080.73C368.93 1127.06 340.64 1104.44 319.81 1128.46C317.93 1131.35 315.48 1136.57 319.59 1138.07C332.57 1143.32 381.31 1146.06 398.73 1145.34C432.33 1144.88 419.71 1099.2 419.94 1076.14C420.02 1072.25 421.1 1068.44 423.12 1065.08C427.07 1058.21 433.47 1054.15 436.01 1047.3C446.42 1021.27 453.42 950.99 457.88 899.31C459.67 876.29 461.24 863.23 462.28 844.59C462.96 823.48 459.53 801.63 468.39 781.51C479.64 761.83 516.88 731.34 538.86 707.85C576.93 667.39 640.97 628.56 683.07 592.63C684.18 591.74 685.21 590.74 685.82 589.5C687.49 586.19 684.84 582.87 686.51 580.16C704.07 557.47 738.34 552.18 714.35 517.54L714.26 517.39L714.3 517.43ZM204.81 591.59C197.71 597.95 186.9 597.72 179.02 592.89C171.84 588.76 165.98 582.55 162.83 575C162.26 573.64 161.52 571.77 161.93 570.43C162.49 568.65 165.12 568.37 166.95 567.95C181.97 565.11 192.52 544.96 199.38 537.8C200.21 536.95 201.17 536.09 202.29 535.9C206.88 535.7 208.97 544.14 210.35 547.71C215.03 560.92 216.06 581.4 204.96 591.47L204.81 591.6V591.59ZM301.98 495.33C303.35 494.85 304.93 495.29 306.29 495.83C309.75 497.22 313.02 499.64 316.84 499.86C322.46 500.06 321.65 493.64 322.04 489.58C322.27 487.66 322.66 485.76 323.5 484.06C325.56 479.53 331.09 480.82 334.94 478.21C337.94 476.54 339.49 471.08 342.21 471C344.06 471.3 345.52 473.39 346.85 474.73C349.95 477.94 351.85 480.8 353.48 485.28C356.38 492.17 361.05 503.22 364.3 510.93C365.51 513.94 366.67 516.12 366.56 517.07C366.48 518.09 364.84 518.04 362.31 518.57C351.17 520.64 336.1 536.52 328.92 540.9C326.65 542.35 324.36 542.47 321.89 541.15C311.22 534.83 302.27 518.16 299.88 506.2C299.31 502.64 298.66 496.74 301.86 495.36L301.98 495.31V495.33ZM316.72 684.37C315.19 684.38 312.92 682.72 311.41 681.61C288.36 665.61 274.9 652.47 295.94 630.82C297.56 629.1 299.12 628.34 300.34 630.6C304.76 642.26 316.34 626.52 324.86 619.99C330.97 615.17 324.04 630.42 326.86 632.28C327.27 632.67 327.81 632.82 328.4 632.88C330.61 633.07 334.49 632.06 337.74 631.26C340.29 630.82 343.28 629.39 345.63 630.82C346.85 631.85 347.27 633.28 347.91 634.99C348.88 637.82 350.08 641.74 350.86 644.61C351.62 647.83 352.44 649.69 350.52 651.96C345.49 657.68 325.99 671.55 320 681.53C319.21 682.78 318.28 684.32 316.83 684.36H316.71L316.72 684.37ZM668.61 598.46C608.92 642.02 546.32 688.51 493.75 740.65C481.56 753.46 470.57 767.63 463.58 783.8C458.42 795.29 456.03 808.25 455.32 820.88C449.42 894.59 451.44 972.14 430.54 1043.74C429.11 1047.69 427.52 1051.25 425.01 1054.42C422.23 1058 418.54 1061.62 415.3 1064.67C413.19 1066.62 411.34 1067.96 408.77 1068.89C402.24 1071.04 390.53 1071.51 382.18 1071.4C376.57 1071.28 370.07 1072.08 364.88 1069.93C362.76 1069.05 361.42 1067.82 360.5 1065.97C359.01 1062.66 357.86 1057 356.89 1049.67C352.09 1011.22 352.85 941.11 351.56 916.03C349.39 880.1 341.38 844.2 339.73 808.34C339.66 805.24 339.43 801.8 341.51 799.65C346.96 795.62 351.99 791.51 358.37 784.01C379.06 760.36 403.22 722.02 418.44 702.8C438.86 677.8 469.68 653.01 488.83 628.52C490.63 626.23 492.36 624.2 494.28 622.62C518.33 606.91 551.77 578.97 583.47 553.41C592.17 546.47 600.53 539.96 608.17 534.36C616.85 528.01 624.61 522.76 630.85 519.54C632.12 518.95 633.32 518.61 634.77 518.89C638.52 519.82 642.41 523.11 645.51 525.69C648.88 528.66 650.77 531.91 653.3 535.43C656.71 539.86 660.55 543.98 663.32 548.89C668.04 556.95 671.5 565.43 676.11 573.54C677.52 576.07 679.36 578.42 680.5 581.09C684.37 589.77 674.17 594.48 668.7 598.4L668.59 598.48L668.61 598.46Z" fill="#386641"/>
<path d="M667.44 599.02C667.44 599.02 667.48 598.99 667.5 598.98C667.6 598.82 667.55 598.88 667.44 599.02Z" fill="#386641"/>
</svg>
