<svg width="1200" height="1200" viewBox="0 0 1200 1200" fill="none" xmlns="http://www.w3.org/2000/svg">
<path d="M419.42 829.86C419.28 831.42 413.63 848.92 409.95 854.91C396.35 877.05 368.73 901.41 349.55 918.1C337.84 928.29 312.28 955.28 311.05 957.67C309.41 960.86 309.49 964.1 307.82 967.36C306.15 970.62 296.22 987.91 294.61 993.99C276.58 1061.9 323.43 1103.96 346.02 1161.53C345.24 1161.61 344.44 1161.46 343.65 1161.53C331 1162.69 324.98 1163.92 311.69 1163.92H235.93C226.63 1163.92 216.59 1163.56 206.34 1163.92C205.55 1163.95 204.76 1163.88 203.97 1163.92C203.19 1153.38 206.73 1141.39 211.35 1131.99C234.73 1084.43 283.2 1041.14 267.19 982.09C264.7 972.92 259.57 963.7 254.61 955.66C250.25 948.6 234.7 921.51 229.88 915.63C221.98 905.98 213.84 896.49 206.2 886.63C192.41 868.82 175.26 854.86 166.08 832.24C165.66 830.97 166.51 828.71 166.08 827.47C170.83 827.08 174.58 823.48 179.23 822.82C230.56 815.59 281.42 822.05 333.09 822.79C354.71 823.1 377.08 820.57 399.25 822.73C406.38 823.42 413.73 825.25 419.41 829.85L419.42 829.86Z" fill="#BC4749"/>
<path d="M625.4 230.78C615.72 298.05 679.38 346.34 739.04 308.91C755.8 329.85 766.85 351.88 774.55 377.57C774.6 379.14 798.95 506.56 776.92 571.71C769.49 593.68 720.41 665.25 707.09 678.17C693.29 691.55 625.73 728.55 618.29 732.71C617.5 732.73 582.89 742.54 566.69 746.22C529.03 754.78 461.33 755.12 423.67 746.22C409.36 742.83 399.18 737.89 383.9 735.09C368.4 732.24 347.33 728.96 331.81 727.99C306.74 726.42 274.18 726.81 248.94 727.99C236.78 728.56 198.84 732.07 194.49 732.73C181.79 732.77 169.06 733.61 156.71 730.25L157.08 722.55C177.28 699.33 196.43 675.13 216.95 652.19C231.46 635.98 240.69 637.64 241.98 613.22C247.56 506.98 244.66 395.85 334.15 321.91C356.95 303.08 392.5 290.41 419.41 278.14C418.21 295.54 418.78 326.3 421.8 343.32C422.65 348.13 425.5 347.77 426.51 349.17C428.1 351.37 427.78 355.92 435.98 356.27C431.84 367.9 440.63 373.31 442.47 379.37C446.01 391.05 450.62 403.63 454.73 415.74C431.85 427.8 401.93 437.77 379.02 449.64C370.38 454.12 345.44 468.33 340.65 475.2C334.99 483.31 335.09 503.48 337.08 513.18C338.3 519.14 351.74 548.48 357.22 550.02C367.92 553.01 405.22 535.28 415.94 529.18C436.81 517.32 449.43 510.23 471.46 499.47C501.43 484.82 531.19 469.68 561.47 455.71C563 456.34 567.5 455.54 570.91 456.82C579.3 459.97 585.16 468.35 595.47 464.87C601.54 462.82 600.19 450.72 596.99 446.24C608.86 439.09 621.93 433.44 634.81 428.42C639.25 426.69 644.68 427.89 649.17 426.21C651.23 425.44 667.35 417.35 668.15 416.65C672.98 412.42 662.48 386.52 659.24 380.54C657.77 377.83 654.99 377.57 653.89 375.8C651.49 371.97 642.87 355.05 640.5 354.21C623.98 348.32 595.91 365.11 580.42 370.47C580.28 368.91 580.56 367.29 580.42 365.73C579.05 334.19 574.09 301.43 567.92 270.5C566.75 264.63 561.41 255.25 561.51 250.74C561.72 241.14 586.53 242.66 589.56 239.78C590.95 238.46 589.4 233.77 589.89 233.15C590.99 231.73 620.6 230.07 625.4 230.78ZM698.55 465.41C693.42 461.66 650.6 477.76 642.71 481.28C590.89 504.41 541.84 534.45 488.05 553.91L382.29 596.13C372.8 603.24 376.83 645.05 382.86 654.43C393.62 671.18 410.6 651.17 421.03 645.51C465.53 621.35 516.16 601.38 562.22 580.72C607.59 560.37 653.41 540.47 699.6 522.17C707.8 510.2 711.22 494.27 706.29 480.25C705.17 477.06 702.48 477.07 701.36 475.13C699.91 472.6 699.74 466.28 698.55 465.41Z" fill="#A7C957"/>
<path d="M364.29 984.66C362.74 980.3 362.76 975 363.79 970.26C369.25 946.41 381.43 918.29 404.65 908.84C411.3 906.21 420.19 905.76 427.46 904.93C435.01 904.19 438.71 899.9 441.33 893.47C450.36 874.13 466.98 853.8 486.16 844.87C505.78 836.63 519.1 847.92 531.47 825.03C538.87 813.05 547.76 802.58 558.3 793.11C582.47 769.56 604.3 775.14 625.34 797.77C633.79 806.38 637.13 818.45 623.21 823.38C614.85 826.35 605.68 827.57 598.04 832.42C587.98 838.68 578.09 847.82 573.02 858.81C570.24 864.84 569.12 871.89 567.25 878.18C564.22 891.28 552.78 890.68 541.48 891.44C531.71 892.03 521.29 893.51 512.53 897.68C492.8 906.82 479.76 925.25 475.86 946.11C474.71 952.72 472.92 959.68 465.64 961.37C462.53 962.28 458.46 962.56 455 963.17C441.38 965.43 432.55 976.8 429.75 991.03C426.86 1008.12 423.11 1010.58 406.38 1005.28C399.72 1003.37 390.56 1000.75 383.74 998.73C375.98 996.36 367.13 993.34 364.39 984.96L364.29 984.68V984.66Z" fill="#CED4DA"/>
<path d="M739.05 308.91C679.38 346.34 615.73 298.05 625.41 230.78C634.83 165.31 730 133.82 766.01 200.28C784.31 234.06 771.65 288.46 739.06 308.91H739.05Z" fill="#BC4749"/>
<path d="M941.66 426.29C952.13 426.96 962.77 428.69 973.44 429.93C988.04 431.71 1002.59 432.81 1012.22 442.22C1037.81 465.03 1050.93 498.81 1049.13 532.91C1048.64 541.46 1048.49 549.99 1046.69 558.49C1045.07 566.7 1039.1 569.77 1030.84 570.52C1003.34 573.83 1016.98 541.83 1018.25 527C1019.03 515.28 1017.3 501.65 1014.18 490.11C1012.6 484.51 1009.77 479.36 1005.43 475.41C989.58 461.82 967.74 459.2 947.91 460.06C926.44 461.43 904.48 464.35 888.15 474.45C862.29 490.86 853.24 519 836.16 542.11C832.98 546.34 829.51 550.57 824.61 550.77C820.37 550.97 815.6 547.61 813.32 543.53C810.42 538.71 811.81 532.8 813.92 527.82C835 478.24 883.97 423.73 941.48 426.28H941.67L941.66 426.29Z" fill="#CED4DA"/>
<path d="M1002.51 572.53C997.12 576.99 988.67 575.51 985.33 569.37C982.12 563.79 982.76 557.2 983.77 549.86C988.86 525.12 981.18 502.08 955.07 494.9C931.78 488.97 906.6 499.78 890.94 516.92C878.55 529.64 870.2 549.72 857.35 561.23C846.23 569.58 841.29 558.92 844.88 547.98C855.29 518.28 877.04 489.28 905.37 474.65C920.01 467.92 936.8 468.18 952.69 468.87C990.49 470.3 1009.97 483.71 1012.47 522.22C1012.81 536.42 1013.79 563.09 1002.74 572.37L1002.51 572.55V572.53Z" fill="#A7C957"/>
<path d="M775.07 377.54C773.73 356.13 774.51 343.78 787.88 326.31C799.1 311.65 831.94 291.85 842.23 314.94C845.55 322.39 843.68 330.26 846.18 337.64C870.21 290.34 928.46 295.92 926.02 354.28C930.47 350.67 933.45 345.24 939.37 342.74C975.77 327.36 1009.68 360.04 997.03 397.21C995.38 402.07 988.13 414.68 984.54 417.65C982.34 419.47 972.48 423.23 970.27 424.29C964.93 426.86 958.89 427.03 953.08 426.95C944.56 426.84 937.56 424.06 930.33 419.76C927.13 417.86 916 411.6 920.4 406.57C921.6 405.2 943.54 418.54 948.52 419.43C993.84 427.56 1010.77 369.34 974.12 350.89C961.15 344.36 946.27 344.66 934.86 353.97C932.51 355.89 918.08 379.27 914.8 375.91C922.92 357.9 923.95 333.14 907.28 319.26C906.06 318.24 904.77 317.29 903.43 316.43C884.01 304.02 865.3 321.18 854.14 336.35C847.81 344.95 840.92 355.11 837.29 365.23C836.57 367.25 837.1 370.19 834.05 370.23C832.12 370.25 831.46 368.84 831.33 367.14C831.07 363.47 833.17 359.82 834.18 356.4C835.77 351 837.45 345.62 838.68 340.13C840.5 331.96 842.25 320.5 834.16 315C818.24 304.16 791.48 327.19 784.57 341.58C778.27 354.7 780.06 364.98 779.85 378.61C779.76 384.44 781.73 386.28 775.21 382.25C775.06 380.69 775.17 379.09 775.08 377.52L775.07 377.54Z" fill="#386641"/>
<path d="M972.08 974.04C985.32 970.82 963.77 910.87 948.65 915.02C933.5 919.17 954.02 978.43 972.08 974.04Z" fill="#386641"/>
<path d="M866.88 1107.93C867.33 1112.72 881.58 1127.06 886.71 1125.58C896.23 1122.83 898.37 1065.72 878.02 1071.58C873.66 1072.83 871.27 1078.88 870.27 1082.94C869.44 1086.31 866.65 1105.51 866.87 1107.93H866.88Z" fill="#386641"/>
<path d="M837.64 1049.77C844.21 1050.89 854.43 1023.95 855.11 1018.06C856.1 1009.47 854.22 986.08 841.25 993.58C832.28 998.77 820.65 1046.87 837.64 1049.76V1049.77Z" fill="#386641"/>
<path d="M990 987.22C982.9 993.07 991.73 1007.75 995.26 1013.12C998.15 1017.51 1019.61 1041.76 1020.98 1025.04C1022 1012.56 1007.64 972.67 990 987.22Z" fill="#386641"/>
<path d="M882.09 958.57C884.59 958.49 886.88 956.53 888.45 951.63C891.01 943.65 891.38 934.85 889.93 926.62C888.92 920.91 885.84 906.76 878.03 907.49C871.18 908.13 869.7 920.02 868.51 925.39C867.31 930.8 866.91 936.46 867.96 941.92C869.24 948.61 876.22 958.76 882.09 958.56V958.57Z" fill="#386641"/>
<path d="M1045.32 969.1C1056.35 967.07 1053.59 929.54 1037.36 926.84C1025.94 924.94 1025.72 942.39 1027.96 949.3C1029.63 954.43 1038.04 970.44 1045.32 969.1Z" fill="#386641"/>
<path d="M1044.47 851.08C1044.15 859.25 1049.74 878.84 1057.95 881.39C1080.93 888.52 1071.9 859.21 1063.41 848.72C1056.13 839.73 1045 837.83 1044.47 851.09V851.08Z" fill="#386641"/>
<path d="M1003.33 893.88C994.09 897.05 997.1 923.63 1012 919.41C1024.63 915.83 1016.1 889.5 1003.33 893.88Z" fill="#386641"/>
<path d="M1072.65 793.89C1069.11 791.56 1066.2 793.72 1069.22 798.26C1071.05 800.93 1073.98 803.36 1077.27 806.2C1101.82 824.95 1125.38 845 1144.43 870.35C1157.75 886.35 1178.35 910.68 1150.22 923.8C1105.89 936.96 1057.69 890.25 1021.73 870.94C1018.34 868.59 1012.28 866.99 1012.62 872.99C1017.96 891.49 1043.38 886.53 1062.73 929.72C1078.69 962.31 1084.22 1005.05 1068.46 1038.45C1062.26 1049.98 1053.39 1066.68 1037.7 1062.36C1011.3 1054.22 990.72 1033.43 968.6 1017.47C953.71 1005.91 942.18 990.42 927.31 978.78C919.35 973.37 912.34 957.36 901.5 959.98C895.79 963.3 914.17 1002.59 915.41 1011.47C926.57 1050.97 941.74 1111.3 940.16 1145.52C939.55 1163.19 923.83 1177.35 905.48 1172.24C885.7 1168.55 863 1164.6 844.88 1155.59C817.69 1140.65 781.81 1109.97 781.69 1076.05C781.36 1049.05 796.1 1025.07 800.12 998.68C801.86 990.34 802.97 981.72 804.31 973.37C805.84 964.83 811.56 968.82 816.95 973.29C821.04 976.49 824.81 979.61 829.38 981.25C832.06 982.18 832.81 981.42 831.13 979.53C792.39 947.73 755.17 918.1 715.6 886.27C689.67 866.28 667.37 845.22 647.13 819.93C632.95 802.53 602.91 775.18 611.08 750.59C616.46 738.78 631.92 737.99 642.51 742.51C667.74 751.81 701.22 769.1 727.72 781.37C733.16 783.35 759.83 801.54 754.05 784.75C750.22 776.76 744.17 769.65 741.41 761.08C734.28 741.04 733.34 719.24 734.99 698.19C735.97 687.2 737.18 673.72 741.64 664.29C754.68 633.24 775.72 584.61 796.9 559.26C821.14 532.76 825.88 589.85 826.89 605.5C827.76 640.76 826.47 677.69 825.41 713.02C820.56 729.2 810.49 745.11 806.11 761.16C797.8 788.61 821.74 805.95 826.94 781.3C836.09 722.33 818.91 730.54 860.44 678.67C910.49 626.65 965.19 571.41 1046.92 578.94C1055.31 580.46 1061.12 584.03 1064.8 589.03C1079.49 608.95 1060.99 651.53 1044.52 676.87C1031.22 696.46 1014.08 714.3 995.75 737.03C991.02 743.47 986.29 747.28 979.92 751.57C974.29 755.78 969.69 762.35 964.92 766.3C962.26 768.61 958.31 771.25 958.2 775C958.92 779.26 963.12 776.6 966.1 773.65C970.75 768.68 976.44 763.52 982.61 759.67C1012.09 738.83 1030.25 762.82 1053.72 781.01C1056.16 779.75 1049.35 771.68 1047.6 769.58C1037.45 758.32 1025.41 747.47 1010.77 745.02C1003.58 744.2 1000.65 742.12 1006.15 735.61C1034.38 697.01 1075.11 656.58 1076.77 605.93C1074.87 563.62 1031.28 568.4 1001.24 576.2C937.98 585.17 874.91 644.11 840.69 697.37C838.75 700.9 832.28 710.17 831.17 701.23C827.76 652.54 842.15 592.44 817.89 548.56C805.05 533.62 784.42 568.28 776.57 577.49C739.82 624.57 722.07 686.98 730.89 746.3C736.03 773.49 759.4 788.4 725.8 775.49C708.8 770.57 636.7 724.03 616.58 734.01C582.75 757.5 630.43 814.52 650.51 834.17C683.77 869.53 722.79 898.6 761.64 927.62C768.74 933.52 773.91 940.75 781.36 946.3C787.46 951.69 796.5 954.99 800.11 962.61C803.05 972.24 798.52 982.53 796.41 992.04C789.87 1016.54 778.77 1038.85 776.7 1064.16C769.54 1131.25 854 1176.1 913.66 1178.95C936.68 1179.72 948.45 1160.99 947.59 1140.2C946.96 1109.55 935.98 1067.25 927.48 1034.69C921.91 1014.44 914.86 994.43 909.12 974.27C908.5 971.47 907.47 968.78 910.08 970.36C943.16 999.83 977.17 1032.37 1021.81 1062.12C1030.84 1067.36 1042.77 1071.93 1053 1068.61C1081.92 1052.5 1085.7 1011.29 1084.1 980.11C1083.38 965.39 1078.14 951.97 1071.92 938.59C1066.72 925.99 1060.9 913.31 1051.82 903.03C1047.47 897.54 1051.93 898.23 1056.03 900.32C1085.95 914.19 1119.27 942.78 1152.59 931.06C1162.2 927.5 1170.98 917.71 1171.51 907.6V907.32C1161.95 869.69 1101.68 816.41 1072.64 793.87L1072.65 793.89ZM824.3 740.99C824.06 751.59 823.54 764.59 821.49 775.18C820.2 780.29 819.59 785.44 815.58 787.68C811.88 788.75 809.26 781.9 810.15 778.28C810.97 771.44 813.97 756.81 815.84 748.9C816.98 743.87 819.67 736.09 823.42 733.32L823.53 733.29C824.91 733.26 824.23 736.98 824.31 741L824.3 740.99Z" fill="#386641"/>
<path d="M815.68 1110.25C819.38 1120.83 826.78 1128.64 835 1135.38C841.35 1141.33 847.91 1147.43 856.76 1149.2C859.11 1149.77 862.31 1150.7 864.29 1149.31C866.35 1146 856.62 1143.91 853.73 1142.18C846.02 1138.17 838.3 1133.89 832.03 1127.72L831.78 1127.44C826.54 1121.09 824.11 1111.01 818.7 1104.79C813.44 1098.75 814.14 1106.55 815.68 1110.25Z" fill="#386641"/>
<path d="M914.61 676.75C928.31 661.03 945.61 648.45 960.67 634.13C968.16 628.75 976.53 626.3 986.02 622.57C996.15 619.4 1018.1 611.11 1023.28 623.9C1023.64 625.4 1023.28 626.77 1022.6 628.15C1018.27 636.63 1001.11 659.35 988.18 676.49C981.48 685.08 978.41 690.22 972.64 696.57L972.46 696.78C971.37 698.11 970.3 699.61 970.08 701.32C969.67 704.15 972.75 705.73 974.97 704.6C977.59 703.27 978.88 700.79 980.81 698.47C985.21 692.69 991.55 683.68 998.14 674.28C1007.68 660.63 1017.78 646.31 1023.29 639.54C1024.87 637.51 1026 635.23 1026.63 632.64C1029.62 620.05 1025.04 608.61 1010.47 609.05C997.77 609.01 981.04 615.75 968.81 622.23C959.56 626.87 953.67 633.72 945.36 640.25C924.36 657.01 904.1 675.01 889.37 697.8C887.94 699.83 885.74 704.22 886.93 705.68C892.1 711.25 909.98 680.96 914.6 676.74L914.61 676.75Z" fill="#386641"/>
<path d="M766.92 663.89L766.76 664.17C756.09 684.69 747.02 718.2 755.59 740.24C756.04 741.43 757.24 744.21 758.21 743.79C759.06 743.11 759.06 740.05 759.14 738.48C759.66 713.49 762.57 691.19 770.59 667.42C772.45 662.65 771.31 657.02 766.92 663.87V663.89Z" fill="#386641"/>
<path d="M639.61 815.57H641.98C641.95 816.66 642.06 817.43 640.8 817.89C639.3 817.86 639.73 815.63 639.62 815.57H639.61Z" fill="#CED4DA"/>
<path d="M777.79 1052.02C774.47 1056.95 768.38 1059.95 763.01 1062.62C690.16 1097.82 617.46 1133.12 544.82 1168.1C539.83 1170.34 536.64 1170.28 537.53 1164.35C547.02 1123.05 561.41 1082.36 566.33 1040.17C566.78 1036.78 567.16 1031.68 569.23 1029.66C570.46 1028.43 572.27 1028.18 574.09 1028.1C585.34 1027.91 612.23 1030.1 624.35 1027.47C628.76 1026.5 631.42 1024.23 633.84 1019.65C637.19 1014.18 641.53 998.9 648.16 997.76C665.91 1003.73 756.36 1042.21 775.46 1049.13C778.06 1049.14 776.03 1042.59 773.43 1041.62C759.44 1035.46 670.85 997.35 654.48 990.22C652.54 989.35 652.04 988.28 652.99 985.79C661.19 969.22 671.03 952.87 679.68 936.44C683.35 929.29 688.01 922.82 692.45 916.16C696.86 908.86 700.46 900.18 701.79 891.54C701.86 885.03 696.39 889.66 693.48 893.42C684.33 907.23 678.62 923.49 671.05 938.24C659.75 961.53 643.29 982.89 632 1006.74C630.65 1009.54 628.92 1013.57 627.7 1015.65C626.48 1017.68 625.64 1018.43 623.64 1018.54C605.49 1018.82 506.62 1020.67 467.5 1021.16C461.62 1020.38 481.5 1000.25 484.45 998.42C542.61 955.9 607.84 923.98 672.31 892.18C681.94 887.84 694.21 877.81 704.97 883.39C713.35 888.59 716.65 899.68 720.78 908.3C730.29 935.23 792.24 1031.25 777.95 1051.71L777.76 1051.99L777.79 1052.02ZM468.99 1030.74C465.63 1036.19 470.45 1044.95 472.43 1050.71C475.79 1058.44 523.58 1187.66 529.48 1166.66C534.12 1148.71 560.92 1045.09 564.29 1031.96C564.56 1030.73 564.76 1030.07 563.17 1029.95C543.22 1029.62 511.17 1029.51 489.87 1029.27C485.93 1029.23 482.19 1029.21 478.35 1029.17C473.74 1029.32 471.38 1028.47 469.1 1030.6L468.99 1030.74Z" fill="#6A994E"/>
<path d="M378.31 902.23C396.32 884.05 413.81 863.4 421.31 838.99C429.69 818.23 428.31 794.69 421.52 773.25C411.73 736.13 380.43 733.45 347.23 729.16C335.86 727.76 327.08 727.86 315.62 727.99C297.64 728.09 273.3 727.37 255.67 727.54C242.67 727.62 231.15 729.58 217.36 731.09C205.34 732.4 194.37 732.2 182.08 735.31C166.74 738.99 151.32 746.18 149.14 763.64C146.57 786.27 150.77 817.26 163.38 836.94C178.54 868.03 207.5 899.9 232.94 930.42C236.96 935.38 240.83 940.06 241.19 943.95C241.44 952.51 230.76 955.68 224.39 961.6C214.7 969.41 206.11 978.88 196.89 987.12C173.23 1008.91 137.67 1028.68 125.84 1058.6C121.28 1072.18 119.7 1087.11 118.43 1101.49C116.84 1127.23 115.46 1162.59 146.17 1169.62C166.08 1174.25 187.89 1168.18 208.57 1167.3C216.98 1166.95 223.84 1168.12 232.02 1169.03C266.44 1172.75 304.16 1169.36 338.14 1166.67C357.8 1164.52 390.07 1167.6 405.18 1154.07C414.93 1144.27 417.37 1129.99 416.81 1116.51C417.44 1091.48 410.33 1067.45 400.18 1044.8C395.31 1033.45 390.09 1022.24 383.58 1011.75C372.9 994.7 357.73 979.87 341.89 967.06C334.09 960.21 315.72 955.74 329.39 944.2C345.64 930.32 363.14 917.97 378.06 902.49L378.32 902.23H378.31ZM309.77 955.27C311.54 960.22 323.39 964.57 328.83 968.12C350.66 981.52 367.81 1001.15 377.9 1014.68C380.21 1018.48 381.48 1021.67 383.7 1026.28C388.2 1036.16 394.81 1046.73 398.22 1057.21C404.82 1079.02 411.05 1112.96 406.94 1136.25C404.87 1148.74 396.46 1152.7 384.88 1154.72C364.28 1158.28 342.61 1159.21 322.21 1160.95C291.03 1162.07 257.75 1161.22 225.79 1161.37C200.87 1160.21 174.81 1165.82 150.27 1163.25C129.89 1161.25 124.32 1147.18 123.18 1128.7C122.13 1101.23 124.57 1072.61 138.37 1049C142.29 1042.64 147 1037.25 152.22 1032.05C175.29 1009.32 209.31 984.82 236.56 964.14C242.06 960.07 250.84 954.09 251.45 947.67C252.03 943.55 249.17 939 245.05 933.73C241.24 928.9 236.48 923.11 232.26 917.96C219.78 902.67 208.31 889.7 196.79 873.47C189.28 863.01 181.4 851.38 174.44 840.84C167.1 830.72 162.61 819.68 159.39 807.46C156.35 796.42 155.51 787.75 157.04 774.54C157.67 769.35 159.04 764.1 161.79 759.61C166.21 751.88 175.06 747.29 183.19 744.97C193.46 741.73 202.42 740.45 212.62 739.18C259.75 734.04 327.28 733.28 372.85 741.37C390.84 745.09 407.42 750 413.1 769.51C417.85 782.65 422.93 797.24 421.78 810.94C421.21 828.83 415.35 846.62 405.31 861.29C387.45 885.5 363.85 905.41 340.49 924.81C332.75 931.1 322.85 938.95 315.8 945.08C312.69 947.67 308.6 952.37 309.71 955.1L309.76 955.28L309.77 955.27Z" fill="#386641"/>
<path d="M507.02 273.39C506.84 271.28 504.39 266.61 504.63 266.32C505.18 265.65 518.48 262.21 521.21 261.56C514.87 293.96 516.71 326.2 521.22 358.62C522.59 368.44 523.73 380.02 525.96 389.4C517.12 389.37 510.13 395.66 502.28 398.87C508.12 356.93 510.53 315.64 507.02 273.39Z" fill="#A7C957"/>
<path d="M525.95 98.2C520.76 126.85 491.64 122.71 495.2 93.46C505.58 96.56 514.76 99.7 525.95 98.2Z" fill="#FEFEFE"/>
<path d="M573.32 339.68V332.58C574.3 338.73 573.29 337.23 573.32 339.68Z" fill="#6A994E"/>
<path d="M596.99 446.23C594.67 442.99 586.53 441.01 583.5 438.39C581.46 436.63 580 432.17 578.05 429.66C576.18 427.25 573.62 418.45 574.26 415.22C574.76 412.69 576.71 411.63 578.2 409.78C582.88 403.99 580.66 398.97 580.51 392.38C580.34 385.08 581.07 377.77 580.42 370.48C580.28 368.92 580.56 367.3 580.42 365.74C579.05 334.2 574.09 301.44 567.92 270.51C566.75 264.64 561.41 255.26 561.51 250.75C561.72 241.15 586.53 242.67 589.56 239.79C590.95 238.47 589.4 233.78 589.89 233.16C590.23 210.68 579.02 166.39 560.32 152.64C554.43 148.31 547.46 147.99 542.58 144.33C537.25 140.33 536.92 133.64 534.29 131.29C530.07 127.52 521.41 131.23 521.68 122.62C521.73 120.93 532.14 102.99 533.85 97.8C535.82 91.81 535.28 80.33 537.75 76.2C539.24 73.7 545.11 73.86 548.68 70.01C549.58 69.03 560.76 48.05 561.04 46.77C563.21 37.02 559.27 20.33 546.66 22.8C532.24 25.63 534.81 42.01 530.82 45.13C529.09 46.48 521.92 41.46 516.45 44.85C513.03 46.97 512.86 54.28 511.37 55.2C509.36 56.44 503.93 55.06 499.98 56.79C487.63 62.19 488.28 92.58 490.71 103.89C492.62 112.78 498.1 117.73 499.46 123.54C502.35 135.93 496.05 128.6 489.12 133.54C485.42 136.18 482.71 145.05 478.46 148.94C472.12 154.76 457.42 160.78 451.03 167.68C432.98 187.14 421.28 251.3 419.43 278.14C418.23 295.54 418.8 326.3 421.82 343.32C422.67 348.13 425.52 347.77 426.53 349.17C428.12 351.37 427.8 355.92 436 356.27C431.86 367.9 440.65 373.31 442.49 379.37C446.03 391.05 454.25 414.11 458.35 426.22C458.75 427.31 459.1 427.89 459.44 428.18C460.99 431.77 462.55 434.57 464.41 439.13C460.57 441.15 462.18 447.17 462.04 450.97C456.57 453.53 450.96 455.57 445.47 458.07C438.08 461.43 430.52 459.87 434.65 472.38C438.67 484.55 446.39 477.84 452.58 477.01C459.52 476.08 486.25 472.93 489.92 469.36C495.08 464.34 492.04 441.88 493.02 433.41C493.65 427.99 496.49 421.92 497.56 415.45C498.27 411.16 501.5 404.56 502.3 398.88C508.14 356.94 510.55 315.65 507.04 273.4C506.86 271.29 504.41 266.62 504.65 266.33C505.2 265.66 518.5 262.22 521.23 261.57C514.89 293.97 516.73 326.21 521.24 358.63C522.61 368.45 523.75 380.03 525.98 389.41C528.79 401.25 531.74 416.32 544.92 417.82C545.06 437.04 541.99 447.69 561.49 455.7C563.02 456.33 567.52 455.53 570.93 456.81C579.32 459.96 585.18 468.34 595.49 464.86C601.56 462.81 600.21 450.71 597.01 446.23H596.99ZM441.92 370.46C440.41 367.7 439.55 364.61 439 361.53C438.44 358.4 438.67 355.99 441.04 353.66C441.72 352.99 442.45 352.35 443.31 351.95C444.38 351.45 445.59 351.36 446.77 351.32C450.14 351.2 453.53 351.43 456.86 352.01C458.39 352.28 460 352.66 461.13 353.73C462.28 354.82 463.15 356.76 463.44 358.3C463.75 359.99 464.31 361.66 464.54 363.36C464.7 364.55 463.89 365.46 463.53 366.63C463.08 368.08 462.83 369.63 463.23 371.12C463.64 372.65 464.7 374.01 464.78 375.59C464.8 376.03 464.73 376.51 464.4 376.81C463.96 377.2 463.27 377.08 462.72 376.84C462.23 376.63 461.78 376.34 461.38 375.99C460.38 375.12 459.7 373.89 459.47 372.59C459.31 371.69 459.78 370.54 458.86 370.02C457.94 369.5 456.75 370.2 456.29 370.96C455.75 371.85 455.71 372.94 455.51 373.95C455.31 374.96 454.86 376.07 453.9 376.46C452.86 376.89 451.62 376.27 450.99 375.33C450.36 374.39 450.22 373.22 450.13 372.1C450.04 370.98 449.99 369.82 449.52 368.8C449.3 368.32 448.95 367.85 448.45 367.69C447.8 367.48 447.08 367.84 446.66 368.37C446.24 368.9 446.06 369.58 445.89 370.24C445.65 371.14 445.42 372.05 445.18 372.95C445.06 373.42 444.89 373.94 444.46 374.15C443.83 374.45 443.1 373.85 442.87 373.18C442.52 372.15 442.46 371.4 441.93 370.44L441.92 370.46ZM492.82 417.81C492.45 420.09 494.32 424.25 491.45 425.04C481.88 424.02 472.8 428.65 463.21 427.45C462.91 427.41 462.63 427.36 462.36 427.3C462.62 427.27 462.9 427.3 463.21 427.45C458.62 413.46 451.11 400.18 448.01 385.72C447.82 384.83 446.98 381.28 449.09 382.61C449.56 382.91 449.94 383.37 450.48 383.51C451.63 383.8 452.48 382.5 452.96 381.42C453.44 380.34 454.39 379.08 455.51 379.47C455.85 379.59 456.12 379.86 456.36 380.13C457.53 381.46 458.4 383.19 460.03 383.89C461.86 384.67 464.06 383.78 465.35 382.26C466.64 380.74 467.17 378.74 467.54 376.79C467.91 374.84 468.14 372.83 468.96 371.02C469.35 370.16 469.87 369.34 470.12 368.43C470.95 365.41 468.79 361.26 468.14 358.22C467.79 356.58 467.38 354.93 466.6 353.43C465.94 352.17 463.73 350.81 463.34 349.73C462.98 348.73 462.56 347.74 462.05 346.79C471.38 343.73 470.03 294.14 471.82 281.98C472.89 274.73 475.63 249.88 484.44 249.7C496.32 249.46 500.54 266.59 502.29 275.75C510.17 316.9 499.7 375.94 492.82 417.81ZM495.2 93.46C505.58 96.56 514.76 99.7 525.95 98.2C520.76 126.85 491.64 122.71 495.2 93.46ZM573.45 407.28C572.93 407.62 562.47 410.55 561.48 410.71C560.01 410.95 558.29 410.58 556.74 410.71C537.84 412.27 536.03 411.33 531.34 392.31C528.8 382.02 524.94 361.88 523.6 351.52C521.26 333.48 520.02 306.76 521.26 288.81C521.7 282.43 524.46 261.03 526.48 256.15C529.43 249.02 546.51 247.98 552.7 249.68C563.69 252.7 571.32 320.08 573.31 332.58C574.29 338.73 573.28 337.23 573.31 339.68C573.36 343.37 578.61 403.83 573.44 407.28H573.45Z" fill="#386641"/>
</svg>
