<svg width="1200" height="1200" viewBox="0 0 1200 1200" fill="none" xmlns="http://www.w3.org/2000/svg">
<path d="M850.92 573.77C882.99 517.73 938.78 485.94 1002.69 479.08C1023.88 476.31 1050.89 478.44 1071.94 479.65C1083.6 480.19 1090.71 483.13 1099.74 489.46C1110.05 496.66 1122.22 504.36 1131.59 513.03C1136.63 517.85 1140.12 523.01 1143.69 529.18C1221.77 667.05 1173.85 806.54 1124.56 943.19C1118.67 961.08 1112.39 981.65 1102.08 997.29C1080.78 1030.82 1044 1037.17 1007.15 1038.12C987.43 1038.67 967.1 1038.41 947.4 1038.35C851.64 1037.29 753.72 1032.14 660.7 1007.77C652.02 1005.07 643.73 1001.56 636.19 996.49C597.27 968.76 571.58 899.55 568.84 853.37C567.7 837.9 570.93 821.96 574.42 806.7C577.38 792.37 581.99 779.19 588.61 766.38C593.63 756.27 598.64 746.14 604.82 736.67C614.73 721.19 628.99 709.13 644.34 699.26C673.92 680.03 703.14 674.27 737.99 676.78C761.84 678.17 786.05 681.87 807.83 688.09C813.33 689.57 819.54 691.88 825 692.1C831.6 692.48 833.56 687.64 833.44 681.87C833.44 677.02 832.88 671.8 832.9 666.86C832.89 652.81 834.06 639.46 835.91 625.32C838.48 607.46 841.67 589.47 850.83 573.93L850.93 573.76L850.92 573.77ZM1087.1 864.03C1102.74 808.44 1120.05 737.14 1115.44 679.83C1114.13 667.95 1109.99 656.45 1105.68 645.03C1099.42 629.01 1093.12 612.41 1083.41 599.09C1070.77 581.79 1053.5 565.17 1033.07 558.65C955.58 539.27 899.27 622.61 882.22 688.13C880.6 694.48 879.61 700.91 878.76 707.43C877.32 716.23 876.75 728.26 868.2 733.01C862.71 735.89 852.71 734.35 844.26 734.55C832.55 735.08 819.85 735 808.61 734.11C724.56 725.78 636.02 770.16 634.39 861.41C633.71 878.26 635.98 896.92 644.93 911.01C659.33 934.37 686.36 948.8 712.27 957.08C721.92 960.14 731.37 962.33 740.78 963.86C813.86 973.46 884.65 975.44 958.25 973.32C981.91 971.85 1014.28 975.18 1034.9 962.51C1058.34 948.14 1079.2 891.07 1087.04 864.2L1087.09 864.02L1087.1 864.03Z" fill="#BC4749"/>
<path d="M599.65 699.14C626.92 690.61 618.85 709.31 609.6 725.03C596.65 746.74 585.96 768.77 574.23 791.14C533.92 866.08 490.74 939.86 452.03 1015.48C448.44 1022.71 443.25 1031.33 436.44 1034.37C428.58 1038.39 417.51 1034.69 409.15 1030.83C401.84 1027.52 394.54 1024.02 387.22 1020.68C302.29 981.09 216.12 943.4 131.76 902.8C126.56 899.65 122.67 896.4 121.6 892.97C119.21 884.37 132.97 877.45 140.19 873.45C158.95 863.79 177.76 856.01 197.37 848.39C229.49 835.89 261.38 824.66 293.24 812.54C303.69 808.73 314.18 805.17 324.64 801.41C341.03 795.56 357.49 788.56 373.71 782.18C405.36 769.19 438.46 760.86 470.37 748.32C492.77 739.17 515 731.92 537.65 722.27C557.87 713.43 578.33 705.68 599.47 699.19L599.66 699.14H599.65Z" fill="#CED4DA"/>
<path d="M610.81 977.15C613.07 977.12 615.02 977.43 616.22 978.35C618 979.71 619.12 981.76 619.96 983.84C625.47 997.5 615.38 1008.07 606.16 1017.44C554.67 1069.76 464.97 1112.31 397.16 1139.67C373.34 1149.28 344.35 1163.27 318.59 1160.51C305.28 1159.08 303.52 1151.37 306.14 1138.58C313.68 1101.74 398.34 1054.45 431.02 1037.49C435.56 1035.14 440.61 1032.65 445.22 1030.39C468.24 1019.1 498.5 1006.45 522.71 997.87C538.49 992.28 554.47 987.14 570.84 983.52C579.01 981.71 587.27 980.28 595.59 979.38C598.93 979.02 605.68 977.22 610.81 977.16V977.15Z" fill="#A7C957"/>
<path d="M1000.31 220.35C993.75 225.97 998.19 248.55 982.48 255.85C965.91 263.64 973.47 220.44 972.22 214C970.58 205.49 963.85 198.04 955.62 195.36C947.39 192.68 943.41 190.89 945.24 180.79C948.23 164.37 976.57 178.24 982.79 174.42C987.32 171.63 989.56 140.32 1001.98 130.94C1023.89 114.4 1008.66 170.81 1011.89 180.42C1015.21 190.28 1044.11 180.47 1042.45 204.37C1040.48 232.63 1010.67 211.49 1000.31 220.36V220.35Z" fill="#BC4749"/>
<path d="M822.81 89.12C827.13 93.42 843.81 87.96 847.4 106.14C852.26 130.69 821.22 114.32 817.56 118.04C816.32 119.31 817.01 151.59 804.62 148.79C797.27 147.13 798.51 122.05 794.12 116.62C788.93 110.2 766.86 115.37 763.54 104.55C757.28 84.13 788.37 91.82 796.34 86.17C800.52 83.21 802.34 49.59 814.39 49.87C830.16 50.25 816.74 83.05 822.82 89.11L822.81 89.12Z" fill="#BC4749"/>
<path d="M907.6 170.54C901.04 161.05 901.8 143.52 913.91 142.11C933.66 139.81 933.83 176.05 918.3 176.55C913.79 176.69 910.14 174.22 907.6 170.54Z" fill="#BC4749"/>
<path d="M819.23 231.89C835.93 227.06 844.65 256.83 827.69 261.86C804.98 268.6 807.07 235.41 819.23 231.89Z" fill="#BC4749"/>
<path d="M903.79 362.68C902.46 363.76 898.59 364.87 894.35 364.82C869.77 362.91 824.05 354.67 799.24 350.94C790.31 349.51 777.62 348.22 769.99 344.64C769.23 344.27 768.39 343.91 767.95 343.31C767.73 342.65 769.34 342.89 769.91 342.91C777.9 343.91 791.22 345.77 809.09 348.15C831.37 351.14 860.95 355.12 881.74 357.91C888.85 358.87 894.8 359.66 898.92 360.22C901.11 360.55 905.87 360.85 903.83 362.65L903.78 362.69L903.79 362.68Z" fill="#386641"/>
<path d="M977 966.86C974.21 962.7 972.08 956.76 971.03 953.58C968.68 946.43 967.92 938.85 967.21 931.39C965.86 917.23 965.32 901.47 956.15 889.77C943.25 873.32 874.1 863.86 897.64 830.53C909.95 813.1 950.26 831.89 970.71 811.34C972.82 809.22 989.7 778.25 990.9 774.75C993.66 766.67 993.11 754.9 995.47 746.2C999.39 731.75 1005.94 701.81 1024.52 714.71C1046.36 729.87 1024.55 783.16 1034.82 808.74C1043.36 830.03 1079.76 832.82 1084.27 857.47C1085.08 861.89 1085.71 870.31 1082.48 874.14C1080.32 876.7 1078.11 876.17 1075.09 877.01C1068.19 878.93 1062.25 880.89 1054.96 881.44C1041.85 882.44 1026.39 882.07 1018.01 894.14C1010.53 904.93 1011.03 920.02 1009.55 932.52C1007.8 947.25 1004.42 959.86 992.57 969.36C989.56 971.77 985.29 972.48 981.66 971.19C979.97 970.59 978.4 968.95 976.99 966.85L977 966.86Z" fill="#6A994E"/>
<path d="M214.92 713.77C207.57 697.72 200.4 693.37 208.81 714.56C221.76 747.02 233.58 791.46 249.23 821.77C250.64 824.06 252.72 827.75 254.56 828.26C254.67 828.26 254.76 828.22 254.83 828.15L254.85 828.13C255.8 825.99 253.55 820.21 252.48 816.82C240.77 786.28 227.79 743.11 214.92 713.77Z" fill="#386641"/>
<path d="M260.92 683.42C258.91 679.24 256.69 675.77 254.96 674.03C251.63 670.88 251.47 674.2 252.57 679.11C255.78 691.23 261.96 704.36 266.68 716.21C275.22 736.41 281.94 756.1 289.58 776.59C291.42 780.48 301.1 811.94 304.49 807.93L304.51 807.89C306.49 802.99 301.17 789.56 298.93 783.24C288.81 755.46 272.84 710.51 260.92 683.42Z" fill="#386641"/>
<path d="M166.45 737.07C163.97 731.46 161.01 725.24 157.37 720.8L157.3 720.72C152.53 715.34 154.84 723.66 156 726.83C168.81 758.15 183.92 802.13 198.17 832.81C199.9 836.52 201.89 840.19 204.02 843.27C206.65 847.16 208.92 848.45 207.44 842.65C196.04 811.17 179.33 767.3 166.45 737.07Z" fill="#386641"/>
<path d="M108.98 741.95C107.49 739.76 105.13 735.59 103.31 735.77L103.28 735.79C102.07 737.6 104.54 743.32 105.56 746.38C118.59 777.58 133.13 821.04 147.39 851.01C156.32 868.68 159.81 866.99 152.29 848.66C138.78 816.31 125.04 772.24 108.97 741.95H108.98Z" fill="#386641"/>
<path d="M83.32 792.89C81.57 788.96 79.22 784.03 77.04 780.85L76.98 780.77C71.39 773.65 80.03 800.36 80.61 801.75C87.68 823.29 94.94 844.37 103.38 865.34C104.89 868.55 107.19 873.4 109.48 874.62C110.42 875 110.96 874.1 111.02 872.08C110.97 865.47 108.31 857.98 106.16 851.5C99.88 832.81 91.24 810.97 83.31 792.88L83.32 792.89Z" fill="#386641"/>
<path d="M402.59 244.47C403.71 237.38 402.3 230.44 398.03 225.21L397.91 225.06C376.48 202.04 340.75 242.96 363.72 268.3C379.63 284.86 400.52 261.21 402.59 244.46V244.47Z" fill="#386641"/>
<path d="M354.57 325.23C359.76 322.27 480.96 286.32 450.14 282.09H450C445.38 282.25 439.96 283.93 435.38 285.53C429.47 287.58 423.46 289.57 417.46 291.51C404.59 295.85 391.59 300.1 378.81 304.79C372.84 307.01 366.59 308.71 360.6 310.82C356.15 312.43 351.21 314.89 348.68 318.63C344.52 324.25 346.65 334.41 348.01 341.97C350.02 352.57 352.98 364.32 355.65 374.4C359.12 386.35 357.33 392.14 346.09 397.27C322.07 408.16 296.69 415.78 271.9 424.76C268.77 425.92 265.36 427.34 262.69 429.06C254.54 434.24 255.77 441.49 258.34 451.09C259.84 456.66 261.85 463 263.87 469.13C266.18 476.18 268.54 482.93 270.04 487.97C270.61 489.97 271.12 492.11 271.05 494.12C270.64 500.99 262.54 503.21 257.19 506.24C233.69 517.86 211.2 531.35 186.56 539.23C170.15 543.65 162.78 542.71 169.22 563.11C172.56 575.71 182.16 594.04 182.02 605.85C181.78 610.49 179.1 613.24 175.37 615.6C144.87 633.59 64.38 657.18 40.19 673C35.13 676.03 33.06 680.95 33.6 687.13C33.82 690.66 34.6 694.73 35.64 698.31C42.08 720.11 53.55 741.36 62.04 762.87C63.07 765.54 64.47 768.57 65.78 770.82C67.32 773.72 70.44 777.04 70.45 772.34C69.73 763.51 64.57 755.34 60.95 747.27C55.48 736.12 51.12 727.18 46.76 714.72C44.68 709 42.59 702.86 40.75 697.09C39.71 693.08 37.08 686.8 38.51 684.01C61.8 671.73 167.87 629.8 188.48 620.35C190.25 619.55 191.59 618.93 191.55 616.76C191.55 614.84 190.64 611.4 189.29 606.05C185.86 592.19 180.64 572.31 177.52 559.33C176.24 553.9 176.98 552.49 180.49 550.78C203.58 540.04 232.22 527.07 256.18 516.04C258.59 514.94 260.85 513.9 263.15 512.84C271.53 508.88 275.65 507.95 277.18 501.97C278.65 495.28 277.74 488.07 276.58 481.3C275.09 472.22 271.61 464.2 268.16 455.9C262.25 441.56 266.37 435.47 280.59 430.84C297.52 424.66 313.82 416.63 330.5 409.91C337.57 407.11 344.57 404.63 351.72 402.23C354.78 401.18 358.32 400.12 360.89 398.71C364.12 397.06 365.44 394.46 365.12 391.15C364.9 387.93 363.61 383.27 362.38 377.72C360.76 370.7 358.85 362.41 357.07 354.69C355.38 347.32 353.76 340.48 352.72 335.69C351.91 330.61 350.75 327.78 354.55 325.23H354.57Z" fill="#386641"/>
<path d="M298.3 313.95L298.37 313.82C299.95 311.03 301.26 307.22 302.38 304.01C307.29 290.56 313.27 276.64 324.47 267.34C329.16 263.46 334.83 260.54 339.83 257.05C343.88 254.55 352.93 245.74 342.65 248.19C335.07 250.52 326.71 255.57 320.49 260.98C308.55 272.35 300.11 288.74 295.52 304.61C294.22 307.82 292.79 322.81 298.3 313.95Z" fill="#386641"/>
<path d="M210.86 448.24L210.94 448.13C213.1 445.05 214.92 440.72 216.56 437.1C226.15 415.98 240.85 393.65 264 386.37C274.45 383.29 278.07 391.55 286.6 394.47C297.52 397.87 307.31 389.86 313.01 380.42C318.29 372.29 319.87 361.14 313.91 353.01C307.75 344.34 295.72 340.52 285.96 345.96C279.9 349.05 276.29 355.52 275.07 362.06C274.07 366.93 274.17 370.42 271.79 373.5C268.23 377.82 260.88 379.95 255.66 382.46C248.52 385.53 241.92 389.28 236.78 394.93C227.03 405.83 217.21 418.25 211.85 431.52C210.31 435.25 208.79 439.27 208.02 443.19C207.28 446.34 206.79 453.81 210.87 448.22L210.86 448.24Z" fill="#386641"/>
<path d="M106.37 609.33L106.55 609.46C141.31 634.36 156.1 566.01 120.94 558.1C100.5 554.77 90.05 572.06 94.32 590.72C95.9 598.01 100.15 604.9 106.38 609.34L106.37 609.33Z" fill="#386641"/>
<path d="M108.59 549.06L108.64 549.02C111.2 545.62 112.58 539.63 114.13 535.31C118.47 521.52 125.28 510.14 133.95 501.76C146.98 488.88 165.46 483.36 183.36 486.16C189.48 486.92 196.88 489.66 201.59 489.32C207.55 489.3 209 483.07 209.1 478.06C209.27 473.21 209.77 467.11 209.71 462.54C209.63 455.97 208.71 454.4 207.13 460.72C205.64 465.62 206.21 473.11 202.31 477.29C197.1 482 187.93 477.54 181.13 477.45C172 476.68 162.47 477.55 153.7 480.08C127.13 487.34 111.19 515.1 107.37 541.97C107.04 544.7 106.96 550.72 108.59 549.04V549.06Z" fill="#386641"/>
<path d="M896.62 407.63C885.81 404.03 873.32 405.05 862.23 402.94C836.95 397.92 793.17 396.98 774.41 384.56C770.09 379.13 765.88 370.01 758.49 367.58C750.5 364.03 740.65 368.12 731.88 367.33C728.97 366.56 729.11 364.21 729.94 361.39C739.37 338.61 746.41 315.94 744.64 292.18C743.06 266.46 735.23 248.88 710.27 238.61C705.47 236.53 700.52 235.01 695.86 234.16C692.6 233.56 690.08 233.11 689.61 232.02C689.06 230.24 691.68 228.32 693.01 226.82C705.24 215.01 718.67 197.02 714.52 181.34C712.97 176.22 711.05 171.1 712.11 165.68C714.36 154.43 717.08 136.85 702.93 132.91C699.26 131.1 693.12 132.6 691 129.06C689.59 120.63 690.68 107.57 678.02 105.82C667.12 104.16 659.1 113.32 649.93 117.51C644.86 119.82 638.99 120.79 633.85 121.93C612.07 125.27 599.23 142.17 591.86 161.83C589.43 167.71 584.21 169.39 578.63 172.28C573.27 174.98 567.17 179.03 563.01 183.94C545.15 204.18 548.68 239.26 580 228.55C583.43 227.44 587.44 224.19 588.59 228.32C590.12 235.23 589.31 244.21 580.84 246.49C543.76 259.68 482.15 311.27 466.13 347.93C464.63 351.68 465.49 354.07 469.31 350.89C495.42 319.46 529.76 275.13 567.22 258.49C574.58 256.56 585.41 249.52 593.16 253.3C597.42 255.87 600.81 261.73 605.57 264.34C616.31 271.02 628.97 266.4 638.51 258.73C648.17 252.42 651.16 236.71 663.27 235.7C683.21 236.09 715.09 244.03 727.95 260.4C748.09 290.52 737.55 338.64 719.98 368.52C715.65 373.81 708.87 374.19 702.86 376.22C698.26 377.65 693.95 379.36 689.5 381.26C682.47 384.13 675.48 387.35 668.59 390.51C666.21 391.38 663.35 393.43 661.05 393.03C659.76 391.95 663.29 384.2 663.8 381.49C667.51 369.46 673 351.69 676.95 338.89C679.02 330.69 682.2 325.07 682.54 318.64C681.34 315.62 677.95 317.76 677.6 320.35C673.02 334.33 657.95 383.16 653.21 396.73C651.43 399.85 645.72 394.93 643.03 393.7C618.21 378.39 589.05 364.66 559.54 373.95C548.32 376.36 534.85 382.66 523.97 383.8C520.1 382.67 525.84 376.76 527.14 373.71C534.46 361.72 543.94 349.58 549.81 337.78C553.75 328.92 563.24 322.36 566.21 313.03C567.25 308.09 563.53 309.76 561.09 312.71C558.56 315.59 556.66 319.17 554.92 322.63C540.89 349.21 522.22 374.28 505.69 399.16C499.37 408.75 490.6 417.4 482.22 425.04C478.63 428.21 475.6 430.09 471.39 427.08C457.09 416.26 457.23 396.06 460.99 380.26C461.43 377.02 466.25 358 460.01 361.79C458.27 363.93 457.7 366.94 457.2 369.72C452.75 392.86 451.29 417.57 468.79 433.58C471.56 437.69 468.29 441.5 465.44 444.62C428.4 485.84 404 538.3 359.97 573.34C347.7 585.02 321.19 600.7 321.13 618.65C321.81 628.49 335.49 631.79 339.81 635.87C344.31 641.32 336.63 648.36 333.94 653.76C325.66 665.13 320.88 678.61 322.87 692.66C323.53 697.54 324.16 705.83 328.04 708.41C329.82 706.73 329.01 700.66 328.84 697.87C324.79 674.07 331.18 663.43 345.31 645.34C348.06 641.63 350.74 640.11 354.83 641.6C363.87 644.7 380.82 652.82 388.78 659.69C391.83 662.84 389.37 664.51 386.73 668.43C380.03 678.52 377.09 693.38 374.37 704.38C372.42 712.19 369.92 719.92 368.81 727.95C365.86 741.79 369.42 757.7 360.61 769.63C353.48 777.87 342.25 772.35 339.66 762.91C335.16 750.19 337.09 733.52 334.16 720.95C333.69 719.09 332.98 717.61 332.18 716.9C326.92 714.31 329.42 725.93 330.11 729.01C332.01 734.78 332.72 753.62 325.94 738.56C315.15 713.25 303.73 687.94 291.92 663.08C290.69 661.07 289.87 658.64 287.88 657.7C287.57 657.62 287.29 657.72 287.13 658.06C286.79 658.74 286.85 660.4 287.37 662.41C297.28 689.76 309.8 717.23 323.46 742.86C327.17 749.93 331.79 756.62 336 763.24C340.34 769.57 342.6 779.55 350.91 781.67C371.98 782.96 371.43 757.21 370.75 741.3C370.35 724.85 376.66 716.28 383.07 736.75C386.97 747.2 389.52 758.19 396.34 766.85C396.98 767.6 397.57 768.19 398.07 768.56C398.81 769.12 399.31 769.19 399.49 768.73C400.1 766.73 398.11 764.06 397.54 761.93C391.89 748.89 387.92 734.16 382.3 721.62C379.57 715.98 377.97 709.77 379.34 703.52C379.49 699.68 392.13 660.61 397.28 664.19C406.7 682.82 417.94 710.08 427.56 730.6C433.06 741.31 438.27 757.8 441.12 757.9C449.66 755.41 411.46 687.72 408.24 676.66C407.38 673.84 402.23 666.13 408.38 667.47C421.64 670.65 430.25 667.13 440.71 660.46C449.9 656.17 476.72 723.24 485.77 734.92C497.37 749.58 483.3 724.57 481.28 720.36C471.72 701.83 457.54 673.97 448.95 657.11C447.17 653.1 452.66 649.31 454.98 645.95C475.81 620.75 487.18 588.98 505.26 561.37C517.06 542.85 530.19 525.1 542.9 507.22C553.56 490.24 555.34 527.83 577.95 535.87C597.35 540.59 637.76 526.26 656.02 512.17C661.35 507.09 662.72 509.21 663 515.47C663.85 528.74 662.79 544.63 663.87 557.09C664.24 562.14 665.98 566.86 669.54 570.54C677.93 581.82 691.01 567.48 690.27 577.33C688.9 589.78 685.29 620.2 684.13 630.11C683.72 634.15 681.65 631.51 679.39 628.95C679.19 628.73 679 628.52 678.82 628.31C670.93 610.31 660.55 590.44 650.55 573.66C646.69 567.19 641.93 555.98 634.55 553.33C630.27 555.48 635.13 560.01 636.53 562.47C649.2 584.71 662.08 606.71 675.25 628.62C675.74 630.05 676.5 631.77 677.33 633.41C680.98 640.8 683.45 645.44 690.89 645.55C698.39 645.49 705.81 642.99 712.39 639.57C718.89 637.18 732.3 624.64 738.08 627.2C741.87 629.34 744.37 636.12 748.09 639.94C752.32 644.27 756.27 651.42 761.52 654.03C764.35 651.45 757.85 642.01 755.18 638.04C747.62 626.88 736.59 621.56 753.74 611.95C766.73 602.82 772.56 604.03 782.9 615.19C785.97 617.84 791.14 624.26 794.55 623.78C795.11 616.45 780.71 609.55 779.77 602.33C779.32 598.16 784.4 596.52 787.69 595.27C827.17 581.65 809 550.25 834.84 571.09C851.49 582.3 839.61 567.89 832.77 563.39C826.66 558.39 819.71 554.81 813.64 549.78C805.48 543.14 797.11 535.44 788.57 530.4C784.26 528.68 792.71 536.81 793.68 537.86C802.02 545.1 792.88 554.47 784.74 556.68C772.78 560.08 761.57 572.09 749.03 569.27C732.03 564.78 756.34 554.99 760 544.27C761.46 540 763.61 536.39 764.2 531.55C764.8 526.64 764.68 521.67 765.3 516.76C765.92 511.9 768.08 508.09 769.41 503.61C771.1 497.92 771.38 491.74 772.99 485.98C774.36 480.17 779.23 482.26 783.11 484.49C795.34 491.06 806.93 499.12 819.44 505.27C827.75 509.52 837.25 511.51 845.5 515.78C850.26 518.32 854.19 522.3 859.52 523.7C872.06 525.72 857.42 517.88 852.8 516.22C833.35 507.11 793.43 486.82 777.83 476.47C771.51 472.73 774.95 457.49 775.22 450.37C775.71 441.73 781.35 444.5 786.8 447.6C804.67 456.88 824.63 461.28 843.41 468.18C850.89 470.31 870.24 483.59 875.68 478.36C873.1 474.57 866.66 472.89 862.26 471.08C838.47 462.83 794.88 448.48 778.55 437.63C776.17 435.15 777.16 432.66 776.9 428.83V405.01C777.38 398.23 775.04 392.68 782.18 393.35C811.34 398.59 840.61 405.14 870 408.82L870.2 408.85C876.01 409.77 909.33 414.43 896.71 407.66L896.62 407.63ZM672.75 223.7C670.71 223.08 668.34 222.02 667.25 220.34L667.17 220.21C665.97 218.26 666.37 215.8 666.78 213.61C667.76 209.45 668.18 205.34 670.69 202.47C673.57 199.74 678.21 199.8 681.76 198.14C687.12 196.01 691.44 192.26 695.76 188.3C698.54 185.89 700.71 182.56 703.88 180.73C705.71 179.73 707.62 179.84 708.99 181.17C712.54 185.19 710.39 191.46 708.81 196.4C703.48 211.22 689.86 229.13 672.76 223.71L672.75 223.7ZM403.87 661.97C404.09 661.97 404.36 662 404.55 662.02C404.35 662 404.09 661.98 403.87 661.97ZM439.58 656.43C439.74 656.4 440.07 656.38 440.33 656.36C440.1 656.37 439.73 656.4 439.58 656.43ZM707.81 377.44C707.81 377.44 707.66 377.31 707.56 377.21C707.65 377.3 707.74 377.38 707.81 377.44ZM707.19 376.84C707.05 376.7 706.92 376.57 706.88 376.51C706.97 376.61 707.08 376.72 707.19 376.84ZM700.09 380.85C699.96 380.85 699.65 380.84 699.41 380.82C699.62 380.84 699.95 380.85 700.09 380.85ZM767.07 572.83C778.82 568.27 787.43 559.36 799.07 552.9C803.72 549.98 810.8 550.27 811.95 556.6C812.91 562.14 809.37 569.33 806.12 574.25C802.07 580.04 795.75 583.15 789.23 585.3C782.23 587.54 775.42 589.77 769.02 593.32C752.72 601.62 737.58 613.09 723.31 624.56C715.46 629.25 704.91 635.53 697.08 639.83C688.57 645.16 685.06 636.35 685.24 629.17C686.39 612.44 696.02 594.03 694.7 576.19C694.33 571.89 694.53 569.38 698.22 568.22C702.9 566.74 708.23 565.61 713 564.32C721.75 562.08 727.46 560.28 733.64 566.17C736.37 568.92 738.96 572.16 742.51 573.96L742.69 574.05C750.38 577.99 759.36 575.82 767.06 572.8L767.07 572.83Z" fill="#386641"/>
<path d="M647.27 689.05C643.67 693.54 642.19 685.75 641.4 684.39C638.54 679.52 621.66 639.78 619.14 634.64C610.38 616.72 599.57 595.83 595.17 577.01C598.98 577.58 599.5 581.56 600.96 584.21C605.06 591.63 649.7 686.01 647.27 689.05Z" fill="#386641"/>
<path d="M577.05 673.18H576.9C562.47 646.09 548.37 618.7 534.8 591.19C528.68 590.37 532.55 593.96 533.7 597.05C543.57 623.38 560.74 651.17 573.86 676.38H573.88C578.03 685.37 581.14 695.6 588.89 701.57C589.59 701.32 590.56 701.82 591.26 701.57C589.14 690.9 581.98 682.38 577.06 673.18H577.05Z" fill="#386641"/>
<path d="M485.13 610.11C478.84 610.38 498.54 644.5 500.1 647.21C510.15 664.67 531.37 701.36 541.78 718.45H544.15C535.71 704.92 519.82 669.6 512.02 656.64C502.75 641.24 493.67 625.87 485.13 610.11Z" fill="#386641"/>
</svg>
