<svg width="1200" height="1200" viewBox="0 0 1200 1200" fill="none" xmlns="http://www.w3.org/2000/svg">
<path d="M631 411.14C640.22 417.13 642.08 432.83 642.64 443.36C642.96 447.88 643.3 452.65 649.15 448.94C669.18 434.87 696.61 427 718.66 441.3C736.8 453.31 738.59 480.34 734.86 500.16C733.91 504.4 732.56 508.45 731.25 512.57C726.97 526.87 722.58 542.32 712.11 553.4C707.14 558.43 700.66 562.89 694.7 566.61C689.94 569.63 684.82 571.59 679.17 571.78C672.4 572.07 662.59 570.34 654.14 568.66C649.43 567.73 646.03 566.96 642.23 566.28C637.41 565.41 635.57 565.74 633.26 568.42C624.37 579.55 613.5 598.49 604.97 611.07C600.35 617.98 596.28 624.42 590.5 629.64C572.78 645.73 553.74 660.85 529.9 664.87C473.96 675.71 419.4 671.53 363.16 670.07C339.9 669.67 316.27 671.13 293.22 668.28C261.87 663.71 249.71 655.75 235.86 627.13C232.39 620.42 228.59 613.85 225.62 606.9C224.2 603.65 223.2 600 222.15 597.6C221.53 596.23 220.83 595.3 219.88 595C218.52 594.54 216.53 595.52 214.05 597.4C167.14 640.22 103.76 613.08 96.85 555.36C92.96 525.02 106.65 490.43 132.96 474.28C149.95 464.18 170.38 462.75 189.74 464.93C197.93 465.92 205.16 468.18 206.65 458.18C207.8 446.06 211.25 437.36 221.32 432.47C239.12 423.93 267.44 427.81 289.09 426.55C357.21 428.03 566.26 398.05 630.91 411.06L631.01 411.12L631 411.14ZM505.56 545.02C505.59 542.61 502.15 540.62 500.01 539.48C483.83 531.3 456.2 537.66 444.09 520.21C437.26 511.39 435.2 494.43 422.17 492.94C418.06 492.86 414.94 495.83 413.01 499.96C409.44 508.1 408.51 517.54 404.12 525.47C393.58 547.19 365.81 541.49 345.25 550.39C338.94 554.02 344.03 557.5 348.74 558.25C357.99 559.72 367.11 558.87 376.49 559.92C385.09 560.7 393.57 563.23 389.99 573.72C386.92 585.47 373.01 602.46 374.54 613.29C375.76 618.53 380.57 617.11 384.47 613.87C393.85 605.29 402.92 596.47 415.33 592.14C426.32 587.8 434.45 589.79 443.4 597.15C451.4 603.37 460.68 611.89 470.21 617.23C478.98 622.19 481.2 617.77 477.98 610.23C473.08 596.45 450.64 577.98 457.85 567.49C463.58 560.95 472.99 558.06 481.34 554.73C486.58 552.83 491.92 551.14 496.56 549.74C500.93 548.26 504.61 547.91 505.57 545.1V545.02H505.56ZM671.01 493.1C663.32 495.06 655.89 502.49 657.73 510.91C659.11 517.92 665.14 525.4 672.06 527.39C680.97 529.88 689.18 522.36 691.52 514.07C695.76 500.34 684.94 489.58 671.21 493.04L671.01 493.09V493.1ZM168.97 526.9C150.34 528.38 140.57 553.3 161.26 559.56C176.27 564.28 195.03 556.69 189.52 539.21C186.7 530.95 178.36 526.05 169.18 526.88L168.97 526.9Z" fill="#BC4749"/>
<path d="M881 776.48C885.71 769.02 898.22 748.7 900.38 765.93C901.02 772.37 900.22 779.86 899.48 786.39C889.4 869.05 866.04 968.96 845.55 1051.69C843.17 1058.07 840.56 1061.11 834.68 1059.79C815.65 1054.53 776.38 1042.4 751.35 1035.06C744.04 1032.91 740.71 1031.48 735.42 1034.29C689.25 1069.98 650.75 1114.57 607.97 1154.33C604.54 1157.56 600.06 1161.78 596.16 1162.87C592.02 1164.38 587.54 1160.21 584.49 1156.9C572.49 1144.67 556.58 1122.51 537.9 1116.34C530.49 1114.01 523.88 1115.03 516.22 1117C497.63 1121.78 473.82 1131.66 454.18 1137.77C400.4 1152.91 344.54 1161.05 291.47 1179.19C285.09 1181.34 272.66 1184.29 273.38 1175C274.42 1169.03 279.91 1163.49 284.07 1158.92C304.58 1137.3 342.03 1107.27 368.75 1085.56C408.27 1051.95 449.94 1020.63 491.05 988.91C498.45 983.11 504.99 978.34 513.72 984.02C525.31 990.84 543.12 1005.11 558.08 1010.39C564.55 1012.86 571.01 1012.94 577.18 1009.73C587.75 1004.64 601.32 995.42 612.46 987.79C635.36 971.91 656.81 955.82 676.95 941.32C690.34 931.18 703.26 920.99 718.3 912.75C732 904.68 739.37 900.35 755.21 906.23C763.74 909.05 772.75 913.42 780.1 915.71C785.11 917.27 789.04 917.67 792.76 915.64C797.64 912.94 801.41 906.38 804.72 901.58C809.09 895.01 813.87 888.84 818.34 882.38C827.73 868.95 838.05 854.12 846.23 839.7C857.75 819.31 868.12 797.28 880.89 776.68L881 776.5V776.48Z" fill="#BC4749"/>
<path d="M711.21 605.73C720.78 605.84 727.9 615.38 730.25 624.12C732.84 633.84 731.17 643.96 730.41 653.82C729.31 664.62 728.23 676.14 727.15 687.38C726.09 698.67 727.63 700.14 737.81 692C755.55 678.12 773.29 659.65 791.98 646.63C804.99 637.37 820.33 630.32 830.02 645.69C835.73 654.78 833.83 667.11 829.69 676.23C826.03 684.14 820.1 690.21 814.31 696.82C806.76 705.04 798.33 715.19 789.62 721.27C786.26 723.68 782.69 725.91 779.48 728.55C763.2 741.76 789.01 738.78 797.83 740.05C815.72 741.29 836.19 742.98 854.1 747.33C864.91 750.02 877.42 754.03 878.83 765.48C881.69 781.47 871.42 790.91 857.06 795.27C846.8 798.73 836.27 801.74 825.77 802.48C814.04 803.28 802.13 801.52 790.39 800.17C781.09 798.77 767.84 796.82 777.75 809.85C789.81 825.58 807.96 837.1 814.94 856.31C820.07 869.18 819.77 888.51 802.94 891.42C756.96 900.31 721.96 820.52 713.93 841.37C708.69 862.67 708.1 884.97 704.36 906.71C702.63 915.31 699.81 924.9 692.58 930.15C683.97 936.23 671.16 934.46 662.77 928.63C650.09 919.5 652.16 900.37 652.37 885.36C652.62 877.97 652.7 870.69 652.69 863.28C652.61 857.25 652.92 851.8 651.14 848.66C647.75 844.84 639.6 855.85 635.76 858.77C619.1 873.81 596.95 889.83 579.66 902.85C574.75 906.46 569.63 909.89 563.52 910.8C555.14 912.47 548.57 907.72 545.2 900.29C541.96 893.29 538.83 886.02 540.02 878.84C540.71 875.85 542.71 873.56 544.92 871.47C549.17 867.44 556.1 860.93 564.08 853.4C579.39 838.97 596.11 823.2 611.4 808.79C615.65 804.71 619.02 802.1 618.64 800.09C616.72 795.75 606.43 795.75 601.96 795.37C589.74 795.19 578.65 798.18 566.23 796.89C557.21 795.86 547.18 795.21 538.76 792.05C530.77 788.69 528.9 778.93 527.94 770.41C527.14 759.94 528.13 746.62 537.72 740.46C541.43 738.4 545.43 738.59 551.64 738.55C557.51 738.55 563.38 738.55 569.38 738.55C580.16 738.55 592.16 738.55 602.73 738.55C609.48 737.94 622.06 740.65 624.36 734.73C625.92 726.61 607.3 715.05 601.61 708.91C583.88 693.3 567.21 671.74 574.42 647.39C579.3 634.54 595.71 632.06 607.83 633.7C622.16 636.02 631.48 649.54 640.44 660.35C647.94 669.79 655.08 679.55 662.8 688.81C678.31 707.89 681.34 705.02 681.6 682.59C683.05 660.37 682.44 609.65 711.06 605.73H711.22H711.21Z" fill="#BC4749"/>
<path d="M264.73 661.08C289.38 686.91 349.27 752.9 362.05 766.48C364.74 769.29 364.44 771.28 363.51 775.68C362.84 778.69 361.6 782.64 359.98 786.95C354.14 802.31 347.02 816.93 340.06 831.15C333.21 845.81 324.85 860.1 316.05 874.11C305.09 893.26 291.64 910.49 280.17 930.9C277.57 935.62 275.55 939.97 274.49 943.35C273.29 947.56 272.65 949.59 275.6 951.99C289.37 963.6 373.19 1033.95 401.14 1057.48C404.14 1059.83 399.87 1062.42 398.18 1064.14C395.32 1066.6 391.09 1070.13 388.24 1072.5C386.43 1073.87 384.56 1075.95 382.38 1076.18C381.37 1075.83 380.86 1075.15 379.83 1074.44C311.01 1020.96 112.85 868.03 94.6299 853.48C94.1599 852.86 93.8999 851.78 94.1299 849.71C94.4099 847.11 95.6699 842.71 98.1199 838.21C102.93 829.17 111.56 818.93 117.79 810.34C122.44 803.9 125.83 798.4 130.34 792.42C165.91 746.2 201.69 700.27 237.13 654.05C244.9 644.94 247.85 651.3 242.83 659.59C234.67 671.78 224.26 681.68 216.08 694.2C211.15 701.75 213.7 704.75 221.29 707.74C230.68 711.71 240.09 715.98 247.98 722.31C250.53 724.25 253.66 726.87 256.86 726.7C262.73 726.05 266.37 717.77 270.28 713.71C288.16 692.82 291.09 701.88 264.11 676.08C257.66 669.68 249.28 663.22 245.13 656.23C243.6 653.49 242.27 646.31 247.3 647.6C252.17 649.63 259.71 657.05 264.66 661.01L264.74 661.08H264.73ZM220.06 784.95C219.25 782.82 215.39 781.53 213.31 780.14C200.24 773.07 189.92 748.21 179.52 745.37C175.53 745.48 173.1 750.32 170.24 753.56C167.83 756.68 165.03 760.47 162.24 764.36C158.25 769.96 154.81 774.9 151.48 780.13C147.9 785.63 146.67 788.35 151.47 791.96C161.05 799.39 177.58 811.41 187.31 816.39C188.46 816.97 189.84 817.54 190.98 817.64C195.36 817.86 196.68 812.17 198.83 809.12C202.3 803 207.55 797.56 213.08 793.03C215.18 790.94 220.32 788.05 220.08 785.03L220.06 784.95ZM271.18 813.29C273.44 812.57 274.52 809.19 275.73 807.07C280.2 798.13 291.41 787.26 295.55 780.34C296.85 778.07 298.02 776.2 296.51 774.07C294.13 771.44 291.23 770.18 287.57 767.69C280.63 763.26 270.82 757 264.03 752.67C261.15 750.89 256.95 747.89 255.75 748.21C254.41 748.27 253.47 749.89 251.77 752.99C248.57 758.91 244.35 766.77 240.92 773.13C239.31 776.17 237.65 779.03 236.33 781.84C235.76 783.17 235.36 784.19 235.51 785.45C235.81 787.61 238.79 788.63 242.46 790.52C245.26 791.93 247.88 793.72 250.29 795.75C254.12 798.96 257.52 802.67 261.05 806.22C263.86 808.75 267.58 813.56 271.08 813.32L271.18 813.3V813.29ZM333.64 749.55C328.64 749.11 325.11 754.37 322.05 758.21C320.31 760.48 318.63 762.8 317.14 765.08C313.02 770.95 314.45 773.4 319.14 778.41C323.32 783.02 327.97 787.66 332.33 792.14C336.56 796.24 341.54 803.96 346.93 797.61C359.17 782.44 360.57 766.59 344.07 754.88C341.1 752.63 337.43 749.95 333.82 749.56L333.64 749.54V749.55ZM300.24 885.47C301.73 884.07 303.14 881.2 305.02 877.86C307.66 872.45 314.42 864.55 312.32 858.72C311.64 857.15 310.31 855.8 308.95 854.54C301.35 847.68 282.74 832.72 275.87 828.74C271.73 826.34 271.14 828.95 268.33 834.17C265.84 839.1 262.3 846.1 259.66 851.31C258.22 854.51 256.24 857.12 255.82 860.39C255.79 862.25 257.84 862.8 261.18 864.24C264.52 865.64 267.61 867.47 270.7 869.49C276.12 873.04 281.69 877.3 286.95 880.95C290.83 883.29 296.74 888.64 300.15 885.55L300.24 885.47ZM223.38 889.14C227.55 884.3 233.94 880.01 239.02 875.61C246.53 869.33 246.66 866.86 238.79 862.08C227.93 855.14 213.46 844.23 203.31 839.26C200.05 837.62 196.46 837.33 193.3 839.29C185.02 844.3 174.12 859.48 167.11 869C164.24 873.79 168.67 876.8 172.15 880.38C174.74 882.82 177.94 885.56 181.39 888.39C188.75 894.42 198.4 901.67 205.59 906.9C214.58 914.12 214.65 904.1 218.26 897.13C219.6 894.3 221.23 891.66 223.27 889.28L223.4 889.13L223.38 889.14Z" fill="#6A994E"/>
<path d="M776.23 560.43H772.8C772.69 559.26 773.08 557.17 772.8 557C773.11 557.67 775.57 558.49 776.23 560.43Z" fill="#6A994E"/>
<path d="M516.19 667.16C518.78 667.32 518.83 668.72 518.33 670.67C512.93 691.26 484.72 798.21 479.45 818.3C478.81 820.49 479.27 822.37 481.07 824.01C483.78 827 491.83 828.27 496.9 828.03C507.4 828.27 522.78 827.54 533.98 828.39C537.8 828.96 539.97 830.69 541.18 833.87C543.04 839.11 543.07 846.51 542.65 852.37C541.81 862.12 540.3 872.1 540.19 881.98C539.82 899.12 538.71 919.89 536.82 937.48C536.33 941.52 535.85 944.46 535.3 946.2C534.85 947.62 534.34 948.32 533.58 948.67C513.54 950.58 390.37 955.65 342.53 958.2C337.77 957.75 334.41 951.06 334.13 946.53C334.85 925.33 336.86 853.93 340.28 831.71C341.06 827.96 344.85 827.98 348.74 827.56C358.15 826.89 378.97 825.66 388.38 825.02C389.46 824.94 390.59 824.86 391.58 824.74C395.84 824.27 395.57 823.35 395.06 819.86C389.52 784.32 377.26 705.02 372.55 674.73C371.31 669.37 376.51 670.04 381.05 669.99C426.61 672.01 470.5 672.62 516.08 667.13H516.18L516.19 667.16Z" fill="#CED4DA"/>
<path d="M366.26 379.82L366.16 379.62C362.98 373.18 357.24 371.09 350.64 371.28C347.92 371.28 344.76 371.28 342.9 372.77C340.8 374.31 340.62 377.45 341.22 379.99C347.28 401.18 376.91 400.06 366.27 379.82H366.26Z" fill="#386641"/>
<path d="M313.87 374.97C311.9 374.74 309.57 374.93 308.14 376.35L308.02 376.47C306.61 377.93 306.43 380.28 306.67 382.26C307.61 390.27 312.5 395.09 320.45 395.99C322.44 396.22 324.77 395.96 326.19 394.49C327.64 393.05 327.88 390.7 327.65 388.7C326.72 380.69 321.83 375.88 313.88 374.97H313.87Z" fill="#386641"/>
<path d="M362.58 403.56C355.39 401.41 347.93 402.95 351.19 410.98L351.28 411.16C353.19 415.14 358.26 417.15 362.55 416.94C369.21 416.94 372.36 411.08 367.78 406.08C366.35 404.7 364.49 404.09 362.58 403.55V403.56Z" fill="#386641"/>
<path d="M163.13 282.3L163.05 282.38C159.56 286.61 165.6 296.13 168.91 300.61C173.08 305.78 179.27 311.99 186.08 309.14C200.86 301.78 170.83 274.96 163.13 282.29V282.3Z" fill="#386641"/>
<path d="M225.34 327.54L225.21 327.66C216.85 338.78 238.28 360.71 247.41 355.54C253.55 351.49 247.22 339.86 243.82 335.15C239.83 329.62 231.69 322.89 225.34 327.55V327.54Z" fill="#386641"/>
<path d="M394.72 378.98L394.53 379.06C388.05 381.66 388.28 388.99 391.98 394.08C395.73 399.73 404.81 406.74 410.57 400.02C419.17 390.06 406.7 374.25 394.72 378.98Z" fill="#386641"/>
<path d="M410.28 172C413.02 172.87 416.33 173.45 418.8 171.98L418.94 171.89C421.61 170.21 422.19 165.47 422.77 162.03C424.21 153.71 421.12 145.37 413.1 141.95C398.58 135.71 392.46 166.28 410.28 172Z" fill="#386641"/>
<path d="M359 107.9L358.89 107.99C353.12 114.37 365.12 131.33 370.8 135.76C374.09 138.83 381.82 142.75 383.01 136.39C384.05 129.6 371.17 102.19 359 107.9Z" fill="#386641"/>
<path d="M832.45 593.62C830.75 591.27 829.08 591.48 825.61 591.45C823.83 591.45 822.05 591.45 820.19 591.45C809.48 591.45 797.56 591.45 787.04 591.45C780.77 591.69 779.42 591.28 778.73 584.93C777.82 573.95 779.66 564.33 772.93 554.33C763.6 539.26 749.86 517.62 738.1 504.2C734.82 500.35 732.02 504.22 733.11 508.16C733.46 509.53 734.35 510.76 735.26 511.89C744.94 523.84 759.71 550.21 767.99 562.44C769.06 564.08 769.9 565.83 769.47 567.78C763.02 582.06 736.01 599.68 726.29 601.01C719.42 601.83 711.42 597.31 706.99 592.51C702.12 587.23 698.44 580.85 696.37 573.98C695.96 572.61 695.58 571.17 694.65 570.08C693.72 568.99 692.04 568.38 690.82 569.14C689.15 570.18 689.53 572.69 690.21 574.53C691.84 578.99 694 583.25 696.62 587.21C697.93 589.19 702.46 596.04 703.52 597.49C707.97 603.61 715.38 606.42 722.12 608.93C724.4 609.78 726.64 610.71 728.99 611.31C732.68 612.3 736 612.35 737.49 613.76C738.17 614.37 738.5 615.28 738.64 616.48C738.97 620.15 738.8 624.67 739.32 628.66C740 637.63 745.22 645.44 755.1 643.11C762.98 641.12 764.05 633.75 767.05 628.22C772.28 620.29 812.79 636 828.88 623.18L829.01 623.07C834.88 618.19 836.76 600.15 832.46 593.64L832.45 593.62Z" fill="#386641"/>
<path d="M659.67 385.53C656.29 382.86 649.4 380.9 649.72 375.94C650.16 372.77 654.52 368.71 657.07 365.68C691.35 332.3 734.94 270.35 760.22 239.5C772.97 223.65 804.33 201.26 806.32 183.14C806.41 178.52 804.28 172.67 805.91 167.92C808.55 159.96 820.41 154.08 821.86 146.49C822.8 141.71 819.61 137.12 816.98 133.24C808.39 120.64 799.88 107.98 792.87 94.53C789.25 87.81 786.57 79.45 780.23 74.78C767.22 66.38 762.38 83.56 765.09 93.39C768.71 108.37 793.93 128.22 773.31 138.04C721.75 161.74 651.45 262.74 597.16 302.11C581.02 313.69 565.17 327.15 551.68 341.42C548.28 344.78 544.51 348.77 541.67 351.27C537.93 354.69 536.08 353.23 534.12 348.48C504.78 274.28 467.72 202.79 434.9 129.64C428.71 116.04 420.76 98.64 414.13 87.98C410.54 81.92 404.22 77.79 398.21 74.48C389.66 70.74 389.79 60.81 388.45 52.9C386.83 44.34 381.62 32.19 374.92 24.73C370.46 19.94 365.31 16.35 359.69 19.23C356.89 20.8 355.26 24.3 352.46 25.33C349.47 26.6 345.26 24.88 343.88 28.73C342.34 32.95 342.2 39.27 341.25 43.23C340.9 45.59 339.53 47.81 336.78 46.79C329.86 44.6 321.38 39.84 323.33 51.51C325.26 66.3 342.38 76.21 338.8 91.54C336.96 98.27 333.55 104.06 335.74 110.77C356.7 169.77 451.43 235.14 423.67 310.49C419.34 323.71 411.07 313.7 407.45 306.34C403.54 298.53 401.24 290.07 396.15 282.38C380.44 255.4 357.93 254.48 337.52 239.39C323.3 227.41 313.27 191.35 291.16 208.6C286.29 212.32 278.75 211.22 272.8 211.52C252.66 211.88 263 238.71 271.23 250.97C275.07 256.84 283.12 259.81 286.82 265.59C287.71 267.11 288.08 268.93 286.93 270.37C284.96 272.94 278.99 274.61 277.16 278.49C271.7 291.7 295.83 305.34 308.26 310.32C333.62 321.91 346.29 296.28 357.43 305.92C361.92 311.03 366.11 317.72 372.59 320.76C380.69 324.95 388.31 325.29 393.56 332.67C397.47 337.69 398.83 344.66 392.38 348.23C361.31 365.43 323.12 345.31 294.6 330.92C287.32 327.24 278.54 323.95 272.12 318.94C263.28 312.05 255.22 303.54 247.19 295.7C230.47 279.39 213.75 262.61 193.31 250.95L193.15 250.87C186.51 247.34 179.33 246.44 173.31 241.51C169.78 236.88 167.23 231.2 165.17 225.9C163.34 221.2 160.07 216.7 156.19 213.42C155.66 210.87 151.56 208.7 149.4 208.04C142.07 205.94 135.18 211.9 128.92 213.9C125.85 214.86 122.95 213.76 120.08 212.45C117.62 211.36 114.31 209.88 112.2 211.76C107.94 216.15 111.91 233.67 113.91 239.16C114.51 241.2 115.74 243.72 114.79 245.66C113.41 247.57 110.59 247.05 108.08 247.32C84.5901 248.07 104.25 265.29 120.61 277.28C122.81 278.92 125.06 280.47 127.5 281.74C131.04 283.66 134.88 284.75 136.62 286.33C138.86 288.49 137.45 291.71 137.08 294.78C134.95 305.15 136.09 313.25 142.92 321.53C147.51 327.72 155.19 334.39 161.16 338.21C174.19 346.03 286.98 415.93 301.87 424.57C304.77 426.18 313.61 428.23 307.84 422.23C305.07 419.58 300.74 417.47 297.12 415.69C294.93 414.58 292.3 413.46 290.7 411.72C290.34 411.26 290.12 410.78 290.41 410.29C292.26 408.33 296.03 408.54 298.4 406.39C302.03 402.87 301.15 397.01 299.87 392.55C298.7 388.59 296.14 384.56 292.92 382.55C288.99 380.04 284.68 380.52 282.45 383.93C279.54 387.97 281.55 395.11 282.26 400.05C282.37 402.99 278.18 399.92 276.62 399.17C257.27 387.72 236.52 376.55 216.96 365.7C210.25 362.02 203.27 357.66 197.21 353.2C196.23 352.38 194.65 351.22 196.08 350.95C197.2 350.8 200.13 351.13 201.8 349.74C205.34 346.37 203.46 340.39 201.42 336.18C197.4 327.63 184.81 323.51 183.69 333.45C183.08 337.48 185.7 345.39 179.01 339.4C177.01 337.67 174.97 335.84 172.68 334.49C169.65 332.56 165.48 331.84 163.67 329.52C161.96 327.39 162.22 324.41 162.22 321.68C162.64 311.33 158.88 305.91 149.36 302.99C142.17 299.9 146.1 289.57 147.83 283.71C153.47 266.76 165.94 255.8 183.67 256.74C190.79 256.86 195.04 258.8 200.18 264.62C203.18 267.68 207.11 271.38 209.78 274.14C211.19 275.66 211.89 276.87 211.74 277.91C211.32 279.96 208.82 281.25 207.66 283.04C199.77 293.2 224.94 317.42 227.34 300.57C228.38 293.22 228.4 288.68 235.77 295.01C244.1 301.48 252.5 307.88 260.52 314.75C262.13 316.13 277.42 328.34 274.23 330.59C271.06 332.82 267.74 334.84 269.15 339.45C271.61 350.31 293.05 365.47 287.8 343.6C287.42 341.24 285.74 338.2 289.33 339.34C297.48 342.59 313.36 349.34 323.84 353.71C345 362.02 383.22 373.28 401.93 356.58C405.85 353.11 407.26 348.01 410.61 344.46C414.91 340.98 420.56 338.73 424.38 334.27C427.13 331.41 429.38 327.63 430.97 324.33C432.16 322.42 434.66 314.92 436.98 318.46C438.56 322.33 439.94 330.49 443.77 334.07C452.46 342.76 461.22 326.6 455.11 319.05C449.87 310.66 437.54 313.66 436.49 301.74C434.45 269.39 432.13 253.59 416.69 224.49C411.47 214.15 425.02 219.21 430.2 215.81C433.3 214.13 433.54 210.25 433.01 207.09C431.77 199.29 427.22 193.64 420.35 191.18C403.36 186.04 408.35 195.8 410.35 206.6C413.09 218.24 408.93 213.71 404.25 207.26C391.79 187.73 379.21 170.88 366.7 151.69C361.94 144.4 356.15 135.18 351.71 126.5C348.35 119.71 344.33 111.5 344.84 104.74C347.9 89.09 380.71 83.55 391.91 83.34C406.19 81.63 421.36 117.67 427.65 129.18C438.94 151.4 445.06 174.78 454.77 197.53C471.34 235.01 494.61 270.07 509.13 308.1C509.94 310.59 511.06 313.04 509.52 315.22C508.11 317.11 503.63 316.81 501.2 318.76C497.8 321.54 498.44 326.64 498.96 330.55C501.04 343.75 511.57 347.14 522.17 340.01C526.11 338.58 526.58 345.48 527.34 348.15C528.09 352.13 529.76 356.97 529.1 360.7C528.2 365.24 523.46 367.51 520.06 370.15C515.33 373.58 511.23 378.01 506.63 382.18C504.93 383.7 502.63 386.08 500.51 386.25C498.24 385.96 497.62 382.91 496.6 381C493.6 374.3 486.53 367.69 478.8 367.05C471.33 367.72 475.39 384.81 478.02 388.8C480.94 393.59 486.34 396.54 485.72 402.21C485.68 404.48 484.86 407.13 485.65 409.22C489.62 414.74 496.49 405.6 498.85 401.96C501.61 398.07 503.68 396.04 507.76 392.59C515.83 385.7 528.36 375.46 537.47 367.97C542.84 363.52 546.16 360.91 550.98 355.88C556.28 350.48 562.03 343.58 567.89 338.48C603.43 307.73 646.54 273.77 680.33 239.26C702.78 217.67 742.11 155.83 770.3 149.17C777.59 148.18 782.8 155.36 787.36 160.15C809.98 184.86 785.89 202.15 765.93 219.9C732.79 255.76 682.26 318.05 650.02 363.17C637.07 379.49 632.84 372.39 616.13 369.41C603.59 367.14 591.8 371.62 579.45 371.9C576.26 372.21 570.1 371.42 569.43 375.42C569.46 377.57 571.21 379.12 572.95 380.23C585.53 386.6 600.18 378.52 613.37 379.17C636.73 379.69 656.84 392.71 673.97 407.47C679.66 412 682.94 418.09 684.88 425.14C685.47 426.93 686.07 428.75 687.19 430.25C689.23 432.84 693.02 434.84 694.78 432.62L694.83 432.54C695.71 429.83 692.87 426.62 691.78 423.83C685 408.38 674.26 394.47 659.68 385.49L659.67 385.53ZM396.69 310.78C396.7 315.53 394.78 318.63 389.69 318.12C382.2 317.65 372.92 314.51 367.96 309.46C365.83 307.31 363.86 303.69 366.09 300.99C367.14 299.67 369.11 298.8 371.23 297.92C375.42 296.37 379.24 293.5 380.4 289.05C381.67 285.72 381.06 281.75 383.49 280.14L383.59 280.1C385.32 279.56 387.32 281.43 388.58 282.67C395.67 289.83 396.9 300.28 396.68 310.78H396.69ZM164.59 249.31C160.74 252.28 155.85 255.73 152.34 259.63C144.06 268.42 136.54 277.97 128.29 273.65C124.44 271.95 120.58 268.51 116.96 264.95C114.79 262.58 109.63 258.57 115.75 258.16C119.14 257.46 128.47 259.39 130.02 255.54C130.68 253.48 128.83 249.76 126.86 246.62C123.81 241.84 119.78 237.55 118.26 232.21C117.53 229.7 116.65 225.23 120.51 225.27C124.57 225.21 128.99 229.27 133.1 227.89C134.96 226.99 135.25 223.7 137.1 221.3C138.44 219.55 140.41 218.5 142.51 217.85C143.93 217.41 145.42 217.13 146.93 216.93C147.33 216.93 147.7 216.95 148 217.01C149.62 217.34 151.19 218.04 152.56 218.95C155.35 220.8 157.49 223.46 159.49 226.14C162.13 229.69 164.65 233.42 166.01 237.64C166.37 238.76 166.8 240.89 167.55 242.61C167.4 245.16 166.68 247.69 164.59 249.31ZM408.72 336.14C407.56 336.91 406.35 337.56 405 337.76C401.36 338.24 397.33 334.5 397.98 330.71C398.32 328.06 400.36 325.47 402.12 323.35C403.93 321.31 404.84 318.72 406.84 317.12C407.21 316.9 407.61 316.83 408.04 316.9C409.48 317.08 412.05 319.22 414.75 320.69C416.3 321.66 418.33 322.45 419.3 323.96L419.35 324.07C420.69 326.81 411.09 334.41 408.72 336.15V336.14ZM385.92 74.72C384.54 77.73 379.2 77 376.17 77.61C358.96 79.56 350.69 86.97 340.95 74.56C339.55 72.59 333.51 64.71 335 62.79C335.28 62.49 335.71 62.32 336.16 62.23C341.08 61.45 348.18 64.95 347.35 56.2C347.39 50.25 345.57 42.77 350.65 38.44C355.3 34.5 364.64 29.54 369.29 28.74C371.62 28.18 373.13 29.52 373.93 31.69C375.53 35.45 377.09 39.63 378.98 43.82C380.54 47.28 382.38 50.91 383.22 54.08L383.28 54.29C384.31 58.04 384.45 61.99 385.05 65.85C385.42 68.93 386.61 73.1 385.92 74.73V74.72Z" fill="#386641"/>
<path d="M476.4 278.31L476.53 278.21C478.3 276.83 478.55 274.32 478.39 272.17C477.64 260.32 471.36 248.34 460.55 245.32C458.98 244.9 457.15 244.86 455.91 245.86C453.99 247.37 453.79 250.62 453.76 253.04C453.57 267.42 456.09 278.09 470.31 279.5C472.36 279.7 474.86 279.5 476.4 278.32V278.31Z" fill="#386641"/>
<path d="M483.8 319.24L483.91 319.13C485.29 317.66 485.27 315.1 485.07 313.1C484.17 304.1 480.31 297.11 471.75 295.88C469.73 295.59 467.33 295.79 465.83 297.2C464.25 298.63 464.06 301.05 464.37 303.1C465.53 311.13 470.85 317.82 478.44 319.89C480.21 320.38 482.45 320.57 483.81 319.23L483.8 319.24Z" fill="#386641"/>
<path d="M435.66 368.51L435.5 368.55C423.27 373.11 433.92 394.84 447.31 393.36C450.62 393.04 454.25 391.37 456.28 388.82C463.24 379.35 444.13 366.11 435.66 368.51Z" fill="#386641"/>
<path d="M423.46 409.62C425.73 412.87 430 415.46 433.66 416.2L433.84 416.23C438.33 417.06 439.25 411.48 438.69 408.11C437.13 397.81 418.43 402.01 423.46 409.63V409.62Z" fill="#386641"/>
</svg>
