<svg width="1200" height="1200" viewBox="0 0 1200 1200" fill="none" xmlns="http://www.w3.org/2000/svg">
<path d="M828.2 371.22C827.86 371.69 827.51 372.15 827.16 372.61C817.66 385.07 805.75 395.46 796.02 407.73C791.25 413.74 786.93 420.22 784.09 427.38C782.7 430.87 781.67 434.51 781.12 438.24C780.57 441.97 781.64 445.88 778.31 448.3C776 449.98 773.65 451.62 771.11 452.92C769.05 453.97 766.89 454.8 764.84 455.88C760.75 458.04 750.92 463.8 752.56 469.62C753.19 471.87 755.55 473.08 757.68 474.04C760.73 475.42 764.64 474.97 763.97 479.51C763.07 485.58 756.46 488.77 752.52 493.47C752.24 493.8 751.97 494.15 751.86 494.57C751.4 496.36 754.1 497.32 755.83 496.68C757.56 496.04 759.21 494.68 761.03 495.04C763.64 495.56 764.23 499.15 763.4 501.68C762.57 504.21 760.92 506.63 761.22 509.28C761.29 509.94 761.51 510.62 762.01 511.07C762.99 511.96 764.59 511.56 765.69 510.82C766.79 510.08 767.73 509.04 769 508.64C771.67 507.82 774.31 510.34 775.11 513.01C775.91 515.68 775.56 518.57 776.12 521.3C776.41 522.7 776.98 524.12 778.13 524.98C780.82 526.99 783.37 523.73 785.08 521.99C789.32 517.69 793.99 514.53 797.84 509.74C801.69 504.95 805.15 499.76 808.5 494.58C811.6 489.78 814.57 484.9 817.62 480.07C818.72 478.34 820.69 473.63 822.77 472.8C825.32 471.22 831.19 472.95 834.9 471.66C840.9 469.57 861.49 441.84 867.9 434.68C897.57 401.55 923.65 371.26 957.98 341.94C963.96 336.84 972.83 333.26 979.83 329.6C986.23 332.95 1001.77 337.79 1009.48 340.52C1014.78 342.4 1024.23 343.44 1026.82 345.04C1032.54 348.59 1034.54 377.01 1039.86 386.2C1042.97 391.56 1047.34 394.16 1048.21 394.99C1050.54 397.19 1049.64 403.23 1063.09 403.94C1050.41 432.95 1075.26 463.07 1071.06 491.13C1069.33 502.68 1054.88 543.16 1060.11 551.52C1067.68 563.62 1097.2 535.67 1101.73 528.75C1096.28 601.33 1068.1 671.26 1015.51 721.96C1008.19 729.02 979.39 740.56 967.94 744.25C945.34 751.54 911.11 759.88 887.67 763.57C834.21 771.99 780.2 778.03 726.13 780.48C672.39 782.91 629.3 775.44 577.45 757.11C558.93 750.56 417.58 880.18 404.87 876.38C397.63 874.22 399.6 846.83 400.15 839.42C403.6 792.09 419.25 731.01 438.04 687.71C413.4 663.2 394.92 640.82 386.7 606.06C378.69 572.21 373.48 525.34 388.21 493.08C391.14 494.4 408.17 496.32 411.9 494.63C415.16 493.15 418.18 488.56 420.53 486.02C426.07 480.03 431.46 473.9 436.8 467.73C442.14 461.56 447.42 455.41 452.53 449.1C457.66 442.76 461.16 435.92 469.14 433.46C477.12 431 484.44 427.99 491.64 423.92C505.34 416.17 519.62 405.67 527.94 392.02C573.11 358.65 632.33 311.16 685.51 290.95C705.02 283.54 740.87 273.45 761.24 272.96C778.89 272.53 810.45 275.61 829.7 276.69C838.16 277.16 883.23 280.58 881.41 291.95C863.25 317.36 846.55 346.25 828.21 371.21L828.2 371.22Z" fill="#A7C957"/>
<path d="M582.85 1152.87C585.38 1157.46 578.44 1159.02 574.6 1159.82C466.16 1166.54 357.03 1167.46 248.64 1157.51C204.53 1153.16 157.27 1148.2 114 1138.13C82.2798 1130.95 58.0998 1120.35 37.7398 1094.08C13.4498 1062.51 29.4198 1042.13 62.4698 1034.51C96.0098 1026.54 128.73 1037.8 161.78 1043.58C164.66 1043.83 166.13 1043.42 165.92 1042.22C165.76 1041.21 164.4 1039.65 162.24 1037.69C126.33 1007.05 69.7798 962.14 74.3898 914.51C75.7498 905.43 80.6398 894.19 89.5498 890.74C97.5398 887.94 106.62 892.59 114.91 895.76C136.89 905.24 158.79 917.79 178.66 929.69C193.74 938.66 208.24 949.06 220.78 961C224.33 963.98 229.79 968.68 229.82 961.81C229.94 958.87 229.38 954.1 230.22 950C231.55 942.44 239.07 938.18 246.26 937.07C266.51 934.01 286.51 945.95 301.75 958.9C305.38 962.07 309.22 966.05 312.33 969.08C317.61 974.31 321.16 976.51 317.39 966.07C284.43 887.33 252.35 809.83 221.68 730.19C219.29 726.39 216.07 723.24 212.38 720.71C205.65 716.03 197.41 713.33 193.48 706.36C186.68 695.16 191.35 676.2 202.29 669.93C216.23 661.93 235.17 679.73 234.35 695.56C232.85 710.98 223.47 717.07 230.28 734.4C248.41 778.6 262.92 824.23 282.71 867.69C295.31 895.83 308.86 923.75 319.73 952.59C321.04 956.01 323 960.42 324.99 962.52C330.73 968.76 336.73 962.78 337.82 956.28C338.68 952.36 338.29 947.77 337.46 943.59C334 926.98 330.37 910.31 327.37 893.62C325.6 882.4 322.16 869.95 323.82 858.71C326.45 849.1 330.5 869.28 331.36 873.45C335.83 894.58 341.11 928.63 345.02 948.43C346.1 954.05 347.25 958.38 349.35 961.96C353.7 969.22 360.86 973.77 366.88 980.55C374.47 988.83 380.66 998.5 387.44 1007.45C399.62 1023.82 416.68 1040.34 431.99 1055.34C442.98 1065.82 455.41 1077.68 466.93 1086.16C474.49 1091.43 481.38 1095.44 489.07 1100.9C511.2 1116.69 544.68 1134.72 568.97 1144.76C573.61 1146.78 580.19 1149.14 582.82 1152.79L582.87 1152.87H582.85Z" fill="#6A994E"/>
<path d="M760.57 1042.97C761.74 1039.55 764.64 1035.61 767.2 1032.47C784.8 1012.25 823.75 955.96 850.62 956.07C858.2 956.19 864.09 961.86 868.76 967.34C875.76 975.41 884.09 982.26 890.99 990.36C896.93 997.26 902.32 1004.64 907.86 1011.94C912.19 1017.83 916.67 1023.49 920.08 1029.34C925.5 1039.16 930.01 1052.25 921.53 1061.48C915.59 1067.95 907.12 1072.23 900.79 1078.35C888.49 1090.15 878.48 1104.24 866.42 1117.05C862.17 1121.74 857.86 1126.93 853.8 1131.56C849.29 1136.61 844.64 1141.01 837.64 1141.36C829.53 1141.78 821.57 1137.92 815.75 1132.49C802.15 1120.55 754.38 1059.16 760.51 1043.12L760.56 1042.98L760.57 1042.97ZM858.08 995.14C854.55 992.88 849.5 994.06 846.73 997.13C844.93 999.13 844.04 1001.88 843.31 1004.53C841.66 1010.8 839.86 1019.8 838.62 1027.2C837.2 1034.61 837.1 1041.32 827.52 1040.23C814.42 1038.76 793.66 1040.52 785.76 1046.57C783.52 1048.15 781.86 1050.83 783.83 1053.22C790.76 1059.94 807.25 1060.07 818.87 1060.94C823.2 1061.43 828.9 1060.37 831.91 1063.81C834.24 1067.78 833.38 1072.45 833.61 1077.93C833.68 1086.19 833.44 1097.59 833.76 1105.21C833.96 1118.09 844.47 1112.44 849.32 1106.16C854.11 1100.08 855.89 1092.63 857.13 1084.84C858.57 1077.7 857.31 1069.53 862.26 1065.26C865.73 1062.74 870.19 1063.31 874.37 1063.49C880.14 1063.94 886.81 1064.15 891.87 1061.74C899.42 1058.41 902.16 1048.96 893.96 1045.09C886.21 1041.44 875.39 1043.59 867.81 1041.87C860.92 1040.08 862 1032.18 861.78 1026.07C861.78 1022.76 861.78 1019.12 861.78 1015.58C861.38 1008.79 863.32 998.96 858.19 995.21L858.09 995.14H858.08Z" fill="#BC4749"/>
<path d="M337.27 775.08C333.73 780.6 318.54 776.97 313.9 772.51C312.18 774.71 329.18 853.16 329.35 861.34C329.46 866.66 329.71 872.78 323.32 874.54C321.53 855.01 314.13 797.11 309.57 778.3C304.68 758.14 286.06 753.32 292.87 726.8C312.41 707.04 343.61 765.19 337.26 775.1L337.27 775.08Z" fill="#6A994E"/>
<path d="M1033.16 998.88C1042.84 997.72 1053.99 994.68 1065.09 991.55C1073.7 989.11 1082.7 986.39 1090.56 983.89C1096.79 981.89 1103.45 979.62 1108.48 976.48C1113.4 973.62 1120.26 966.6 1114.29 961.72C1105.13 955.54 1087.82 960.91 1077.14 963.15C1060.59 967.38 1040.67 972.27 1024.94 978.02C1018.15 980.36 1007.78 988.38 1013.63 995.51C1018.26 1000.24 1026.17 999.69 1032.98 998.9L1033.17 998.88H1033.16Z" fill="#BC4749"/>
<path d="M1065.09 817.36C1066.98 812.11 1062.27 808.06 1057.22 806.15C1053.03 804.54 1048.06 804.3 1043.48 804.37C1026.52 804.37 1011.45 811.71 995.82 817.1C989.9 819.25 983.47 821.88 979.26 826.43C975.27 830.38 972.85 837.78 978.88 840.42C981.61 841.48 984.47 841.24 988.09 840.66C993.09 839.76 998.5 838.42 1003.76 837.45C1019.27 834.57 1038.78 831.5 1052.75 826.85C1057.59 825.36 1063.46 821.85 1065.05 817.47L1065.09 817.36Z" fill="#BC4749"/>
<path d="M1003.83 909.98C1009.31 911.76 1016.85 910.34 1022.78 909.09C1040.26 905.28 1064.98 898.04 1080.21 891.07C1083.4 889.59 1086.53 887.85 1089.14 885.72C1096.7 879.85 1103.21 866.52 1089.78 868.16C1078.79 869.84 1066.92 873.68 1055.48 876.77C1047.13 879.17 1039.04 881.61 1030.92 884.4C1021.72 887.98 1001.45 893.22 998.95 903.38C998.34 906.53 1000.82 909.02 1003.69 909.93L1003.82 909.97L1003.83 909.98Z" fill="#BC4749"/>
<path d="M976.11 1013.27C979.3 1008.09 981 1001.15 981.03 994.33C981.11 984.61 977.8 972.75 968.23 969.14C962.14 966.92 955.2 969.43 950.67 974.11C943.07 981.84 941.08 994.03 944.02 1004.21C948.76 1021.63 966.4 1029.07 976 1013.43L976.1 1013.27H976.11Z" fill="#BC4749"/>
<path d="M953.77 897.87C935.05 887.56 923.39 905.67 924.26 923.83C924.46 928.63 925.69 933.67 928.43 937.58C934.3 946.48 946.59 946.09 954.43 939.65C968.76 928.69 970.8 907.83 953.95 897.97L953.77 897.86V897.87Z" fill="#BC4749"/>
<path d="M927.62 819.81C916.18 821.53 908.73 834.94 907.85 846.06C907.05 854.16 908.55 863 914.85 868.06C919.92 872.17 927.21 871.7 932.48 868.08C948.68 857.88 952.54 818.13 927.79 819.79L927.62 819.82V819.81Z" fill="#BC4749"/>
<path d="M1170.43 1043.78C1171.94 1033.58 1171.36 1022.92 1171.14 1012.59C1170.17 981.28 1160.7 950.92 1151.64 921.03C1142.76 892.24 1133.47 863.42 1124.1 834.81C1113.63 803.03 1102.95 767.93 1089.2 737.7C1086.14 731.28 1082.41 723.96 1078.38 720.96C1070.03 714.47 1056.01 717.43 1045.51 718.7C1030.56 720.89 1015.91 723.85 1002.4 730.59C991.2 735.95 979.52 741.16 967.76 745.07C947.74 751.74 926.74 756.74 905.54 761.15C883.79 765.41 861.91 772.14 859.36 796.82C858.29 804.77 858.54 814.14 858.68 821.61C858.83 826.49 858.99 831.49 859.85 836.21C872.73 879.88 893.14 939.72 908.14 987.62C913.04 1003.43 916.96 1014.22 921.46 1028.79C926.98 1049.41 934.15 1073.1 948.66 1089.79C963.78 1107.78 990.55 1111.99 1013.48 1110.28C1026.25 1109.29 1038.69 1106.62 1051.2 1103.9C1085.17 1096.43 1117.86 1084.29 1149.21 1069.69C1160.25 1064.48 1168.71 1056.3 1170.4 1043.95L1170.43 1043.77V1043.78ZM1163.41 1035.51C1160.09 1065.73 1137.49 1069.41 1112.62 1076.37C1091.45 1082.23 1057.98 1092.71 1037.46 1098.16C1024.8 1101.63 1011.76 1102.96 998.56 1102.76C985.03 1102.76 970.23 1100.37 961.49 1093.2C956.82 1089.67 952.7 1084.98 948.75 1078.84C940.25 1065.39 936.32 1041.16 930.52 1026.19C906.77 965.14 886.1 903.67 871.14 841.96C868.42 831.98 865.16 821.39 864.14 811.15C861.9 790.65 871.76 780.53 891.16 775.57C937.11 765.07 982.91 740.06 1028.14 730.62C1040.06 728.42 1053.24 727.03 1065.16 728.14C1079.62 729.44 1080.6 748.75 1086.26 760.76C1116.4 831.81 1146.11 913.89 1157.81 986.25C1159.12 997.83 1164.96 1023.12 1163.43 1035.33L1163.4 1035.52L1163.41 1035.51Z" fill="#BC4749"/>
<path d="M749 854.48C713.7 790.3 667.48 770.61 596.1 771.54C576.87 771.54 557.19 771.56 539.51 779.7C526.29 785.59 514.71 794.81 503.66 804.01C475.73 827.93 454.7 862.96 436.18 895.37C427.96 910.54 420.85 924.91 416.79 941.01C408.2 974.21 416.49 1009.74 433.84 1038.91C448.23 1062.49 466.44 1085.2 487.88 1101.47C499.5 1110.09 512.79 1117.92 525.76 1125.03C548.44 1137.28 573 1149.55 598.17 1152.52C622.5 1155.6 648.89 1155.16 672.26 1149.15C703.87 1141.24 726.45 1120.6 741.43 1092.2C754.01 1069.82 759.88 1044.68 764.26 1019.64C776.2 960.76 779.85 908.83 749.09 854.66L748.99 854.48H749ZM668.88 1032.47C663.91 1042.64 659.55 1053.19 655.2 1063.73C650.45 1075.25 644.84 1089.49 636.16 1096.91C620.14 1111.13 601.19 1097.35 587.38 1086.45C556.8 1061.8 521.78 1043.31 490.71 1019.31C475.2 1007.01 468.26 992.24 478.52 973.92C486.08 961.02 498.83 940 511.47 937.67C520.92 936.55 527.43 944.69 533.95 950.79C545.1 961.78 571.82 989.09 588.18 979.27C595.31 974.89 598.56 965.66 602.34 958.22C610.7 940.23 622.89 924.43 633.85 907.82C640.05 898.62 644.03 888.02 648.82 878.28C652.22 871.66 656.47 866.53 663.97 864.64C674.96 862.04 689.85 865.49 701.24 868.99C714.43 873.48 730.52 879.68 733.05 893.94C736.12 924.08 683.9 999.95 668.96 1032.32L668.88 1032.49V1032.47Z" fill="#386641"/>
<path d="M1110.75 438.43V438.23C1111.01 410.5 1120.96 387.51 1091.12 371.47C1086.16 369.21 1083.3 366.19 1080.8 361.65C1074.6 352.28 1061.73 344.78 1051.76 341.93C1046.57 339.92 1047.63 333.04 1046.05 328.44C1045.23 325.14 1044.2 321.93 1043.94 318.56C1043.64 315.33 1044.06 312 1043.6 308.51C1042.93 303.04 1041.1 297.72 1039.52 292.43C1035.81 277.57 1032.71 270.8 1021.67 259.95C1019.02 256.86 1014.21 253.96 1012.3 250.51C1010.88 247.77 1013.08 245.26 1014.42 242.93C1016.01 240.25 1016.8 237.08 1016.42 233.98C1015.06 224.48 1003.09 215.83 994.13 213.84C983.04 211.61 971.47 211.1 960.24 211.98C956.11 212.45 951.98 212.08 948.27 210.07C934.86 202.64 920.51 194.41 907.33 187.66C884.86 176.21 861.66 167 838.14 156.95C835.79 155.94 833.56 154.35 832.34 152.17C831.01 150.01 830.36 147.48 828.77 145.47C818.53 135.79 808.32 130.84 794.22 122.84C747.12 98.05 682.44 72.23 642.04 60.45C622.54 54.85 600.44 54.33 584.71 59.84C528.73 77.83 504.94 153.62 497.69 213.67C496.26 231.31 496.18 257.76 492.36 270.93C491.4 274.21 490.28 276.54 487.71 278.64C479.49 286.36 458.21 300.94 448.69 312.3C435.3 329.86 402.65 375.77 400.09 395.72C400.19 401.07 406.41 400.59 402.88 406.16C399.05 412.79 394.89 423.3 387.36 426.43C386.04 426.78 384.96 426.39 383.82 425.75C373.28 420.65 329.3 385.02 318.24 406.93C314.07 417.48 318.92 426.95 326.25 436.03C341.43 454.57 364.23 465.79 378.24 480.28C380.78 483.33 383.65 487.8 385.76 490.38C387.09 491.99 388.32 492.95 390.05 493.55C395.68 495.14 403.98 495.61 409.34 495.06C411.29 494.77 412.34 494.28 413.65 493.11C422.54 485 447.88 454.81 458.82 441.21C462.8 439 466.02 434.58 470.46 433.9C475.47 433.24 481.52 430.76 488 426.96C503.03 418.2 520.56 402.57 534.27 388.48C576.94 353.54 630.7 314.33 679.85 293.16C686.7 290.35 692.92 288.16 700.06 285.88C720.44 279.68 742.5 273.4 763.54 272.9C780.09 272.76 805.07 275.04 824.44 276.3C839.11 277.23 855.95 278.53 870.29 283.04C880.15 286.55 883.72 289.47 877.03 298.21C857.35 326.04 841.02 356.94 818.9 382.43C808.24 394.3 795.8 405.9 787.89 419.88C784.49 425.88 782.11 432.29 781.16 439.08C780.91 440.54 780.63 442.06 780.11 443.38C779.19 445.87 777.13 447.45 774.87 448.72C768.11 452.83 746.5 465.21 749.06 472.89C750.97 476.48 757.56 474.3 759.96 475.78C764.13 478.95 751.66 488.23 750.6 492.04C748.67 495.66 749.18 499.87 754.51 499.08C763.02 497.68 758.32 505.82 758.55 510.54C758.7 514.41 762.79 515.25 766.05 514.26C769.79 513.24 772.56 513.85 771.81 518.26C771.35 521.28 770.03 524.59 770.58 527.47C771.02 530.68 774.13 532.58 777.32 531.16C782.53 528.75 786.17 523.74 790.08 519.67C795.22 513.86 800.45 508.21 804.87 501.64C809.48 494.93 813.03 487.61 817.33 480.7C824.22 467.54 831.69 476.11 839.75 467.97C849.27 458.75 861.28 442.12 871.01 431.35C900.48 398.88 927.42 366.36 962.39 338.95C982.57 326.53 979.72 330.54 1000.05 338.5C1005.41 340.66 1009.66 342.46 1015.21 343.28C1019.82 344.32 1026.12 343.26 1028.74 347.92C1034.08 358.66 1034.04 380.25 1041.19 391.48C1044.68 395.87 1049.24 400.47 1053.88 403.14C1056.99 404.78 1062.66 404.1 1061.15 410C1053.3 439.43 1075.65 467.34 1066.69 496.34C1064.13 507.18 1061.05 519.37 1058.86 530.74C1057.79 538.36 1053.48 554.49 1060.57 557.09C1071.8 560.59 1091.97 539.85 1098.18 533.38C1121.63 505.98 1112.17 470.87 1110.74 438.42L1110.75 438.43ZM822.38 154.43C820.59 179.18 817.83 255.98 815.65 269.9L815.61 269.94C812.4 272.03 807.18 271.79 802.29 271.87C786.19 271.66 764.78 268.4 748.95 267.49C731.06 267.24 710.19 276.16 692.61 282.36C653.65 297.36 600.02 327.86 557.57 361.45C541.24 375.09 522.05 392.71 507.41 404.74C497.2 413.78 488.55 427.09 476.04 426.64C470.22 426.4 464.45 423.44 459.88 420.35C459.01 419.78 457.85 419.03 456.49 418.16C468.25 399.59 482.16 382.48 497.67 366.92C513.57 350.97 539.69 334.03 558.24 321.27C577.45 308.05 589.14 299.11 610.13 288.97C633.13 277.86 656.92 268.45 681.08 260.18C705.36 251.88 730.02 244.73 754.82 238.17C757.81 237.38 760.79 236.6 763.78 235.82C766.89 235.01 765.57 230.19 762.45 231C737.46 237.47 714.74 240.01 690.23 248.1C665.71 256.2 639.4 269.86 615.96 280.69C594.23 290.73 573.14 302.2 553.17 315.43C534.16 328.03 516.12 342.17 499.65 357.96C483.3 373.63 468.5 390.96 455.93 409.81C454.67 411.69 453.46 413.6 452.25 415.51C443.3 410 429.93 402.32 420.65 399.52C399.56 393.82 417.68 371.79 423.49 360.4C453.98 306.64 499.05 274.02 549.23 243.15C573.2 228.57 598.47 216.49 623.16 203.3C625.03 202.25 626.69 200.87 627.42 199.56C628.51 197.79 627.33 196.4 624.71 196.79C582.72 212.47 545.6 238.9 507.94 262.75C503.37 265.86 500.89 265.98 501.04 259.63C501.26 208.93 509.45 156.32 535.4 112.01C557.57 73.32 581.73 58.45 626.84 64.53C632.16 65.03 637.34 66.25 642.13 68.46C652.95 73.3 664.02 77.57 675.23 81.58C717.59 97.02 762.43 107.68 798.74 135.3C801.98 137.61 805.17 139.92 808.33 142.11C812.58 145.16 816.76 147.62 820.92 150.35C821.13 150.5 821.31 150.65 821.47 150.79C822.74 151.85 822.45 152.61 822.38 154.44V154.43ZM953.59 218.85C961.56 217.03 969.99 216.26 978.06 217.43L978.26 217.46C988.67 219.4 1003.62 220.85 1009.82 230.48C1012.16 234.42 1011.12 239.24 1007.89 242.36C998.93 250.74 977.55 256.22 965.34 258.77C962.91 259.22 959.98 259.48 957.88 258.27C954.42 256.45 955.22 252.15 957.88 249.98C960.5 247.33 964.68 246.26 966.81 243.2C968.49 240.44 964.59 239.38 962.45 239.69C958.15 239.99 953.84 241.51 949.63 240.4C947.58 239.96 945.34 237.82 947.51 235.96C949.07 234.53 952.11 234.11 954.16 233.37C956.26 232.74 958.31 230.71 955.83 229.22C952.27 227.42 945.87 229.45 942.77 225.81C939.32 221.11 950.79 219.74 953.59 218.85ZM810.49 476.18L810.46 476.36C809.79 480.06 807.59 483.19 805.95 486.63C801.61 496.65 795.53 505.73 789.15 514.53C787.65 516.61 786.12 518.91 784.01 520.37C780.99 522.63 777.26 521.19 776.91 517.45C775.79 514.17 782.58 503.49 776.63 502.69C773.41 502.67 768.25 507.64 765.47 503.75C763.5 500.51 766.14 495.94 765.26 492.56C764.8 490.68 762.79 490.22 761.47 489.16C760.27 488.29 760.38 486.77 761.04 485.56C762.56 482.27 770.69 475.21 765.73 471.48C763.8 470.29 760.43 470.59 759.43 468.65C758.91 466.47 761.8 464.66 763.44 463.48C769.06 459.74 775.12 456.59 781.46 454.17C783.83 453.29 786.38 452.51 788.91 452.7C793.06 452.96 796.27 455.89 799.36 458.4C805.02 463.16 811.53 469.2 810.5 476.19L810.49 476.18ZM1025.85 337C1023.65 339.16 1016.03 337.82 1015.11 337.55C1008.38 335.53 993.8 324.66 982.86 323.75C978.69 323.4 974.51 324.74 970.85 326.73C962.42 331.35 958.95 338.31 952.36 343.56C943.3 350.88 932.61 357.61 923.52 364.9C891.04 391.47 869.06 432.49 835.91 459.9C833.51 461.68 830.77 463.02 827.86 463.4C814.27 465.16 802.18 448.57 790.92 444.21C789.54 443.68 788.01 442.94 787.38 441.7C786.55 440.39 787.4 437.54 788.19 435.66C790.38 430.33 792.83 425.49 795.44 420.96C801.61 410.27 809.11 400.97 816.91 391.05C841.86 357.57 868.9 325.19 889.79 288.92C893.46 283.02 891.38 280.29 884.86 278.46C875.86 275.93 866.79 275.67 857.55 274.73C849.36 273.89 841.42 270.73 833.04 269.77C831.11 269.55 829.09 269.34 827.48 268.25C821.19 263.97 824.89 246.85 825.27 240.17C825.86 229.79 826.5 219.42 827.13 209.04C827.69 199.88 828.57 190.74 829.1 181.58C829.52 174.31 827.28 163.14 837.98 163.49C846.94 163.78 857.71 170.26 865.71 173.87C891.16 185.35 915.8 198.76 939.88 212.84C942.78 214.97 941.14 216.27 938.92 217.48C937.3 218.39 935.53 219.52 934.52 221.1C931.76 225.35 935.44 228.14 937.89 230.91C938.89 232.19 939.07 233.74 939.26 235.32C939.79 242.86 947.67 242.53 952.04 244.8C952.59 245.2 952.87 245.79 952.85 246.47C952.56 249.22 950.59 252.01 951.13 254.9C952.89 263.63 964.76 264.11 971.92 263.18C981.02 261.89 990.01 258.51 998.45 255.1C1004.54 252.18 1009.47 256.51 1013.94 260.25C1026.34 270.17 1036.66 281.32 1038.57 297.7C1039.32 302.3 1039.85 307.03 1040.63 311.6C1040.95 313.61 1042.14 320.41 1041.11 322.09C1040.25 323.56 1038.83 324.71 1037.47 325.79C1033.59 328.79 1029.38 333.42 1025.84 336.97L1025.85 337ZM938.68 224.27C938.54 224.17 938.41 224.07 938.51 224.04C938.66 223.99 938.7 224.11 938.68 224.27ZM1032.47 345.59C1023.42 343 1031.83 331.04 1039.86 329.83H1040.01C1042.26 330.19 1042.83 334.33 1043.77 336.3C1044.19 337.44 1044.64 338.53 1044.89 339.68C1045.88 345.74 1036.48 346.57 1032.47 345.59ZM1068.99 373.85C1066.02 376.56 1062.08 379.37 1060.17 382.4L1060.08 382.54C1057.92 386.21 1057.58 392.8 1054.81 395.54C1051.73 398.36 1049.2 393.13 1048.18 390.49C1045.08 382.85 1041.78 374.11 1040.42 369.46C1039.94 367.82 1039.73 366.37 1039.91 364.6C1040.15 362.24 1040.94 359.7 1041.84 357.46C1043.09 354.42 1044.16 351.38 1046.46 349.7C1056.06 343.68 1068.92 358.24 1074.36 366.77C1075.24 369.83 1071.61 371.25 1068.99 373.86V373.85Z" fill="#386641"/>
<path d="M685.47 227.2C671.47 231.45 662.43 231.49 648.83 236.89C635.1 242.34 621.83 247.75 608.59 254.31C595.48 260.81 577.61 273.25 565.08 280.81C552.49 288.4 540.21 296.52 528.29 305.13C516.37 313.74 504.8 322.83 493.64 332.4C492.22 333.61 490.81 334.83 489.41 336.06C488.39 336.95 488.5 338.69 489.41 339.6C490.42 340.61 491.93 340.49 492.95 339.6C503.86 330.06 515.15 320.97 526.82 312.37C538.54 303.73 550.62 295.58 563.01 287.94C575.4 280.29 588.11 273.16 601.09 266.55C614 259.98 627.18 253.92 640.59 248.44C654.07 242.93 667.77 237.98 681.66 233.61C683.37 233.07 685.08 232.54 686.8 232.02C689.87 231.09 688.56 226.26 685.47 227.2Z" fill="#386641"/>
<path d="M797.35 171.48C771.61 170.68 750.16 170.16 725.47 177.28C700.57 184.46 672.38 199.2 649.02 210.35C635.82 216.65 622.8 223.32 609.83 230.08C606.98 231.57 609.5 235.88 612.35 234.4C635.14 222.53 658.11 210.88 681.89 201.09C705.43 191.4 729.83 183.46 754.99 179.34C768.98 177.05 783.17 176.04 797.34 176.48C800.56 176.58 800.56 171.58 797.34 171.48H797.35Z" fill="#386641"/>
<path d="M650.89 113.74C659.29 116.37 667.63 119.23 675.88 122.31C692.33 128.44 708.45 135.45 724.16 143.3C726.11 144.28 728.06 145.27 730 146.27C732.86 147.74 735.39 143.43 732.52 141.95C716.39 133.63 699.82 126.19 682.9 119.65C674.54 116.42 666.09 113.41 657.57 110.64C648.96 107.83 640.25 105.07 631.44 102.96C626.94 101.89 622.26 101.11 617.61 101.39C613.44 101.64 609.46 102.73 605.66 104.43C598.44 107.65 592.32 113.05 586.81 118.62C575.28 130.28 565.41 143.57 557.11 157.69C548.8 171.83 542.03 186.85 536.46 202.27C535.76 204.2 535.09 206.13 534.43 208.07C533.39 211.12 538.22 212.43 539.25 209.4C544.37 194.35 555.61 177.29 563.29 163.36C570.93 149.49 567.44 151.91 578.14 140.21C583.32 134.55 590.45 121.81 596.97 117.68C600.14 115.67 609.42 108.01 613.07 107.1C617.04 106.12 621.19 106.15 625.21 106.79C629.59 107.49 633.87 108.73 638.14 109.94C642.41 111.15 646.67 112.43 650.91 113.76L650.89 113.74Z" fill="#386641"/>
</svg>
